M48
; DRILL file {KiCad (5.1.2)-1} date 6/7/2019 7:51:16 PM
; FORMAT={-:-/ absolute / inch / decimal}
; #@! TF.CreationDate,2019-06-07T19:51:16-04:00
; #@! TF.GenerationSoftware,Kicad,Pcbnew,(5.1.2)-1
; #@! TF.FileFunction,Plated,1,2,PTH
FMAT,2
INCH
T1C0.0315
T2C0.0394
T3C0.0394
T4C0.0787
%
G90
G05
T1
X3.2974Y-5.3162
X3.8051Y-5.3162
X3.9051Y-5.3162
X4.0051Y-5.3162
X2.8005Y-5.3162
X2.9005Y-5.3162
X3.0005Y-5.3162
X4.2985Y-5.3126
X4.3985Y-5.3126
X4.4985Y-5.3126
X3.3974Y-5.3162
X3.4974Y-5.3162
T2
X3.7642Y-4.6497
X3.8626Y-4.8466
X3.9611Y-4.6497
X2.7531Y-4.6583
X2.8515Y-4.8552
X2.95Y-4.6583
X3.2587Y-4.6583
X3.3571Y-4.8552
X3.4556Y-4.6583
X4.412Y-5.8295
X3.9259Y-5.8475
X3.3894Y-5.8475
X4.2568Y-4.6583
X4.3552Y-4.8552
X4.4537Y-4.6583
X2.8745Y-5.8475
T3
X3.7701Y-6.0742
X3.8951Y-6.0742
X4.0201Y-6.0742
X3.7963Y-5.581
X3.9213Y-5.581
X4.0463Y-5.581
X3.2742Y-5.5954
X3.3992Y-5.5954
X3.5242Y-5.5954
X4.272Y-6.0767
X4.397Y-6.0767
X4.522Y-6.0767
X2.77Y-5.6026
X2.895Y-5.6026
X3.02Y-5.6026
X2.7763Y-6.0767
X2.9013Y-6.0767
X3.0263Y-6.0767
X3.2707Y-6.0767
X3.3957Y-6.0767
X3.5207Y-6.0767
X4.2824Y-5.5702
X4.4074Y-5.5702
X4.5324Y-5.5702
T4
X3.4067Y-6.5043
X3.911Y-6.5068
T0
M30
