G04 #@! TF.GenerationSoftware,KiCad,Pcbnew,(5.1.2)-1*
G04 #@! TF.CreationDate,2019-06-07T19:51:13-04:00*
G04 #@! TF.ProjectId,version-0-2,76657273-696f-46e2-9d30-2d322e6b6963,rev?*
G04 #@! TF.SameCoordinates,Original*
G04 #@! TF.FileFunction,Copper,L1,Top*
G04 #@! TF.FilePolarity,Positive*
%FSLAX46Y46*%
G04 Gerber Fmt 4.6, Leading zero omitted, Abs format (unit mm)*
G04 Created by KiCad (PCBNEW (5.1.2)-1) date 2019-06-07 19:51:13*
%MOMM*%
%LPD*%
G04 APERTURE LIST*
%ADD10C,0.150000*%
%ADD11C,0.381000*%
%ADD12R,4.500880X4.500880*%
%ADD13C,4.500880*%
%ADD14R,2.499360X2.499360*%
%ADD15C,2.499360*%
%ADD16R,1.000000X1.500000*%
%ADD17C,1.440000*%
%ADD18C,1.550000*%
%ADD19R,1.550000X1.550000*%
%ADD20C,1.000000*%
G04 APERTURE END LIST*
D10*
X62079761Y-162121904D02*
X63365476Y-162979047D01*
X63127380Y-161788571D02*
X62460714Y-161788571D01*
X62651190Y-161788571D02*
X62555952Y-161740952D01*
X62508333Y-161693333D01*
X62460714Y-161598095D01*
X62460714Y-161502857D01*
X62079761Y-160455238D02*
X63365476Y-161312380D01*
X63127380Y-159979047D02*
X63079761Y-160074285D01*
X63032142Y-160121904D01*
X62936904Y-160169523D01*
X62651190Y-160169523D01*
X62555952Y-160121904D01*
X62508333Y-160074285D01*
X62460714Y-159979047D01*
X62460714Y-159836190D01*
X62508333Y-159740952D01*
X62555952Y-159693333D01*
X62651190Y-159645714D01*
X62936904Y-159645714D01*
X63032142Y-159693333D01*
X63079761Y-159740952D01*
X63127380Y-159836190D01*
X63127380Y-159979047D01*
X62460714Y-159312380D02*
X63127380Y-159074285D01*
X62460714Y-158836190D01*
X63079761Y-158074285D02*
X63127380Y-158169523D01*
X63127380Y-158360000D01*
X63079761Y-158455238D01*
X62984523Y-158502857D01*
X62603571Y-158502857D01*
X62508333Y-158455238D01*
X62460714Y-158360000D01*
X62460714Y-158169523D01*
X62508333Y-158074285D01*
X62603571Y-158026666D01*
X62698809Y-158026666D01*
X62794047Y-158502857D01*
X63127380Y-157598095D02*
X62460714Y-157598095D01*
X62651190Y-157598095D02*
X62555952Y-157550476D01*
X62508333Y-157502857D01*
X62460714Y-157407619D01*
X62460714Y-157312380D01*
X63079761Y-156550476D02*
X63127380Y-156645714D01*
X63127380Y-156836190D01*
X63079761Y-156931428D01*
X63032142Y-156979047D01*
X62936904Y-157026666D01*
X62651190Y-157026666D01*
X62555952Y-156979047D01*
X62508333Y-156931428D01*
X62460714Y-156836190D01*
X62460714Y-156645714D01*
X62508333Y-156550476D01*
X63127380Y-155979047D02*
X63079761Y-156074285D01*
X62984523Y-156121904D01*
X62127380Y-156121904D01*
X63127380Y-155455238D02*
X63079761Y-155550476D01*
X63032142Y-155598095D01*
X62936904Y-155645714D01*
X62651190Y-155645714D01*
X62555952Y-155598095D01*
X62508333Y-155550476D01*
X62460714Y-155455238D01*
X62460714Y-155312380D01*
X62508333Y-155217142D01*
X62555952Y-155169523D01*
X62651190Y-155121904D01*
X62936904Y-155121904D01*
X63032142Y-155169523D01*
X63079761Y-155217142D01*
X63127380Y-155312380D01*
X63127380Y-155455238D01*
X63079761Y-154264761D02*
X63127380Y-154360000D01*
X63127380Y-154550476D01*
X63079761Y-154645714D01*
X63032142Y-154693333D01*
X62936904Y-154740952D01*
X62651190Y-154740952D01*
X62555952Y-154693333D01*
X62508333Y-154645714D01*
X62460714Y-154550476D01*
X62460714Y-154360000D01*
X62508333Y-154264761D01*
X63127380Y-153836190D02*
X62127380Y-153836190D01*
X62746428Y-153740952D02*
X63127380Y-153455238D01*
X62460714Y-153455238D02*
X62841666Y-153836190D01*
X63127380Y-153026666D02*
X62460714Y-153026666D01*
X62127380Y-153026666D02*
X62175000Y-153074285D01*
X62222619Y-153026666D01*
X62175000Y-152979047D01*
X62127380Y-153026666D01*
X62222619Y-153026666D01*
X62460714Y-152550476D02*
X63127380Y-152550476D01*
X62555952Y-152550476D02*
X62508333Y-152502857D01*
X62460714Y-152407619D01*
X62460714Y-152264761D01*
X62508333Y-152169523D01*
X62603571Y-152121904D01*
X63127380Y-152121904D01*
X62460714Y-151217142D02*
X63270238Y-151217142D01*
X63365476Y-151264761D01*
X63413095Y-151312380D01*
X63460714Y-151407619D01*
X63460714Y-151550476D01*
X63413095Y-151645714D01*
X63079761Y-151217142D02*
X63127380Y-151312380D01*
X63127380Y-151502857D01*
X63079761Y-151598095D01*
X63032142Y-151645714D01*
X62936904Y-151693333D01*
X62651190Y-151693333D01*
X62555952Y-151645714D01*
X62508333Y-151598095D01*
X62460714Y-151502857D01*
X62460714Y-151312380D01*
X62508333Y-151217142D01*
X62460714Y-150074285D02*
X63127380Y-149836190D01*
X62460714Y-149598095D01*
X63127380Y-149217142D02*
X62460714Y-149217142D01*
X62555952Y-149217142D02*
X62508333Y-149169523D01*
X62460714Y-149074285D01*
X62460714Y-148931428D01*
X62508333Y-148836190D01*
X62603571Y-148788571D01*
X63127380Y-148788571D01*
X62603571Y-148788571D02*
X62508333Y-148740952D01*
X62460714Y-148645714D01*
X62460714Y-148502857D01*
X62508333Y-148407619D01*
X62603571Y-148360000D01*
X63127380Y-148360000D01*
X63127380Y-147740952D02*
X63079761Y-147836190D01*
X63032142Y-147883809D01*
X62936904Y-147931428D01*
X62651190Y-147931428D01*
X62555952Y-147883809D01*
X62508333Y-147836190D01*
X62460714Y-147740952D01*
X62460714Y-147598095D01*
X62508333Y-147502857D01*
X62555952Y-147455238D01*
X62651190Y-147407619D01*
X62936904Y-147407619D01*
X63032142Y-147455238D01*
X63079761Y-147502857D01*
X63127380Y-147598095D01*
X63127380Y-147740952D01*
X63127380Y-146550476D02*
X62127380Y-146550476D01*
X63079761Y-146550476D02*
X63127380Y-146645714D01*
X63127380Y-146836190D01*
X63079761Y-146931428D01*
X63032142Y-146979047D01*
X62936904Y-147026666D01*
X62651190Y-147026666D01*
X62555952Y-146979047D01*
X62508333Y-146931428D01*
X62460714Y-146836190D01*
X62460714Y-146645714D01*
X62508333Y-146550476D01*
X63127380Y-145312380D02*
X62127380Y-145312380D01*
X62508333Y-145312380D02*
X62460714Y-145217142D01*
X62460714Y-145026666D01*
X62508333Y-144931428D01*
X62555952Y-144883809D01*
X62651190Y-144836190D01*
X62936904Y-144836190D01*
X63032142Y-144883809D01*
X63079761Y-144931428D01*
X63127380Y-145026666D01*
X63127380Y-145217142D01*
X63079761Y-145312380D01*
X63127380Y-144264761D02*
X63079761Y-144360000D01*
X63032142Y-144407619D01*
X62936904Y-144455238D01*
X62651190Y-144455238D01*
X62555952Y-144407619D01*
X62508333Y-144360000D01*
X62460714Y-144264761D01*
X62460714Y-144121904D01*
X62508333Y-144026666D01*
X62555952Y-143979047D01*
X62651190Y-143931428D01*
X62936904Y-143931428D01*
X63032142Y-143979047D01*
X63079761Y-144026666D01*
X63127380Y-144121904D01*
X63127380Y-144264761D01*
X63127380Y-143074285D02*
X62603571Y-143074285D01*
X62508333Y-143121904D01*
X62460714Y-143217142D01*
X62460714Y-143407619D01*
X62508333Y-143502857D01*
X63079761Y-143074285D02*
X63127380Y-143169523D01*
X63127380Y-143407619D01*
X63079761Y-143502857D01*
X62984523Y-143550476D01*
X62889285Y-143550476D01*
X62794047Y-143502857D01*
X62746428Y-143407619D01*
X62746428Y-143169523D01*
X62698809Y-143074285D01*
X63127380Y-142598095D02*
X62460714Y-142598095D01*
X62651190Y-142598095D02*
X62555952Y-142550476D01*
X62508333Y-142502857D01*
X62460714Y-142407619D01*
X62460714Y-142312380D01*
X63127380Y-141550476D02*
X62127380Y-141550476D01*
X63079761Y-141550476D02*
X63127380Y-141645714D01*
X63127380Y-141836190D01*
X63079761Y-141931428D01*
X63032142Y-141979047D01*
X62936904Y-142026666D01*
X62651190Y-142026666D01*
X62555952Y-141979047D01*
X62508333Y-141931428D01*
X62460714Y-141836190D01*
X62460714Y-141645714D01*
X62508333Y-141550476D01*
X62460714Y-140407619D02*
X63127380Y-140169523D01*
X62460714Y-139931428D01*
X62127380Y-138598095D02*
X62127380Y-138502857D01*
X62175000Y-138407619D01*
X62222619Y-138360000D01*
X62317857Y-138312380D01*
X62508333Y-138264761D01*
X62746428Y-138264761D01*
X62936904Y-138312380D01*
X63032142Y-138360000D01*
X63079761Y-138407619D01*
X63127380Y-138502857D01*
X63127380Y-138598095D01*
X63079761Y-138693333D01*
X63032142Y-138740952D01*
X62936904Y-138788571D01*
X62746428Y-138836190D01*
X62508333Y-138836190D01*
X62317857Y-138788571D01*
X62222619Y-138740952D01*
X62175000Y-138693333D01*
X62127380Y-138598095D01*
X63032142Y-137836190D02*
X63079761Y-137788571D01*
X63127380Y-137836190D01*
X63079761Y-137883809D01*
X63032142Y-137836190D01*
X63127380Y-137836190D01*
X62222619Y-137407619D02*
X62175000Y-137360000D01*
X62127380Y-137264761D01*
X62127380Y-137026666D01*
X62175000Y-136931428D01*
X62222619Y-136883809D01*
X62317857Y-136836190D01*
X62413095Y-136836190D01*
X62555952Y-136883809D01*
X63127380Y-137455238D01*
X63127380Y-136836190D01*
X64777380Y-160740952D02*
X63777380Y-160740952D01*
X64729761Y-160740952D02*
X64777380Y-160836190D01*
X64777380Y-161026666D01*
X64729761Y-161121904D01*
X64682142Y-161169523D01*
X64586904Y-161217142D01*
X64301190Y-161217142D01*
X64205952Y-161169523D01*
X64158333Y-161121904D01*
X64110714Y-161026666D01*
X64110714Y-160836190D01*
X64158333Y-160740952D01*
X64729761Y-159883809D02*
X64777380Y-159979047D01*
X64777380Y-160169523D01*
X64729761Y-160264761D01*
X64634523Y-160312380D01*
X64253571Y-160312380D01*
X64158333Y-160264761D01*
X64110714Y-160169523D01*
X64110714Y-159979047D01*
X64158333Y-159883809D01*
X64253571Y-159836190D01*
X64348809Y-159836190D01*
X64444047Y-160312380D01*
X64729761Y-159455238D02*
X64777380Y-159360000D01*
X64777380Y-159169523D01*
X64729761Y-159074285D01*
X64634523Y-159026666D01*
X64586904Y-159026666D01*
X64491666Y-159074285D01*
X64444047Y-159169523D01*
X64444047Y-159312380D01*
X64396428Y-159407619D01*
X64301190Y-159455238D01*
X64253571Y-159455238D01*
X64158333Y-159407619D01*
X64110714Y-159312380D01*
X64110714Y-159169523D01*
X64158333Y-159074285D01*
X64777380Y-158598095D02*
X64110714Y-158598095D01*
X63777380Y-158598095D02*
X63825000Y-158645714D01*
X63872619Y-158598095D01*
X63825000Y-158550476D01*
X63777380Y-158598095D01*
X63872619Y-158598095D01*
X64110714Y-157693333D02*
X64920238Y-157693333D01*
X65015476Y-157740952D01*
X65063095Y-157788571D01*
X65110714Y-157883809D01*
X65110714Y-158026666D01*
X65063095Y-158121904D01*
X64729761Y-157693333D02*
X64777380Y-157788571D01*
X64777380Y-157979047D01*
X64729761Y-158074285D01*
X64682142Y-158121904D01*
X64586904Y-158169523D01*
X64301190Y-158169523D01*
X64205952Y-158121904D01*
X64158333Y-158074285D01*
X64110714Y-157979047D01*
X64110714Y-157788571D01*
X64158333Y-157693333D01*
X64110714Y-157217142D02*
X64777380Y-157217142D01*
X64205952Y-157217142D02*
X64158333Y-157169523D01*
X64110714Y-157074285D01*
X64110714Y-156931428D01*
X64158333Y-156836190D01*
X64253571Y-156788571D01*
X64777380Y-156788571D01*
X64729761Y-155931428D02*
X64777380Y-156026666D01*
X64777380Y-156217142D01*
X64729761Y-156312380D01*
X64634523Y-156360000D01*
X64253571Y-156360000D01*
X64158333Y-156312380D01*
X64110714Y-156217142D01*
X64110714Y-156026666D01*
X64158333Y-155931428D01*
X64253571Y-155883809D01*
X64348809Y-155883809D01*
X64444047Y-156360000D01*
X64777380Y-155026666D02*
X63777380Y-155026666D01*
X64729761Y-155026666D02*
X64777380Y-155121904D01*
X64777380Y-155312380D01*
X64729761Y-155407619D01*
X64682142Y-155455238D01*
X64586904Y-155502857D01*
X64301190Y-155502857D01*
X64205952Y-155455238D01*
X64158333Y-155407619D01*
X64110714Y-155312380D01*
X64110714Y-155121904D01*
X64158333Y-155026666D01*
X64777380Y-153788571D02*
X63777380Y-153788571D01*
X64158333Y-153788571D02*
X64110714Y-153693333D01*
X64110714Y-153502857D01*
X64158333Y-153407619D01*
X64205952Y-153360000D01*
X64301190Y-153312380D01*
X64586904Y-153312380D01*
X64682142Y-153360000D01*
X64729761Y-153407619D01*
X64777380Y-153502857D01*
X64777380Y-153693333D01*
X64729761Y-153788571D01*
X64110714Y-152979047D02*
X64777380Y-152740952D01*
X64110714Y-152502857D02*
X64777380Y-152740952D01*
X65015476Y-152836190D01*
X65063095Y-152883809D01*
X65110714Y-152979047D01*
X64682142Y-152121904D02*
X64729761Y-152074285D01*
X64777380Y-152121904D01*
X64729761Y-152169523D01*
X64682142Y-152121904D01*
X64777380Y-152121904D01*
X64158333Y-152121904D02*
X64205952Y-152074285D01*
X64253571Y-152121904D01*
X64205952Y-152169523D01*
X64158333Y-152121904D01*
X64253571Y-152121904D01*
X64110714Y-150883809D02*
X65110714Y-150883809D01*
X64158333Y-150883809D02*
X64110714Y-150788571D01*
X64110714Y-150598095D01*
X64158333Y-150502857D01*
X64205952Y-150455238D01*
X64301190Y-150407619D01*
X64586904Y-150407619D01*
X64682142Y-150455238D01*
X64729761Y-150502857D01*
X64777380Y-150598095D01*
X64777380Y-150788571D01*
X64729761Y-150883809D01*
X64777380Y-149979047D02*
X63777380Y-149979047D01*
X64396428Y-149883809D02*
X64777380Y-149598095D01*
X64110714Y-149598095D02*
X64491666Y-149979047D01*
X64777380Y-149169523D02*
X63777380Y-149169523D01*
X64396428Y-149074285D02*
X64777380Y-148788571D01*
X64110714Y-148788571D02*
X64491666Y-149169523D01*
X64729761Y-148407619D02*
X64777380Y-148312380D01*
X64777380Y-148121904D01*
X64729761Y-148026666D01*
X64634523Y-147979047D01*
X64586904Y-147979047D01*
X64491666Y-148026666D01*
X64444047Y-148121904D01*
X64444047Y-148264761D01*
X64396428Y-148360000D01*
X64301190Y-148407619D01*
X64253571Y-148407619D01*
X64158333Y-148360000D01*
X64110714Y-148264761D01*
X64110714Y-148121904D01*
X64158333Y-148026666D01*
X64777380Y-147550476D02*
X63777380Y-147550476D01*
X64777380Y-147121904D02*
X64253571Y-147121904D01*
X64158333Y-147169523D01*
X64110714Y-147264761D01*
X64110714Y-147407619D01*
X64158333Y-147502857D01*
X64205952Y-147550476D01*
X64777380Y-146217142D02*
X64253571Y-146217142D01*
X64158333Y-146264761D01*
X64110714Y-146360000D01*
X64110714Y-146550476D01*
X64158333Y-146645714D01*
X64729761Y-146217142D02*
X64777380Y-146312380D01*
X64777380Y-146550476D01*
X64729761Y-146645714D01*
X64634523Y-146693333D01*
X64539285Y-146693333D01*
X64444047Y-146645714D01*
X64396428Y-146550476D01*
X64396428Y-146312380D01*
X64348809Y-146217142D01*
X64777380Y-145312380D02*
X63777380Y-145312380D01*
X64729761Y-145312380D02*
X64777380Y-145407619D01*
X64777380Y-145598095D01*
X64729761Y-145693333D01*
X64682142Y-145740952D01*
X64586904Y-145788571D01*
X64301190Y-145788571D01*
X64205952Y-145740952D01*
X64158333Y-145693333D01*
X64110714Y-145598095D01*
X64110714Y-145407619D01*
X64158333Y-145312380D01*
X64777380Y-144693333D02*
X64729761Y-144788571D01*
X64682142Y-144836190D01*
X64586904Y-144883809D01*
X64301190Y-144883809D01*
X64205952Y-144836190D01*
X64158333Y-144788571D01*
X64110714Y-144693333D01*
X64110714Y-144550476D01*
X64158333Y-144455238D01*
X64205952Y-144407619D01*
X64301190Y-144360000D01*
X64586904Y-144360000D01*
X64682142Y-144407619D01*
X64729761Y-144455238D01*
X64777380Y-144550476D01*
X64777380Y-144693333D01*
X64110714Y-144026666D02*
X64777380Y-143836190D01*
X64301190Y-143645714D01*
X64777380Y-143455238D01*
X64110714Y-143264761D01*
X64110714Y-142931428D02*
X64110714Y-142217142D01*
X63682142Y-142645714D02*
X64967857Y-142931428D01*
X64539285Y-142312380D02*
X64539285Y-143026666D01*
X64967857Y-142598095D02*
X63682142Y-142312380D01*
X63777380Y-141455238D02*
X63777380Y-141645714D01*
X63825000Y-141740952D01*
X63872619Y-141788571D01*
X64015476Y-141883809D01*
X64205952Y-141931428D01*
X64586904Y-141931428D01*
X64682142Y-141883809D01*
X64729761Y-141836190D01*
X64777380Y-141740952D01*
X64777380Y-141550476D01*
X64729761Y-141455238D01*
X64682142Y-141407619D01*
X64586904Y-141360000D01*
X64348809Y-141360000D01*
X64253571Y-141407619D01*
X64205952Y-141455238D01*
X64158333Y-141550476D01*
X64158333Y-141740952D01*
X64205952Y-141836190D01*
X64253571Y-141883809D01*
X64348809Y-141931428D01*
X63872619Y-140979047D02*
X63825000Y-140931428D01*
X63777380Y-140836190D01*
X63777380Y-140598095D01*
X63825000Y-140502857D01*
X63872619Y-140455238D01*
X63967857Y-140407619D01*
X64063095Y-140407619D01*
X64205952Y-140455238D01*
X64777380Y-141026666D01*
X64777380Y-140407619D01*
X64110714Y-139550476D02*
X64777380Y-139550476D01*
X63729761Y-139788571D02*
X64444047Y-140026666D01*
X64444047Y-139407619D01*
X63777380Y-139121904D02*
X63777380Y-138455238D01*
X64777380Y-138883809D01*
D11*
X123190000Y-135382000D02*
X122809000Y-135382000D01*
X123571000Y-135382000D02*
X123190000Y-135382000D01*
X124079000Y-135128000D02*
X123571000Y-135382000D01*
X124333000Y-135001000D02*
X124079000Y-135128000D01*
X124460000Y-134620000D02*
X124333000Y-135001000D01*
X124460000Y-134239000D02*
X124460000Y-134620000D01*
X124333000Y-133858000D02*
X124460000Y-134239000D01*
X124079000Y-133350000D02*
X124333000Y-133858000D01*
X123825000Y-132969000D02*
X124079000Y-133350000D01*
X123317000Y-132461000D02*
X123825000Y-132969000D01*
X122682000Y-132207000D02*
X123317000Y-132461000D01*
X122047000Y-132080000D02*
X122682000Y-132207000D01*
X121539000Y-132080000D02*
X122047000Y-132080000D01*
X120904000Y-132334000D02*
X121539000Y-132080000D01*
X120269000Y-132715000D02*
X120904000Y-132334000D01*
X119761000Y-133223000D02*
X120269000Y-132715000D01*
X119507000Y-133858000D02*
X119761000Y-133223000D01*
X119380000Y-134366000D02*
X119507000Y-133858000D01*
X119380000Y-134620000D02*
X119380000Y-134366000D01*
X120777000Y-135382000D02*
X121158000Y-135382000D01*
X120142000Y-135255000D02*
X120777000Y-135382000D01*
X119634000Y-135128000D02*
X120142000Y-135255000D01*
X119507000Y-134874000D02*
X119634000Y-135128000D01*
X119380000Y-134620000D02*
X119507000Y-134874000D01*
X120904000Y-136144000D02*
X120904000Y-135382000D01*
X120904000Y-136525000D02*
X120904000Y-136144000D01*
X122047000Y-137160000D02*
X121666000Y-137160000D01*
X122555000Y-137033000D02*
X122047000Y-137160000D01*
X122936000Y-136906000D02*
X122555000Y-137033000D01*
X123063000Y-136525000D02*
X122936000Y-136906000D01*
X123063000Y-136144000D02*
X123063000Y-136525000D01*
X123063000Y-135382000D02*
X123063000Y-136144000D01*
X121285000Y-137033000D02*
X121666000Y-137160000D01*
X121031000Y-136779000D02*
X121285000Y-137033000D01*
X120904000Y-136525000D02*
X121031000Y-136779000D01*
X121666000Y-135001000D02*
X121920000Y-134239000D01*
X122174000Y-135001000D02*
X121666000Y-135001000D01*
X121920000Y-134239000D02*
X122174000Y-135001000D01*
X123219981Y-134239000D02*
G75*
G03X123219981Y-134239000I-283981J0D01*
G01*
X121187981Y-134239000D02*
G75*
G03X121187981Y-134239000I-283981J0D01*
G01*
X121412000Y-136271000D02*
X121412000Y-135763000D01*
X122555000Y-136271000D02*
X121412000Y-136271000D01*
X122555000Y-135763000D02*
X122555000Y-136271000D01*
X121412000Y-135763000D02*
X122555000Y-135763000D01*
X122047000Y-135890000D02*
X122047000Y-136144000D01*
X124206000Y-132969000D02*
X124841000Y-132461000D01*
X124841000Y-132461000D02*
X124841000Y-131953000D01*
X124841000Y-132461000D02*
X125349000Y-132334000D01*
X120269000Y-135763000D02*
X119253000Y-136652000D01*
X119253000Y-136652000D02*
X118872000Y-136652000D01*
X119253000Y-136652000D02*
X119253000Y-137160000D01*
X119507000Y-132969000D02*
X118999000Y-132588000D01*
X118999000Y-132588000D02*
X118999000Y-132207000D01*
X118999000Y-132588000D02*
X118618000Y-132715000D01*
X124587000Y-136652000D02*
X124841000Y-136652000D01*
X123698000Y-135763000D02*
X124587000Y-136652000D01*
X124587000Y-137033000D02*
X124714000Y-137033000D01*
X124587000Y-136652000D02*
X124587000Y-137033000D01*
D12*
X99339400Y-165272720D03*
D13*
X86530180Y-165209220D03*
D14*
X108508800Y-154348180D03*
D15*
X111683800Y-154348180D03*
X114858800Y-154348180D03*
D14*
X95760540Y-154284680D03*
D15*
X98935540Y-154284680D03*
X102110540Y-154284680D03*
D14*
X83075780Y-154348180D03*
D15*
X86250780Y-154348180D03*
X89425780Y-154348180D03*
D14*
X70518020Y-154348180D03*
D15*
X73693020Y-154348180D03*
X76868020Y-154348180D03*
D16*
X113364800Y-148069300D03*
X112064800Y-148069300D03*
X110764800Y-148069300D03*
X101017860Y-148526500D03*
X99717860Y-148526500D03*
X98417860Y-148526500D03*
X87390760Y-148526500D03*
X86090760Y-148526500D03*
X84790760Y-148526500D03*
X71712300Y-148526500D03*
X73012300Y-148526500D03*
X74312300Y-148526500D03*
D15*
X115122960Y-141483080D03*
X111947960Y-141483080D03*
D14*
X108772960Y-141483080D03*
D15*
X102776020Y-141757400D03*
X99601020Y-141757400D03*
D14*
X96426020Y-141757400D03*
D15*
X89514680Y-142123160D03*
X86339680Y-142123160D03*
D14*
X83164680Y-142123160D03*
D15*
X76708000Y-142306040D03*
X73533000Y-142306040D03*
D14*
X70358000Y-142306040D03*
D17*
X109181900Y-134940040D03*
X111721900Y-134940040D03*
X114261900Y-134940040D03*
X96649540Y-135031480D03*
X99189540Y-135031480D03*
X101729540Y-135031480D03*
X83753960Y-135031480D03*
X86293960Y-135031480D03*
X88833960Y-135031480D03*
X71132700Y-135031480D03*
X73672700Y-135031480D03*
X76212700Y-135031480D03*
D18*
X87770980Y-118320820D03*
D19*
X82770980Y-118320820D03*
D18*
X85270980Y-123320820D03*
X110622720Y-123320820D03*
D19*
X108122720Y-118320820D03*
D18*
X113122720Y-118320820D03*
X98110680Y-123102380D03*
D19*
X95610680Y-118102380D03*
D18*
X100610680Y-118102380D03*
X72428740Y-123320820D03*
D19*
X69928740Y-118320820D03*
D18*
X74928740Y-118320820D03*
D20*
X113122720Y-118320820D02*
X113122720Y-130783340D01*
X114261900Y-131922520D02*
X114261900Y-134940040D01*
X113122720Y-130783340D02*
X114261900Y-131922520D01*
X108122720Y-133880860D02*
X109181900Y-134940040D01*
X108122720Y-118320820D02*
X108122720Y-133880860D01*
X100610680Y-118102380D02*
X100610680Y-130803660D01*
X101729540Y-131922520D02*
X101729540Y-135031480D01*
X100610680Y-130803660D02*
X101729540Y-131922520D01*
X95610680Y-133992620D02*
X96649540Y-135031480D01*
X95610680Y-118102380D02*
X95610680Y-133992620D01*
X87770980Y-118320820D02*
X87770980Y-130310900D01*
X88833960Y-131373880D02*
X88833960Y-135031480D01*
X87770980Y-130310900D02*
X88833960Y-131373880D01*
X82770980Y-134048500D02*
X83753960Y-135031480D01*
X82770980Y-118320820D02*
X82770980Y-134048500D01*
X74928740Y-118320820D02*
X74928740Y-129632720D01*
X76212700Y-130916680D02*
X76212700Y-135031480D01*
X74928740Y-129632720D02*
X76212700Y-130916680D01*
X69928740Y-133827520D02*
X71132700Y-135031480D01*
X69928740Y-118320820D02*
X69928740Y-133827520D01*
X115122960Y-135801100D02*
X114261900Y-134940040D01*
X115122960Y-141483080D02*
X115122960Y-135801100D01*
X102776020Y-136077960D02*
X101729540Y-135031480D01*
X102776020Y-141757400D02*
X102776020Y-136077960D01*
X89514680Y-135712200D02*
X88833960Y-135031480D01*
X89514680Y-142123160D02*
X89514680Y-135712200D01*
X76708000Y-135526780D02*
X76212700Y-135031480D01*
X76708000Y-142306040D02*
X76708000Y-135526780D01*
X70358000Y-135806180D02*
X71132700Y-135031480D01*
X70358000Y-142306040D02*
X70358000Y-135806180D01*
X83164680Y-135620760D02*
X83753960Y-135031480D01*
X83164680Y-142123160D02*
X83164680Y-135620760D01*
X96426020Y-135255000D02*
X96649540Y-135031480D01*
X96426020Y-141757400D02*
X96426020Y-135255000D01*
X108772960Y-135348980D02*
X109181900Y-134940040D01*
X108772960Y-141483080D02*
X108772960Y-135348980D01*
X115122960Y-146311140D02*
X113364800Y-148069300D01*
X115122960Y-141483080D02*
X115122960Y-146311140D01*
X108772960Y-146077460D02*
X110764800Y-148069300D01*
X108772960Y-141483080D02*
X108772960Y-146077460D01*
X102776020Y-146768340D02*
X101017860Y-148526500D01*
X102776020Y-141757400D02*
X102776020Y-146768340D01*
X96426020Y-146534660D02*
X98417860Y-148526500D01*
X96426020Y-141757400D02*
X96426020Y-146534660D01*
X83164680Y-146900420D02*
X84790760Y-148526500D01*
X83164680Y-142123160D02*
X83164680Y-146900420D01*
X89514680Y-146402580D02*
X87390760Y-148526500D01*
X89514680Y-142123160D02*
X89514680Y-146402580D01*
X76708000Y-146130800D02*
X74312300Y-148526500D01*
X76708000Y-142306040D02*
X76708000Y-146130800D01*
X70358000Y-147172200D02*
X71712300Y-148526500D01*
X70358000Y-142306040D02*
X70358000Y-147172200D01*
X73693020Y-154348180D02*
X73693020Y-157576520D01*
X73693020Y-157576520D02*
X73720960Y-157548580D01*
X111683800Y-156115494D02*
X110222774Y-157576520D01*
X111683800Y-154348180D02*
X111683800Y-156115494D01*
X86250780Y-157513020D02*
X86314280Y-157576520D01*
X86250780Y-154348180D02*
X86250780Y-157513020D01*
X86314280Y-157576520D02*
X73693020Y-157576520D01*
X98935540Y-157137100D02*
X98496120Y-157576520D01*
X98935540Y-154284680D02*
X98935540Y-157137100D01*
X110222774Y-157576520D02*
X98496120Y-157576520D01*
X98496120Y-157576520D02*
X86314280Y-157576520D01*
X86530180Y-157792420D02*
X86530180Y-165209220D01*
X86314280Y-157576520D02*
X86530180Y-157792420D01*
M02*
