G04 #@! TF.GenerationSoftware,KiCad,Pcbnew,(5.1.2)-1*
G04 #@! TF.CreationDate,2019-06-07T19:51:13-04:00*
G04 #@! TF.ProjectId,version-0-2,76657273-696f-46e2-9d30-2d322e6b6963,rev?*
G04 #@! TF.SameCoordinates,Original*
G04 #@! TF.FileFunction,Legend,Top*
G04 #@! TF.FilePolarity,Positive*
%FSLAX46Y46*%
G04 Gerber Fmt 4.6, Leading zero omitted, Abs format (unit mm)*
G04 Created by KiCad (PCBNEW (5.1.2)-1) date 2019-06-07 19:51:13*
%MOMM*%
%LPD*%
G04 APERTURE LIST*
%ADD10C,0.120000*%
%ADD11C,0.150000*%
G04 APERTURE END LIST*
D10*
X110014800Y-149069300D02*
X110014800Y-147069300D01*
X114114800Y-149069300D02*
X110014800Y-149069300D01*
X114114800Y-147069300D02*
X114114800Y-149069300D01*
X110014800Y-147069300D02*
X114114800Y-147069300D01*
X97667860Y-149526500D02*
X97667860Y-147526500D01*
X101767860Y-149526500D02*
X97667860Y-149526500D01*
X101767860Y-147526500D02*
X101767860Y-149526500D01*
X97667860Y-147526500D02*
X101767860Y-147526500D01*
X84040760Y-149526500D02*
X84040760Y-147526500D01*
X88140760Y-149526500D02*
X84040760Y-149526500D01*
X88140760Y-147526500D02*
X88140760Y-149526500D01*
X84040760Y-147526500D02*
X88140760Y-147526500D01*
X70962300Y-147526500D02*
X75062300Y-147526500D01*
X75062300Y-147526500D02*
X75062300Y-149526500D01*
X75062300Y-149526500D02*
X70962300Y-149526500D01*
X70962300Y-149526500D02*
X70962300Y-147526500D01*
X116606900Y-132410040D02*
X116606900Y-137480040D01*
X106836900Y-132410040D02*
X106836900Y-137480040D01*
X106836900Y-137480040D02*
X116606900Y-137480040D01*
X106836900Y-132410040D02*
X116606900Y-132410040D01*
X104074540Y-132501480D02*
X104074540Y-137571480D01*
X94304540Y-132501480D02*
X94304540Y-137571480D01*
X94304540Y-137571480D02*
X104074540Y-137571480D01*
X94304540Y-132501480D02*
X104074540Y-132501480D01*
X91178960Y-132501480D02*
X91178960Y-137571480D01*
X81408960Y-132501480D02*
X81408960Y-137571480D01*
X81408960Y-137571480D02*
X91178960Y-137571480D01*
X81408960Y-132501480D02*
X91178960Y-132501480D01*
X78557700Y-132501480D02*
X78557700Y-137571480D01*
X68787700Y-132501480D02*
X68787700Y-137571480D01*
X68787700Y-137571480D02*
X78557700Y-137571480D01*
X68787700Y-132501480D02*
X78557700Y-132501480D01*
X88580980Y-117110820D02*
X88580980Y-117800820D01*
X88480980Y-117110820D02*
X88580980Y-117110820D01*
X81960980Y-117110820D02*
X81960980Y-117360820D01*
X82060980Y-117110820D02*
X81960980Y-117110820D01*
X82060980Y-116910820D02*
X82060980Y-117110820D01*
X83480980Y-117110820D02*
X83480980Y-116910820D01*
X88580980Y-122820820D02*
G75*
G02X87270980Y-124130820I-1310000J0D01*
G01*
X83270980Y-124130820D02*
G75*
G02X81960980Y-122820820I0J1310000D01*
G01*
X87270980Y-124130820D02*
X85780980Y-124130820D01*
X88580980Y-118840820D02*
X88580980Y-122820820D01*
X81960980Y-122820820D02*
X81960980Y-119280820D01*
X84760980Y-124130820D02*
X83270980Y-124130820D01*
X88480980Y-116910820D02*
X88480980Y-117110820D01*
X87060980Y-116910820D02*
X88480980Y-116910820D01*
X87060980Y-117110820D02*
X87060980Y-116910820D01*
X83480980Y-117110820D02*
X87060980Y-117110820D01*
X82060980Y-116910820D02*
X83480980Y-116910820D01*
X107412720Y-116910820D02*
X108832720Y-116910820D01*
X108832720Y-117110820D02*
X112412720Y-117110820D01*
X112412720Y-117110820D02*
X112412720Y-116910820D01*
X112412720Y-116910820D02*
X113832720Y-116910820D01*
X113832720Y-116910820D02*
X113832720Y-117110820D01*
X110112720Y-124130820D02*
X108622720Y-124130820D01*
X107312720Y-122820820D02*
X107312720Y-119280820D01*
X113932720Y-118840820D02*
X113932720Y-122820820D01*
X112622720Y-124130820D02*
X111132720Y-124130820D01*
X108622720Y-124130820D02*
G75*
G02X107312720Y-122820820I0J1310000D01*
G01*
X113932720Y-122820820D02*
G75*
G02X112622720Y-124130820I-1310000J0D01*
G01*
X108832720Y-117110820D02*
X108832720Y-116910820D01*
X107412720Y-116910820D02*
X107412720Y-117110820D01*
X107412720Y-117110820D02*
X107312720Y-117110820D01*
X107312720Y-117110820D02*
X107312720Y-117360820D01*
X113832720Y-117110820D02*
X113932720Y-117110820D01*
X113932720Y-117110820D02*
X113932720Y-117800820D01*
X94900680Y-116692380D02*
X96320680Y-116692380D01*
X96320680Y-116892380D02*
X99900680Y-116892380D01*
X99900680Y-116892380D02*
X99900680Y-116692380D01*
X99900680Y-116692380D02*
X101320680Y-116692380D01*
X101320680Y-116692380D02*
X101320680Y-116892380D01*
X97600680Y-123912380D02*
X96110680Y-123912380D01*
X94800680Y-122602380D02*
X94800680Y-119062380D01*
X101420680Y-118622380D02*
X101420680Y-122602380D01*
X100110680Y-123912380D02*
X98620680Y-123912380D01*
X96110680Y-123912380D02*
G75*
G02X94800680Y-122602380I0J1310000D01*
G01*
X101420680Y-122602380D02*
G75*
G02X100110680Y-123912380I-1310000J0D01*
G01*
X96320680Y-116892380D02*
X96320680Y-116692380D01*
X94900680Y-116692380D02*
X94900680Y-116892380D01*
X94900680Y-116892380D02*
X94800680Y-116892380D01*
X94800680Y-116892380D02*
X94800680Y-117142380D01*
X101320680Y-116892380D02*
X101420680Y-116892380D01*
X101420680Y-116892380D02*
X101420680Y-117582380D01*
X69218740Y-116910820D02*
X70638740Y-116910820D01*
X70638740Y-117110820D02*
X74218740Y-117110820D01*
X74218740Y-117110820D02*
X74218740Y-116910820D01*
X74218740Y-116910820D02*
X75638740Y-116910820D01*
X75638740Y-116910820D02*
X75638740Y-117110820D01*
X71918740Y-124130820D02*
X70428740Y-124130820D01*
X69118740Y-122820820D02*
X69118740Y-119280820D01*
X75738740Y-118840820D02*
X75738740Y-122820820D01*
X74428740Y-124130820D02*
X72938740Y-124130820D01*
X70428740Y-124130820D02*
G75*
G02X69118740Y-122820820I0J1310000D01*
G01*
X75738740Y-122820820D02*
G75*
G02X74428740Y-124130820I-1310000J0D01*
G01*
X70638740Y-117110820D02*
X70638740Y-116910820D01*
X69218740Y-116910820D02*
X69218740Y-117110820D01*
X69218740Y-117110820D02*
X69118740Y-117110820D01*
X69118740Y-117110820D02*
X69118740Y-117360820D01*
X75638740Y-117110820D02*
X75738740Y-117110820D01*
X75738740Y-117110820D02*
X75738740Y-117800820D01*
D11*
X102905655Y-165095537D02*
X104429464Y-165095537D01*
X81818575Y-164887257D02*
X83342384Y-164887257D01*
X82580480Y-165649161D02*
X82580480Y-164125352D01*
X106997430Y-159022681D02*
X107140287Y-159070300D01*
X107378382Y-159070300D01*
X107473620Y-159022681D01*
X107521240Y-158975062D01*
X107568859Y-158879824D01*
X107568859Y-158784586D01*
X107521240Y-158689348D01*
X107473620Y-158641729D01*
X107378382Y-158594110D01*
X107187906Y-158546491D01*
X107092668Y-158498872D01*
X107045049Y-158451253D01*
X106997430Y-158356015D01*
X106997430Y-158260777D01*
X107045049Y-158165539D01*
X107092668Y-158117920D01*
X107187906Y-158070300D01*
X107426001Y-158070300D01*
X107568859Y-158117920D01*
X107997430Y-159070300D02*
X107997430Y-158070300D01*
X108568859Y-159070300D01*
X108568859Y-158070300D01*
X110045049Y-159403634D02*
X110045049Y-157975062D01*
X111521240Y-158689348D02*
X112283144Y-158689348D01*
X111902192Y-159070300D02*
X111902192Y-158308396D01*
X113759335Y-159403634D02*
X113759335Y-157975062D01*
X115235525Y-158689348D02*
X115997430Y-158689348D01*
X94691130Y-158895681D02*
X94833987Y-158943300D01*
X95072082Y-158943300D01*
X95167320Y-158895681D01*
X95214940Y-158848062D01*
X95262559Y-158752824D01*
X95262559Y-158657586D01*
X95214940Y-158562348D01*
X95167320Y-158514729D01*
X95072082Y-158467110D01*
X94881606Y-158419491D01*
X94786368Y-158371872D01*
X94738749Y-158324253D01*
X94691130Y-158229015D01*
X94691130Y-158133777D01*
X94738749Y-158038539D01*
X94786368Y-157990920D01*
X94881606Y-157943300D01*
X95119701Y-157943300D01*
X95262559Y-157990920D01*
X95691130Y-158943300D02*
X95691130Y-157943300D01*
X96262559Y-158943300D01*
X96262559Y-157943300D01*
X97738749Y-159276634D02*
X97738749Y-157848062D01*
X99214940Y-158562348D02*
X99976844Y-158562348D01*
X99595892Y-158943300D02*
X99595892Y-158181396D01*
X101453035Y-159276634D02*
X101453035Y-157848062D01*
X102929225Y-158562348D02*
X103691130Y-158562348D01*
X81630450Y-159022681D02*
X81773307Y-159070300D01*
X82011402Y-159070300D01*
X82106640Y-159022681D01*
X82154260Y-158975062D01*
X82201879Y-158879824D01*
X82201879Y-158784586D01*
X82154260Y-158689348D01*
X82106640Y-158641729D01*
X82011402Y-158594110D01*
X81820926Y-158546491D01*
X81725688Y-158498872D01*
X81678069Y-158451253D01*
X81630450Y-158356015D01*
X81630450Y-158260777D01*
X81678069Y-158165539D01*
X81725688Y-158117920D01*
X81820926Y-158070300D01*
X82059021Y-158070300D01*
X82201879Y-158117920D01*
X82630450Y-159070300D02*
X82630450Y-158070300D01*
X83201879Y-159070300D01*
X83201879Y-158070300D01*
X84678069Y-159403634D02*
X84678069Y-157975062D01*
X86154260Y-158689348D02*
X86916164Y-158689348D01*
X86535212Y-159070300D02*
X86535212Y-158308396D01*
X88392355Y-159403634D02*
X88392355Y-157975062D01*
X89868545Y-158689348D02*
X90630450Y-158689348D01*
X69761030Y-159022681D02*
X69903887Y-159070300D01*
X70141982Y-159070300D01*
X70237220Y-159022681D01*
X70284840Y-158975062D01*
X70332459Y-158879824D01*
X70332459Y-158784586D01*
X70284840Y-158689348D01*
X70237220Y-158641729D01*
X70141982Y-158594110D01*
X69951506Y-158546491D01*
X69856268Y-158498872D01*
X69808649Y-158451253D01*
X69761030Y-158356015D01*
X69761030Y-158260777D01*
X69808649Y-158165539D01*
X69856268Y-158117920D01*
X69951506Y-158070300D01*
X70189601Y-158070300D01*
X70332459Y-158117920D01*
X70761030Y-159070300D02*
X70761030Y-158070300D01*
X71332459Y-159070300D01*
X71332459Y-158070300D01*
X72808649Y-159403634D02*
X72808649Y-157975062D01*
X74284840Y-158689348D02*
X75046744Y-158689348D01*
X74665792Y-159070300D02*
X74665792Y-158308396D01*
X76522935Y-159403634D02*
X76522935Y-157975062D01*
X77999125Y-158689348D02*
X78761030Y-158689348D01*
X111779085Y-145816919D02*
X111826704Y-145769300D01*
X111921942Y-145721680D01*
X112160038Y-145721680D01*
X112255276Y-145769300D01*
X112302895Y-145816919D01*
X112350514Y-145912157D01*
X112350514Y-146007395D01*
X112302895Y-146150252D01*
X111731466Y-146721680D01*
X112350514Y-146721680D01*
X114331466Y-147521680D02*
X114950514Y-147521680D01*
X114617180Y-147902633D01*
X114760038Y-147902633D01*
X114855276Y-147950252D01*
X114902895Y-147997871D01*
X114950514Y-148093109D01*
X114950514Y-148331204D01*
X114902895Y-148426442D01*
X114855276Y-148474061D01*
X114760038Y-148521680D01*
X114474323Y-148521680D01*
X114379085Y-148474061D01*
X114331466Y-148426442D01*
X109750514Y-148521680D02*
X109179085Y-148521680D01*
X109464800Y-148521680D02*
X109464800Y-147521680D01*
X109369561Y-147664538D01*
X109274323Y-147759776D01*
X109179085Y-147807395D01*
X99432145Y-146274119D02*
X99479764Y-146226500D01*
X99575002Y-146178880D01*
X99813098Y-146178880D01*
X99908336Y-146226500D01*
X99955955Y-146274119D01*
X100003574Y-146369357D01*
X100003574Y-146464595D01*
X99955955Y-146607452D01*
X99384526Y-147178880D01*
X100003574Y-147178880D01*
X101984526Y-147978880D02*
X102603574Y-147978880D01*
X102270240Y-148359833D01*
X102413098Y-148359833D01*
X102508336Y-148407452D01*
X102555955Y-148455071D01*
X102603574Y-148550309D01*
X102603574Y-148788404D01*
X102555955Y-148883642D01*
X102508336Y-148931261D01*
X102413098Y-148978880D01*
X102127383Y-148978880D01*
X102032145Y-148931261D01*
X101984526Y-148883642D01*
X97403574Y-148978880D02*
X96832145Y-148978880D01*
X97117860Y-148978880D02*
X97117860Y-147978880D01*
X97022621Y-148121738D01*
X96927383Y-148216976D01*
X96832145Y-148264595D01*
X85805045Y-146274119D02*
X85852664Y-146226500D01*
X85947902Y-146178880D01*
X86185998Y-146178880D01*
X86281236Y-146226500D01*
X86328855Y-146274119D01*
X86376474Y-146369357D01*
X86376474Y-146464595D01*
X86328855Y-146607452D01*
X85757426Y-147178880D01*
X86376474Y-147178880D01*
X88357426Y-147978880D02*
X88976474Y-147978880D01*
X88643140Y-148359833D01*
X88785998Y-148359833D01*
X88881236Y-148407452D01*
X88928855Y-148455071D01*
X88976474Y-148550309D01*
X88976474Y-148788404D01*
X88928855Y-148883642D01*
X88881236Y-148931261D01*
X88785998Y-148978880D01*
X88500283Y-148978880D01*
X88405045Y-148931261D01*
X88357426Y-148883642D01*
X83776474Y-148978880D02*
X83205045Y-148978880D01*
X83490760Y-148978880D02*
X83490760Y-147978880D01*
X83395521Y-148121738D01*
X83300283Y-148216976D01*
X83205045Y-148264595D01*
X72726585Y-146274119D02*
X72774204Y-146226500D01*
X72869442Y-146178880D01*
X73107538Y-146178880D01*
X73202776Y-146226500D01*
X73250395Y-146274119D01*
X73298014Y-146369357D01*
X73298014Y-146464595D01*
X73250395Y-146607452D01*
X72678966Y-147178880D01*
X73298014Y-147178880D01*
X70698014Y-148978880D02*
X70126585Y-148978880D01*
X70412300Y-148978880D02*
X70412300Y-147978880D01*
X70317061Y-148121738D01*
X70221823Y-148216976D01*
X70126585Y-148264595D01*
X75278966Y-147978880D02*
X75898014Y-147978880D01*
X75564680Y-148359833D01*
X75707538Y-148359833D01*
X75802776Y-148407452D01*
X75850395Y-148455071D01*
X75898014Y-148550309D01*
X75898014Y-148788404D01*
X75850395Y-148883642D01*
X75802776Y-148931261D01*
X75707538Y-148978880D01*
X75421823Y-148978880D01*
X75326585Y-148931261D01*
X75278966Y-148883642D01*
X112072396Y-138312234D02*
X112072396Y-138978900D01*
X111834300Y-137931281D02*
X111596205Y-138645567D01*
X112215253Y-138645567D01*
X99305786Y-138189720D02*
X99924834Y-138189720D01*
X99591500Y-138570673D01*
X99734358Y-138570673D01*
X99829596Y-138618292D01*
X99877215Y-138665911D01*
X99924834Y-138761149D01*
X99924834Y-138999244D01*
X99877215Y-139094482D01*
X99829596Y-139142101D01*
X99734358Y-139189720D01*
X99448643Y-139189720D01*
X99353405Y-139142101D01*
X99305786Y-139094482D01*
X86008245Y-138231619D02*
X86055864Y-138184000D01*
X86151102Y-138136380D01*
X86389198Y-138136380D01*
X86484436Y-138184000D01*
X86532055Y-138231619D01*
X86579674Y-138326857D01*
X86579674Y-138422095D01*
X86532055Y-138564952D01*
X85960626Y-139136380D01*
X86579674Y-139136380D01*
X73813634Y-139240520D02*
X73242205Y-139240520D01*
X73527920Y-139240520D02*
X73527920Y-138240520D01*
X73432681Y-138383378D01*
X73337443Y-138478616D01*
X73242205Y-138526235D01*
X111912376Y-131065754D02*
X111912376Y-131732420D01*
X111674280Y-130684801D02*
X111436185Y-131399087D01*
X112055233Y-131399087D01*
X98856206Y-130823860D02*
X99475254Y-130823860D01*
X99141920Y-131204813D01*
X99284778Y-131204813D01*
X99380016Y-131252432D01*
X99427635Y-131300051D01*
X99475254Y-131395289D01*
X99475254Y-131633384D01*
X99427635Y-131728622D01*
X99380016Y-131776241D01*
X99284778Y-131823860D01*
X98999063Y-131823860D01*
X98903825Y-131776241D01*
X98856206Y-131728622D01*
X86008245Y-130919099D02*
X86055864Y-130871480D01*
X86151102Y-130823860D01*
X86389198Y-130823860D01*
X86484436Y-130871480D01*
X86532055Y-130919099D01*
X86579674Y-131014337D01*
X86579674Y-131109575D01*
X86532055Y-131252432D01*
X85960626Y-131823860D01*
X86579674Y-131823860D01*
X73958414Y-131823860D02*
X73386985Y-131823860D01*
X73672700Y-131823860D02*
X73672700Y-130823860D01*
X73577461Y-130966718D01*
X73482223Y-131061956D01*
X73386985Y-131109575D01*
X85085265Y-115368439D02*
X85132884Y-115320820D01*
X85228122Y-115273200D01*
X85466218Y-115273200D01*
X85561456Y-115320820D01*
X85609075Y-115368439D01*
X85656694Y-115463677D01*
X85656694Y-115558915D01*
X85609075Y-115701772D01*
X85037646Y-116273200D01*
X85656694Y-116273200D01*
X110913196Y-115606534D02*
X110913196Y-116273200D01*
X110675100Y-115225581D02*
X110437005Y-115939867D01*
X111056053Y-115939867D01*
X97877346Y-115054760D02*
X98496394Y-115054760D01*
X98163060Y-115435713D01*
X98305918Y-115435713D01*
X98401156Y-115483332D01*
X98448775Y-115530951D01*
X98496394Y-115626189D01*
X98496394Y-115864284D01*
X98448775Y-115959522D01*
X98401156Y-116007141D01*
X98305918Y-116054760D01*
X98020203Y-116054760D01*
X97924965Y-116007141D01*
X97877346Y-115959522D01*
X72814454Y-116273200D02*
X72243025Y-116273200D01*
X72528740Y-116273200D02*
X72528740Y-115273200D01*
X72433501Y-115416058D01*
X72338263Y-115511296D01*
X72243025Y-115558915D01*
M02*
