M48
; DRILL file {KiCad (5.1.2)-1} date 6/6/2019 2:08:43 AM
; FORMAT={-:-/ absolute / inch / decimal}
; #@! TF.CreationDate,2019-06-06T02:08:43-04:00
; #@! TF.GenerationSoftware,Kicad,Pcbnew,(5.1.2)-1
; #@! TF.FileFunction,Plated,1,2,PTH
FMAT,2
INCH
T1C0.0315
T2C0.0394
T3C0.0394
T4C0.0787
%
G90
G05
T1
X1.15Y-6.6
X1.2Y-5.8
X1.3Y-5.8
X1.4Y-5.8
X2.9Y-5.8
X3.0Y-5.8
X3.1Y-5.8
X2.05Y-5.8
X2.15Y-5.8
X2.25Y-5.8
X1.25Y-6.6
X1.35Y-6.6
T2
X2.45Y-5.75
X2.5484Y-5.9469
X2.6469Y-5.75
X3.3Y-5.9
X3.3984Y-6.0969
X3.4969Y-5.9
X1.6Y-5.75
X1.6984Y-5.9469
X1.7969Y-5.75
X1.55Y-6.55
X1.6484Y-6.7469
X1.7469Y-6.55
T3
X1.15Y-7.05
X2.25Y-6.25
X2.4Y-6.25
X2.55Y-4.95
X2.7Y-4.95
X2.05Y-4.95
X2.2Y-4.95
X2.1Y-6.25
X1.3Y-7.05
X1.45Y-7.05
X1.25Y-6.25
X1.4Y-6.25
X1.55Y-6.25
X3.05Y-4.95
X3.2Y-4.95
X3.1Y-6.3
X3.25Y-6.3
X1.5Y-4.95
X1.65Y-4.95
X2.95Y-6.3
T4
X3.75Y-5.7
T0
M30
