G04 #@! TF.GenerationSoftware,KiCad,Pcbnew,(5.1.2)-1*
G04 #@! TF.CreationDate,2019-06-07T12:24:14-04:00*
G04 #@! TF.ProjectId,volt mod 2,766f6c74-206d-46f6-9420-322e6b696361,rev?*
G04 #@! TF.SameCoordinates,Original*
G04 #@! TF.FileFunction,Legend,Bot*
G04 #@! TF.FilePolarity,Positive*
%FSLAX46Y46*%
G04 Gerber Fmt 4.6, Leading zero omitted, Abs format (unit mm)*
G04 Created by KiCad (PCBNEW (5.1.2)-1) date 2019-06-07 12:24:14*
%MOMM*%
%LPD*%
G04 APERTURE LIST*
%ADD10C,0.010000*%
G04 APERTURE END LIST*
D10*
G36*
X60611643Y-126644997D02*
G01*
X60348323Y-126646439D01*
X60157754Y-126650342D01*
X60027655Y-126657937D01*
X59945743Y-126670450D01*
X59899734Y-126689111D01*
X59877347Y-126715148D01*
X59866298Y-126749788D01*
X59865224Y-126754272D01*
X59848441Y-126835189D01*
X59817375Y-126994842D01*
X59775258Y-127216238D01*
X59725321Y-127482385D01*
X59670797Y-127776290D01*
X59668893Y-127786612D01*
X59614277Y-128074636D01*
X59563178Y-128329115D01*
X59518894Y-128534785D01*
X59484721Y-128676385D01*
X59463957Y-128738650D01*
X59462967Y-128739753D01*
X59401801Y-128770159D01*
X59275690Y-128820828D01*
X59111869Y-128880822D01*
X59110957Y-128881142D01*
X58904612Y-128958704D01*
X58661340Y-129057507D01*
X58432031Y-129156848D01*
X58421178Y-129161760D01*
X58047683Y-129331276D01*
X57220635Y-128766495D01*
X56966923Y-128594320D01*
X56737098Y-128440395D01*
X56544475Y-128313474D01*
X56402368Y-128222309D01*
X56324093Y-128175655D01*
X56316660Y-128172195D01*
X56259776Y-128187600D01*
X56153531Y-128261927D01*
X55993781Y-128398681D01*
X55776384Y-128601368D01*
X55554452Y-128817008D01*
X55340509Y-129029503D01*
X55149031Y-129223410D01*
X54991545Y-129386754D01*
X54879578Y-129507561D01*
X54824657Y-129573855D01*
X54822614Y-129577268D01*
X54816542Y-129622761D01*
X54839416Y-129697056D01*
X54896885Y-129810186D01*
X54994601Y-129972185D01*
X55138216Y-130193086D01*
X55329667Y-130477460D01*
X55499577Y-130727759D01*
X55651462Y-130952250D01*
X55776545Y-131137900D01*
X55866051Y-131271675D01*
X55911200Y-131340542D01*
X55914042Y-131345218D01*
X55908530Y-131411201D01*
X55866745Y-131539448D01*
X55797003Y-131705720D01*
X55772146Y-131758819D01*
X55663689Y-131995377D01*
X55547980Y-132263789D01*
X55453985Y-132496035D01*
X55386255Y-132668407D01*
X55332457Y-132799403D01*
X55301369Y-132867867D01*
X55297504Y-132873142D01*
X55240329Y-132881880D01*
X55105552Y-132905823D01*
X54911094Y-132941562D01*
X54674875Y-132985689D01*
X54414816Y-133034795D01*
X54148837Y-133085472D01*
X53894857Y-133134313D01*
X53670799Y-133177909D01*
X53494580Y-133212851D01*
X53384123Y-133235732D01*
X53357030Y-133242201D01*
X53329044Y-133258167D01*
X53307919Y-133294227D01*
X53292703Y-133362552D01*
X53282447Y-133475315D01*
X53276200Y-133644686D01*
X53273012Y-133882838D01*
X53271933Y-134201942D01*
X53271877Y-134332741D01*
X53271877Y-135396511D01*
X53527337Y-135446933D01*
X53669463Y-135474273D01*
X53881550Y-135514182D01*
X54137807Y-135561845D01*
X54412442Y-135612446D01*
X54488352Y-135626344D01*
X54741779Y-135675617D01*
X54962553Y-135724070D01*
X55132143Y-135767215D01*
X55232020Y-135800563D01*
X55248657Y-135810502D01*
X55289511Y-135880891D01*
X55348087Y-136017283D01*
X55413045Y-136192805D01*
X55425929Y-136230613D01*
X55511066Y-136465030D01*
X55616744Y-136729524D01*
X55720160Y-136967041D01*
X55720670Y-136968144D01*
X55892888Y-137340733D01*
X55326476Y-138173893D01*
X54760065Y-139007053D01*
X55487298Y-139735500D01*
X55707252Y-139952302D01*
X55907868Y-140143414D01*
X56077878Y-140298636D01*
X56206015Y-140407764D01*
X56281011Y-140460595D01*
X56291769Y-140463947D01*
X56354933Y-140437549D01*
X56483820Y-140364160D01*
X56664351Y-140252484D01*
X56882446Y-140111224D01*
X57118246Y-139953027D01*
X57357564Y-139791664D01*
X57570941Y-139651252D01*
X57744825Y-139540431D01*
X57865666Y-139467838D01*
X57919737Y-139442108D01*
X57985706Y-139463880D01*
X58110802Y-139521251D01*
X58269220Y-139602300D01*
X58286013Y-139611309D01*
X58499348Y-139718300D01*
X58645636Y-139770772D01*
X58736620Y-139771330D01*
X58784041Y-139722580D01*
X58784317Y-139721897D01*
X58808020Y-139664164D01*
X58864551Y-139527115D01*
X58949526Y-139321357D01*
X59058562Y-139057498D01*
X59187276Y-138746144D01*
X59331285Y-138397904D01*
X59470749Y-138060744D01*
X59624020Y-137688666D01*
X59764749Y-137343987D01*
X59888718Y-137037271D01*
X59991709Y-136779085D01*
X60069504Y-136579994D01*
X60117886Y-136450565D01*
X60132796Y-136402261D01*
X60095406Y-136346850D01*
X59997602Y-136258538D01*
X59867185Y-136161174D01*
X59495777Y-135853253D01*
X59205470Y-135500304D01*
X58999744Y-135109761D01*
X58882077Y-134689057D01*
X58855949Y-134245629D01*
X58874940Y-134040958D01*
X58978417Y-133616323D01*
X59156627Y-133241336D01*
X59398518Y-132919696D01*
X59693037Y-132655101D01*
X60029129Y-132451250D01*
X60395742Y-132311842D01*
X60781823Y-132240574D01*
X61176319Y-132241145D01*
X61568175Y-132317254D01*
X61946340Y-132472599D01*
X62299760Y-132710879D01*
X62447273Y-132845639D01*
X62730184Y-133191679D01*
X62927168Y-133569826D01*
X63039536Y-133969055D01*
X63068599Y-134378345D01*
X63015669Y-134786672D01*
X62882057Y-135183013D01*
X62669075Y-135556345D01*
X62378034Y-135895645D01*
X62052814Y-136161174D01*
X61917348Y-136262671D01*
X61821651Y-136350025D01*
X61787203Y-136402343D01*
X61805240Y-136459398D01*
X61856538Y-136595698D01*
X61936876Y-136800678D01*
X62042036Y-137063772D01*
X62167796Y-137374416D01*
X62309937Y-137722043D01*
X62449635Y-138060826D01*
X62603759Y-138433222D01*
X62746518Y-138778307D01*
X62873529Y-139085477D01*
X62980411Y-139344125D01*
X63062780Y-139543647D01*
X63116253Y-139673435D01*
X63136067Y-139721897D01*
X63182876Y-139771129D01*
X63273417Y-139770985D01*
X63419342Y-139718877D01*
X63632302Y-139612216D01*
X63633986Y-139611309D01*
X63794330Y-139528536D01*
X63923948Y-139468242D01*
X63997037Y-139442346D01*
X64000263Y-139442108D01*
X64055284Y-139468374D01*
X64176757Y-139541416D01*
X64351129Y-139652595D01*
X64564850Y-139793273D01*
X64801753Y-139953027D01*
X65042945Y-140114779D01*
X65260326Y-140255450D01*
X65439816Y-140366335D01*
X65567336Y-140438730D01*
X65628230Y-140463947D01*
X65684303Y-140430803D01*
X65797040Y-140338173D01*
X65955177Y-140196257D01*
X66147449Y-140015255D01*
X66362591Y-139805369D01*
X66432952Y-139735249D01*
X67160434Y-139006552D01*
X66606705Y-138193900D01*
X66438423Y-137944342D01*
X66290729Y-137720366D01*
X66171910Y-137534949D01*
X66090250Y-137401065D01*
X66054036Y-137331690D01*
X66052975Y-137326755D01*
X66072067Y-137261364D01*
X66123418Y-137129825D01*
X66198140Y-136954181D01*
X66250588Y-136836591D01*
X66348654Y-136611461D01*
X66441007Y-136384015D01*
X66512606Y-136191839D01*
X66532056Y-136133295D01*
X66587314Y-135976956D01*
X66641331Y-135856158D01*
X66671001Y-135810502D01*
X66736476Y-135782561D01*
X66879376Y-135742951D01*
X67081161Y-135696162D01*
X67323288Y-135646683D01*
X67431647Y-135626344D01*
X67706811Y-135575781D01*
X67970746Y-135526822D01*
X68197659Y-135484281D01*
X68361761Y-135452975D01*
X68392662Y-135446933D01*
X68648122Y-135396511D01*
X68648122Y-134332741D01*
X68647548Y-133982950D01*
X68645193Y-133718300D01*
X68640107Y-133526622D01*
X68631339Y-133395744D01*
X68617938Y-133313493D01*
X68598954Y-133267698D01*
X68573438Y-133246188D01*
X68562969Y-133242201D01*
X68499826Y-133228056D01*
X68360325Y-133199834D01*
X68162389Y-133160943D01*
X67923935Y-133114792D01*
X67662886Y-133064788D01*
X67397161Y-133014341D01*
X67144681Y-132966858D01*
X66923365Y-132925748D01*
X66751134Y-132894419D01*
X66645908Y-132876278D01*
X66622495Y-132873142D01*
X66601284Y-132831173D01*
X66554332Y-132719370D01*
X66490419Y-132558888D01*
X66466014Y-132496035D01*
X66367580Y-132253203D01*
X66251666Y-131984918D01*
X66147853Y-131758819D01*
X66071465Y-131585935D01*
X66020644Y-131443877D01*
X66003679Y-131356878D01*
X66006384Y-131345218D01*
X66042239Y-131290170D01*
X66124108Y-131167739D01*
X66243205Y-130990962D01*
X66390742Y-130772877D01*
X66557931Y-130526520D01*
X66590990Y-130477891D01*
X66784980Y-130189773D01*
X66927579Y-129970377D01*
X67024473Y-129809602D01*
X67081346Y-129697346D01*
X67103884Y-129623510D01*
X67097772Y-129577990D01*
X67097616Y-129577700D01*
X67049511Y-129517910D01*
X66943111Y-129402319D01*
X66789948Y-129242909D01*
X66601555Y-129051665D01*
X66389465Y-128840568D01*
X66365547Y-128817008D01*
X66098262Y-128558172D01*
X65891992Y-128368117D01*
X65742592Y-128243337D01*
X65645920Y-128180327D01*
X65603339Y-128172195D01*
X65541196Y-128207672D01*
X65412237Y-128289623D01*
X65229778Y-128409292D01*
X65007133Y-128557926D01*
X64757616Y-128726772D01*
X64699364Y-128766495D01*
X63872316Y-129331276D01*
X63498821Y-129161760D01*
X63271684Y-129062971D01*
X63027872Y-128963617D01*
X62818275Y-128884401D01*
X62809042Y-128881142D01*
X62645095Y-128821129D01*
X62518715Y-128770382D01*
X62457137Y-128739841D01*
X62457032Y-128739753D01*
X62437493Y-128684548D01*
X62404279Y-128548779D01*
X62360687Y-128347709D01*
X62310016Y-128096599D01*
X62255561Y-127810713D01*
X62251106Y-127786612D01*
X62196482Y-127492059D01*
X62146336Y-127224684D01*
X62103898Y-127001480D01*
X62072402Y-126839439D01*
X62055077Y-126755553D01*
X62054775Y-126754272D01*
X62044232Y-126718588D01*
X62023731Y-126691646D01*
X61980989Y-126672218D01*
X61903724Y-126659075D01*
X61779652Y-126650989D01*
X61596491Y-126646732D01*
X61341958Y-126645075D01*
X61003769Y-126644790D01*
X60960000Y-126644790D01*
X60611643Y-126644997D01*
X60611643Y-126644997D01*
G37*
X60611643Y-126644997D02*
X60348323Y-126646439D01*
X60157754Y-126650342D01*
X60027655Y-126657937D01*
X59945743Y-126670450D01*
X59899734Y-126689111D01*
X59877347Y-126715148D01*
X59866298Y-126749788D01*
X59865224Y-126754272D01*
X59848441Y-126835189D01*
X59817375Y-126994842D01*
X59775258Y-127216238D01*
X59725321Y-127482385D01*
X59670797Y-127776290D01*
X59668893Y-127786612D01*
X59614277Y-128074636D01*
X59563178Y-128329115D01*
X59518894Y-128534785D01*
X59484721Y-128676385D01*
X59463957Y-128738650D01*
X59462967Y-128739753D01*
X59401801Y-128770159D01*
X59275690Y-128820828D01*
X59111869Y-128880822D01*
X59110957Y-128881142D01*
X58904612Y-128958704D01*
X58661340Y-129057507D01*
X58432031Y-129156848D01*
X58421178Y-129161760D01*
X58047683Y-129331276D01*
X57220635Y-128766495D01*
X56966923Y-128594320D01*
X56737098Y-128440395D01*
X56544475Y-128313474D01*
X56402368Y-128222309D01*
X56324093Y-128175655D01*
X56316660Y-128172195D01*
X56259776Y-128187600D01*
X56153531Y-128261927D01*
X55993781Y-128398681D01*
X55776384Y-128601368D01*
X55554452Y-128817008D01*
X55340509Y-129029503D01*
X55149031Y-129223410D01*
X54991545Y-129386754D01*
X54879578Y-129507561D01*
X54824657Y-129573855D01*
X54822614Y-129577268D01*
X54816542Y-129622761D01*
X54839416Y-129697056D01*
X54896885Y-129810186D01*
X54994601Y-129972185D01*
X55138216Y-130193086D01*
X55329667Y-130477460D01*
X55499577Y-130727759D01*
X55651462Y-130952250D01*
X55776545Y-131137900D01*
X55866051Y-131271675D01*
X55911200Y-131340542D01*
X55914042Y-131345218D01*
X55908530Y-131411201D01*
X55866745Y-131539448D01*
X55797003Y-131705720D01*
X55772146Y-131758819D01*
X55663689Y-131995377D01*
X55547980Y-132263789D01*
X55453985Y-132496035D01*
X55386255Y-132668407D01*
X55332457Y-132799403D01*
X55301369Y-132867867D01*
X55297504Y-132873142D01*
X55240329Y-132881880D01*
X55105552Y-132905823D01*
X54911094Y-132941562D01*
X54674875Y-132985689D01*
X54414816Y-133034795D01*
X54148837Y-133085472D01*
X53894857Y-133134313D01*
X53670799Y-133177909D01*
X53494580Y-133212851D01*
X53384123Y-133235732D01*
X53357030Y-133242201D01*
X53329044Y-133258167D01*
X53307919Y-133294227D01*
X53292703Y-133362552D01*
X53282447Y-133475315D01*
X53276200Y-133644686D01*
X53273012Y-133882838D01*
X53271933Y-134201942D01*
X53271877Y-134332741D01*
X53271877Y-135396511D01*
X53527337Y-135446933D01*
X53669463Y-135474273D01*
X53881550Y-135514182D01*
X54137807Y-135561845D01*
X54412442Y-135612446D01*
X54488352Y-135626344D01*
X54741779Y-135675617D01*
X54962553Y-135724070D01*
X55132143Y-135767215D01*
X55232020Y-135800563D01*
X55248657Y-135810502D01*
X55289511Y-135880891D01*
X55348087Y-136017283D01*
X55413045Y-136192805D01*
X55425929Y-136230613D01*
X55511066Y-136465030D01*
X55616744Y-136729524D01*
X55720160Y-136967041D01*
X55720670Y-136968144D01*
X55892888Y-137340733D01*
X55326476Y-138173893D01*
X54760065Y-139007053D01*
X55487298Y-139735500D01*
X55707252Y-139952302D01*
X55907868Y-140143414D01*
X56077878Y-140298636D01*
X56206015Y-140407764D01*
X56281011Y-140460595D01*
X56291769Y-140463947D01*
X56354933Y-140437549D01*
X56483820Y-140364160D01*
X56664351Y-140252484D01*
X56882446Y-140111224D01*
X57118246Y-139953027D01*
X57357564Y-139791664D01*
X57570941Y-139651252D01*
X57744825Y-139540431D01*
X57865666Y-139467838D01*
X57919737Y-139442108D01*
X57985706Y-139463880D01*
X58110802Y-139521251D01*
X58269220Y-139602300D01*
X58286013Y-139611309D01*
X58499348Y-139718300D01*
X58645636Y-139770772D01*
X58736620Y-139771330D01*
X58784041Y-139722580D01*
X58784317Y-139721897D01*
X58808020Y-139664164D01*
X58864551Y-139527115D01*
X58949526Y-139321357D01*
X59058562Y-139057498D01*
X59187276Y-138746144D01*
X59331285Y-138397904D01*
X59470749Y-138060744D01*
X59624020Y-137688666D01*
X59764749Y-137343987D01*
X59888718Y-137037271D01*
X59991709Y-136779085D01*
X60069504Y-136579994D01*
X60117886Y-136450565D01*
X60132796Y-136402261D01*
X60095406Y-136346850D01*
X59997602Y-136258538D01*
X59867185Y-136161174D01*
X59495777Y-135853253D01*
X59205470Y-135500304D01*
X58999744Y-135109761D01*
X58882077Y-134689057D01*
X58855949Y-134245629D01*
X58874940Y-134040958D01*
X58978417Y-133616323D01*
X59156627Y-133241336D01*
X59398518Y-132919696D01*
X59693037Y-132655101D01*
X60029129Y-132451250D01*
X60395742Y-132311842D01*
X60781823Y-132240574D01*
X61176319Y-132241145D01*
X61568175Y-132317254D01*
X61946340Y-132472599D01*
X62299760Y-132710879D01*
X62447273Y-132845639D01*
X62730184Y-133191679D01*
X62927168Y-133569826D01*
X63039536Y-133969055D01*
X63068599Y-134378345D01*
X63015669Y-134786672D01*
X62882057Y-135183013D01*
X62669075Y-135556345D01*
X62378034Y-135895645D01*
X62052814Y-136161174D01*
X61917348Y-136262671D01*
X61821651Y-136350025D01*
X61787203Y-136402343D01*
X61805240Y-136459398D01*
X61856538Y-136595698D01*
X61936876Y-136800678D01*
X62042036Y-137063772D01*
X62167796Y-137374416D01*
X62309937Y-137722043D01*
X62449635Y-138060826D01*
X62603759Y-138433222D01*
X62746518Y-138778307D01*
X62873529Y-139085477D01*
X62980411Y-139344125D01*
X63062780Y-139543647D01*
X63116253Y-139673435D01*
X63136067Y-139721897D01*
X63182876Y-139771129D01*
X63273417Y-139770985D01*
X63419342Y-139718877D01*
X63632302Y-139612216D01*
X63633986Y-139611309D01*
X63794330Y-139528536D01*
X63923948Y-139468242D01*
X63997037Y-139442346D01*
X64000263Y-139442108D01*
X64055284Y-139468374D01*
X64176757Y-139541416D01*
X64351129Y-139652595D01*
X64564850Y-139793273D01*
X64801753Y-139953027D01*
X65042945Y-140114779D01*
X65260326Y-140255450D01*
X65439816Y-140366335D01*
X65567336Y-140438730D01*
X65628230Y-140463947D01*
X65684303Y-140430803D01*
X65797040Y-140338173D01*
X65955177Y-140196257D01*
X66147449Y-140015255D01*
X66362591Y-139805369D01*
X66432952Y-139735249D01*
X67160434Y-139006552D01*
X66606705Y-138193900D01*
X66438423Y-137944342D01*
X66290729Y-137720366D01*
X66171910Y-137534949D01*
X66090250Y-137401065D01*
X66054036Y-137331690D01*
X66052975Y-137326755D01*
X66072067Y-137261364D01*
X66123418Y-137129825D01*
X66198140Y-136954181D01*
X66250588Y-136836591D01*
X66348654Y-136611461D01*
X66441007Y-136384015D01*
X66512606Y-136191839D01*
X66532056Y-136133295D01*
X66587314Y-135976956D01*
X66641331Y-135856158D01*
X66671001Y-135810502D01*
X66736476Y-135782561D01*
X66879376Y-135742951D01*
X67081161Y-135696162D01*
X67323288Y-135646683D01*
X67431647Y-135626344D01*
X67706811Y-135575781D01*
X67970746Y-135526822D01*
X68197659Y-135484281D01*
X68361761Y-135452975D01*
X68392662Y-135446933D01*
X68648122Y-135396511D01*
X68648122Y-134332741D01*
X68647548Y-133982950D01*
X68645193Y-133718300D01*
X68640107Y-133526622D01*
X68631339Y-133395744D01*
X68617938Y-133313493D01*
X68598954Y-133267698D01*
X68573438Y-133246188D01*
X68562969Y-133242201D01*
X68499826Y-133228056D01*
X68360325Y-133199834D01*
X68162389Y-133160943D01*
X67923935Y-133114792D01*
X67662886Y-133064788D01*
X67397161Y-133014341D01*
X67144681Y-132966858D01*
X66923365Y-132925748D01*
X66751134Y-132894419D01*
X66645908Y-132876278D01*
X66622495Y-132873142D01*
X66601284Y-132831173D01*
X66554332Y-132719370D01*
X66490419Y-132558888D01*
X66466014Y-132496035D01*
X66367580Y-132253203D01*
X66251666Y-131984918D01*
X66147853Y-131758819D01*
X66071465Y-131585935D01*
X66020644Y-131443877D01*
X66003679Y-131356878D01*
X66006384Y-131345218D01*
X66042239Y-131290170D01*
X66124108Y-131167739D01*
X66243205Y-130990962D01*
X66390742Y-130772877D01*
X66557931Y-130526520D01*
X66590990Y-130477891D01*
X66784980Y-130189773D01*
X66927579Y-129970377D01*
X67024473Y-129809602D01*
X67081346Y-129697346D01*
X67103884Y-129623510D01*
X67097772Y-129577990D01*
X67097616Y-129577700D01*
X67049511Y-129517910D01*
X66943111Y-129402319D01*
X66789948Y-129242909D01*
X66601555Y-129051665D01*
X66389465Y-128840568D01*
X66365547Y-128817008D01*
X66098262Y-128558172D01*
X65891992Y-128368117D01*
X65742592Y-128243337D01*
X65645920Y-128180327D01*
X65603339Y-128172195D01*
X65541196Y-128207672D01*
X65412237Y-128289623D01*
X65229778Y-128409292D01*
X65007133Y-128557926D01*
X64757616Y-128726772D01*
X64699364Y-128766495D01*
X63872316Y-129331276D01*
X63498821Y-129161760D01*
X63271684Y-129062971D01*
X63027872Y-128963617D01*
X62818275Y-128884401D01*
X62809042Y-128881142D01*
X62645095Y-128821129D01*
X62518715Y-128770382D01*
X62457137Y-128739841D01*
X62457032Y-128739753D01*
X62437493Y-128684548D01*
X62404279Y-128548779D01*
X62360687Y-128347709D01*
X62310016Y-128096599D01*
X62255561Y-127810713D01*
X62251106Y-127786612D01*
X62196482Y-127492059D01*
X62146336Y-127224684D01*
X62103898Y-127001480D01*
X62072402Y-126839439D01*
X62055077Y-126755553D01*
X62054775Y-126754272D01*
X62044232Y-126718588D01*
X62023731Y-126691646D01*
X61980989Y-126672218D01*
X61903724Y-126659075D01*
X61779652Y-126650989D01*
X61596491Y-126646732D01*
X61341958Y-126645075D01*
X61003769Y-126644790D01*
X60960000Y-126644790D01*
X60611643Y-126644997D01*
G36*
X50387601Y-142484233D02*
G01*
X50195083Y-142610057D01*
X50102226Y-142722696D01*
X50028660Y-142927092D01*
X50022817Y-143088830D01*
X50036053Y-143305094D01*
X50534808Y-143523398D01*
X50777315Y-143634930D01*
X50935771Y-143724650D01*
X51018164Y-143802361D01*
X51032482Y-143877867D01*
X50986713Y-143960971D01*
X50936245Y-144016054D01*
X50789395Y-144104389D01*
X50629672Y-144110579D01*
X50482980Y-144041735D01*
X50375219Y-143904972D01*
X50355945Y-143856680D01*
X50263624Y-143705848D01*
X50157412Y-143641567D01*
X50011724Y-143586576D01*
X50011724Y-143795057D01*
X50024604Y-143936926D01*
X50075057Y-144056563D01*
X50180803Y-144193927D01*
X50196520Y-144211777D01*
X50314145Y-144333986D01*
X50415254Y-144399570D01*
X50541750Y-144429742D01*
X50646616Y-144439623D01*
X50834189Y-144442085D01*
X50967716Y-144410892D01*
X51051017Y-144364579D01*
X51181937Y-144262735D01*
X51272561Y-144152591D01*
X51329913Y-144014069D01*
X51361020Y-143827090D01*
X51372906Y-143571577D01*
X51373855Y-143441894D01*
X51370629Y-143286421D01*
X51076834Y-143286421D01*
X51073427Y-143369827D01*
X51064934Y-143383487D01*
X51008890Y-143364931D01*
X50888282Y-143315822D01*
X50727087Y-143246002D01*
X50693378Y-143230995D01*
X50489661Y-143127404D01*
X50377421Y-143036359D01*
X50352753Y-142951081D01*
X50411755Y-142864794D01*
X50460482Y-142826667D01*
X50636306Y-142750417D01*
X50800873Y-142763014D01*
X50938646Y-142856086D01*
X51034087Y-143021256D01*
X51064686Y-143152357D01*
X51076834Y-143286421D01*
X51370629Y-143286421D01*
X51367568Y-143138919D01*
X51344401Y-142914756D01*
X51298510Y-142751526D01*
X51224046Y-142631352D01*
X51115164Y-142536355D01*
X51067695Y-142505655D01*
X50852062Y-142425703D01*
X50615979Y-142420672D01*
X50387601Y-142484233D01*
X50387601Y-142484233D01*
G37*
X50387601Y-142484233D02*
X50195083Y-142610057D01*
X50102226Y-142722696D01*
X50028660Y-142927092D01*
X50022817Y-143088830D01*
X50036053Y-143305094D01*
X50534808Y-143523398D01*
X50777315Y-143634930D01*
X50935771Y-143724650D01*
X51018164Y-143802361D01*
X51032482Y-143877867D01*
X50986713Y-143960971D01*
X50936245Y-144016054D01*
X50789395Y-144104389D01*
X50629672Y-144110579D01*
X50482980Y-144041735D01*
X50375219Y-143904972D01*
X50355945Y-143856680D01*
X50263624Y-143705848D01*
X50157412Y-143641567D01*
X50011724Y-143586576D01*
X50011724Y-143795057D01*
X50024604Y-143936926D01*
X50075057Y-144056563D01*
X50180803Y-144193927D01*
X50196520Y-144211777D01*
X50314145Y-144333986D01*
X50415254Y-144399570D01*
X50541750Y-144429742D01*
X50646616Y-144439623D01*
X50834189Y-144442085D01*
X50967716Y-144410892D01*
X51051017Y-144364579D01*
X51181937Y-144262735D01*
X51272561Y-144152591D01*
X51329913Y-144014069D01*
X51361020Y-143827090D01*
X51372906Y-143571577D01*
X51373855Y-143441894D01*
X51370629Y-143286421D01*
X51076834Y-143286421D01*
X51073427Y-143369827D01*
X51064934Y-143383487D01*
X51008890Y-143364931D01*
X50888282Y-143315822D01*
X50727087Y-143246002D01*
X50693378Y-143230995D01*
X50489661Y-143127404D01*
X50377421Y-143036359D01*
X50352753Y-142951081D01*
X50411755Y-142864794D01*
X50460482Y-142826667D01*
X50636306Y-142750417D01*
X50800873Y-142763014D01*
X50938646Y-142856086D01*
X51034087Y-143021256D01*
X51064686Y-143152357D01*
X51076834Y-143286421D01*
X51370629Y-143286421D01*
X51367568Y-143138919D01*
X51344401Y-142914756D01*
X51298510Y-142751526D01*
X51224046Y-142631352D01*
X51115164Y-142536355D01*
X51067695Y-142505655D01*
X50852062Y-142425703D01*
X50615979Y-142420672D01*
X50387601Y-142484233D01*
G36*
X52067184Y-142456697D02*
G01*
X52009024Y-142482116D01*
X51870205Y-142592059D01*
X51751495Y-142751030D01*
X51678079Y-142920677D01*
X51666130Y-143004313D01*
X51706191Y-143121078D01*
X51794065Y-143182862D01*
X51888282Y-143220273D01*
X51931423Y-143227167D01*
X51952429Y-143177138D01*
X51993910Y-143068269D01*
X52012108Y-143019076D01*
X52114152Y-142848913D01*
X52261897Y-142764038D01*
X52451345Y-142766648D01*
X52465377Y-142769991D01*
X52566519Y-142817945D01*
X52640876Y-142911432D01*
X52691662Y-143061939D01*
X52722092Y-143280951D01*
X52735382Y-143579956D01*
X52736628Y-143739056D01*
X52737246Y-143989855D01*
X52741295Y-144160825D01*
X52752067Y-144269454D01*
X52772853Y-144333230D01*
X52806945Y-144369643D01*
X52857635Y-144396179D01*
X52860565Y-144397515D01*
X52958182Y-144438787D01*
X53006542Y-144453985D01*
X53013973Y-144408037D01*
X53020334Y-144281034D01*
X53025168Y-144089235D01*
X53028015Y-143848902D01*
X53028582Y-143673024D01*
X53025687Y-143332688D01*
X53014363Y-143074495D01*
X52990654Y-142883374D01*
X52950603Y-142744253D01*
X52890253Y-142642060D01*
X52805647Y-142561724D01*
X52722101Y-142505655D01*
X52521209Y-142431032D01*
X52287404Y-142414202D01*
X52067184Y-142456697D01*
X52067184Y-142456697D01*
G37*
X52067184Y-142456697D02*
X52009024Y-142482116D01*
X51870205Y-142592059D01*
X51751495Y-142751030D01*
X51678079Y-142920677D01*
X51666130Y-143004313D01*
X51706191Y-143121078D01*
X51794065Y-143182862D01*
X51888282Y-143220273D01*
X51931423Y-143227167D01*
X51952429Y-143177138D01*
X51993910Y-143068269D01*
X52012108Y-143019076D01*
X52114152Y-142848913D01*
X52261897Y-142764038D01*
X52451345Y-142766648D01*
X52465377Y-142769991D01*
X52566519Y-142817945D01*
X52640876Y-142911432D01*
X52691662Y-143061939D01*
X52722092Y-143280951D01*
X52735382Y-143579956D01*
X52736628Y-143739056D01*
X52737246Y-143989855D01*
X52741295Y-144160825D01*
X52752067Y-144269454D01*
X52772853Y-144333230D01*
X52806945Y-144369643D01*
X52857635Y-144396179D01*
X52860565Y-144397515D01*
X52958182Y-144438787D01*
X53006542Y-144453985D01*
X53013973Y-144408037D01*
X53020334Y-144281034D01*
X53025168Y-144089235D01*
X53028015Y-143848902D01*
X53028582Y-143673024D01*
X53025687Y-143332688D01*
X53014363Y-143074495D01*
X52990654Y-142883374D01*
X52950603Y-142744253D01*
X52890253Y-142642060D01*
X52805647Y-142561724D01*
X52722101Y-142505655D01*
X52521209Y-142431032D01*
X52287404Y-142414202D01*
X52067184Y-142456697D01*
G36*
X53769322Y-142448594D02*
G01*
X53629218Y-142512323D01*
X53519250Y-142589543D01*
X53438676Y-142675887D01*
X53383046Y-142787272D01*
X53347911Y-142939616D01*
X53328821Y-143148835D01*
X53321328Y-143430846D01*
X53320536Y-143616555D01*
X53320536Y-144341046D01*
X53444473Y-144397515D01*
X53542090Y-144438787D01*
X53590450Y-144453985D01*
X53599702Y-144408762D01*
X53607042Y-144286824D01*
X53611536Y-144108772D01*
X53612490Y-143967395D01*
X53616590Y-143763146D01*
X53627646Y-143601113D01*
X53643789Y-143501891D01*
X53656613Y-143480805D01*
X53742814Y-143502338D01*
X53878138Y-143557566D01*
X54034830Y-143632436D01*
X54185137Y-143712892D01*
X54301307Y-143784880D01*
X54355587Y-143834346D01*
X54355802Y-143834881D01*
X54351133Y-143926428D01*
X54309268Y-144013820D01*
X54235765Y-144084802D01*
X54128484Y-144108543D01*
X54036798Y-144105777D01*
X53906942Y-144103741D01*
X53838779Y-144134164D01*
X53797841Y-144214543D01*
X53792679Y-144229700D01*
X53774933Y-144344331D01*
X53822391Y-144413934D01*
X53946093Y-144447105D01*
X54079719Y-144453240D01*
X54320183Y-144407763D01*
X54444662Y-144342817D01*
X54598395Y-144190246D01*
X54679927Y-144002971D01*
X54687244Y-143805085D01*
X54618331Y-143620685D01*
X54514672Y-143505134D01*
X54411177Y-143440442D01*
X54248508Y-143358542D01*
X54058946Y-143275486D01*
X54027350Y-143262795D01*
X53819131Y-143170908D01*
X53699102Y-143089923D01*
X53660499Y-143009413D01*
X53696560Y-142918950D01*
X53758467Y-142848238D01*
X53904787Y-142761170D01*
X54065783Y-142754640D01*
X54213427Y-142821735D01*
X54319690Y-142955544D01*
X54333638Y-142990067D01*
X54414840Y-143117042D01*
X54533392Y-143211309D01*
X54682988Y-143288668D01*
X54682988Y-143069307D01*
X54674183Y-142935280D01*
X54636430Y-142829644D01*
X54552721Y-142716939D01*
X54472364Y-142630127D01*
X54347409Y-142507204D01*
X54250323Y-142441171D01*
X54146046Y-142414684D01*
X54028011Y-142410307D01*
X53769322Y-142448594D01*
X53769322Y-142448594D01*
G37*
X53769322Y-142448594D02*
X53629218Y-142512323D01*
X53519250Y-142589543D01*
X53438676Y-142675887D01*
X53383046Y-142787272D01*
X53347911Y-142939616D01*
X53328821Y-143148835D01*
X53321328Y-143430846D01*
X53320536Y-143616555D01*
X53320536Y-144341046D01*
X53444473Y-144397515D01*
X53542090Y-144438787D01*
X53590450Y-144453985D01*
X53599702Y-144408762D01*
X53607042Y-144286824D01*
X53611536Y-144108772D01*
X53612490Y-143967395D01*
X53616590Y-143763146D01*
X53627646Y-143601113D01*
X53643789Y-143501891D01*
X53656613Y-143480805D01*
X53742814Y-143502338D01*
X53878138Y-143557566D01*
X54034830Y-143632436D01*
X54185137Y-143712892D01*
X54301307Y-143784880D01*
X54355587Y-143834346D01*
X54355802Y-143834881D01*
X54351133Y-143926428D01*
X54309268Y-144013820D01*
X54235765Y-144084802D01*
X54128484Y-144108543D01*
X54036798Y-144105777D01*
X53906942Y-144103741D01*
X53838779Y-144134164D01*
X53797841Y-144214543D01*
X53792679Y-144229700D01*
X53774933Y-144344331D01*
X53822391Y-144413934D01*
X53946093Y-144447105D01*
X54079719Y-144453240D01*
X54320183Y-144407763D01*
X54444662Y-144342817D01*
X54598395Y-144190246D01*
X54679927Y-144002971D01*
X54687244Y-143805085D01*
X54618331Y-143620685D01*
X54514672Y-143505134D01*
X54411177Y-143440442D01*
X54248508Y-143358542D01*
X54058946Y-143275486D01*
X54027350Y-143262795D01*
X53819131Y-143170908D01*
X53699102Y-143089923D01*
X53660499Y-143009413D01*
X53696560Y-142918950D01*
X53758467Y-142848238D01*
X53904787Y-142761170D01*
X54065783Y-142754640D01*
X54213427Y-142821735D01*
X54319690Y-142955544D01*
X54333638Y-142990067D01*
X54414840Y-143117042D01*
X54533392Y-143211309D01*
X54682988Y-143288668D01*
X54682988Y-143069307D01*
X54674183Y-142935280D01*
X54636430Y-142829644D01*
X54552721Y-142716939D01*
X54472364Y-142630127D01*
X54347409Y-142507204D01*
X54250323Y-142441171D01*
X54146046Y-142414684D01*
X54028011Y-142410307D01*
X53769322Y-142448594D01*
G36*
X54993127Y-142456400D02*
G01*
X54985701Y-142584422D01*
X54979882Y-142778985D01*
X54976141Y-143024702D01*
X54974942Y-143282426D01*
X54974942Y-144154545D01*
X55128925Y-144308528D01*
X55235037Y-144403412D01*
X55328184Y-144441845D01*
X55455496Y-144439413D01*
X55506032Y-144433223D01*
X55663983Y-144415210D01*
X55794629Y-144404888D01*
X55826475Y-144403935D01*
X55933834Y-144410171D01*
X56087381Y-144425824D01*
X56146917Y-144433223D01*
X56293143Y-144444668D01*
X56391411Y-144419808D01*
X56488850Y-144343058D01*
X56524024Y-144308528D01*
X56678007Y-144154545D01*
X56678007Y-142523246D01*
X56554070Y-142466776D01*
X56447350Y-142424950D01*
X56384913Y-142410307D01*
X56368904Y-142456583D01*
X56353942Y-142585884D01*
X56341022Y-142783914D01*
X56331143Y-143036380D01*
X56326378Y-143249675D01*
X56313065Y-144089042D01*
X56196920Y-144105464D01*
X56091284Y-144093982D01*
X56039523Y-144056805D01*
X56025055Y-143987298D01*
X56012702Y-143839240D01*
X56003448Y-143631391D01*
X55998272Y-143382512D01*
X55997526Y-143254435D01*
X55996781Y-142517145D01*
X55843543Y-142463726D01*
X55735084Y-142427406D01*
X55676087Y-142410468D01*
X55674386Y-142410307D01*
X55668467Y-142456349D01*
X55661961Y-142584018D01*
X55655414Y-142777632D01*
X55649373Y-143021507D01*
X55645152Y-143249675D01*
X55631839Y-144089042D01*
X55339885Y-144089042D01*
X55326487Y-143323275D01*
X55313090Y-142557508D01*
X55170762Y-142483908D01*
X55065678Y-142433366D01*
X55003483Y-142410431D01*
X55001688Y-142410307D01*
X54993127Y-142456400D01*
X54993127Y-142456400D01*
G37*
X54993127Y-142456400D02*
X54985701Y-142584422D01*
X54979882Y-142778985D01*
X54976141Y-143024702D01*
X54974942Y-143282426D01*
X54974942Y-144154545D01*
X55128925Y-144308528D01*
X55235037Y-144403412D01*
X55328184Y-144441845D01*
X55455496Y-144439413D01*
X55506032Y-144433223D01*
X55663983Y-144415210D01*
X55794629Y-144404888D01*
X55826475Y-144403935D01*
X55933834Y-144410171D01*
X56087381Y-144425824D01*
X56146917Y-144433223D01*
X56293143Y-144444668D01*
X56391411Y-144419808D01*
X56488850Y-144343058D01*
X56524024Y-144308528D01*
X56678007Y-144154545D01*
X56678007Y-142523246D01*
X56554070Y-142466776D01*
X56447350Y-142424950D01*
X56384913Y-142410307D01*
X56368904Y-142456583D01*
X56353942Y-142585884D01*
X56341022Y-142783914D01*
X56331143Y-143036380D01*
X56326378Y-143249675D01*
X56313065Y-144089042D01*
X56196920Y-144105464D01*
X56091284Y-144093982D01*
X56039523Y-144056805D01*
X56025055Y-143987298D01*
X56012702Y-143839240D01*
X56003448Y-143631391D01*
X55998272Y-143382512D01*
X55997526Y-143254435D01*
X55996781Y-142517145D01*
X55843543Y-142463726D01*
X55735084Y-142427406D01*
X55676087Y-142410468D01*
X55674386Y-142410307D01*
X55668467Y-142456349D01*
X55661961Y-142584018D01*
X55655414Y-142777632D01*
X55649373Y-143021507D01*
X55645152Y-143249675D01*
X55631839Y-144089042D01*
X55339885Y-144089042D01*
X55326487Y-143323275D01*
X55313090Y-142557508D01*
X55170762Y-142483908D01*
X55065678Y-142433366D01*
X55003483Y-142410431D01*
X55001688Y-142410307D01*
X54993127Y-142456400D01*
G36*
X56970143Y-142814093D02*
G01*
X56970761Y-143177769D01*
X56973153Y-143457532D01*
X56978329Y-143666784D01*
X56987296Y-143818926D01*
X57001064Y-143927359D01*
X57020639Y-144005485D01*
X57047032Y-144066707D01*
X57067016Y-144101652D01*
X57232517Y-144291157D01*
X57442352Y-144409942D01*
X57674514Y-144452564D01*
X57906992Y-144413583D01*
X58045428Y-144343532D01*
X58190758Y-144222353D01*
X58289805Y-144074354D01*
X58349565Y-143880534D01*
X58377031Y-143621892D01*
X58380921Y-143432146D01*
X58380397Y-143418510D01*
X58040459Y-143418510D01*
X58038383Y-143636096D01*
X58028870Y-143780134D01*
X58006992Y-143874364D01*
X57967824Y-143942523D01*
X57921024Y-143993936D01*
X57763854Y-144093175D01*
X57595100Y-144101653D01*
X57435607Y-144018799D01*
X57423193Y-144007572D01*
X57370209Y-143949171D01*
X57336986Y-143879686D01*
X57319000Y-143776270D01*
X57311725Y-143616073D01*
X57310574Y-143438965D01*
X57313068Y-143216467D01*
X57323392Y-143068037D01*
X57345809Y-142970489D01*
X57384582Y-142900637D01*
X57416374Y-142863539D01*
X57564061Y-142769975D01*
X57734154Y-142758725D01*
X57896508Y-142830190D01*
X57927840Y-142856720D01*
X57981178Y-142915636D01*
X58014469Y-142985837D01*
X58032344Y-143090418D01*
X58039434Y-143252479D01*
X58040459Y-143418510D01*
X58380397Y-143418510D01*
X58369160Y-143126579D01*
X58329213Y-142896993D01*
X58254087Y-142724387D01*
X58136786Y-142589760D01*
X58045428Y-142520759D01*
X57879373Y-142446214D01*
X57686908Y-142411613D01*
X57508001Y-142420875D01*
X57407892Y-142458238D01*
X57368607Y-142468872D01*
X57342539Y-142429225D01*
X57324342Y-142322981D01*
X57310574Y-142161145D01*
X57295501Y-141980902D01*
X57274564Y-141872458D01*
X57236468Y-141810446D01*
X57169915Y-141769499D01*
X57128103Y-141751366D01*
X56969961Y-141685120D01*
X56970143Y-142814093D01*
X56970143Y-142814093D01*
G37*
X56970143Y-142814093D02*
X56970761Y-143177769D01*
X56973153Y-143457532D01*
X56978329Y-143666784D01*
X56987296Y-143818926D01*
X57001064Y-143927359D01*
X57020639Y-144005485D01*
X57047032Y-144066707D01*
X57067016Y-144101652D01*
X57232517Y-144291157D01*
X57442352Y-144409942D01*
X57674514Y-144452564D01*
X57906992Y-144413583D01*
X58045428Y-144343532D01*
X58190758Y-144222353D01*
X58289805Y-144074354D01*
X58349565Y-143880534D01*
X58377031Y-143621892D01*
X58380921Y-143432146D01*
X58380397Y-143418510D01*
X58040459Y-143418510D01*
X58038383Y-143636096D01*
X58028870Y-143780134D01*
X58006992Y-143874364D01*
X57967824Y-143942523D01*
X57921024Y-143993936D01*
X57763854Y-144093175D01*
X57595100Y-144101653D01*
X57435607Y-144018799D01*
X57423193Y-144007572D01*
X57370209Y-143949171D01*
X57336986Y-143879686D01*
X57319000Y-143776270D01*
X57311725Y-143616073D01*
X57310574Y-143438965D01*
X57313068Y-143216467D01*
X57323392Y-143068037D01*
X57345809Y-142970489D01*
X57384582Y-142900637D01*
X57416374Y-142863539D01*
X57564061Y-142769975D01*
X57734154Y-142758725D01*
X57896508Y-142830190D01*
X57927840Y-142856720D01*
X57981178Y-142915636D01*
X58014469Y-142985837D01*
X58032344Y-143090418D01*
X58039434Y-143252479D01*
X58040459Y-143418510D01*
X58380397Y-143418510D01*
X58369160Y-143126579D01*
X58329213Y-142896993D01*
X58254087Y-142724387D01*
X58136786Y-142589760D01*
X58045428Y-142520759D01*
X57879373Y-142446214D01*
X57686908Y-142411613D01*
X57508001Y-142420875D01*
X57407892Y-142458238D01*
X57368607Y-142468872D01*
X57342539Y-142429225D01*
X57324342Y-142322981D01*
X57310574Y-142161145D01*
X57295501Y-141980902D01*
X57274564Y-141872458D01*
X57236468Y-141810446D01*
X57169915Y-141769499D01*
X57128103Y-141751366D01*
X56969961Y-141685120D01*
X56970143Y-142814093D01*
G36*
X59183428Y-142426534D02*
G01*
X58962391Y-142508099D01*
X58783317Y-142652366D01*
X58713280Y-142753920D01*
X58636929Y-142940268D01*
X58638515Y-143075010D01*
X58718653Y-143165631D01*
X58748304Y-143181040D01*
X58876326Y-143229084D01*
X58941706Y-143216776D01*
X58963852Y-143136098D01*
X58964980Y-143091533D01*
X59005523Y-142927581D01*
X59111198Y-142812891D01*
X59258076Y-142757497D01*
X59422227Y-142771435D01*
X59555663Y-142843827D01*
X59600731Y-142885120D01*
X59632677Y-142935216D01*
X59654256Y-143010942D01*
X59668227Y-143129128D01*
X59677345Y-143306600D01*
X59684369Y-143560186D01*
X59686188Y-143640479D01*
X59692822Y-143915158D01*
X59700364Y-144108481D01*
X59711675Y-144236388D01*
X59729615Y-144314822D01*
X59757045Y-144359725D01*
X59796823Y-144387038D01*
X59822290Y-144399105D01*
X59930444Y-144440367D01*
X59994110Y-144453985D01*
X60015146Y-144408505D01*
X60027987Y-144271006D01*
X60032700Y-144039902D01*
X60029356Y-143713604D01*
X60028314Y-143663276D01*
X60020965Y-143365581D01*
X60012274Y-143148205D01*
X59999908Y-142994153D01*
X59981530Y-142886430D01*
X59954805Y-142808042D01*
X59917398Y-142741994D01*
X59897830Y-142713691D01*
X59785634Y-142588467D01*
X59660150Y-142491063D01*
X59644787Y-142482561D01*
X59419777Y-142415433D01*
X59183428Y-142426534D01*
X59183428Y-142426534D01*
G37*
X59183428Y-142426534D02*
X58962391Y-142508099D01*
X58783317Y-142652366D01*
X58713280Y-142753920D01*
X58636929Y-142940268D01*
X58638515Y-143075010D01*
X58718653Y-143165631D01*
X58748304Y-143181040D01*
X58876326Y-143229084D01*
X58941706Y-143216776D01*
X58963852Y-143136098D01*
X58964980Y-143091533D01*
X59005523Y-142927581D01*
X59111198Y-142812891D01*
X59258076Y-142757497D01*
X59422227Y-142771435D01*
X59555663Y-142843827D01*
X59600731Y-142885120D01*
X59632677Y-142935216D01*
X59654256Y-143010942D01*
X59668227Y-143129128D01*
X59677345Y-143306600D01*
X59684369Y-143560186D01*
X59686188Y-143640479D01*
X59692822Y-143915158D01*
X59700364Y-144108481D01*
X59711675Y-144236388D01*
X59729615Y-144314822D01*
X59757045Y-144359725D01*
X59796823Y-144387038D01*
X59822290Y-144399105D01*
X59930444Y-144440367D01*
X59994110Y-144453985D01*
X60015146Y-144408505D01*
X60027987Y-144271006D01*
X60032700Y-144039902D01*
X60029356Y-143713604D01*
X60028314Y-143663276D01*
X60020965Y-143365581D01*
X60012274Y-143148205D01*
X59999908Y-142994153D01*
X59981530Y-142886430D01*
X59954805Y-142808042D01*
X59917398Y-142741994D01*
X59897830Y-142713691D01*
X59785634Y-142588467D01*
X59660150Y-142491063D01*
X59644787Y-142482561D01*
X59419777Y-142415433D01*
X59183428Y-142426534D01*
G36*
X60826759Y-142430601D02*
G01*
X60636095Y-142501403D01*
X60633914Y-142502764D01*
X60515994Y-142589550D01*
X60428940Y-142690973D01*
X60367714Y-142823145D01*
X60327277Y-143002182D01*
X60302591Y-143244195D01*
X60288618Y-143565299D01*
X60287393Y-143611048D01*
X60269800Y-144300869D01*
X60417848Y-144377427D01*
X60524970Y-144429163D01*
X60589649Y-144453678D01*
X60592641Y-144453985D01*
X60603834Y-144408751D01*
X60612725Y-144286736D01*
X60618194Y-144108468D01*
X60619387Y-143964116D01*
X60619414Y-143730271D01*
X60630104Y-143583419D01*
X60667367Y-143513376D01*
X60747112Y-143509958D01*
X60885251Y-143562983D01*
X61093812Y-143660454D01*
X61247171Y-143741409D01*
X61326048Y-143811644D01*
X61349236Y-143888194D01*
X61349272Y-143891982D01*
X61311007Y-144023852D01*
X61197717Y-144095091D01*
X61024336Y-144105410D01*
X60899450Y-144103620D01*
X60833601Y-144139589D01*
X60792536Y-144225985D01*
X60768901Y-144336054D01*
X60802961Y-144398508D01*
X60815786Y-144407446D01*
X60936528Y-144443343D01*
X61105612Y-144448426D01*
X61279739Y-144424631D01*
X61403124Y-144381147D01*
X61573713Y-144236309D01*
X61670681Y-144034694D01*
X61689885Y-143877180D01*
X61675230Y-143735104D01*
X61622199Y-143619127D01*
X61517194Y-143516121D01*
X61346614Y-143412954D01*
X61096862Y-143296496D01*
X61081647Y-143289914D01*
X60856671Y-143185981D01*
X60717843Y-143100743D01*
X60658338Y-143024147D01*
X60671328Y-142946139D01*
X60749988Y-142856664D01*
X60773510Y-142836073D01*
X60931067Y-142756236D01*
X61094323Y-142759597D01*
X61236505Y-142837874D01*
X61330840Y-142982781D01*
X61339605Y-143011224D01*
X61424962Y-143149174D01*
X61533271Y-143215620D01*
X61689885Y-143281471D01*
X61689885Y-143111097D01*
X61642244Y-142863454D01*
X61500841Y-142636307D01*
X61427258Y-142560318D01*
X61259991Y-142462790D01*
X61047274Y-142418640D01*
X60826759Y-142430601D01*
X60826759Y-142430601D01*
G37*
X60826759Y-142430601D02*
X60636095Y-142501403D01*
X60633914Y-142502764D01*
X60515994Y-142589550D01*
X60428940Y-142690973D01*
X60367714Y-142823145D01*
X60327277Y-143002182D01*
X60302591Y-143244195D01*
X60288618Y-143565299D01*
X60287393Y-143611048D01*
X60269800Y-144300869D01*
X60417848Y-144377427D01*
X60524970Y-144429163D01*
X60589649Y-144453678D01*
X60592641Y-144453985D01*
X60603834Y-144408751D01*
X60612725Y-144286736D01*
X60618194Y-144108468D01*
X60619387Y-143964116D01*
X60619414Y-143730271D01*
X60630104Y-143583419D01*
X60667367Y-143513376D01*
X60747112Y-143509958D01*
X60885251Y-143562983D01*
X61093812Y-143660454D01*
X61247171Y-143741409D01*
X61326048Y-143811644D01*
X61349236Y-143888194D01*
X61349272Y-143891982D01*
X61311007Y-144023852D01*
X61197717Y-144095091D01*
X61024336Y-144105410D01*
X60899450Y-144103620D01*
X60833601Y-144139589D01*
X60792536Y-144225985D01*
X60768901Y-144336054D01*
X60802961Y-144398508D01*
X60815786Y-144407446D01*
X60936528Y-144443343D01*
X61105612Y-144448426D01*
X61279739Y-144424631D01*
X61403124Y-144381147D01*
X61573713Y-144236309D01*
X61670681Y-144034694D01*
X61689885Y-143877180D01*
X61675230Y-143735104D01*
X61622199Y-143619127D01*
X61517194Y-143516121D01*
X61346614Y-143412954D01*
X61096862Y-143296496D01*
X61081647Y-143289914D01*
X60856671Y-143185981D01*
X60717843Y-143100743D01*
X60658338Y-143024147D01*
X60671328Y-142946139D01*
X60749988Y-142856664D01*
X60773510Y-142836073D01*
X60931067Y-142756236D01*
X61094323Y-142759597D01*
X61236505Y-142837874D01*
X61330840Y-142982781D01*
X61339605Y-143011224D01*
X61424962Y-143149174D01*
X61533271Y-143215620D01*
X61689885Y-143281471D01*
X61689885Y-143111097D01*
X61642244Y-142863454D01*
X61500841Y-142636307D01*
X61427258Y-142560318D01*
X61259991Y-142462790D01*
X61047274Y-142418640D01*
X60826759Y-142430601D01*
G36*
X63052337Y-142096429D02*
G01*
X63038077Y-142295313D01*
X63021698Y-142412511D01*
X62999002Y-142463632D01*
X62965788Y-142464286D01*
X62955019Y-142458183D01*
X62811767Y-142413997D01*
X62625425Y-142416577D01*
X62435976Y-142461999D01*
X62317483Y-142520759D01*
X62195991Y-142614631D01*
X62107177Y-142720865D01*
X62046208Y-142855850D01*
X62008250Y-143035976D01*
X61988468Y-143277633D01*
X61982030Y-143597211D01*
X61981914Y-143658516D01*
X61981839Y-144347147D01*
X62135077Y-144400566D01*
X62243913Y-144436908D01*
X62303626Y-144453828D01*
X62305383Y-144453985D01*
X62311264Y-144408100D01*
X62316268Y-144281539D01*
X62320016Y-144090941D01*
X62322127Y-143852948D01*
X62322452Y-143708252D01*
X62323129Y-143422955D01*
X62326614Y-143218480D01*
X62335088Y-143078334D01*
X62350734Y-142986023D01*
X62375731Y-142925053D01*
X62412262Y-142878931D01*
X62435071Y-142856720D01*
X62591751Y-142767214D01*
X62762726Y-142760511D01*
X62917850Y-142836208D01*
X62946537Y-142863539D01*
X62988613Y-142914929D01*
X63017799Y-142975886D01*
X63036429Y-143064025D01*
X63046839Y-143196961D01*
X63051363Y-143392309D01*
X63052337Y-143661652D01*
X63052337Y-144347147D01*
X63205575Y-144400566D01*
X63314411Y-144436908D01*
X63374124Y-144453828D01*
X63375881Y-144453985D01*
X63380375Y-144407414D01*
X63384425Y-144276051D01*
X63387870Y-144072422D01*
X63390547Y-143809054D01*
X63392294Y-143498471D01*
X63392949Y-143153201D01*
X63392950Y-143137843D01*
X63392950Y-141821701D01*
X63076666Y-141688289D01*
X63052337Y-142096429D01*
X63052337Y-142096429D01*
G37*
X63052337Y-142096429D02*
X63038077Y-142295313D01*
X63021698Y-142412511D01*
X62999002Y-142463632D01*
X62965788Y-142464286D01*
X62955019Y-142458183D01*
X62811767Y-142413997D01*
X62625425Y-142416577D01*
X62435976Y-142461999D01*
X62317483Y-142520759D01*
X62195991Y-142614631D01*
X62107177Y-142720865D01*
X62046208Y-142855850D01*
X62008250Y-143035976D01*
X61988468Y-143277633D01*
X61982030Y-143597211D01*
X61981914Y-143658516D01*
X61981839Y-144347147D01*
X62135077Y-144400566D01*
X62243913Y-144436908D01*
X62303626Y-144453828D01*
X62305383Y-144453985D01*
X62311264Y-144408100D01*
X62316268Y-144281539D01*
X62320016Y-144090941D01*
X62322127Y-143852948D01*
X62322452Y-143708252D01*
X62323129Y-143422955D01*
X62326614Y-143218480D01*
X62335088Y-143078334D01*
X62350734Y-142986023D01*
X62375731Y-142925053D01*
X62412262Y-142878931D01*
X62435071Y-142856720D01*
X62591751Y-142767214D01*
X62762726Y-142760511D01*
X62917850Y-142836208D01*
X62946537Y-142863539D01*
X62988613Y-142914929D01*
X63017799Y-142975886D01*
X63036429Y-143064025D01*
X63046839Y-143196961D01*
X63051363Y-143392309D01*
X63052337Y-143661652D01*
X63052337Y-144347147D01*
X63205575Y-144400566D01*
X63314411Y-144436908D01*
X63374124Y-144453828D01*
X63375881Y-144453985D01*
X63380375Y-144407414D01*
X63384425Y-144276051D01*
X63387870Y-144072422D01*
X63390547Y-143809054D01*
X63392294Y-143498471D01*
X63392949Y-143153201D01*
X63392950Y-143137843D01*
X63392950Y-141821701D01*
X63076666Y-141688289D01*
X63052337Y-142096429D01*
G36*
X67100747Y-142364461D02*
G01*
X66908903Y-142493519D01*
X66760648Y-142679915D01*
X66672084Y-142917109D01*
X66654172Y-143091691D01*
X66656206Y-143164544D01*
X66673240Y-143220324D01*
X66720064Y-143270298D01*
X66811473Y-143325733D01*
X66962258Y-143397896D01*
X67187213Y-143498055D01*
X67188352Y-143498558D01*
X67395415Y-143593396D01*
X67565212Y-143677609D01*
X67680388Y-143742133D01*
X67723590Y-143777900D01*
X67723601Y-143778188D01*
X67685525Y-143856074D01*
X67596484Y-143941924D01*
X67494263Y-144003769D01*
X67442474Y-144016054D01*
X67301184Y-143973564D01*
X67179512Y-143867152D01*
X67120145Y-143750156D01*
X67063033Y-143663905D01*
X66951161Y-143565681D01*
X66819654Y-143480827D01*
X66703632Y-143434681D01*
X66679371Y-143432146D01*
X66652062Y-143473868D01*
X66650416Y-143580519D01*
X66670486Y-143724321D01*
X66708322Y-143877501D01*
X66759977Y-144012283D01*
X66762586Y-144017516D01*
X66918031Y-144234557D01*
X67119493Y-144382185D01*
X67348288Y-144454644D01*
X67585733Y-144446177D01*
X67813146Y-144351027D01*
X67823257Y-144344337D01*
X68002150Y-144182211D01*
X68119780Y-143970682D01*
X68184877Y-143692543D01*
X68193613Y-143614398D01*
X68209086Y-143245549D01*
X68190537Y-143073541D01*
X67723601Y-143073541D01*
X67717534Y-143180838D01*
X67684351Y-143212152D01*
X67601623Y-143188725D01*
X67471221Y-143133348D01*
X67325457Y-143063932D01*
X67321834Y-143062094D01*
X67198283Y-142997108D01*
X67148697Y-142953740D01*
X67160925Y-142908275D01*
X67212412Y-142848536D01*
X67343399Y-142762085D01*
X67484462Y-142755733D01*
X67610995Y-142818649D01*
X67698392Y-142940003D01*
X67723601Y-143073541D01*
X68190537Y-143073541D01*
X68177260Y-142950435D01*
X68095609Y-142716382D01*
X67981939Y-142552413D01*
X67776775Y-142386716D01*
X67550786Y-142304519D01*
X67320075Y-142299281D01*
X67100747Y-142364461D01*
X67100747Y-142364461D01*
G37*
X67100747Y-142364461D02*
X66908903Y-142493519D01*
X66760648Y-142679915D01*
X66672084Y-142917109D01*
X66654172Y-143091691D01*
X66656206Y-143164544D01*
X66673240Y-143220324D01*
X66720064Y-143270298D01*
X66811473Y-143325733D01*
X66962258Y-143397896D01*
X67187213Y-143498055D01*
X67188352Y-143498558D01*
X67395415Y-143593396D01*
X67565212Y-143677609D01*
X67680388Y-143742133D01*
X67723590Y-143777900D01*
X67723601Y-143778188D01*
X67685525Y-143856074D01*
X67596484Y-143941924D01*
X67494263Y-144003769D01*
X67442474Y-144016054D01*
X67301184Y-143973564D01*
X67179512Y-143867152D01*
X67120145Y-143750156D01*
X67063033Y-143663905D01*
X66951161Y-143565681D01*
X66819654Y-143480827D01*
X66703632Y-143434681D01*
X66679371Y-143432146D01*
X66652062Y-143473868D01*
X66650416Y-143580519D01*
X66670486Y-143724321D01*
X66708322Y-143877501D01*
X66759977Y-144012283D01*
X66762586Y-144017516D01*
X66918031Y-144234557D01*
X67119493Y-144382185D01*
X67348288Y-144454644D01*
X67585733Y-144446177D01*
X67813146Y-144351027D01*
X67823257Y-144344337D01*
X68002150Y-144182211D01*
X68119780Y-143970682D01*
X68184877Y-143692543D01*
X68193613Y-143614398D01*
X68209086Y-143245549D01*
X68190537Y-143073541D01*
X67723601Y-143073541D01*
X67717534Y-143180838D01*
X67684351Y-143212152D01*
X67601623Y-143188725D01*
X67471221Y-143133348D01*
X67325457Y-143063932D01*
X67321834Y-143062094D01*
X67198283Y-142997108D01*
X67148697Y-142953740D01*
X67160925Y-142908275D01*
X67212412Y-142848536D01*
X67343399Y-142762085D01*
X67484462Y-142755733D01*
X67610995Y-142818649D01*
X67698392Y-142940003D01*
X67723601Y-143073541D01*
X68190537Y-143073541D01*
X68177260Y-142950435D01*
X68095609Y-142716382D01*
X67981939Y-142552413D01*
X67776775Y-142386716D01*
X67550786Y-142304519D01*
X67320075Y-142299281D01*
X67100747Y-142364461D01*
G36*
X70879632Y-142333358D02*
G01*
X70651564Y-142453280D01*
X70483248Y-142646278D01*
X70423459Y-142770355D01*
X70376934Y-142956653D01*
X70353118Y-143192045D01*
X70350860Y-143448952D01*
X70369008Y-143699799D01*
X70406411Y-143917009D01*
X70461916Y-144073005D01*
X70478975Y-144099871D01*
X70681030Y-144300415D01*
X70921022Y-144420529D01*
X71181434Y-144455680D01*
X71444753Y-144401337D01*
X71518033Y-144368756D01*
X71660739Y-144268353D01*
X71785986Y-144135225D01*
X71797823Y-144118341D01*
X71845935Y-144036969D01*
X71877738Y-143949984D01*
X71896526Y-143835475D01*
X71905592Y-143671530D01*
X71908229Y-143436240D01*
X71908275Y-143383487D01*
X71908154Y-143366699D01*
X71421685Y-143366699D01*
X71418854Y-143588761D01*
X71407712Y-143736123D01*
X71384291Y-143831308D01*
X71344619Y-143896837D01*
X71324367Y-143918736D01*
X71207940Y-144001953D01*
X71094902Y-143998158D01*
X70980609Y-143925973D01*
X70912441Y-143848911D01*
X70872070Y-143736429D01*
X70849398Y-143559055D01*
X70847843Y-143538367D01*
X70843973Y-143216911D01*
X70884417Y-142978167D01*
X70968626Y-142823600D01*
X71096053Y-142754678D01*
X71141540Y-142750920D01*
X71260981Y-142769821D01*
X71342683Y-142835306D01*
X71392637Y-142960544D01*
X71416834Y-143158704D01*
X71421685Y-143366699D01*
X71908154Y-143366699D01*
X71906463Y-143132765D01*
X71898853Y-142957582D01*
X71882186Y-142836191D01*
X71853201Y-142746847D01*
X71808640Y-142667803D01*
X71798793Y-142653107D01*
X71633280Y-142455011D01*
X71452930Y-142340014D01*
X71233365Y-142294365D01*
X71158805Y-142292135D01*
X70879632Y-142333358D01*
X70879632Y-142333358D01*
G37*
X70879632Y-142333358D02*
X70651564Y-142453280D01*
X70483248Y-142646278D01*
X70423459Y-142770355D01*
X70376934Y-142956653D01*
X70353118Y-143192045D01*
X70350860Y-143448952D01*
X70369008Y-143699799D01*
X70406411Y-143917009D01*
X70461916Y-144073005D01*
X70478975Y-144099871D01*
X70681030Y-144300415D01*
X70921022Y-144420529D01*
X71181434Y-144455680D01*
X71444753Y-144401337D01*
X71518033Y-144368756D01*
X71660739Y-144268353D01*
X71785986Y-144135225D01*
X71797823Y-144118341D01*
X71845935Y-144036969D01*
X71877738Y-143949984D01*
X71896526Y-143835475D01*
X71905592Y-143671530D01*
X71908229Y-143436240D01*
X71908275Y-143383487D01*
X71908154Y-143366699D01*
X71421685Y-143366699D01*
X71418854Y-143588761D01*
X71407712Y-143736123D01*
X71384291Y-143831308D01*
X71344619Y-143896837D01*
X71324367Y-143918736D01*
X71207940Y-144001953D01*
X71094902Y-143998158D01*
X70980609Y-143925973D01*
X70912441Y-143848911D01*
X70872070Y-143736429D01*
X70849398Y-143559055D01*
X70847843Y-143538367D01*
X70843973Y-143216911D01*
X70884417Y-142978167D01*
X70968626Y-142823600D01*
X71096053Y-142754678D01*
X71141540Y-142750920D01*
X71260981Y-142769821D01*
X71342683Y-142835306D01*
X71392637Y-142960544D01*
X71416834Y-143158704D01*
X71421685Y-143366699D01*
X71908154Y-143366699D01*
X71906463Y-143132765D01*
X71898853Y-142957582D01*
X71882186Y-142836191D01*
X71853201Y-142746847D01*
X71808640Y-142667803D01*
X71798793Y-142653107D01*
X71633280Y-142455011D01*
X71452930Y-142340014D01*
X71233365Y-142294365D01*
X71158805Y-142292135D01*
X70879632Y-142333358D01*
G36*
X65264284Y-142352865D02*
G01*
X65108128Y-142443190D01*
X64999559Y-142532845D01*
X64920155Y-142626776D01*
X64865454Y-142741646D01*
X64830990Y-142894114D01*
X64812299Y-143100844D01*
X64804919Y-143378496D01*
X64804061Y-143578086D01*
X64804061Y-144312766D01*
X65010862Y-144405472D01*
X65217662Y-144498179D01*
X65241992Y-143693492D01*
X65252045Y-143392966D01*
X65262591Y-143174835D01*
X65275657Y-143024186D01*
X65293271Y-142926107D01*
X65317461Y-142865688D01*
X65350254Y-142828016D01*
X65360775Y-142819862D01*
X65520187Y-142756178D01*
X65681321Y-142781378D01*
X65777241Y-142848238D01*
X65816259Y-142895616D01*
X65843267Y-142957787D01*
X65860432Y-143052039D01*
X65869918Y-143195657D01*
X65873893Y-143405931D01*
X65874559Y-143625070D01*
X65874690Y-143899999D01*
X65879397Y-144094602D01*
X65895154Y-144225851D01*
X65928433Y-144310718D01*
X65985707Y-144366177D01*
X66073447Y-144409201D01*
X66190638Y-144453907D01*
X66318632Y-144502571D01*
X66303396Y-143638910D01*
X66297261Y-143327565D01*
X66290082Y-143097483D01*
X66279795Y-142932614D01*
X66264330Y-142816909D01*
X66241621Y-142734316D01*
X66209601Y-142668788D01*
X66170997Y-142610974D01*
X65984747Y-142426283D01*
X65757479Y-142319481D01*
X65510291Y-142293898D01*
X65264284Y-142352865D01*
X65264284Y-142352865D01*
G37*
X65264284Y-142352865D02*
X65108128Y-142443190D01*
X64999559Y-142532845D01*
X64920155Y-142626776D01*
X64865454Y-142741646D01*
X64830990Y-142894114D01*
X64812299Y-143100844D01*
X64804919Y-143378496D01*
X64804061Y-143578086D01*
X64804061Y-144312766D01*
X65010862Y-144405472D01*
X65217662Y-144498179D01*
X65241992Y-143693492D01*
X65252045Y-143392966D01*
X65262591Y-143174835D01*
X65275657Y-143024186D01*
X65293271Y-142926107D01*
X65317461Y-142865688D01*
X65350254Y-142828016D01*
X65360775Y-142819862D01*
X65520187Y-142756178D01*
X65681321Y-142781378D01*
X65777241Y-142848238D01*
X65816259Y-142895616D01*
X65843267Y-142957787D01*
X65860432Y-143052039D01*
X65869918Y-143195657D01*
X65873893Y-143405931D01*
X65874559Y-143625070D01*
X65874690Y-143899999D01*
X65879397Y-144094602D01*
X65895154Y-144225851D01*
X65928433Y-144310718D01*
X65985707Y-144366177D01*
X66073447Y-144409201D01*
X66190638Y-144453907D01*
X66318632Y-144502571D01*
X66303396Y-143638910D01*
X66297261Y-143327565D01*
X66290082Y-143097483D01*
X66279795Y-142932614D01*
X66264330Y-142816909D01*
X66241621Y-142734316D01*
X66209601Y-142668788D01*
X66170997Y-142610974D01*
X65984747Y-142426283D01*
X65757479Y-142319481D01*
X65510291Y-142293898D01*
X65264284Y-142352865D01*
G36*
X69006834Y-142326506D02*
G01*
X68820916Y-142419204D01*
X68656820Y-142589885D01*
X68611628Y-142653107D01*
X68562396Y-142735834D01*
X68530453Y-142825687D01*
X68512178Y-142945608D01*
X68503952Y-143118537D01*
X68502145Y-143346835D01*
X68510303Y-143659693D01*
X68538659Y-143894598D01*
X68593038Y-144069847D01*
X68679263Y-144203738D01*
X68803159Y-144314569D01*
X68812263Y-144321131D01*
X68934366Y-144388256D01*
X69081400Y-144421467D01*
X69268396Y-144429655D01*
X69572387Y-144429655D01*
X69572515Y-144724762D01*
X69575344Y-144889117D01*
X69592582Y-144985523D01*
X69637630Y-145043343D01*
X69723886Y-145091941D01*
X69744601Y-145101869D01*
X69841538Y-145148398D01*
X69916593Y-145177786D01*
X69972402Y-145180324D01*
X70011603Y-145146302D01*
X70036832Y-145066012D01*
X70050728Y-144929743D01*
X70055927Y-144727787D01*
X70055066Y-144450434D01*
X70050784Y-144087976D01*
X70049447Y-143979560D01*
X70044629Y-143605837D01*
X70040313Y-143361369D01*
X69572643Y-143361369D01*
X69570015Y-143568877D01*
X69558333Y-143704645D01*
X69531903Y-143794192D01*
X69485031Y-143863039D01*
X69453207Y-143896618D01*
X69323108Y-143994869D01*
X69207921Y-144002866D01*
X69089066Y-143921730D01*
X69086053Y-143918736D01*
X69037695Y-143856030D01*
X69008278Y-143770808D01*
X68993440Y-143639564D01*
X68988819Y-143438793D01*
X68988735Y-143394314D01*
X68999902Y-143117639D01*
X69036253Y-142925842D01*
X69102059Y-142808757D01*
X69201593Y-142756215D01*
X69259119Y-142750920D01*
X69395649Y-142775767D01*
X69489298Y-142857581D01*
X69545670Y-143007270D01*
X69570367Y-143235743D01*
X69572643Y-143361369D01*
X70040313Y-143361369D01*
X70039522Y-143316587D01*
X70032922Y-143098970D01*
X70023623Y-142940146D01*
X70010423Y-142827274D01*
X69992115Y-142747513D01*
X69967497Y-142688023D01*
X69935363Y-142635963D01*
X69921585Y-142616373D01*
X69738812Y-142431328D01*
X69507724Y-142326412D01*
X69240410Y-142297163D01*
X69006834Y-142326506D01*
X69006834Y-142326506D01*
G37*
X69006834Y-142326506D02*
X68820916Y-142419204D01*
X68656820Y-142589885D01*
X68611628Y-142653107D01*
X68562396Y-142735834D01*
X68530453Y-142825687D01*
X68512178Y-142945608D01*
X68503952Y-143118537D01*
X68502145Y-143346835D01*
X68510303Y-143659693D01*
X68538659Y-143894598D01*
X68593038Y-144069847D01*
X68679263Y-144203738D01*
X68803159Y-144314569D01*
X68812263Y-144321131D01*
X68934366Y-144388256D01*
X69081400Y-144421467D01*
X69268396Y-144429655D01*
X69572387Y-144429655D01*
X69572515Y-144724762D01*
X69575344Y-144889117D01*
X69592582Y-144985523D01*
X69637630Y-145043343D01*
X69723886Y-145091941D01*
X69744601Y-145101869D01*
X69841538Y-145148398D01*
X69916593Y-145177786D01*
X69972402Y-145180324D01*
X70011603Y-145146302D01*
X70036832Y-145066012D01*
X70050728Y-144929743D01*
X70055927Y-144727787D01*
X70055066Y-144450434D01*
X70050784Y-144087976D01*
X70049447Y-143979560D01*
X70044629Y-143605837D01*
X70040313Y-143361369D01*
X69572643Y-143361369D01*
X69570015Y-143568877D01*
X69558333Y-143704645D01*
X69531903Y-143794192D01*
X69485031Y-143863039D01*
X69453207Y-143896618D01*
X69323108Y-143994869D01*
X69207921Y-144002866D01*
X69089066Y-143921730D01*
X69086053Y-143918736D01*
X69037695Y-143856030D01*
X69008278Y-143770808D01*
X68993440Y-143639564D01*
X68988819Y-143438793D01*
X68988735Y-143394314D01*
X68999902Y-143117639D01*
X69036253Y-142925842D01*
X69102059Y-142808757D01*
X69201593Y-142756215D01*
X69259119Y-142750920D01*
X69395649Y-142775767D01*
X69489298Y-142857581D01*
X69545670Y-143007270D01*
X69570367Y-143235743D01*
X69572643Y-143361369D01*
X70040313Y-143361369D01*
X70039522Y-143316587D01*
X70032922Y-143098970D01*
X70023623Y-142940146D01*
X70010423Y-142827274D01*
X69992115Y-142747513D01*
X69967497Y-142688023D01*
X69935363Y-142635963D01*
X69921585Y-142616373D01*
X69738812Y-142431328D01*
X69507724Y-142326412D01*
X69240410Y-142297163D01*
X69006834Y-142326506D01*
M02*
