G04 #@! TF.GenerationSoftware,KiCad,Pcbnew,(5.1.2)-1*
G04 #@! TF.CreationDate,2019-06-07T12:24:14-04:00*
G04 #@! TF.ProjectId,volt mod 2,766f6c74-206d-46f6-9420-322e6b696361,rev?*
G04 #@! TF.SameCoordinates,Original*
G04 #@! TF.FileFunction,Legend,Top*
G04 #@! TF.FilePolarity,Positive*
%FSLAX46Y46*%
G04 Gerber Fmt 4.6, Leading zero omitted, Abs format (unit mm)*
G04 Created by KiCad (PCBNEW (5.1.2)-1) date 2019-06-07 12:24:14*
%MOMM*%
%LPD*%
G04 APERTURE LIST*
%ADD10C,0.300000*%
%ADD11C,0.120000*%
%ADD12C,0.150000*%
G04 APERTURE END LIST*
D10*
X34478571Y-140378571D02*
X34478571Y-138878571D01*
X34478571Y-140307142D02*
X34335714Y-140378571D01*
X34050000Y-140378571D01*
X33907142Y-140307142D01*
X33835714Y-140235714D01*
X33764285Y-140092857D01*
X33764285Y-139664285D01*
X33835714Y-139521428D01*
X33907142Y-139450000D01*
X34050000Y-139378571D01*
X34335714Y-139378571D01*
X34478571Y-139450000D01*
X35764285Y-140307142D02*
X35621428Y-140378571D01*
X35335714Y-140378571D01*
X35192857Y-140307142D01*
X35121428Y-140164285D01*
X35121428Y-139592857D01*
X35192857Y-139450000D01*
X35335714Y-139378571D01*
X35621428Y-139378571D01*
X35764285Y-139450000D01*
X35835714Y-139592857D01*
X35835714Y-139735714D01*
X35121428Y-139878571D01*
X36407142Y-140307142D02*
X36550000Y-140378571D01*
X36835714Y-140378571D01*
X36978571Y-140307142D01*
X37050000Y-140164285D01*
X37050000Y-140092857D01*
X36978571Y-139950000D01*
X36835714Y-139878571D01*
X36621428Y-139878571D01*
X36478571Y-139807142D01*
X36407142Y-139664285D01*
X36407142Y-139592857D01*
X36478571Y-139450000D01*
X36621428Y-139378571D01*
X36835714Y-139378571D01*
X36978571Y-139450000D01*
X37692857Y-140378571D02*
X37692857Y-139378571D01*
X37692857Y-138878571D02*
X37621428Y-138950000D01*
X37692857Y-139021428D01*
X37764285Y-138950000D01*
X37692857Y-138878571D01*
X37692857Y-139021428D01*
X39050000Y-139378571D02*
X39050000Y-140592857D01*
X38978571Y-140735714D01*
X38907142Y-140807142D01*
X38764285Y-140878571D01*
X38550000Y-140878571D01*
X38407142Y-140807142D01*
X39050000Y-140307142D02*
X38907142Y-140378571D01*
X38621428Y-140378571D01*
X38478571Y-140307142D01*
X38407142Y-140235714D01*
X38335714Y-140092857D01*
X38335714Y-139664285D01*
X38407142Y-139521428D01*
X38478571Y-139450000D01*
X38621428Y-139378571D01*
X38907142Y-139378571D01*
X39050000Y-139450000D01*
X39764285Y-139378571D02*
X39764285Y-140378571D01*
X39764285Y-139521428D02*
X39835714Y-139450000D01*
X39978571Y-139378571D01*
X40192857Y-139378571D01*
X40335714Y-139450000D01*
X40407142Y-139592857D01*
X40407142Y-140378571D01*
X41692857Y-140307142D02*
X41550000Y-140378571D01*
X41264285Y-140378571D01*
X41121428Y-140307142D01*
X41050000Y-140164285D01*
X41050000Y-139592857D01*
X41121428Y-139450000D01*
X41264285Y-139378571D01*
X41550000Y-139378571D01*
X41692857Y-139450000D01*
X41764285Y-139592857D01*
X41764285Y-139735714D01*
X41050000Y-139878571D01*
X43050000Y-140378571D02*
X43050000Y-138878571D01*
X43050000Y-140307142D02*
X42907142Y-140378571D01*
X42621428Y-140378571D01*
X42478571Y-140307142D01*
X42407142Y-140235714D01*
X42335714Y-140092857D01*
X42335714Y-139664285D01*
X42407142Y-139521428D01*
X42478571Y-139450000D01*
X42621428Y-139378571D01*
X42907142Y-139378571D01*
X43050000Y-139450000D01*
X44907142Y-140378571D02*
X44907142Y-138878571D01*
X44907142Y-139450000D02*
X45050000Y-139378571D01*
X45335714Y-139378571D01*
X45478571Y-139450000D01*
X45550000Y-139521428D01*
X45621428Y-139664285D01*
X45621428Y-140092857D01*
X45550000Y-140235714D01*
X45478571Y-140307142D01*
X45335714Y-140378571D01*
X45050000Y-140378571D01*
X44907142Y-140307142D01*
X46121428Y-139378571D02*
X46478571Y-140378571D01*
X46835714Y-139378571D02*
X46478571Y-140378571D01*
X46335714Y-140735714D01*
X46264285Y-140807142D01*
X46121428Y-140878571D01*
X47407142Y-140235714D02*
X47478571Y-140307142D01*
X47407142Y-140378571D01*
X47335714Y-140307142D01*
X47407142Y-140235714D01*
X47407142Y-140378571D01*
X47407142Y-139450000D02*
X47478571Y-139521428D01*
X47407142Y-139592857D01*
X47335714Y-139521428D01*
X47407142Y-139450000D01*
X47407142Y-139592857D01*
X49264285Y-139378571D02*
X49264285Y-140878571D01*
X49264285Y-139450000D02*
X49407142Y-139378571D01*
X49692857Y-139378571D01*
X49835714Y-139450000D01*
X49907142Y-139521428D01*
X49978571Y-139664285D01*
X49978571Y-140092857D01*
X49907142Y-140235714D01*
X49835714Y-140307142D01*
X49692857Y-140378571D01*
X49407142Y-140378571D01*
X49264285Y-140307142D01*
X50621428Y-140378571D02*
X50621428Y-138878571D01*
X50764285Y-139807142D02*
X51192857Y-140378571D01*
X51192857Y-139378571D02*
X50621428Y-139950000D01*
X51835714Y-140378571D02*
X51835714Y-138878571D01*
X51978571Y-139807142D02*
X52407142Y-140378571D01*
X52407142Y-139378571D02*
X51835714Y-139950000D01*
X52978571Y-140307142D02*
X53121428Y-140378571D01*
X53407142Y-140378571D01*
X53550000Y-140307142D01*
X53621428Y-140164285D01*
X53621428Y-140092857D01*
X53550000Y-139950000D01*
X53407142Y-139878571D01*
X53192857Y-139878571D01*
X53050000Y-139807142D01*
X52978571Y-139664285D01*
X52978571Y-139592857D01*
X53050000Y-139450000D01*
X53192857Y-139378571D01*
X53407142Y-139378571D01*
X53550000Y-139450000D01*
X54264285Y-140378571D02*
X54264285Y-138878571D01*
X54907142Y-140378571D02*
X54907142Y-139592857D01*
X54835714Y-139450000D01*
X54692857Y-139378571D01*
X54478571Y-139378571D01*
X54335714Y-139450000D01*
X54264285Y-139521428D01*
X56264285Y-140378571D02*
X56264285Y-139592857D01*
X56192857Y-139450000D01*
X56050000Y-139378571D01*
X55764285Y-139378571D01*
X55621428Y-139450000D01*
X56264285Y-140307142D02*
X56121428Y-140378571D01*
X55764285Y-140378571D01*
X55621428Y-140307142D01*
X55550000Y-140164285D01*
X55550000Y-140021428D01*
X55621428Y-139878571D01*
X55764285Y-139807142D01*
X56121428Y-139807142D01*
X56264285Y-139735714D01*
X57621428Y-140378571D02*
X57621428Y-138878571D01*
X57621428Y-140307142D02*
X57478571Y-140378571D01*
X57192857Y-140378571D01*
X57050000Y-140307142D01*
X56978571Y-140235714D01*
X56907142Y-140092857D01*
X56907142Y-139664285D01*
X56978571Y-139521428D01*
X57050000Y-139450000D01*
X57192857Y-139378571D01*
X57478571Y-139378571D01*
X57621428Y-139450000D01*
X58550000Y-140378571D02*
X58407142Y-140307142D01*
X58335714Y-140235714D01*
X58264285Y-140092857D01*
X58264285Y-139664285D01*
X58335714Y-139521428D01*
X58407142Y-139450000D01*
X58550000Y-139378571D01*
X58764285Y-139378571D01*
X58907142Y-139450000D01*
X58978571Y-139521428D01*
X59050000Y-139664285D01*
X59050000Y-140092857D01*
X58978571Y-140235714D01*
X58907142Y-140307142D01*
X58764285Y-140378571D01*
X58550000Y-140378571D01*
X59550000Y-139378571D02*
X59835714Y-140378571D01*
X60121428Y-139664285D01*
X60407142Y-140378571D01*
X60692857Y-139378571D01*
X61192857Y-139378571D02*
X62264285Y-139378571D01*
X61621428Y-138735714D02*
X61192857Y-140664285D01*
X62121428Y-140021428D02*
X61050000Y-140021428D01*
X61692857Y-140664285D02*
X62121428Y-138735714D01*
X63407142Y-138878571D02*
X63121428Y-138878571D01*
X62978571Y-138950000D01*
X62907142Y-139021428D01*
X62764285Y-139235714D01*
X62692857Y-139521428D01*
X62692857Y-140092857D01*
X62764285Y-140235714D01*
X62835714Y-140307142D01*
X62978571Y-140378571D01*
X63264285Y-140378571D01*
X63407142Y-140307142D01*
X63478571Y-140235714D01*
X63550000Y-140092857D01*
X63550000Y-139735714D01*
X63478571Y-139592857D01*
X63407142Y-139521428D01*
X63264285Y-139450000D01*
X62978571Y-139450000D01*
X62835714Y-139521428D01*
X62764285Y-139592857D01*
X62692857Y-139735714D01*
X64121428Y-139021428D02*
X64192857Y-138950000D01*
X64335714Y-138878571D01*
X64692857Y-138878571D01*
X64835714Y-138950000D01*
X64907142Y-139021428D01*
X64978571Y-139164285D01*
X64978571Y-139307142D01*
X64907142Y-139521428D01*
X64050000Y-140378571D01*
X64978571Y-140378571D01*
X66264285Y-139378571D02*
X66264285Y-140378571D01*
X65907142Y-138807142D02*
X65550000Y-139878571D01*
X66478571Y-139878571D01*
X66907142Y-138878571D02*
X67907142Y-138878571D01*
X67264285Y-140378571D01*
X51159999Y-179447142D02*
X49874285Y-181375714D01*
X51659999Y-181018571D02*
X51659999Y-180018571D01*
X51659999Y-180304285D02*
X51731428Y-180161428D01*
X51802857Y-180090000D01*
X51945714Y-180018571D01*
X52088571Y-180018571D01*
X53659999Y-179447142D02*
X52374285Y-181375714D01*
X54374285Y-181018571D02*
X54231428Y-180947142D01*
X54159999Y-180875714D01*
X54088571Y-180732857D01*
X54088571Y-180304285D01*
X54159999Y-180161428D01*
X54231428Y-180090000D01*
X54374285Y-180018571D01*
X54588571Y-180018571D01*
X54731428Y-180090000D01*
X54802857Y-180161428D01*
X54874285Y-180304285D01*
X54874285Y-180732857D01*
X54802857Y-180875714D01*
X54731428Y-180947142D01*
X54588571Y-181018571D01*
X54374285Y-181018571D01*
X55374285Y-180018571D02*
X55731428Y-181018571D01*
X56088571Y-180018571D01*
X57231428Y-180947142D02*
X57088571Y-181018571D01*
X56802857Y-181018571D01*
X56659999Y-180947142D01*
X56588571Y-180804285D01*
X56588571Y-180232857D01*
X56659999Y-180090000D01*
X56802857Y-180018571D01*
X57088571Y-180018571D01*
X57231428Y-180090000D01*
X57302857Y-180232857D01*
X57302857Y-180375714D01*
X56588571Y-180518571D01*
X57945714Y-181018571D02*
X57945714Y-180018571D01*
X57945714Y-180304285D02*
X58017142Y-180161428D01*
X58088571Y-180090000D01*
X58231428Y-180018571D01*
X58374285Y-180018571D01*
X59517142Y-180947142D02*
X59374285Y-181018571D01*
X59088571Y-181018571D01*
X58945714Y-180947142D01*
X58874285Y-180875714D01*
X58802857Y-180732857D01*
X58802857Y-180304285D01*
X58874285Y-180161428D01*
X58945714Y-180090000D01*
X59088571Y-180018571D01*
X59374285Y-180018571D01*
X59517142Y-180090000D01*
X60374285Y-181018571D02*
X60231428Y-180947142D01*
X60159999Y-180804285D01*
X60159999Y-179518571D01*
X61159999Y-181018571D02*
X61017142Y-180947142D01*
X60945714Y-180875714D01*
X60874285Y-180732857D01*
X60874285Y-180304285D01*
X60945714Y-180161428D01*
X61017142Y-180090000D01*
X61159999Y-180018571D01*
X61374285Y-180018571D01*
X61517142Y-180090000D01*
X61588571Y-180161428D01*
X61659999Y-180304285D01*
X61659999Y-180732857D01*
X61588571Y-180875714D01*
X61517142Y-180947142D01*
X61374285Y-181018571D01*
X61159999Y-181018571D01*
X62945714Y-180947142D02*
X62802857Y-181018571D01*
X62517142Y-181018571D01*
X62374285Y-180947142D01*
X62302857Y-180875714D01*
X62231428Y-180732857D01*
X62231428Y-180304285D01*
X62302857Y-180161428D01*
X62374285Y-180090000D01*
X62517142Y-180018571D01*
X62802857Y-180018571D01*
X62945714Y-180090000D01*
X63588571Y-181018571D02*
X63588571Y-179518571D01*
X63731428Y-180447142D02*
X64159999Y-181018571D01*
X64159999Y-180018571D02*
X63588571Y-180590000D01*
X64802857Y-181018571D02*
X64802857Y-180018571D01*
X64802857Y-179518571D02*
X64731428Y-179590000D01*
X64802857Y-179661428D01*
X64874285Y-179590000D01*
X64802857Y-179518571D01*
X64802857Y-179661428D01*
X65517142Y-180018571D02*
X65517142Y-181018571D01*
X65517142Y-180161428D02*
X65588571Y-180090000D01*
X65731428Y-180018571D01*
X65945714Y-180018571D01*
X66088571Y-180090000D01*
X66159999Y-180232857D01*
X66159999Y-181018571D01*
X67517142Y-180018571D02*
X67517142Y-181232857D01*
X67445714Y-181375714D01*
X67374285Y-181447142D01*
X67231428Y-181518571D01*
X67017142Y-181518571D01*
X66874285Y-181447142D01*
X67517142Y-180947142D02*
X67374285Y-181018571D01*
X67088571Y-181018571D01*
X66945714Y-180947142D01*
X66874285Y-180875714D01*
X66802857Y-180732857D01*
X66802857Y-180304285D01*
X66874285Y-180161428D01*
X66945714Y-180090000D01*
X67088571Y-180018571D01*
X67374285Y-180018571D01*
X67517142Y-180090000D01*
X70017142Y-181018571D02*
X70017142Y-179518571D01*
X70017142Y-180947142D02*
X69874285Y-181018571D01*
X69588571Y-181018571D01*
X69445714Y-180947142D01*
X69374285Y-180875714D01*
X69302857Y-180732857D01*
X69302857Y-180304285D01*
X69374285Y-180161428D01*
X69445714Y-180090000D01*
X69588571Y-180018571D01*
X69874285Y-180018571D01*
X70017142Y-180090000D01*
X70731428Y-181018571D02*
X70731428Y-180018571D01*
X70731428Y-179518571D02*
X70660000Y-179590000D01*
X70731428Y-179661428D01*
X70802857Y-179590000D01*
X70731428Y-179518571D01*
X70731428Y-179661428D01*
X71374285Y-180947142D02*
X71517142Y-181018571D01*
X71802857Y-181018571D01*
X71945714Y-180947142D01*
X72017142Y-180804285D01*
X72017142Y-180732857D01*
X71945714Y-180590000D01*
X71802857Y-180518571D01*
X71588571Y-180518571D01*
X71445714Y-180447142D01*
X71374285Y-180304285D01*
X71374285Y-180232857D01*
X71445714Y-180090000D01*
X71588571Y-180018571D01*
X71802857Y-180018571D01*
X71945714Y-180090000D01*
X73302857Y-180947142D02*
X73160000Y-181018571D01*
X72874285Y-181018571D01*
X72731428Y-180947142D01*
X72660000Y-180875714D01*
X72588571Y-180732857D01*
X72588571Y-180304285D01*
X72660000Y-180161428D01*
X72731428Y-180090000D01*
X72874285Y-180018571D01*
X73160000Y-180018571D01*
X73302857Y-180090000D01*
X74160000Y-181018571D02*
X74017142Y-180947142D01*
X73945714Y-180875714D01*
X73874285Y-180732857D01*
X73874285Y-180304285D01*
X73945714Y-180161428D01*
X74017142Y-180090000D01*
X74160000Y-180018571D01*
X74374285Y-180018571D01*
X74517142Y-180090000D01*
X74588571Y-180161428D01*
X74660000Y-180304285D01*
X74660000Y-180732857D01*
X74588571Y-180875714D01*
X74517142Y-180947142D01*
X74374285Y-181018571D01*
X74160000Y-181018571D01*
X75302857Y-181018571D02*
X75302857Y-180018571D01*
X75302857Y-180304285D02*
X75374285Y-180161428D01*
X75445714Y-180090000D01*
X75588571Y-180018571D01*
X75731428Y-180018571D01*
X76874285Y-181018571D02*
X76874285Y-179518571D01*
X76874285Y-180947142D02*
X76731428Y-181018571D01*
X76445714Y-181018571D01*
X76302857Y-180947142D01*
X76231428Y-180875714D01*
X76160000Y-180732857D01*
X76160000Y-180304285D01*
X76231428Y-180161428D01*
X76302857Y-180090000D01*
X76445714Y-180018571D01*
X76731428Y-180018571D01*
X76874285Y-180090000D01*
X78588571Y-180018571D02*
X78945714Y-181018571D01*
X79302857Y-180018571D01*
X79874285Y-181018571D02*
X79874285Y-180018571D01*
X79874285Y-180161428D02*
X79945714Y-180090000D01*
X80088571Y-180018571D01*
X80302857Y-180018571D01*
X80445714Y-180090000D01*
X80517142Y-180232857D01*
X80517142Y-181018571D01*
X80517142Y-180232857D02*
X80588571Y-180090000D01*
X80731428Y-180018571D01*
X80945714Y-180018571D01*
X81088571Y-180090000D01*
X81160000Y-180232857D01*
X81160000Y-181018571D01*
X82088571Y-181018571D02*
X81945714Y-180947142D01*
X81874285Y-180875714D01*
X81802857Y-180732857D01*
X81802857Y-180304285D01*
X81874285Y-180161428D01*
X81945714Y-180090000D01*
X82088571Y-180018571D01*
X82302857Y-180018571D01*
X82445714Y-180090000D01*
X82517142Y-180161428D01*
X82588571Y-180304285D01*
X82588571Y-180732857D01*
X82517142Y-180875714D01*
X82445714Y-180947142D01*
X82302857Y-181018571D01*
X82088571Y-181018571D01*
X83874285Y-181018571D02*
X83874285Y-179518571D01*
X83874285Y-180947142D02*
X83731428Y-181018571D01*
X83445714Y-181018571D01*
X83302857Y-180947142D01*
X83231428Y-180875714D01*
X83160000Y-180732857D01*
X83160000Y-180304285D01*
X83231428Y-180161428D01*
X83302857Y-180090000D01*
X83445714Y-180018571D01*
X83731428Y-180018571D01*
X83874285Y-180090000D01*
X85731428Y-181018571D02*
X85731428Y-179518571D01*
X85731428Y-180090000D02*
X85874285Y-180018571D01*
X86160000Y-180018571D01*
X86302857Y-180090000D01*
X86374285Y-180161428D01*
X86445714Y-180304285D01*
X86445714Y-180732857D01*
X86374285Y-180875714D01*
X86302857Y-180947142D01*
X86160000Y-181018571D01*
X85874285Y-181018571D01*
X85731428Y-180947142D01*
X87302857Y-181018571D02*
X87160000Y-180947142D01*
X87088571Y-180875714D01*
X87017142Y-180732857D01*
X87017142Y-180304285D01*
X87088571Y-180161428D01*
X87160000Y-180090000D01*
X87302857Y-180018571D01*
X87517142Y-180018571D01*
X87660000Y-180090000D01*
X87731428Y-180161428D01*
X87802857Y-180304285D01*
X87802857Y-180732857D01*
X87731428Y-180875714D01*
X87660000Y-180947142D01*
X87517142Y-181018571D01*
X87302857Y-181018571D01*
X89088571Y-181018571D02*
X89088571Y-180232857D01*
X89017142Y-180090000D01*
X88874285Y-180018571D01*
X88588571Y-180018571D01*
X88445714Y-180090000D01*
X89088571Y-180947142D02*
X88945714Y-181018571D01*
X88588571Y-181018571D01*
X88445714Y-180947142D01*
X88374285Y-180804285D01*
X88374285Y-180661428D01*
X88445714Y-180518571D01*
X88588571Y-180447142D01*
X88945714Y-180447142D01*
X89088571Y-180375714D01*
X89802857Y-181018571D02*
X89802857Y-180018571D01*
X89802857Y-180304285D02*
X89874285Y-180161428D01*
X89945714Y-180090000D01*
X90088571Y-180018571D01*
X90231428Y-180018571D01*
X91374285Y-181018571D02*
X91374285Y-179518571D01*
X91374285Y-180947142D02*
X91231428Y-181018571D01*
X90945714Y-181018571D01*
X90802857Y-180947142D01*
X90731428Y-180875714D01*
X90660000Y-180732857D01*
X90660000Y-180304285D01*
X90731428Y-180161428D01*
X90802857Y-180090000D01*
X90945714Y-180018571D01*
X91231428Y-180018571D01*
X91374285Y-180090000D01*
X93088571Y-180018571D02*
X93445714Y-181018571D01*
X93802857Y-180018571D01*
X94660000Y-179518571D02*
X94802857Y-179518571D01*
X94945714Y-179590000D01*
X95017142Y-179661428D01*
X95088571Y-179804285D01*
X95160000Y-180090000D01*
X95160000Y-180447142D01*
X95088571Y-180732857D01*
X95017142Y-180875714D01*
X94945714Y-180947142D01*
X94802857Y-181018571D01*
X94660000Y-181018571D01*
X94517142Y-180947142D01*
X94445714Y-180875714D01*
X94374285Y-180732857D01*
X94302857Y-180447142D01*
X94302857Y-180090000D01*
X94374285Y-179804285D01*
X94445714Y-179661428D01*
X94517142Y-179590000D01*
X94660000Y-179518571D01*
X95802857Y-180875714D02*
X95874285Y-180947142D01*
X95802857Y-181018571D01*
X95731428Y-180947142D01*
X95802857Y-180875714D01*
X95802857Y-181018571D01*
X97302857Y-181018571D02*
X96445714Y-181018571D01*
X96874285Y-181018571D02*
X96874285Y-179518571D01*
X96731428Y-179732857D01*
X96588571Y-179875714D01*
X96445714Y-179947142D01*
X94321428Y-140378571D02*
X93464285Y-140378571D01*
X93892857Y-140378571D02*
X93892857Y-138878571D01*
X93750000Y-139092857D01*
X93607142Y-139235714D01*
X93464285Y-139307142D01*
X94892857Y-139021428D02*
X94964285Y-138950000D01*
X95107142Y-138878571D01*
X95464285Y-138878571D01*
X95607142Y-138950000D01*
X95678571Y-139021428D01*
X95750000Y-139164285D01*
X95750000Y-139307142D01*
X95678571Y-139521428D01*
X94821428Y-140378571D01*
X95750000Y-140378571D01*
X96178571Y-138878571D02*
X96678571Y-140378571D01*
X97178571Y-138878571D01*
D11*
X36635000Y-170170000D02*
X26865000Y-170170000D01*
X36635000Y-165100000D02*
X26865000Y-165100000D01*
X36635000Y-170170000D02*
X36635000Y-165100000D01*
X26865000Y-170170000D02*
X26865000Y-165100000D01*
X81085000Y-149850000D02*
X71315000Y-149850000D01*
X81085000Y-144780000D02*
X71315000Y-144780000D01*
X81085000Y-149850000D02*
X81085000Y-144780000D01*
X71315000Y-149850000D02*
X71315000Y-144780000D01*
X59495000Y-149850000D02*
X49725000Y-149850000D01*
X59495000Y-144780000D02*
X49725000Y-144780000D01*
X59495000Y-149850000D02*
X59495000Y-144780000D01*
X49725000Y-149850000D02*
X49725000Y-144780000D01*
X28135000Y-149850000D02*
X28135000Y-144780000D01*
X37905000Y-149850000D02*
X37905000Y-144780000D01*
X37905000Y-144780000D02*
X28135000Y-144780000D01*
X37905000Y-149850000D02*
X28135000Y-149850000D01*
X45180000Y-165160000D02*
X45180000Y-165850000D01*
X45080000Y-165160000D02*
X45180000Y-165160000D01*
X38560000Y-165160000D02*
X38560000Y-165410000D01*
X38660000Y-165160000D02*
X38560000Y-165160000D01*
X38660000Y-164960000D02*
X38660000Y-165160000D01*
X40080000Y-165160000D02*
X40080000Y-164960000D01*
X45180000Y-170870000D02*
G75*
G02X43870000Y-172180000I-1310000J0D01*
G01*
X39870000Y-172180000D02*
G75*
G02X38560000Y-170870000I0J1310000D01*
G01*
X43870000Y-172180000D02*
X42380000Y-172180000D01*
X45180000Y-166890000D02*
X45180000Y-170870000D01*
X38560000Y-170870000D02*
X38560000Y-167330000D01*
X41360000Y-172180000D02*
X39870000Y-172180000D01*
X45080000Y-164960000D02*
X45080000Y-165160000D01*
X43660000Y-164960000D02*
X45080000Y-164960000D01*
X43660000Y-165160000D02*
X43660000Y-164960000D01*
X40080000Y-165160000D02*
X43660000Y-165160000D01*
X38660000Y-164960000D02*
X40080000Y-164960000D01*
X89630000Y-148650000D02*
X89630000Y-149340000D01*
X89530000Y-148650000D02*
X89630000Y-148650000D01*
X83010000Y-148650000D02*
X83010000Y-148900000D01*
X83110000Y-148650000D02*
X83010000Y-148650000D01*
X83110000Y-148450000D02*
X83110000Y-148650000D01*
X84530000Y-148650000D02*
X84530000Y-148450000D01*
X89630000Y-154360000D02*
G75*
G02X88320000Y-155670000I-1310000J0D01*
G01*
X84320000Y-155670000D02*
G75*
G02X83010000Y-154360000I0J1310000D01*
G01*
X88320000Y-155670000D02*
X86830000Y-155670000D01*
X89630000Y-150380000D02*
X89630000Y-154360000D01*
X83010000Y-154360000D02*
X83010000Y-150820000D01*
X85810000Y-155670000D02*
X84320000Y-155670000D01*
X89530000Y-148450000D02*
X89530000Y-148650000D01*
X88110000Y-148450000D02*
X89530000Y-148450000D01*
X88110000Y-148650000D02*
X88110000Y-148450000D01*
X84530000Y-148650000D02*
X88110000Y-148650000D01*
X83110000Y-148450000D02*
X84530000Y-148450000D01*
X68040000Y-144840000D02*
X68040000Y-145530000D01*
X67940000Y-144840000D02*
X68040000Y-144840000D01*
X61420000Y-144840000D02*
X61420000Y-145090000D01*
X61520000Y-144840000D02*
X61420000Y-144840000D01*
X61520000Y-144640000D02*
X61520000Y-144840000D01*
X62940000Y-144840000D02*
X62940000Y-144640000D01*
X68040000Y-150550000D02*
G75*
G02X66730000Y-151860000I-1310000J0D01*
G01*
X62730000Y-151860000D02*
G75*
G02X61420000Y-150550000I0J1310000D01*
G01*
X66730000Y-151860000D02*
X65240000Y-151860000D01*
X68040000Y-146570000D02*
X68040000Y-150550000D01*
X61420000Y-150550000D02*
X61420000Y-147010000D01*
X64220000Y-151860000D02*
X62730000Y-151860000D01*
X67940000Y-144640000D02*
X67940000Y-144840000D01*
X66520000Y-144640000D02*
X67940000Y-144640000D01*
X66520000Y-144840000D02*
X66520000Y-144640000D01*
X62940000Y-144840000D02*
X66520000Y-144840000D01*
X61520000Y-144640000D02*
X62940000Y-144640000D01*
X97500000Y-144780000D02*
G75*
G03X97500000Y-144780000I-2250000J0D01*
G01*
X39930000Y-144640000D02*
X41350000Y-144640000D01*
X41350000Y-144840000D02*
X44930000Y-144840000D01*
X44930000Y-144840000D02*
X44930000Y-144640000D01*
X44930000Y-144640000D02*
X46350000Y-144640000D01*
X46350000Y-144640000D02*
X46350000Y-144840000D01*
X42630000Y-151860000D02*
X41140000Y-151860000D01*
X39830000Y-150550000D02*
X39830000Y-147010000D01*
X46450000Y-146570000D02*
X46450000Y-150550000D01*
X45140000Y-151860000D02*
X43650000Y-151860000D01*
X41140000Y-151860000D02*
G75*
G02X39830000Y-150550000I0J1310000D01*
G01*
X46450000Y-150550000D02*
G75*
G02X45140000Y-151860000I-1310000J0D01*
G01*
X41350000Y-144840000D02*
X41350000Y-144640000D01*
X39930000Y-144640000D02*
X39930000Y-144840000D01*
X39930000Y-144840000D02*
X39830000Y-144840000D01*
X39830000Y-144840000D02*
X39830000Y-145090000D01*
X46350000Y-144840000D02*
X46450000Y-144840000D01*
X46450000Y-144840000D02*
X46450000Y-145530000D01*
X97500000Y-134620000D02*
G75*
G03X97500000Y-134620000I-2250000J0D01*
G01*
D12*
X73835238Y-165822380D02*
X74168571Y-166822380D01*
X74501904Y-165822380D01*
X74835238Y-166822380D02*
X74835238Y-166155714D01*
X74835238Y-166250952D02*
X74882857Y-166203333D01*
X74978095Y-166155714D01*
X75120952Y-166155714D01*
X75216190Y-166203333D01*
X75263809Y-166298571D01*
X75263809Y-166822380D01*
X75263809Y-166298571D02*
X75311428Y-166203333D01*
X75406666Y-166155714D01*
X75549523Y-166155714D01*
X75644761Y-166203333D01*
X75692380Y-166298571D01*
X75692380Y-166822380D01*
X76311428Y-166822380D02*
X76216190Y-166774761D01*
X76168571Y-166727142D01*
X76120952Y-166631904D01*
X76120952Y-166346190D01*
X76168571Y-166250952D01*
X76216190Y-166203333D01*
X76311428Y-166155714D01*
X76454285Y-166155714D01*
X76549523Y-166203333D01*
X76597142Y-166250952D01*
X76644761Y-166346190D01*
X76644761Y-166631904D01*
X76597142Y-166727142D01*
X76549523Y-166774761D01*
X76454285Y-166822380D01*
X76311428Y-166822380D01*
X77501904Y-166822380D02*
X77501904Y-165822380D01*
X77501904Y-166774761D02*
X77406666Y-166822380D01*
X77216190Y-166822380D01*
X77120952Y-166774761D01*
X77073333Y-166727142D01*
X77025714Y-166631904D01*
X77025714Y-166346190D01*
X77073333Y-166250952D01*
X77120952Y-166203333D01*
X77216190Y-166155714D01*
X77406666Y-166155714D01*
X77501904Y-166203333D01*
X79263809Y-165870000D02*
X79168571Y-165822380D01*
X79025714Y-165822380D01*
X78882857Y-165870000D01*
X78787619Y-165965238D01*
X78740000Y-166060476D01*
X78692380Y-166250952D01*
X78692380Y-166393809D01*
X78740000Y-166584285D01*
X78787619Y-166679523D01*
X78882857Y-166774761D01*
X79025714Y-166822380D01*
X79120952Y-166822380D01*
X79263809Y-166774761D01*
X79311428Y-166727142D01*
X79311428Y-166393809D01*
X79120952Y-166393809D01*
X79740000Y-166822380D02*
X79740000Y-166155714D01*
X79740000Y-166346190D02*
X79787619Y-166250952D01*
X79835238Y-166203333D01*
X79930476Y-166155714D01*
X80025714Y-166155714D01*
X80501904Y-166822380D02*
X80406666Y-166774761D01*
X80359047Y-166727142D01*
X80311428Y-166631904D01*
X80311428Y-166346190D01*
X80359047Y-166250952D01*
X80406666Y-166203333D01*
X80501904Y-166155714D01*
X80644761Y-166155714D01*
X80740000Y-166203333D01*
X80787619Y-166250952D01*
X80835238Y-166346190D01*
X80835238Y-166631904D01*
X80787619Y-166727142D01*
X80740000Y-166774761D01*
X80644761Y-166822380D01*
X80501904Y-166822380D01*
X81692380Y-166155714D02*
X81692380Y-166822380D01*
X81263809Y-166155714D02*
X81263809Y-166679523D01*
X81311428Y-166774761D01*
X81406666Y-166822380D01*
X81549523Y-166822380D01*
X81644761Y-166774761D01*
X81692380Y-166727142D01*
X82168571Y-166155714D02*
X82168571Y-166822380D01*
X82168571Y-166250952D02*
X82216190Y-166203333D01*
X82311428Y-166155714D01*
X82454285Y-166155714D01*
X82549523Y-166203333D01*
X82597142Y-166298571D01*
X82597142Y-166822380D01*
X83501904Y-166822380D02*
X83501904Y-165822380D01*
X83501904Y-166774761D02*
X83406666Y-166822380D01*
X83216190Y-166822380D01*
X83120952Y-166774761D01*
X83073333Y-166727142D01*
X83025714Y-166631904D01*
X83025714Y-166346190D01*
X83073333Y-166250952D01*
X83120952Y-166203333D01*
X83216190Y-166155714D01*
X83406666Y-166155714D01*
X83501904Y-166203333D01*
X56017138Y-165713160D02*
X56350471Y-166713160D01*
X56683804Y-165713160D01*
X57017138Y-166713160D02*
X57017138Y-166046494D01*
X57017138Y-166141732D02*
X57064757Y-166094113D01*
X57159995Y-166046494D01*
X57302852Y-166046494D01*
X57398090Y-166094113D01*
X57445709Y-166189351D01*
X57445709Y-166713160D01*
X57445709Y-166189351D02*
X57493328Y-166094113D01*
X57588566Y-166046494D01*
X57731423Y-166046494D01*
X57826661Y-166094113D01*
X57874280Y-166189351D01*
X57874280Y-166713160D01*
X58493328Y-166713160D02*
X58398090Y-166665541D01*
X58350471Y-166617922D01*
X58302852Y-166522684D01*
X58302852Y-166236970D01*
X58350471Y-166141732D01*
X58398090Y-166094113D01*
X58493328Y-166046494D01*
X58636185Y-166046494D01*
X58731423Y-166094113D01*
X58779042Y-166141732D01*
X58826661Y-166236970D01*
X58826661Y-166522684D01*
X58779042Y-166617922D01*
X58731423Y-166665541D01*
X58636185Y-166713160D01*
X58493328Y-166713160D01*
X59683804Y-166713160D02*
X59683804Y-165713160D01*
X59683804Y-166665541D02*
X59588566Y-166713160D01*
X59398090Y-166713160D01*
X59302852Y-166665541D01*
X59255233Y-166617922D01*
X59207614Y-166522684D01*
X59207614Y-166236970D01*
X59255233Y-166141732D01*
X59302852Y-166094113D01*
X59398090Y-166046494D01*
X59588566Y-166046494D01*
X59683804Y-166094113D01*
X61445709Y-165760780D02*
X61350471Y-165713160D01*
X61207614Y-165713160D01*
X61064757Y-165760780D01*
X60969519Y-165856018D01*
X60921900Y-165951256D01*
X60874280Y-166141732D01*
X60874280Y-166284589D01*
X60921900Y-166475065D01*
X60969519Y-166570303D01*
X61064757Y-166665541D01*
X61207614Y-166713160D01*
X61302852Y-166713160D01*
X61445709Y-166665541D01*
X61493328Y-166617922D01*
X61493328Y-166284589D01*
X61302852Y-166284589D01*
X61921900Y-166713160D02*
X61921900Y-166046494D01*
X61921900Y-166236970D02*
X61969519Y-166141732D01*
X62017138Y-166094113D01*
X62112376Y-166046494D01*
X62207614Y-166046494D01*
X62683804Y-166713160D02*
X62588566Y-166665541D01*
X62540947Y-166617922D01*
X62493328Y-166522684D01*
X62493328Y-166236970D01*
X62540947Y-166141732D01*
X62588566Y-166094113D01*
X62683804Y-166046494D01*
X62826661Y-166046494D01*
X62921900Y-166094113D01*
X62969519Y-166141732D01*
X63017138Y-166236970D01*
X63017138Y-166522684D01*
X62969519Y-166617922D01*
X62921900Y-166665541D01*
X62826661Y-166713160D01*
X62683804Y-166713160D01*
X63874280Y-166046494D02*
X63874280Y-166713160D01*
X63445709Y-166046494D02*
X63445709Y-166570303D01*
X63493328Y-166665541D01*
X63588566Y-166713160D01*
X63731423Y-166713160D01*
X63826661Y-166665541D01*
X63874280Y-166617922D01*
X64350471Y-166046494D02*
X64350471Y-166713160D01*
X64350471Y-166141732D02*
X64398090Y-166094113D01*
X64493328Y-166046494D01*
X64636185Y-166046494D01*
X64731423Y-166094113D01*
X64779042Y-166189351D01*
X64779042Y-166713160D01*
X65683804Y-166713160D02*
X65683804Y-165713160D01*
X65683804Y-166665541D02*
X65588566Y-166713160D01*
X65398090Y-166713160D01*
X65302852Y-166665541D01*
X65255233Y-166617922D01*
X65207614Y-166522684D01*
X65207614Y-166236970D01*
X65255233Y-166141732D01*
X65302852Y-166094113D01*
X65398090Y-166046494D01*
X65588566Y-166046494D01*
X65683804Y-166094113D01*
X25575238Y-155662380D02*
X25908571Y-156662380D01*
X26241904Y-155662380D01*
X26575238Y-156662380D02*
X26575238Y-155995714D01*
X26575238Y-156090952D02*
X26622857Y-156043333D01*
X26718095Y-155995714D01*
X26860952Y-155995714D01*
X26956190Y-156043333D01*
X27003809Y-156138571D01*
X27003809Y-156662380D01*
X27003809Y-156138571D02*
X27051428Y-156043333D01*
X27146666Y-155995714D01*
X27289523Y-155995714D01*
X27384761Y-156043333D01*
X27432380Y-156138571D01*
X27432380Y-156662380D01*
X28051428Y-156662380D02*
X27956190Y-156614761D01*
X27908571Y-156567142D01*
X27860952Y-156471904D01*
X27860952Y-156186190D01*
X27908571Y-156090952D01*
X27956190Y-156043333D01*
X28051428Y-155995714D01*
X28194285Y-155995714D01*
X28289523Y-156043333D01*
X28337142Y-156090952D01*
X28384761Y-156186190D01*
X28384761Y-156471904D01*
X28337142Y-156567142D01*
X28289523Y-156614761D01*
X28194285Y-156662380D01*
X28051428Y-156662380D01*
X29241904Y-156662380D02*
X29241904Y-155662380D01*
X29241904Y-156614761D02*
X29146666Y-156662380D01*
X28956190Y-156662380D01*
X28860952Y-156614761D01*
X28813333Y-156567142D01*
X28765714Y-156471904D01*
X28765714Y-156186190D01*
X28813333Y-156090952D01*
X28860952Y-156043333D01*
X28956190Y-155995714D01*
X29146666Y-155995714D01*
X29241904Y-156043333D01*
X31003809Y-155710000D02*
X30908571Y-155662380D01*
X30765714Y-155662380D01*
X30622857Y-155710000D01*
X30527619Y-155805238D01*
X30480000Y-155900476D01*
X30432380Y-156090952D01*
X30432380Y-156233809D01*
X30480000Y-156424285D01*
X30527619Y-156519523D01*
X30622857Y-156614761D01*
X30765714Y-156662380D01*
X30860952Y-156662380D01*
X31003809Y-156614761D01*
X31051428Y-156567142D01*
X31051428Y-156233809D01*
X30860952Y-156233809D01*
X31480000Y-156662380D02*
X31480000Y-155995714D01*
X31480000Y-156186190D02*
X31527619Y-156090952D01*
X31575238Y-156043333D01*
X31670476Y-155995714D01*
X31765714Y-155995714D01*
X32241904Y-156662380D02*
X32146666Y-156614761D01*
X32099047Y-156567142D01*
X32051428Y-156471904D01*
X32051428Y-156186190D01*
X32099047Y-156090952D01*
X32146666Y-156043333D01*
X32241904Y-155995714D01*
X32384761Y-155995714D01*
X32480000Y-156043333D01*
X32527619Y-156090952D01*
X32575238Y-156186190D01*
X32575238Y-156471904D01*
X32527619Y-156567142D01*
X32480000Y-156614761D01*
X32384761Y-156662380D01*
X32241904Y-156662380D01*
X33432380Y-155995714D02*
X33432380Y-156662380D01*
X33003809Y-155995714D02*
X33003809Y-156519523D01*
X33051428Y-156614761D01*
X33146666Y-156662380D01*
X33289523Y-156662380D01*
X33384761Y-156614761D01*
X33432380Y-156567142D01*
X33908571Y-155995714D02*
X33908571Y-156662380D01*
X33908571Y-156090952D02*
X33956190Y-156043333D01*
X34051428Y-155995714D01*
X34194285Y-155995714D01*
X34289523Y-156043333D01*
X34337142Y-156138571D01*
X34337142Y-156662380D01*
X35241904Y-156662380D02*
X35241904Y-155662380D01*
X35241904Y-156614761D02*
X35146666Y-156662380D01*
X34956190Y-156662380D01*
X34860952Y-156614761D01*
X34813333Y-156567142D01*
X34765714Y-156471904D01*
X34765714Y-156186190D01*
X34813333Y-156090952D01*
X34860952Y-156043333D01*
X34956190Y-155995714D01*
X35146666Y-155995714D01*
X35241904Y-156043333D01*
X45895238Y-174712380D02*
X46228571Y-175712380D01*
X46561904Y-174712380D01*
X46895238Y-175712380D02*
X46895238Y-175045714D01*
X46895238Y-175140952D02*
X46942857Y-175093333D01*
X47038095Y-175045714D01*
X47180952Y-175045714D01*
X47276190Y-175093333D01*
X47323809Y-175188571D01*
X47323809Y-175712380D01*
X47323809Y-175188571D02*
X47371428Y-175093333D01*
X47466666Y-175045714D01*
X47609523Y-175045714D01*
X47704761Y-175093333D01*
X47752380Y-175188571D01*
X47752380Y-175712380D01*
X48371428Y-175712380D02*
X48276190Y-175664761D01*
X48228571Y-175617142D01*
X48180952Y-175521904D01*
X48180952Y-175236190D01*
X48228571Y-175140952D01*
X48276190Y-175093333D01*
X48371428Y-175045714D01*
X48514285Y-175045714D01*
X48609523Y-175093333D01*
X48657142Y-175140952D01*
X48704761Y-175236190D01*
X48704761Y-175521904D01*
X48657142Y-175617142D01*
X48609523Y-175664761D01*
X48514285Y-175712380D01*
X48371428Y-175712380D01*
X49561904Y-175712380D02*
X49561904Y-174712380D01*
X49561904Y-175664761D02*
X49466666Y-175712380D01*
X49276190Y-175712380D01*
X49180952Y-175664761D01*
X49133333Y-175617142D01*
X49085714Y-175521904D01*
X49085714Y-175236190D01*
X49133333Y-175140952D01*
X49180952Y-175093333D01*
X49276190Y-175045714D01*
X49466666Y-175045714D01*
X49561904Y-175093333D01*
X51323809Y-174760000D02*
X51228571Y-174712380D01*
X51085714Y-174712380D01*
X50942857Y-174760000D01*
X50847619Y-174855238D01*
X50800000Y-174950476D01*
X50752380Y-175140952D01*
X50752380Y-175283809D01*
X50800000Y-175474285D01*
X50847619Y-175569523D01*
X50942857Y-175664761D01*
X51085714Y-175712380D01*
X51180952Y-175712380D01*
X51323809Y-175664761D01*
X51371428Y-175617142D01*
X51371428Y-175283809D01*
X51180952Y-175283809D01*
X51800000Y-175712380D02*
X51800000Y-175045714D01*
X51800000Y-175236190D02*
X51847619Y-175140952D01*
X51895238Y-175093333D01*
X51990476Y-175045714D01*
X52085714Y-175045714D01*
X52561904Y-175712380D02*
X52466666Y-175664761D01*
X52419047Y-175617142D01*
X52371428Y-175521904D01*
X52371428Y-175236190D01*
X52419047Y-175140952D01*
X52466666Y-175093333D01*
X52561904Y-175045714D01*
X52704761Y-175045714D01*
X52800000Y-175093333D01*
X52847619Y-175140952D01*
X52895238Y-175236190D01*
X52895238Y-175521904D01*
X52847619Y-175617142D01*
X52800000Y-175664761D01*
X52704761Y-175712380D01*
X52561904Y-175712380D01*
X53752380Y-175045714D02*
X53752380Y-175712380D01*
X53323809Y-175045714D02*
X53323809Y-175569523D01*
X53371428Y-175664761D01*
X53466666Y-175712380D01*
X53609523Y-175712380D01*
X53704761Y-175664761D01*
X53752380Y-175617142D01*
X54228571Y-175045714D02*
X54228571Y-175712380D01*
X54228571Y-175140952D02*
X54276190Y-175093333D01*
X54371428Y-175045714D01*
X54514285Y-175045714D01*
X54609523Y-175093333D01*
X54657142Y-175188571D01*
X54657142Y-175712380D01*
X55561904Y-175712380D02*
X55561904Y-174712380D01*
X55561904Y-175664761D02*
X55466666Y-175712380D01*
X55276190Y-175712380D01*
X55180952Y-175664761D01*
X55133333Y-175617142D01*
X55085714Y-175521904D01*
X55085714Y-175236190D01*
X55133333Y-175140952D01*
X55180952Y-175093333D01*
X55276190Y-175045714D01*
X55466666Y-175045714D01*
X55561904Y-175093333D01*
X61420476Y-171862380D02*
X61420476Y-170862380D01*
X61753809Y-171576666D01*
X62087142Y-170862380D01*
X62087142Y-171862380D01*
X62468095Y-170862380D02*
X63087142Y-170862380D01*
X62753809Y-171243333D01*
X62896666Y-171243333D01*
X62991904Y-171290952D01*
X63039523Y-171338571D01*
X63087142Y-171433809D01*
X63087142Y-171671904D01*
X63039523Y-171767142D01*
X62991904Y-171814761D01*
X62896666Y-171862380D01*
X62610952Y-171862380D01*
X62515714Y-171814761D01*
X62468095Y-171767142D01*
X94440476Y-122332380D02*
X94440476Y-121332380D01*
X94773809Y-122046666D01*
X95107142Y-121332380D01*
X95107142Y-122332380D01*
X95488095Y-121332380D02*
X96107142Y-121332380D01*
X95773809Y-121713333D01*
X95916666Y-121713333D01*
X96011904Y-121760952D01*
X96059523Y-121808571D01*
X96107142Y-121903809D01*
X96107142Y-122141904D01*
X96059523Y-122237142D01*
X96011904Y-122284761D01*
X95916666Y-122332380D01*
X95630952Y-122332380D01*
X95535714Y-122284761D01*
X95488095Y-122237142D01*
X28400476Y-122332380D02*
X28400476Y-121332380D01*
X28733809Y-122046666D01*
X29067142Y-121332380D01*
X29067142Y-122332380D01*
X29448095Y-121332380D02*
X30067142Y-121332380D01*
X29733809Y-121713333D01*
X29876666Y-121713333D01*
X29971904Y-121760952D01*
X30019523Y-121808571D01*
X30067142Y-121903809D01*
X30067142Y-122141904D01*
X30019523Y-122237142D01*
X29971904Y-122284761D01*
X29876666Y-122332380D01*
X29590952Y-122332380D01*
X29495714Y-122284761D01*
X29448095Y-122237142D01*
X35750476Y-171085714D02*
X35750476Y-171752380D01*
X35512380Y-170704761D02*
X35274285Y-171419047D01*
X35893333Y-171419047D01*
X79676666Y-150432380D02*
X80295714Y-150432380D01*
X79962380Y-150813333D01*
X80105238Y-150813333D01*
X80200476Y-150860952D01*
X80248095Y-150908571D01*
X80295714Y-151003809D01*
X80295714Y-151241904D01*
X80248095Y-151337142D01*
X80200476Y-151384761D01*
X80105238Y-151432380D01*
X79819523Y-151432380D01*
X79724285Y-151384761D01*
X79676666Y-151337142D01*
X58134285Y-150677619D02*
X58181904Y-150630000D01*
X58277142Y-150582380D01*
X58515238Y-150582380D01*
X58610476Y-150630000D01*
X58658095Y-150677619D01*
X58705714Y-150772857D01*
X58705714Y-150868095D01*
X58658095Y-151010952D01*
X58086666Y-151582380D01*
X58705714Y-151582380D01*
X37115714Y-151432380D02*
X36544285Y-151432380D01*
X36830000Y-151432380D02*
X36830000Y-150432380D01*
X36734761Y-150575238D01*
X36639523Y-150670476D01*
X36544285Y-150718095D01*
X44600476Y-173735714D02*
X44600476Y-174402380D01*
X44362380Y-173354761D02*
X44124285Y-174069047D01*
X44743333Y-174069047D01*
X88526666Y-156892380D02*
X89145714Y-156892380D01*
X88812380Y-157273333D01*
X88955238Y-157273333D01*
X89050476Y-157320952D01*
X89098095Y-157368571D01*
X89145714Y-157463809D01*
X89145714Y-157701904D01*
X89098095Y-157797142D01*
X89050476Y-157844761D01*
X88955238Y-157892380D01*
X88669523Y-157892380D01*
X88574285Y-157844761D01*
X88526666Y-157797142D01*
X66984285Y-153177619D02*
X67031904Y-153130000D01*
X67127142Y-153082380D01*
X67365238Y-153082380D01*
X67460476Y-153130000D01*
X67508095Y-153177619D01*
X67555714Y-153272857D01*
X67555714Y-153368095D01*
X67508095Y-153510952D01*
X66936666Y-154082380D01*
X67555714Y-154082380D01*
X94869047Y-148661428D02*
X95630952Y-148661428D01*
X95250000Y-149042380D02*
X95250000Y-148280476D01*
X46005714Y-154122380D02*
X45434285Y-154122380D01*
X45720000Y-154122380D02*
X45720000Y-153122380D01*
X45624761Y-153265238D01*
X45529523Y-153360476D01*
X45434285Y-153408095D01*
X94869047Y-130881428D02*
X95630952Y-130881428D01*
X77136904Y-121991428D02*
X77898809Y-121991428D01*
X79375000Y-122705714D02*
X79375000Y-121277142D01*
X80851190Y-121991428D02*
X81613095Y-121991428D01*
X81232142Y-122372380D02*
X81232142Y-121610476D01*
X64436904Y-121991428D02*
X65198809Y-121991428D01*
X66675000Y-122705714D02*
X66675000Y-121277142D01*
X68151190Y-121991428D02*
X68913095Y-121991428D01*
X68532142Y-122372380D02*
X68532142Y-121610476D01*
X51736904Y-121991428D02*
X52498809Y-121991428D01*
X53975000Y-122705714D02*
X53975000Y-121277142D01*
X55451190Y-121991428D02*
X56213095Y-121991428D01*
X55832142Y-122372380D02*
X55832142Y-121610476D01*
X37131904Y-121991428D02*
X37893809Y-121991428D01*
X39370000Y-122705714D02*
X39370000Y-121277142D01*
X40846190Y-121991428D02*
X41608095Y-121991428D01*
X41227142Y-122372380D02*
X41227142Y-121610476D01*
M02*
