G04 #@! TF.GenerationSoftware,KiCad,Pcbnew,(5.1.2)-1*
G04 #@! TF.CreationDate,2019-06-06T02:08:38-04:00*
G04 #@! TF.ProjectId,volt mod 2,766f6c74-206d-46f6-9420-322e6b696361,rev?*
G04 #@! TF.SameCoordinates,Original*
G04 #@! TF.FileFunction,Legend,Top*
G04 #@! TF.FilePolarity,Positive*
%FSLAX46Y46*%
G04 Gerber Fmt 4.6, Leading zero omitted, Abs format (unit mm)*
G04 Created by KiCad (PCBNEW (5.1.2)-1) date 2019-06-06 02:08:38*
%MOMM*%
%LPD*%
G04 APERTURE LIST*
%ADD10C,0.300000*%
%ADD11C,0.010000*%
%ADD12C,0.120000*%
%ADD13C,0.150000*%
G04 APERTURE END LIST*
D10*
X34478571Y-140378571D02*
X34478571Y-138878571D01*
X34478571Y-140307142D02*
X34335714Y-140378571D01*
X34050000Y-140378571D01*
X33907142Y-140307142D01*
X33835714Y-140235714D01*
X33764285Y-140092857D01*
X33764285Y-139664285D01*
X33835714Y-139521428D01*
X33907142Y-139450000D01*
X34050000Y-139378571D01*
X34335714Y-139378571D01*
X34478571Y-139450000D01*
X35764285Y-140307142D02*
X35621428Y-140378571D01*
X35335714Y-140378571D01*
X35192857Y-140307142D01*
X35121428Y-140164285D01*
X35121428Y-139592857D01*
X35192857Y-139450000D01*
X35335714Y-139378571D01*
X35621428Y-139378571D01*
X35764285Y-139450000D01*
X35835714Y-139592857D01*
X35835714Y-139735714D01*
X35121428Y-139878571D01*
X36407142Y-140307142D02*
X36550000Y-140378571D01*
X36835714Y-140378571D01*
X36978571Y-140307142D01*
X37050000Y-140164285D01*
X37050000Y-140092857D01*
X36978571Y-139950000D01*
X36835714Y-139878571D01*
X36621428Y-139878571D01*
X36478571Y-139807142D01*
X36407142Y-139664285D01*
X36407142Y-139592857D01*
X36478571Y-139450000D01*
X36621428Y-139378571D01*
X36835714Y-139378571D01*
X36978571Y-139450000D01*
X37692857Y-140378571D02*
X37692857Y-139378571D01*
X37692857Y-138878571D02*
X37621428Y-138950000D01*
X37692857Y-139021428D01*
X37764285Y-138950000D01*
X37692857Y-138878571D01*
X37692857Y-139021428D01*
X39050000Y-139378571D02*
X39050000Y-140592857D01*
X38978571Y-140735714D01*
X38907142Y-140807142D01*
X38764285Y-140878571D01*
X38550000Y-140878571D01*
X38407142Y-140807142D01*
X39050000Y-140307142D02*
X38907142Y-140378571D01*
X38621428Y-140378571D01*
X38478571Y-140307142D01*
X38407142Y-140235714D01*
X38335714Y-140092857D01*
X38335714Y-139664285D01*
X38407142Y-139521428D01*
X38478571Y-139450000D01*
X38621428Y-139378571D01*
X38907142Y-139378571D01*
X39050000Y-139450000D01*
X39764285Y-139378571D02*
X39764285Y-140378571D01*
X39764285Y-139521428D02*
X39835714Y-139450000D01*
X39978571Y-139378571D01*
X40192857Y-139378571D01*
X40335714Y-139450000D01*
X40407142Y-139592857D01*
X40407142Y-140378571D01*
X41692857Y-140307142D02*
X41550000Y-140378571D01*
X41264285Y-140378571D01*
X41121428Y-140307142D01*
X41050000Y-140164285D01*
X41050000Y-139592857D01*
X41121428Y-139450000D01*
X41264285Y-139378571D01*
X41550000Y-139378571D01*
X41692857Y-139450000D01*
X41764285Y-139592857D01*
X41764285Y-139735714D01*
X41050000Y-139878571D01*
X43050000Y-140378571D02*
X43050000Y-138878571D01*
X43050000Y-140307142D02*
X42907142Y-140378571D01*
X42621428Y-140378571D01*
X42478571Y-140307142D01*
X42407142Y-140235714D01*
X42335714Y-140092857D01*
X42335714Y-139664285D01*
X42407142Y-139521428D01*
X42478571Y-139450000D01*
X42621428Y-139378571D01*
X42907142Y-139378571D01*
X43050000Y-139450000D01*
X44907142Y-140378571D02*
X44907142Y-138878571D01*
X44907142Y-139450000D02*
X45050000Y-139378571D01*
X45335714Y-139378571D01*
X45478571Y-139450000D01*
X45550000Y-139521428D01*
X45621428Y-139664285D01*
X45621428Y-140092857D01*
X45550000Y-140235714D01*
X45478571Y-140307142D01*
X45335714Y-140378571D01*
X45050000Y-140378571D01*
X44907142Y-140307142D01*
X46121428Y-139378571D02*
X46478571Y-140378571D01*
X46835714Y-139378571D02*
X46478571Y-140378571D01*
X46335714Y-140735714D01*
X46264285Y-140807142D01*
X46121428Y-140878571D01*
X47407142Y-140235714D02*
X47478571Y-140307142D01*
X47407142Y-140378571D01*
X47335714Y-140307142D01*
X47407142Y-140235714D01*
X47407142Y-140378571D01*
X47407142Y-139450000D02*
X47478571Y-139521428D01*
X47407142Y-139592857D01*
X47335714Y-139521428D01*
X47407142Y-139450000D01*
X47407142Y-139592857D01*
X49264285Y-139378571D02*
X49264285Y-140878571D01*
X49264285Y-139450000D02*
X49407142Y-139378571D01*
X49692857Y-139378571D01*
X49835714Y-139450000D01*
X49907142Y-139521428D01*
X49978571Y-139664285D01*
X49978571Y-140092857D01*
X49907142Y-140235714D01*
X49835714Y-140307142D01*
X49692857Y-140378571D01*
X49407142Y-140378571D01*
X49264285Y-140307142D01*
X50621428Y-140378571D02*
X50621428Y-138878571D01*
X50764285Y-139807142D02*
X51192857Y-140378571D01*
X51192857Y-139378571D02*
X50621428Y-139950000D01*
X51835714Y-140378571D02*
X51835714Y-138878571D01*
X51978571Y-139807142D02*
X52407142Y-140378571D01*
X52407142Y-139378571D02*
X51835714Y-139950000D01*
X52978571Y-140307142D02*
X53121428Y-140378571D01*
X53407142Y-140378571D01*
X53550000Y-140307142D01*
X53621428Y-140164285D01*
X53621428Y-140092857D01*
X53550000Y-139950000D01*
X53407142Y-139878571D01*
X53192857Y-139878571D01*
X53050000Y-139807142D01*
X52978571Y-139664285D01*
X52978571Y-139592857D01*
X53050000Y-139450000D01*
X53192857Y-139378571D01*
X53407142Y-139378571D01*
X53550000Y-139450000D01*
X54264285Y-140378571D02*
X54264285Y-138878571D01*
X54907142Y-140378571D02*
X54907142Y-139592857D01*
X54835714Y-139450000D01*
X54692857Y-139378571D01*
X54478571Y-139378571D01*
X54335714Y-139450000D01*
X54264285Y-139521428D01*
X56264285Y-140378571D02*
X56264285Y-139592857D01*
X56192857Y-139450000D01*
X56050000Y-139378571D01*
X55764285Y-139378571D01*
X55621428Y-139450000D01*
X56264285Y-140307142D02*
X56121428Y-140378571D01*
X55764285Y-140378571D01*
X55621428Y-140307142D01*
X55550000Y-140164285D01*
X55550000Y-140021428D01*
X55621428Y-139878571D01*
X55764285Y-139807142D01*
X56121428Y-139807142D01*
X56264285Y-139735714D01*
X57621428Y-140378571D02*
X57621428Y-138878571D01*
X57621428Y-140307142D02*
X57478571Y-140378571D01*
X57192857Y-140378571D01*
X57050000Y-140307142D01*
X56978571Y-140235714D01*
X56907142Y-140092857D01*
X56907142Y-139664285D01*
X56978571Y-139521428D01*
X57050000Y-139450000D01*
X57192857Y-139378571D01*
X57478571Y-139378571D01*
X57621428Y-139450000D01*
X58550000Y-140378571D02*
X58407142Y-140307142D01*
X58335714Y-140235714D01*
X58264285Y-140092857D01*
X58264285Y-139664285D01*
X58335714Y-139521428D01*
X58407142Y-139450000D01*
X58550000Y-139378571D01*
X58764285Y-139378571D01*
X58907142Y-139450000D01*
X58978571Y-139521428D01*
X59050000Y-139664285D01*
X59050000Y-140092857D01*
X58978571Y-140235714D01*
X58907142Y-140307142D01*
X58764285Y-140378571D01*
X58550000Y-140378571D01*
X59550000Y-139378571D02*
X59835714Y-140378571D01*
X60121428Y-139664285D01*
X60407142Y-140378571D01*
X60692857Y-139378571D01*
X61192857Y-139378571D02*
X62264285Y-139378571D01*
X61621428Y-138735714D02*
X61192857Y-140664285D01*
X62121428Y-140021428D02*
X61050000Y-140021428D01*
X61692857Y-140664285D02*
X62121428Y-138735714D01*
X63407142Y-138878571D02*
X63121428Y-138878571D01*
X62978571Y-138950000D01*
X62907142Y-139021428D01*
X62764285Y-139235714D01*
X62692857Y-139521428D01*
X62692857Y-140092857D01*
X62764285Y-140235714D01*
X62835714Y-140307142D01*
X62978571Y-140378571D01*
X63264285Y-140378571D01*
X63407142Y-140307142D01*
X63478571Y-140235714D01*
X63550000Y-140092857D01*
X63550000Y-139735714D01*
X63478571Y-139592857D01*
X63407142Y-139521428D01*
X63264285Y-139450000D01*
X62978571Y-139450000D01*
X62835714Y-139521428D01*
X62764285Y-139592857D01*
X62692857Y-139735714D01*
X64121428Y-139021428D02*
X64192857Y-138950000D01*
X64335714Y-138878571D01*
X64692857Y-138878571D01*
X64835714Y-138950000D01*
X64907142Y-139021428D01*
X64978571Y-139164285D01*
X64978571Y-139307142D01*
X64907142Y-139521428D01*
X64050000Y-140378571D01*
X64978571Y-140378571D01*
X66264285Y-139378571D02*
X66264285Y-140378571D01*
X65907142Y-138807142D02*
X65550000Y-139878571D01*
X66478571Y-139878571D01*
X66907142Y-138878571D02*
X67907142Y-138878571D01*
X67264285Y-140378571D01*
X51159999Y-179447142D02*
X49874285Y-181375714D01*
X51659999Y-181018571D02*
X51659999Y-180018571D01*
X51659999Y-180304285D02*
X51731428Y-180161428D01*
X51802857Y-180090000D01*
X51945714Y-180018571D01*
X52088571Y-180018571D01*
X53659999Y-179447142D02*
X52374285Y-181375714D01*
X54374285Y-181018571D02*
X54231428Y-180947142D01*
X54159999Y-180875714D01*
X54088571Y-180732857D01*
X54088571Y-180304285D01*
X54159999Y-180161428D01*
X54231428Y-180090000D01*
X54374285Y-180018571D01*
X54588571Y-180018571D01*
X54731428Y-180090000D01*
X54802857Y-180161428D01*
X54874285Y-180304285D01*
X54874285Y-180732857D01*
X54802857Y-180875714D01*
X54731428Y-180947142D01*
X54588571Y-181018571D01*
X54374285Y-181018571D01*
X55374285Y-180018571D02*
X55731428Y-181018571D01*
X56088571Y-180018571D01*
X57231428Y-180947142D02*
X57088571Y-181018571D01*
X56802857Y-181018571D01*
X56659999Y-180947142D01*
X56588571Y-180804285D01*
X56588571Y-180232857D01*
X56659999Y-180090000D01*
X56802857Y-180018571D01*
X57088571Y-180018571D01*
X57231428Y-180090000D01*
X57302857Y-180232857D01*
X57302857Y-180375714D01*
X56588571Y-180518571D01*
X57945714Y-181018571D02*
X57945714Y-180018571D01*
X57945714Y-180304285D02*
X58017142Y-180161428D01*
X58088571Y-180090000D01*
X58231428Y-180018571D01*
X58374285Y-180018571D01*
X59517142Y-180947142D02*
X59374285Y-181018571D01*
X59088571Y-181018571D01*
X58945714Y-180947142D01*
X58874285Y-180875714D01*
X58802857Y-180732857D01*
X58802857Y-180304285D01*
X58874285Y-180161428D01*
X58945714Y-180090000D01*
X59088571Y-180018571D01*
X59374285Y-180018571D01*
X59517142Y-180090000D01*
X60374285Y-181018571D02*
X60231428Y-180947142D01*
X60159999Y-180804285D01*
X60159999Y-179518571D01*
X61159999Y-181018571D02*
X61017142Y-180947142D01*
X60945714Y-180875714D01*
X60874285Y-180732857D01*
X60874285Y-180304285D01*
X60945714Y-180161428D01*
X61017142Y-180090000D01*
X61159999Y-180018571D01*
X61374285Y-180018571D01*
X61517142Y-180090000D01*
X61588571Y-180161428D01*
X61659999Y-180304285D01*
X61659999Y-180732857D01*
X61588571Y-180875714D01*
X61517142Y-180947142D01*
X61374285Y-181018571D01*
X61159999Y-181018571D01*
X62945714Y-180947142D02*
X62802857Y-181018571D01*
X62517142Y-181018571D01*
X62374285Y-180947142D01*
X62302857Y-180875714D01*
X62231428Y-180732857D01*
X62231428Y-180304285D01*
X62302857Y-180161428D01*
X62374285Y-180090000D01*
X62517142Y-180018571D01*
X62802857Y-180018571D01*
X62945714Y-180090000D01*
X63588571Y-181018571D02*
X63588571Y-179518571D01*
X63731428Y-180447142D02*
X64159999Y-181018571D01*
X64159999Y-180018571D02*
X63588571Y-180590000D01*
X64802857Y-181018571D02*
X64802857Y-180018571D01*
X64802857Y-179518571D02*
X64731428Y-179590000D01*
X64802857Y-179661428D01*
X64874285Y-179590000D01*
X64802857Y-179518571D01*
X64802857Y-179661428D01*
X65517142Y-180018571D02*
X65517142Y-181018571D01*
X65517142Y-180161428D02*
X65588571Y-180090000D01*
X65731428Y-180018571D01*
X65945714Y-180018571D01*
X66088571Y-180090000D01*
X66159999Y-180232857D01*
X66159999Y-181018571D01*
X67517142Y-180018571D02*
X67517142Y-181232857D01*
X67445714Y-181375714D01*
X67374285Y-181447142D01*
X67231428Y-181518571D01*
X67017142Y-181518571D01*
X66874285Y-181447142D01*
X67517142Y-180947142D02*
X67374285Y-181018571D01*
X67088571Y-181018571D01*
X66945714Y-180947142D01*
X66874285Y-180875714D01*
X66802857Y-180732857D01*
X66802857Y-180304285D01*
X66874285Y-180161428D01*
X66945714Y-180090000D01*
X67088571Y-180018571D01*
X67374285Y-180018571D01*
X67517142Y-180090000D01*
X70017142Y-181018571D02*
X70017142Y-179518571D01*
X70017142Y-180947142D02*
X69874285Y-181018571D01*
X69588571Y-181018571D01*
X69445714Y-180947142D01*
X69374285Y-180875714D01*
X69302857Y-180732857D01*
X69302857Y-180304285D01*
X69374285Y-180161428D01*
X69445714Y-180090000D01*
X69588571Y-180018571D01*
X69874285Y-180018571D01*
X70017142Y-180090000D01*
X70731428Y-181018571D02*
X70731428Y-180018571D01*
X70731428Y-179518571D02*
X70660000Y-179590000D01*
X70731428Y-179661428D01*
X70802857Y-179590000D01*
X70731428Y-179518571D01*
X70731428Y-179661428D01*
X71374285Y-180947142D02*
X71517142Y-181018571D01*
X71802857Y-181018571D01*
X71945714Y-180947142D01*
X72017142Y-180804285D01*
X72017142Y-180732857D01*
X71945714Y-180590000D01*
X71802857Y-180518571D01*
X71588571Y-180518571D01*
X71445714Y-180447142D01*
X71374285Y-180304285D01*
X71374285Y-180232857D01*
X71445714Y-180090000D01*
X71588571Y-180018571D01*
X71802857Y-180018571D01*
X71945714Y-180090000D01*
X73302857Y-180947142D02*
X73160000Y-181018571D01*
X72874285Y-181018571D01*
X72731428Y-180947142D01*
X72660000Y-180875714D01*
X72588571Y-180732857D01*
X72588571Y-180304285D01*
X72660000Y-180161428D01*
X72731428Y-180090000D01*
X72874285Y-180018571D01*
X73160000Y-180018571D01*
X73302857Y-180090000D01*
X74160000Y-181018571D02*
X74017142Y-180947142D01*
X73945714Y-180875714D01*
X73874285Y-180732857D01*
X73874285Y-180304285D01*
X73945714Y-180161428D01*
X74017142Y-180090000D01*
X74160000Y-180018571D01*
X74374285Y-180018571D01*
X74517142Y-180090000D01*
X74588571Y-180161428D01*
X74660000Y-180304285D01*
X74660000Y-180732857D01*
X74588571Y-180875714D01*
X74517142Y-180947142D01*
X74374285Y-181018571D01*
X74160000Y-181018571D01*
X75302857Y-181018571D02*
X75302857Y-180018571D01*
X75302857Y-180304285D02*
X75374285Y-180161428D01*
X75445714Y-180090000D01*
X75588571Y-180018571D01*
X75731428Y-180018571D01*
X76874285Y-181018571D02*
X76874285Y-179518571D01*
X76874285Y-180947142D02*
X76731428Y-181018571D01*
X76445714Y-181018571D01*
X76302857Y-180947142D01*
X76231428Y-180875714D01*
X76160000Y-180732857D01*
X76160000Y-180304285D01*
X76231428Y-180161428D01*
X76302857Y-180090000D01*
X76445714Y-180018571D01*
X76731428Y-180018571D01*
X76874285Y-180090000D01*
X78588571Y-180018571D02*
X78945714Y-181018571D01*
X79302857Y-180018571D01*
X79874285Y-181018571D02*
X79874285Y-180018571D01*
X79874285Y-180161428D02*
X79945714Y-180090000D01*
X80088571Y-180018571D01*
X80302857Y-180018571D01*
X80445714Y-180090000D01*
X80517142Y-180232857D01*
X80517142Y-181018571D01*
X80517142Y-180232857D02*
X80588571Y-180090000D01*
X80731428Y-180018571D01*
X80945714Y-180018571D01*
X81088571Y-180090000D01*
X81160000Y-180232857D01*
X81160000Y-181018571D01*
X82088571Y-181018571D02*
X81945714Y-180947142D01*
X81874285Y-180875714D01*
X81802857Y-180732857D01*
X81802857Y-180304285D01*
X81874285Y-180161428D01*
X81945714Y-180090000D01*
X82088571Y-180018571D01*
X82302857Y-180018571D01*
X82445714Y-180090000D01*
X82517142Y-180161428D01*
X82588571Y-180304285D01*
X82588571Y-180732857D01*
X82517142Y-180875714D01*
X82445714Y-180947142D01*
X82302857Y-181018571D01*
X82088571Y-181018571D01*
X83874285Y-181018571D02*
X83874285Y-179518571D01*
X83874285Y-180947142D02*
X83731428Y-181018571D01*
X83445714Y-181018571D01*
X83302857Y-180947142D01*
X83231428Y-180875714D01*
X83160000Y-180732857D01*
X83160000Y-180304285D01*
X83231428Y-180161428D01*
X83302857Y-180090000D01*
X83445714Y-180018571D01*
X83731428Y-180018571D01*
X83874285Y-180090000D01*
X85731428Y-181018571D02*
X85731428Y-179518571D01*
X85731428Y-180090000D02*
X85874285Y-180018571D01*
X86160000Y-180018571D01*
X86302857Y-180090000D01*
X86374285Y-180161428D01*
X86445714Y-180304285D01*
X86445714Y-180732857D01*
X86374285Y-180875714D01*
X86302857Y-180947142D01*
X86160000Y-181018571D01*
X85874285Y-181018571D01*
X85731428Y-180947142D01*
X87302857Y-181018571D02*
X87160000Y-180947142D01*
X87088571Y-180875714D01*
X87017142Y-180732857D01*
X87017142Y-180304285D01*
X87088571Y-180161428D01*
X87160000Y-180090000D01*
X87302857Y-180018571D01*
X87517142Y-180018571D01*
X87660000Y-180090000D01*
X87731428Y-180161428D01*
X87802857Y-180304285D01*
X87802857Y-180732857D01*
X87731428Y-180875714D01*
X87660000Y-180947142D01*
X87517142Y-181018571D01*
X87302857Y-181018571D01*
X89088571Y-181018571D02*
X89088571Y-180232857D01*
X89017142Y-180090000D01*
X88874285Y-180018571D01*
X88588571Y-180018571D01*
X88445714Y-180090000D01*
X89088571Y-180947142D02*
X88945714Y-181018571D01*
X88588571Y-181018571D01*
X88445714Y-180947142D01*
X88374285Y-180804285D01*
X88374285Y-180661428D01*
X88445714Y-180518571D01*
X88588571Y-180447142D01*
X88945714Y-180447142D01*
X89088571Y-180375714D01*
X89802857Y-181018571D02*
X89802857Y-180018571D01*
X89802857Y-180304285D02*
X89874285Y-180161428D01*
X89945714Y-180090000D01*
X90088571Y-180018571D01*
X90231428Y-180018571D01*
X91374285Y-181018571D02*
X91374285Y-179518571D01*
X91374285Y-180947142D02*
X91231428Y-181018571D01*
X90945714Y-181018571D01*
X90802857Y-180947142D01*
X90731428Y-180875714D01*
X90660000Y-180732857D01*
X90660000Y-180304285D01*
X90731428Y-180161428D01*
X90802857Y-180090000D01*
X90945714Y-180018571D01*
X91231428Y-180018571D01*
X91374285Y-180090000D01*
X93088571Y-180018571D02*
X93445714Y-181018571D01*
X93802857Y-180018571D01*
X94660000Y-179518571D02*
X94802857Y-179518571D01*
X94945714Y-179590000D01*
X95017142Y-179661428D01*
X95088571Y-179804285D01*
X95160000Y-180090000D01*
X95160000Y-180447142D01*
X95088571Y-180732857D01*
X95017142Y-180875714D01*
X94945714Y-180947142D01*
X94802857Y-181018571D01*
X94660000Y-181018571D01*
X94517142Y-180947142D01*
X94445714Y-180875714D01*
X94374285Y-180732857D01*
X94302857Y-180447142D01*
X94302857Y-180090000D01*
X94374285Y-179804285D01*
X94445714Y-179661428D01*
X94517142Y-179590000D01*
X94660000Y-179518571D01*
X95802857Y-180875714D02*
X95874285Y-180947142D01*
X95802857Y-181018571D01*
X95731428Y-180947142D01*
X95802857Y-180875714D01*
X95802857Y-181018571D01*
X97302857Y-181018571D02*
X96445714Y-181018571D01*
X96874285Y-181018571D02*
X96874285Y-179518571D01*
X96731428Y-179732857D01*
X96588571Y-179875714D01*
X96445714Y-179947142D01*
X94321428Y-140378571D02*
X93464285Y-140378571D01*
X93892857Y-140378571D02*
X93892857Y-138878571D01*
X93750000Y-139092857D01*
X93607142Y-139235714D01*
X93464285Y-139307142D01*
X94892857Y-139021428D02*
X94964285Y-138950000D01*
X95107142Y-138878571D01*
X95464285Y-138878571D01*
X95607142Y-138950000D01*
X95678571Y-139021428D01*
X95750000Y-139164285D01*
X95750000Y-139307142D01*
X95678571Y-139521428D01*
X94821428Y-140378571D01*
X95750000Y-140378571D01*
X96178571Y-138878571D02*
X96678571Y-140378571D01*
X97178571Y-138878571D01*
D11*
G36*
X84968823Y-168644533D02*
G01*
X85000202Y-168666776D01*
X85027911Y-168694485D01*
X85027911Y-169003920D01*
X85027838Y-169095799D01*
X85027495Y-169167840D01*
X85026692Y-169222780D01*
X85025241Y-169263360D01*
X85022952Y-169292317D01*
X85019636Y-169312391D01*
X85015105Y-169326321D01*
X85009169Y-169336845D01*
X85004514Y-169343100D01*
X84973783Y-169367673D01*
X84938496Y-169370341D01*
X84906245Y-169355271D01*
X84895588Y-169346374D01*
X84888464Y-169334557D01*
X84884167Y-169315526D01*
X84881991Y-169284992D01*
X84881228Y-169238662D01*
X84881155Y-169202871D01*
X84881155Y-169068045D01*
X84384444Y-169068045D01*
X84384444Y-169190700D01*
X84383931Y-169246787D01*
X84381876Y-169285333D01*
X84377508Y-169311361D01*
X84370056Y-169329897D01*
X84361047Y-169343100D01*
X84330144Y-169367604D01*
X84295196Y-169370506D01*
X84261738Y-169353089D01*
X84252604Y-169343959D01*
X84246152Y-169331855D01*
X84241897Y-169313001D01*
X84239352Y-169283620D01*
X84238029Y-169239937D01*
X84237443Y-169178175D01*
X84237375Y-169164000D01*
X84236891Y-169047631D01*
X84236641Y-168951727D01*
X84236723Y-168874177D01*
X84237231Y-168812869D01*
X84238262Y-168765690D01*
X84239913Y-168730530D01*
X84242279Y-168705276D01*
X84245457Y-168687817D01*
X84249544Y-168676041D01*
X84254634Y-168667835D01*
X84260266Y-168661645D01*
X84292128Y-168641844D01*
X84325357Y-168644533D01*
X84356735Y-168666776D01*
X84369433Y-168681126D01*
X84377526Y-168696978D01*
X84382042Y-168719554D01*
X84384006Y-168754078D01*
X84384444Y-168805776D01*
X84384444Y-168921289D01*
X84881155Y-168921289D01*
X84881155Y-168802756D01*
X84881662Y-168748148D01*
X84883698Y-168711275D01*
X84888035Y-168687307D01*
X84895447Y-168671415D01*
X84903733Y-168661645D01*
X84935594Y-168641844D01*
X84968823Y-168644533D01*
X84968823Y-168644533D01*
G37*
X84968823Y-168644533D02*
X85000202Y-168666776D01*
X85027911Y-168694485D01*
X85027911Y-169003920D01*
X85027838Y-169095799D01*
X85027495Y-169167840D01*
X85026692Y-169222780D01*
X85025241Y-169263360D01*
X85022952Y-169292317D01*
X85019636Y-169312391D01*
X85015105Y-169326321D01*
X85009169Y-169336845D01*
X85004514Y-169343100D01*
X84973783Y-169367673D01*
X84938496Y-169370341D01*
X84906245Y-169355271D01*
X84895588Y-169346374D01*
X84888464Y-169334557D01*
X84884167Y-169315526D01*
X84881991Y-169284992D01*
X84881228Y-169238662D01*
X84881155Y-169202871D01*
X84881155Y-169068045D01*
X84384444Y-169068045D01*
X84384444Y-169190700D01*
X84383931Y-169246787D01*
X84381876Y-169285333D01*
X84377508Y-169311361D01*
X84370056Y-169329897D01*
X84361047Y-169343100D01*
X84330144Y-169367604D01*
X84295196Y-169370506D01*
X84261738Y-169353089D01*
X84252604Y-169343959D01*
X84246152Y-169331855D01*
X84241897Y-169313001D01*
X84239352Y-169283620D01*
X84238029Y-169239937D01*
X84237443Y-169178175D01*
X84237375Y-169164000D01*
X84236891Y-169047631D01*
X84236641Y-168951727D01*
X84236723Y-168874177D01*
X84237231Y-168812869D01*
X84238262Y-168765690D01*
X84239913Y-168730530D01*
X84242279Y-168705276D01*
X84245457Y-168687817D01*
X84249544Y-168676041D01*
X84254634Y-168667835D01*
X84260266Y-168661645D01*
X84292128Y-168641844D01*
X84325357Y-168644533D01*
X84356735Y-168666776D01*
X84369433Y-168681126D01*
X84377526Y-168696978D01*
X84382042Y-168719554D01*
X84384006Y-168754078D01*
X84384444Y-168805776D01*
X84384444Y-168921289D01*
X84881155Y-168921289D01*
X84881155Y-168802756D01*
X84881662Y-168748148D01*
X84883698Y-168711275D01*
X84888035Y-168687307D01*
X84895447Y-168671415D01*
X84903733Y-168661645D01*
X84935594Y-168641844D01*
X84968823Y-168644533D01*
G36*
X83703065Y-168639163D02*
G01*
X83781772Y-168639542D01*
X83842863Y-168640333D01*
X83888817Y-168641670D01*
X83922114Y-168643683D01*
X83945236Y-168646506D01*
X83960662Y-168650269D01*
X83970871Y-168655105D01*
X83975813Y-168658822D01*
X84001457Y-168691358D01*
X84004559Y-168725138D01*
X83988711Y-168755826D01*
X83978348Y-168768089D01*
X83967196Y-168776450D01*
X83951035Y-168781657D01*
X83925642Y-168784457D01*
X83886798Y-168785596D01*
X83830280Y-168785821D01*
X83819180Y-168785822D01*
X83673244Y-168785822D01*
X83673244Y-169056756D01*
X83673148Y-169142154D01*
X83672711Y-169207864D01*
X83671712Y-169256774D01*
X83669928Y-169291773D01*
X83667137Y-169315749D01*
X83663117Y-169331593D01*
X83657645Y-169342191D01*
X83650666Y-169350267D01*
X83617734Y-169370112D01*
X83583354Y-169368548D01*
X83552176Y-169345906D01*
X83549886Y-169343100D01*
X83542429Y-169332492D01*
X83536747Y-169320081D01*
X83532601Y-169302850D01*
X83529750Y-169277784D01*
X83527954Y-169241867D01*
X83526972Y-169192083D01*
X83526564Y-169125417D01*
X83526489Y-169049589D01*
X83526489Y-168785822D01*
X83387127Y-168785822D01*
X83327322Y-168785418D01*
X83285918Y-168783840D01*
X83258748Y-168780547D01*
X83241646Y-168774992D01*
X83230443Y-168766631D01*
X83229083Y-168765178D01*
X83212725Y-168731939D01*
X83214172Y-168694362D01*
X83232978Y-168661645D01*
X83240250Y-168655298D01*
X83249627Y-168650266D01*
X83263609Y-168646396D01*
X83284696Y-168643537D01*
X83315389Y-168641535D01*
X83358189Y-168640239D01*
X83415595Y-168639498D01*
X83490110Y-168639158D01*
X83584233Y-168639068D01*
X83604260Y-168639067D01*
X83703065Y-168639163D01*
X83703065Y-168639163D01*
G37*
X83703065Y-168639163D02*
X83781772Y-168639542D01*
X83842863Y-168640333D01*
X83888817Y-168641670D01*
X83922114Y-168643683D01*
X83945236Y-168646506D01*
X83960662Y-168650269D01*
X83970871Y-168655105D01*
X83975813Y-168658822D01*
X84001457Y-168691358D01*
X84004559Y-168725138D01*
X83988711Y-168755826D01*
X83978348Y-168768089D01*
X83967196Y-168776450D01*
X83951035Y-168781657D01*
X83925642Y-168784457D01*
X83886798Y-168785596D01*
X83830280Y-168785821D01*
X83819180Y-168785822D01*
X83673244Y-168785822D01*
X83673244Y-169056756D01*
X83673148Y-169142154D01*
X83672711Y-169207864D01*
X83671712Y-169256774D01*
X83669928Y-169291773D01*
X83667137Y-169315749D01*
X83663117Y-169331593D01*
X83657645Y-169342191D01*
X83650666Y-169350267D01*
X83617734Y-169370112D01*
X83583354Y-169368548D01*
X83552176Y-169345906D01*
X83549886Y-169343100D01*
X83542429Y-169332492D01*
X83536747Y-169320081D01*
X83532601Y-169302850D01*
X83529750Y-169277784D01*
X83527954Y-169241867D01*
X83526972Y-169192083D01*
X83526564Y-169125417D01*
X83526489Y-169049589D01*
X83526489Y-168785822D01*
X83387127Y-168785822D01*
X83327322Y-168785418D01*
X83285918Y-168783840D01*
X83258748Y-168780547D01*
X83241646Y-168774992D01*
X83230443Y-168766631D01*
X83229083Y-168765178D01*
X83212725Y-168731939D01*
X83214172Y-168694362D01*
X83232978Y-168661645D01*
X83240250Y-168655298D01*
X83249627Y-168650266D01*
X83263609Y-168646396D01*
X83284696Y-168643537D01*
X83315389Y-168641535D01*
X83358189Y-168640239D01*
X83415595Y-168639498D01*
X83490110Y-168639158D01*
X83584233Y-168639068D01*
X83604260Y-168639067D01*
X83703065Y-168639163D01*
G36*
X82928614Y-168645877D02*
G01*
X82952327Y-168660647D01*
X82978978Y-168682227D01*
X82978978Y-169003773D01*
X82978893Y-169097830D01*
X82978529Y-169171932D01*
X82977724Y-169228704D01*
X82976313Y-169270768D01*
X82974133Y-169300748D01*
X82971021Y-169321267D01*
X82966814Y-169334949D01*
X82961348Y-169344416D01*
X82957472Y-169349082D01*
X82926034Y-169369575D01*
X82890233Y-169368739D01*
X82858873Y-169351264D01*
X82832222Y-169329684D01*
X82832222Y-168682227D01*
X82858873Y-168660647D01*
X82884594Y-168644949D01*
X82905600Y-168639067D01*
X82928614Y-168645877D01*
X82928614Y-168645877D01*
G37*
X82928614Y-168645877D02*
X82952327Y-168660647D01*
X82978978Y-168682227D01*
X82978978Y-169003773D01*
X82978893Y-169097830D01*
X82978529Y-169171932D01*
X82977724Y-169228704D01*
X82976313Y-169270768D01*
X82974133Y-169300748D01*
X82971021Y-169321267D01*
X82966814Y-169334949D01*
X82961348Y-169344416D01*
X82957472Y-169349082D01*
X82926034Y-169369575D01*
X82890233Y-169368739D01*
X82858873Y-169351264D01*
X82832222Y-169329684D01*
X82832222Y-168682227D01*
X82858873Y-168660647D01*
X82884594Y-168644949D01*
X82905600Y-168639067D01*
X82928614Y-168645877D01*
G36*
X82484665Y-168641034D02*
G01*
X82504255Y-168648035D01*
X82505010Y-168648377D01*
X82531613Y-168668678D01*
X82546270Y-168689561D01*
X82549138Y-168699352D01*
X82548996Y-168712361D01*
X82544961Y-168730895D01*
X82536146Y-168757257D01*
X82521669Y-168793752D01*
X82500645Y-168842687D01*
X82472188Y-168906365D01*
X82435415Y-168987093D01*
X82415175Y-169031216D01*
X82378625Y-169109985D01*
X82344315Y-169182423D01*
X82313552Y-169245880D01*
X82287648Y-169297708D01*
X82267910Y-169335259D01*
X82255650Y-169355884D01*
X82253224Y-169358733D01*
X82222183Y-169371302D01*
X82187121Y-169369619D01*
X82159000Y-169354332D01*
X82157854Y-169353089D01*
X82146668Y-169336154D01*
X82127904Y-169303170D01*
X82103875Y-169258380D01*
X82076897Y-169206032D01*
X82067201Y-169186742D01*
X81994014Y-169040150D01*
X81914240Y-169199393D01*
X81885767Y-169254415D01*
X81859350Y-169302132D01*
X81837148Y-169338893D01*
X81821319Y-169361044D01*
X81815954Y-169365741D01*
X81774257Y-169372102D01*
X81739849Y-169358733D01*
X81729728Y-169344446D01*
X81712214Y-169312692D01*
X81688735Y-169266597D01*
X81660720Y-169209285D01*
X81629599Y-169143880D01*
X81596799Y-169073507D01*
X81563750Y-169001291D01*
X81531881Y-168930355D01*
X81502619Y-168863825D01*
X81477395Y-168804826D01*
X81457636Y-168756481D01*
X81444772Y-168721915D01*
X81440231Y-168704253D01*
X81440277Y-168703613D01*
X81451326Y-168681388D01*
X81473410Y-168658753D01*
X81474710Y-168657768D01*
X81501853Y-168642425D01*
X81526958Y-168642574D01*
X81536368Y-168645466D01*
X81547834Y-168651718D01*
X81560010Y-168664014D01*
X81574357Y-168684908D01*
X81592336Y-168716949D01*
X81615407Y-168762688D01*
X81645030Y-168824677D01*
X81671745Y-168881898D01*
X81702480Y-168948226D01*
X81730021Y-169007874D01*
X81752938Y-169057725D01*
X81769798Y-169094664D01*
X81779173Y-169115573D01*
X81780540Y-169118845D01*
X81786689Y-169113497D01*
X81800822Y-169091109D01*
X81821057Y-169054946D01*
X81845515Y-169008277D01*
X81855248Y-168989022D01*
X81888217Y-168924004D01*
X81913643Y-168876654D01*
X81933612Y-168844219D01*
X81950210Y-168823946D01*
X81965524Y-168813082D01*
X81981640Y-168808875D01*
X81992143Y-168808400D01*
X82010670Y-168810042D01*
X82026904Y-168816831D01*
X82043035Y-168831566D01*
X82061251Y-168857044D01*
X82083739Y-168896061D01*
X82112689Y-168951414D01*
X82128662Y-168982903D01*
X82154570Y-169033087D01*
X82177167Y-169074704D01*
X82194458Y-169104242D01*
X82204450Y-169118189D01*
X82205809Y-169118770D01*
X82212261Y-169107793D01*
X82226708Y-169079290D01*
X82247703Y-169036244D01*
X82273797Y-168981638D01*
X82303546Y-168918454D01*
X82318180Y-168887071D01*
X82356250Y-168806078D01*
X82386905Y-168743756D01*
X82411737Y-168698071D01*
X82432337Y-168666989D01*
X82450298Y-168648478D01*
X82467210Y-168640504D01*
X82484665Y-168641034D01*
X82484665Y-168641034D01*
G37*
X82484665Y-168641034D02*
X82504255Y-168648035D01*
X82505010Y-168648377D01*
X82531613Y-168668678D01*
X82546270Y-168689561D01*
X82549138Y-168699352D01*
X82548996Y-168712361D01*
X82544961Y-168730895D01*
X82536146Y-168757257D01*
X82521669Y-168793752D01*
X82500645Y-168842687D01*
X82472188Y-168906365D01*
X82435415Y-168987093D01*
X82415175Y-169031216D01*
X82378625Y-169109985D01*
X82344315Y-169182423D01*
X82313552Y-169245880D01*
X82287648Y-169297708D01*
X82267910Y-169335259D01*
X82255650Y-169355884D01*
X82253224Y-169358733D01*
X82222183Y-169371302D01*
X82187121Y-169369619D01*
X82159000Y-169354332D01*
X82157854Y-169353089D01*
X82146668Y-169336154D01*
X82127904Y-169303170D01*
X82103875Y-169258380D01*
X82076897Y-169206032D01*
X82067201Y-169186742D01*
X81994014Y-169040150D01*
X81914240Y-169199393D01*
X81885767Y-169254415D01*
X81859350Y-169302132D01*
X81837148Y-169338893D01*
X81821319Y-169361044D01*
X81815954Y-169365741D01*
X81774257Y-169372102D01*
X81739849Y-169358733D01*
X81729728Y-169344446D01*
X81712214Y-169312692D01*
X81688735Y-169266597D01*
X81660720Y-169209285D01*
X81629599Y-169143880D01*
X81596799Y-169073507D01*
X81563750Y-169001291D01*
X81531881Y-168930355D01*
X81502619Y-168863825D01*
X81477395Y-168804826D01*
X81457636Y-168756481D01*
X81444772Y-168721915D01*
X81440231Y-168704253D01*
X81440277Y-168703613D01*
X81451326Y-168681388D01*
X81473410Y-168658753D01*
X81474710Y-168657768D01*
X81501853Y-168642425D01*
X81526958Y-168642574D01*
X81536368Y-168645466D01*
X81547834Y-168651718D01*
X81560010Y-168664014D01*
X81574357Y-168684908D01*
X81592336Y-168716949D01*
X81615407Y-168762688D01*
X81645030Y-168824677D01*
X81671745Y-168881898D01*
X81702480Y-168948226D01*
X81730021Y-169007874D01*
X81752938Y-169057725D01*
X81769798Y-169094664D01*
X81779173Y-169115573D01*
X81780540Y-169118845D01*
X81786689Y-169113497D01*
X81800822Y-169091109D01*
X81821057Y-169054946D01*
X81845515Y-169008277D01*
X81855248Y-168989022D01*
X81888217Y-168924004D01*
X81913643Y-168876654D01*
X81933612Y-168844219D01*
X81950210Y-168823946D01*
X81965524Y-168813082D01*
X81981640Y-168808875D01*
X81992143Y-168808400D01*
X82010670Y-168810042D01*
X82026904Y-168816831D01*
X82043035Y-168831566D01*
X82061251Y-168857044D01*
X82083739Y-168896061D01*
X82112689Y-168951414D01*
X82128662Y-168982903D01*
X82154570Y-169033087D01*
X82177167Y-169074704D01*
X82194458Y-169104242D01*
X82204450Y-169118189D01*
X82205809Y-169118770D01*
X82212261Y-169107793D01*
X82226708Y-169079290D01*
X82247703Y-169036244D01*
X82273797Y-168981638D01*
X82303546Y-168918454D01*
X82318180Y-168887071D01*
X82356250Y-168806078D01*
X82386905Y-168743756D01*
X82411737Y-168698071D01*
X82432337Y-168666989D01*
X82450298Y-168648478D01*
X82467210Y-168640504D01*
X82484665Y-168641034D01*
G36*
X79758309Y-168639275D02*
G01*
X79887288Y-168643636D01*
X79996991Y-168656861D01*
X80089226Y-168679741D01*
X80165802Y-168713070D01*
X80228527Y-168757638D01*
X80279212Y-168814236D01*
X80319663Y-168883658D01*
X80320459Y-168885351D01*
X80344601Y-168947483D01*
X80353203Y-169002509D01*
X80346231Y-169057887D01*
X80323654Y-169121073D01*
X80319372Y-169130689D01*
X80290172Y-169186966D01*
X80257356Y-169230451D01*
X80215002Y-169267417D01*
X80157190Y-169304135D01*
X80153831Y-169306052D01*
X80103504Y-169330227D01*
X80046621Y-169348282D01*
X79979527Y-169360839D01*
X79898565Y-169368522D01*
X79800082Y-169371953D01*
X79765286Y-169372251D01*
X79599594Y-169372845D01*
X79576197Y-169343100D01*
X79569257Y-169333319D01*
X79563842Y-169321897D01*
X79559765Y-169306095D01*
X79556837Y-169283175D01*
X79554867Y-169250396D01*
X79554225Y-169226089D01*
X79710844Y-169226089D01*
X79804726Y-169226089D01*
X79859664Y-169224483D01*
X79916060Y-169220255D01*
X79962345Y-169214292D01*
X79965139Y-169213790D01*
X80047348Y-169191736D01*
X80111114Y-169158600D01*
X80158452Y-169112847D01*
X80191382Y-169052939D01*
X80197108Y-169037061D01*
X80202721Y-169012333D01*
X80200291Y-168987902D01*
X80188467Y-168955400D01*
X80181340Y-168939434D01*
X80158000Y-168897006D01*
X80129880Y-168867240D01*
X80098940Y-168846511D01*
X80036966Y-168819537D01*
X79957651Y-168799998D01*
X79865253Y-168788746D01*
X79798333Y-168786270D01*
X79710844Y-168785822D01*
X79710844Y-169226089D01*
X79554225Y-169226089D01*
X79553668Y-169205021D01*
X79553050Y-169144311D01*
X79552825Y-169065526D01*
X79552800Y-169003920D01*
X79552800Y-168694485D01*
X79580509Y-168666776D01*
X79592806Y-168655544D01*
X79606103Y-168647853D01*
X79624672Y-168643040D01*
X79652786Y-168640446D01*
X79694717Y-168639410D01*
X79754737Y-168639270D01*
X79758309Y-168639275D01*
X79758309Y-168639275D01*
G37*
X79758309Y-168639275D02*
X79887288Y-168643636D01*
X79996991Y-168656861D01*
X80089226Y-168679741D01*
X80165802Y-168713070D01*
X80228527Y-168757638D01*
X80279212Y-168814236D01*
X80319663Y-168883658D01*
X80320459Y-168885351D01*
X80344601Y-168947483D01*
X80353203Y-169002509D01*
X80346231Y-169057887D01*
X80323654Y-169121073D01*
X80319372Y-169130689D01*
X80290172Y-169186966D01*
X80257356Y-169230451D01*
X80215002Y-169267417D01*
X80157190Y-169304135D01*
X80153831Y-169306052D01*
X80103504Y-169330227D01*
X80046621Y-169348282D01*
X79979527Y-169360839D01*
X79898565Y-169368522D01*
X79800082Y-169371953D01*
X79765286Y-169372251D01*
X79599594Y-169372845D01*
X79576197Y-169343100D01*
X79569257Y-169333319D01*
X79563842Y-169321897D01*
X79559765Y-169306095D01*
X79556837Y-169283175D01*
X79554867Y-169250396D01*
X79554225Y-169226089D01*
X79710844Y-169226089D01*
X79804726Y-169226089D01*
X79859664Y-169224483D01*
X79916060Y-169220255D01*
X79962345Y-169214292D01*
X79965139Y-169213790D01*
X80047348Y-169191736D01*
X80111114Y-169158600D01*
X80158452Y-169112847D01*
X80191382Y-169052939D01*
X80197108Y-169037061D01*
X80202721Y-169012333D01*
X80200291Y-168987902D01*
X80188467Y-168955400D01*
X80181340Y-168939434D01*
X80158000Y-168897006D01*
X80129880Y-168867240D01*
X80098940Y-168846511D01*
X80036966Y-168819537D01*
X79957651Y-168799998D01*
X79865253Y-168788746D01*
X79798333Y-168786270D01*
X79710844Y-168785822D01*
X79710844Y-169226089D01*
X79554225Y-169226089D01*
X79553668Y-169205021D01*
X79553050Y-169144311D01*
X79552825Y-169065526D01*
X79552800Y-169003920D01*
X79552800Y-168694485D01*
X79580509Y-168666776D01*
X79592806Y-168655544D01*
X79606103Y-168647853D01*
X79624672Y-168643040D01*
X79652786Y-168640446D01*
X79694717Y-168639410D01*
X79754737Y-168639270D01*
X79758309Y-168639275D01*
G36*
X78970343Y-168639260D02*
G01*
X79046701Y-168640174D01*
X79105217Y-168642311D01*
X79148255Y-168646175D01*
X79178183Y-168652267D01*
X79197368Y-168661090D01*
X79208176Y-168673146D01*
X79212973Y-168688939D01*
X79214127Y-168708970D01*
X79214133Y-168711335D01*
X79213131Y-168733992D01*
X79208396Y-168751503D01*
X79197333Y-168764574D01*
X79177348Y-168773913D01*
X79145846Y-168780227D01*
X79100232Y-168784222D01*
X79037913Y-168786606D01*
X78956293Y-168788086D01*
X78931277Y-168788414D01*
X78689200Y-168791467D01*
X78685814Y-168856378D01*
X78682429Y-168921289D01*
X78850576Y-168921289D01*
X78916266Y-168921531D01*
X78963172Y-168922556D01*
X78995083Y-168924811D01*
X79015791Y-168928742D01*
X79029084Y-168934798D01*
X79038755Y-168943424D01*
X79038817Y-168943493D01*
X79056356Y-168977112D01*
X79055722Y-169013448D01*
X79037314Y-169044423D01*
X79033671Y-169047607D01*
X79020741Y-169055812D01*
X79003024Y-169061521D01*
X78976570Y-169065162D01*
X78937432Y-169067167D01*
X78881662Y-169067964D01*
X78845994Y-169068045D01*
X78683555Y-169068045D01*
X78683555Y-169226089D01*
X78930161Y-169226089D01*
X79011580Y-169226231D01*
X79073410Y-169226814D01*
X79118637Y-169228068D01*
X79150248Y-169230227D01*
X79171231Y-169233523D01*
X79184573Y-169238189D01*
X79193261Y-169244457D01*
X79195450Y-169246733D01*
X79211614Y-169278280D01*
X79212797Y-169314168D01*
X79199536Y-169345285D01*
X79189043Y-169355271D01*
X79178129Y-169360769D01*
X79161217Y-169365022D01*
X79135633Y-169368180D01*
X79098701Y-169370392D01*
X79047746Y-169371806D01*
X78980094Y-169372572D01*
X78893069Y-169372838D01*
X78873394Y-169372845D01*
X78784911Y-169372787D01*
X78716227Y-169372467D01*
X78664564Y-169371667D01*
X78627145Y-169370167D01*
X78601190Y-169367749D01*
X78583922Y-169364194D01*
X78572562Y-169359282D01*
X78564332Y-169352795D01*
X78559817Y-169348138D01*
X78553021Y-169339889D01*
X78547712Y-169329669D01*
X78543706Y-169314800D01*
X78540821Y-169292602D01*
X78538874Y-169260393D01*
X78537681Y-169215496D01*
X78537061Y-169155228D01*
X78536829Y-169076911D01*
X78536800Y-169010994D01*
X78536871Y-168918628D01*
X78537208Y-168846117D01*
X78537998Y-168790737D01*
X78539426Y-168749765D01*
X78541679Y-168720478D01*
X78544943Y-168700153D01*
X78549404Y-168686066D01*
X78555248Y-168675495D01*
X78560197Y-168668811D01*
X78583594Y-168639067D01*
X78873774Y-168639067D01*
X78970343Y-168639260D01*
X78970343Y-168639260D01*
G37*
X78970343Y-168639260D02*
X79046701Y-168640174D01*
X79105217Y-168642311D01*
X79148255Y-168646175D01*
X79178183Y-168652267D01*
X79197368Y-168661090D01*
X79208176Y-168673146D01*
X79212973Y-168688939D01*
X79214127Y-168708970D01*
X79214133Y-168711335D01*
X79213131Y-168733992D01*
X79208396Y-168751503D01*
X79197333Y-168764574D01*
X79177348Y-168773913D01*
X79145846Y-168780227D01*
X79100232Y-168784222D01*
X79037913Y-168786606D01*
X78956293Y-168788086D01*
X78931277Y-168788414D01*
X78689200Y-168791467D01*
X78685814Y-168856378D01*
X78682429Y-168921289D01*
X78850576Y-168921289D01*
X78916266Y-168921531D01*
X78963172Y-168922556D01*
X78995083Y-168924811D01*
X79015791Y-168928742D01*
X79029084Y-168934798D01*
X79038755Y-168943424D01*
X79038817Y-168943493D01*
X79056356Y-168977112D01*
X79055722Y-169013448D01*
X79037314Y-169044423D01*
X79033671Y-169047607D01*
X79020741Y-169055812D01*
X79003024Y-169061521D01*
X78976570Y-169065162D01*
X78937432Y-169067167D01*
X78881662Y-169067964D01*
X78845994Y-169068045D01*
X78683555Y-169068045D01*
X78683555Y-169226089D01*
X78930161Y-169226089D01*
X79011580Y-169226231D01*
X79073410Y-169226814D01*
X79118637Y-169228068D01*
X79150248Y-169230227D01*
X79171231Y-169233523D01*
X79184573Y-169238189D01*
X79193261Y-169244457D01*
X79195450Y-169246733D01*
X79211614Y-169278280D01*
X79212797Y-169314168D01*
X79199536Y-169345285D01*
X79189043Y-169355271D01*
X79178129Y-169360769D01*
X79161217Y-169365022D01*
X79135633Y-169368180D01*
X79098701Y-169370392D01*
X79047746Y-169371806D01*
X78980094Y-169372572D01*
X78893069Y-169372838D01*
X78873394Y-169372845D01*
X78784911Y-169372787D01*
X78716227Y-169372467D01*
X78664564Y-169371667D01*
X78627145Y-169370167D01*
X78601190Y-169367749D01*
X78583922Y-169364194D01*
X78572562Y-169359282D01*
X78564332Y-169352795D01*
X78559817Y-169348138D01*
X78553021Y-169339889D01*
X78547712Y-169329669D01*
X78543706Y-169314800D01*
X78540821Y-169292602D01*
X78538874Y-169260393D01*
X78537681Y-169215496D01*
X78537061Y-169155228D01*
X78536829Y-169076911D01*
X78536800Y-169010994D01*
X78536871Y-168918628D01*
X78537208Y-168846117D01*
X78537998Y-168790737D01*
X78539426Y-168749765D01*
X78541679Y-168720478D01*
X78544943Y-168700153D01*
X78549404Y-168686066D01*
X78555248Y-168675495D01*
X78560197Y-168668811D01*
X78583594Y-168639067D01*
X78873774Y-168639067D01*
X78970343Y-168639260D01*
G36*
X77439886Y-168643448D02*
G01*
X77463452Y-168657273D01*
X77494265Y-168679881D01*
X77533922Y-168712338D01*
X77584020Y-168755708D01*
X77646157Y-168811058D01*
X77721928Y-168879451D01*
X77808666Y-168958084D01*
X77989289Y-169121878D01*
X77994933Y-168902029D01*
X77996971Y-168826351D01*
X77998937Y-168769994D01*
X78001266Y-168729706D01*
X78004394Y-168702235D01*
X78008755Y-168684329D01*
X78014784Y-168672737D01*
X78022916Y-168664208D01*
X78027228Y-168660623D01*
X78061759Y-168641670D01*
X78094617Y-168644441D01*
X78120682Y-168660633D01*
X78147333Y-168682199D01*
X78150648Y-168997151D01*
X78151565Y-169089779D01*
X78152032Y-169162544D01*
X78151887Y-169218161D01*
X78150968Y-169259342D01*
X78149113Y-169288803D01*
X78146161Y-169309255D01*
X78141950Y-169323413D01*
X78136318Y-169333991D01*
X78130073Y-169342474D01*
X78116561Y-169358207D01*
X78103117Y-169368636D01*
X78087876Y-169372639D01*
X78068974Y-169369094D01*
X78044545Y-169356879D01*
X78012727Y-169334871D01*
X77971652Y-169301949D01*
X77919458Y-169256991D01*
X77854278Y-169198875D01*
X77780444Y-169132099D01*
X77515155Y-168891458D01*
X77509511Y-169110589D01*
X77507469Y-169186128D01*
X77505498Y-169242354D01*
X77503161Y-169282524D01*
X77500019Y-169309896D01*
X77495636Y-169327728D01*
X77489576Y-169339279D01*
X77481400Y-169347807D01*
X77477216Y-169351282D01*
X77440235Y-169370372D01*
X77405292Y-169367493D01*
X77374864Y-169343100D01*
X77367903Y-169333286D01*
X77362477Y-169321826D01*
X77358397Y-169305968D01*
X77355471Y-169282963D01*
X77353508Y-169250062D01*
X77352317Y-169204516D01*
X77351708Y-169143573D01*
X77351489Y-169064486D01*
X77351466Y-169005956D01*
X77351540Y-168914407D01*
X77351887Y-168842687D01*
X77352699Y-168788045D01*
X77354167Y-168747732D01*
X77356481Y-168718998D01*
X77359833Y-168699093D01*
X77364412Y-168685268D01*
X77370411Y-168674772D01*
X77374864Y-168668811D01*
X77386150Y-168654691D01*
X77396699Y-168644029D01*
X77408107Y-168637892D01*
X77421970Y-168637343D01*
X77439886Y-168643448D01*
X77439886Y-168643448D01*
G37*
X77439886Y-168643448D02*
X77463452Y-168657273D01*
X77494265Y-168679881D01*
X77533922Y-168712338D01*
X77584020Y-168755708D01*
X77646157Y-168811058D01*
X77721928Y-168879451D01*
X77808666Y-168958084D01*
X77989289Y-169121878D01*
X77994933Y-168902029D01*
X77996971Y-168826351D01*
X77998937Y-168769994D01*
X78001266Y-168729706D01*
X78004394Y-168702235D01*
X78008755Y-168684329D01*
X78014784Y-168672737D01*
X78022916Y-168664208D01*
X78027228Y-168660623D01*
X78061759Y-168641670D01*
X78094617Y-168644441D01*
X78120682Y-168660633D01*
X78147333Y-168682199D01*
X78150648Y-168997151D01*
X78151565Y-169089779D01*
X78152032Y-169162544D01*
X78151887Y-169218161D01*
X78150968Y-169259342D01*
X78149113Y-169288803D01*
X78146161Y-169309255D01*
X78141950Y-169323413D01*
X78136318Y-169333991D01*
X78130073Y-169342474D01*
X78116561Y-169358207D01*
X78103117Y-169368636D01*
X78087876Y-169372639D01*
X78068974Y-169369094D01*
X78044545Y-169356879D01*
X78012727Y-169334871D01*
X77971652Y-169301949D01*
X77919458Y-169256991D01*
X77854278Y-169198875D01*
X77780444Y-169132099D01*
X77515155Y-168891458D01*
X77509511Y-169110589D01*
X77507469Y-169186128D01*
X77505498Y-169242354D01*
X77503161Y-169282524D01*
X77500019Y-169309896D01*
X77495636Y-169327728D01*
X77489576Y-169339279D01*
X77481400Y-169347807D01*
X77477216Y-169351282D01*
X77440235Y-169370372D01*
X77405292Y-169367493D01*
X77374864Y-169343100D01*
X77367903Y-169333286D01*
X77362477Y-169321826D01*
X77358397Y-169305968D01*
X77355471Y-169282963D01*
X77353508Y-169250062D01*
X77352317Y-169204516D01*
X77351708Y-169143573D01*
X77351489Y-169064486D01*
X77351466Y-169005956D01*
X77351540Y-168914407D01*
X77351887Y-168842687D01*
X77352699Y-168788045D01*
X77354167Y-168747732D01*
X77356481Y-168718998D01*
X77359833Y-168699093D01*
X77364412Y-168685268D01*
X77370411Y-168674772D01*
X77374864Y-168668811D01*
X77386150Y-168654691D01*
X77396699Y-168644029D01*
X77408107Y-168637892D01*
X77421970Y-168637343D01*
X77439886Y-168643448D01*
G36*
X76789919Y-168644599D02*
G01*
X76858435Y-168656095D01*
X76911057Y-168673967D01*
X76945292Y-168697499D01*
X76954621Y-168710924D01*
X76964107Y-168742148D01*
X76957723Y-168770395D01*
X76937570Y-168797182D01*
X76906255Y-168809713D01*
X76860817Y-168808696D01*
X76825674Y-168801906D01*
X76747581Y-168788971D01*
X76667774Y-168787742D01*
X76578445Y-168798241D01*
X76553771Y-168802690D01*
X76470709Y-168826108D01*
X76405727Y-168860945D01*
X76359539Y-168906604D01*
X76332855Y-168962494D01*
X76327337Y-168991388D01*
X76330949Y-169050012D01*
X76354271Y-169101879D01*
X76395176Y-169145978D01*
X76451541Y-169181299D01*
X76521240Y-169206829D01*
X76602148Y-169221559D01*
X76692140Y-169224478D01*
X76789090Y-169214575D01*
X76794564Y-169213641D01*
X76833125Y-169206459D01*
X76854506Y-169199521D01*
X76863773Y-169189227D01*
X76865994Y-169171976D01*
X76866044Y-169162841D01*
X76866044Y-169124489D01*
X76797569Y-169124489D01*
X76737100Y-169120347D01*
X76695835Y-169107147D01*
X76671825Y-169083730D01*
X76663123Y-169048936D01*
X76663017Y-169044394D01*
X76668108Y-169014654D01*
X76685567Y-168993419D01*
X76718061Y-168979366D01*
X76768257Y-168971173D01*
X76816877Y-168968161D01*
X76887544Y-168966433D01*
X76938802Y-168969070D01*
X76973761Y-168978800D01*
X76995530Y-168998353D01*
X77007220Y-169030456D01*
X77011940Y-169077838D01*
X77012800Y-169140071D01*
X77011391Y-169209535D01*
X77007152Y-169256786D01*
X77000064Y-169282012D01*
X76998689Y-169283988D01*
X76959772Y-169315508D01*
X76902714Y-169340470D01*
X76831131Y-169358340D01*
X76748642Y-169368586D01*
X76658861Y-169370673D01*
X76565408Y-169364068D01*
X76510444Y-169355956D01*
X76424234Y-169331554D01*
X76344108Y-169291662D01*
X76277023Y-169239887D01*
X76266827Y-169229539D01*
X76233698Y-169186035D01*
X76203806Y-169132118D01*
X76180643Y-169075592D01*
X76167702Y-169024259D01*
X76166142Y-169004544D01*
X76172782Y-168963419D01*
X76190432Y-168912252D01*
X76215703Y-168858394D01*
X76245211Y-168809195D01*
X76271281Y-168776334D01*
X76332235Y-168727452D01*
X76411031Y-168688545D01*
X76504843Y-168660494D01*
X76610850Y-168644179D01*
X76708000Y-168640192D01*
X76789919Y-168644599D01*
X76789919Y-168644599D01*
G37*
X76789919Y-168644599D02*
X76858435Y-168656095D01*
X76911057Y-168673967D01*
X76945292Y-168697499D01*
X76954621Y-168710924D01*
X76964107Y-168742148D01*
X76957723Y-168770395D01*
X76937570Y-168797182D01*
X76906255Y-168809713D01*
X76860817Y-168808696D01*
X76825674Y-168801906D01*
X76747581Y-168788971D01*
X76667774Y-168787742D01*
X76578445Y-168798241D01*
X76553771Y-168802690D01*
X76470709Y-168826108D01*
X76405727Y-168860945D01*
X76359539Y-168906604D01*
X76332855Y-168962494D01*
X76327337Y-168991388D01*
X76330949Y-169050012D01*
X76354271Y-169101879D01*
X76395176Y-169145978D01*
X76451541Y-169181299D01*
X76521240Y-169206829D01*
X76602148Y-169221559D01*
X76692140Y-169224478D01*
X76789090Y-169214575D01*
X76794564Y-169213641D01*
X76833125Y-169206459D01*
X76854506Y-169199521D01*
X76863773Y-169189227D01*
X76865994Y-169171976D01*
X76866044Y-169162841D01*
X76866044Y-169124489D01*
X76797569Y-169124489D01*
X76737100Y-169120347D01*
X76695835Y-169107147D01*
X76671825Y-169083730D01*
X76663123Y-169048936D01*
X76663017Y-169044394D01*
X76668108Y-169014654D01*
X76685567Y-168993419D01*
X76718061Y-168979366D01*
X76768257Y-168971173D01*
X76816877Y-168968161D01*
X76887544Y-168966433D01*
X76938802Y-168969070D01*
X76973761Y-168978800D01*
X76995530Y-168998353D01*
X77007220Y-169030456D01*
X77011940Y-169077838D01*
X77012800Y-169140071D01*
X77011391Y-169209535D01*
X77007152Y-169256786D01*
X77000064Y-169282012D01*
X76998689Y-169283988D01*
X76959772Y-169315508D01*
X76902714Y-169340470D01*
X76831131Y-169358340D01*
X76748642Y-169368586D01*
X76658861Y-169370673D01*
X76565408Y-169364068D01*
X76510444Y-169355956D01*
X76424234Y-169331554D01*
X76344108Y-169291662D01*
X76277023Y-169239887D01*
X76266827Y-169229539D01*
X76233698Y-169186035D01*
X76203806Y-169132118D01*
X76180643Y-169075592D01*
X76167702Y-169024259D01*
X76166142Y-169004544D01*
X76172782Y-168963419D01*
X76190432Y-168912252D01*
X76215703Y-168858394D01*
X76245211Y-168809195D01*
X76271281Y-168776334D01*
X76332235Y-168727452D01*
X76411031Y-168688545D01*
X76504843Y-168660494D01*
X76610850Y-168644179D01*
X76708000Y-168640192D01*
X76789919Y-168644599D01*
G36*
X75816178Y-168661645D02*
G01*
X75822758Y-168669218D01*
X75827921Y-168678987D01*
X75831836Y-168693571D01*
X75834676Y-168715585D01*
X75836613Y-168747648D01*
X75837817Y-168792375D01*
X75838461Y-168852385D01*
X75838716Y-168930294D01*
X75838755Y-169005956D01*
X75838686Y-169099802D01*
X75838362Y-169173689D01*
X75837614Y-169230232D01*
X75836268Y-169272049D01*
X75834154Y-169301757D01*
X75831100Y-169321973D01*
X75826934Y-169335314D01*
X75821484Y-169344398D01*
X75816178Y-169350267D01*
X75783174Y-169369947D01*
X75748009Y-169368181D01*
X75716545Y-169346717D01*
X75709316Y-169338337D01*
X75703666Y-169328614D01*
X75699401Y-169314861D01*
X75696327Y-169294389D01*
X75694248Y-169264512D01*
X75692970Y-169222541D01*
X75692299Y-169165789D01*
X75692041Y-169091567D01*
X75692000Y-169007537D01*
X75692000Y-168694485D01*
X75719709Y-168666776D01*
X75753863Y-168643463D01*
X75786994Y-168642623D01*
X75816178Y-168661645D01*
X75816178Y-168661645D01*
G37*
X75816178Y-168661645D02*
X75822758Y-168669218D01*
X75827921Y-168678987D01*
X75831836Y-168693571D01*
X75834676Y-168715585D01*
X75836613Y-168747648D01*
X75837817Y-168792375D01*
X75838461Y-168852385D01*
X75838716Y-168930294D01*
X75838755Y-169005956D01*
X75838686Y-169099802D01*
X75838362Y-169173689D01*
X75837614Y-169230232D01*
X75836268Y-169272049D01*
X75834154Y-169301757D01*
X75831100Y-169321973D01*
X75826934Y-169335314D01*
X75821484Y-169344398D01*
X75816178Y-169350267D01*
X75783174Y-169369947D01*
X75748009Y-169368181D01*
X75716545Y-169346717D01*
X75709316Y-169338337D01*
X75703666Y-169328614D01*
X75699401Y-169314861D01*
X75696327Y-169294389D01*
X75694248Y-169264512D01*
X75692970Y-169222541D01*
X75692299Y-169165789D01*
X75692041Y-169091567D01*
X75692000Y-169007537D01*
X75692000Y-168694485D01*
X75719709Y-168666776D01*
X75753863Y-168643463D01*
X75786994Y-168642623D01*
X75816178Y-168661645D01*
G36*
X75048297Y-168640351D02*
G01*
X75123112Y-168645581D01*
X75192694Y-168653750D01*
X75252998Y-168664550D01*
X75299980Y-168677673D01*
X75329594Y-168692813D01*
X75334140Y-168697269D01*
X75349946Y-168731850D01*
X75345153Y-168767351D01*
X75320636Y-168797725D01*
X75319466Y-168798596D01*
X75305046Y-168807954D01*
X75289992Y-168812876D01*
X75268995Y-168813473D01*
X75236743Y-168809861D01*
X75187927Y-168802154D01*
X75184000Y-168801505D01*
X75111261Y-168792569D01*
X75032783Y-168788161D01*
X74954073Y-168788119D01*
X74880639Y-168792279D01*
X74817989Y-168800479D01*
X74771630Y-168812557D01*
X74768584Y-168813771D01*
X74734952Y-168832615D01*
X74723136Y-168851685D01*
X74732386Y-168870439D01*
X74761953Y-168888337D01*
X74811089Y-168904837D01*
X74879043Y-168919396D01*
X74924355Y-168926406D01*
X75018544Y-168939889D01*
X75093456Y-168952214D01*
X75152283Y-168964449D01*
X75198215Y-168977661D01*
X75234445Y-168992917D01*
X75264162Y-169011285D01*
X75290558Y-169033831D01*
X75311770Y-169055971D01*
X75336935Y-169086819D01*
X75349319Y-169113345D01*
X75353192Y-169146026D01*
X75353333Y-169157995D01*
X75350424Y-169197712D01*
X75338798Y-169227259D01*
X75318677Y-169253486D01*
X75277784Y-169293576D01*
X75232183Y-169324149D01*
X75178487Y-169346203D01*
X75113308Y-169360735D01*
X75033256Y-169368741D01*
X74934943Y-169371218D01*
X74918711Y-169371177D01*
X74853151Y-169369818D01*
X74788134Y-169366730D01*
X74730748Y-169362356D01*
X74688078Y-169357140D01*
X74684628Y-169356541D01*
X74642204Y-169346491D01*
X74606220Y-169333796D01*
X74585850Y-169322190D01*
X74566893Y-169291572D01*
X74565573Y-169255918D01*
X74581915Y-169224144D01*
X74585571Y-169220551D01*
X74600685Y-169209876D01*
X74619585Y-169205276D01*
X74648838Y-169206059D01*
X74684349Y-169210127D01*
X74724030Y-169213762D01*
X74779655Y-169216828D01*
X74844594Y-169219053D01*
X74912215Y-169220164D01*
X74930000Y-169220237D01*
X74997872Y-169219964D01*
X75047546Y-169218646D01*
X75083390Y-169215827D01*
X75109776Y-169211050D01*
X75131074Y-169203857D01*
X75143874Y-169197867D01*
X75172000Y-169181233D01*
X75189932Y-169166168D01*
X75192553Y-169161897D01*
X75187024Y-169144263D01*
X75160740Y-169127192D01*
X75115522Y-169111458D01*
X75053192Y-169097838D01*
X75034829Y-169094804D01*
X74938910Y-169079738D01*
X74862359Y-169067146D01*
X74802220Y-169056111D01*
X74755540Y-169045720D01*
X74719363Y-169035056D01*
X74690735Y-169023205D01*
X74666702Y-169009251D01*
X74644308Y-168992281D01*
X74620598Y-168971378D01*
X74612620Y-168964049D01*
X74584647Y-168936699D01*
X74569840Y-168915029D01*
X74564048Y-168890232D01*
X74563111Y-168858983D01*
X74573425Y-168797705D01*
X74604248Y-168745640D01*
X74655405Y-168702958D01*
X74726717Y-168669825D01*
X74777600Y-168654964D01*
X74832900Y-168645366D01*
X74899147Y-168639936D01*
X74972294Y-168638367D01*
X75048297Y-168640351D01*
X75048297Y-168640351D01*
G37*
X75048297Y-168640351D02*
X75123112Y-168645581D01*
X75192694Y-168653750D01*
X75252998Y-168664550D01*
X75299980Y-168677673D01*
X75329594Y-168692813D01*
X75334140Y-168697269D01*
X75349946Y-168731850D01*
X75345153Y-168767351D01*
X75320636Y-168797725D01*
X75319466Y-168798596D01*
X75305046Y-168807954D01*
X75289992Y-168812876D01*
X75268995Y-168813473D01*
X75236743Y-168809861D01*
X75187927Y-168802154D01*
X75184000Y-168801505D01*
X75111261Y-168792569D01*
X75032783Y-168788161D01*
X74954073Y-168788119D01*
X74880639Y-168792279D01*
X74817989Y-168800479D01*
X74771630Y-168812557D01*
X74768584Y-168813771D01*
X74734952Y-168832615D01*
X74723136Y-168851685D01*
X74732386Y-168870439D01*
X74761953Y-168888337D01*
X74811089Y-168904837D01*
X74879043Y-168919396D01*
X74924355Y-168926406D01*
X75018544Y-168939889D01*
X75093456Y-168952214D01*
X75152283Y-168964449D01*
X75198215Y-168977661D01*
X75234445Y-168992917D01*
X75264162Y-169011285D01*
X75290558Y-169033831D01*
X75311770Y-169055971D01*
X75336935Y-169086819D01*
X75349319Y-169113345D01*
X75353192Y-169146026D01*
X75353333Y-169157995D01*
X75350424Y-169197712D01*
X75338798Y-169227259D01*
X75318677Y-169253486D01*
X75277784Y-169293576D01*
X75232183Y-169324149D01*
X75178487Y-169346203D01*
X75113308Y-169360735D01*
X75033256Y-169368741D01*
X74934943Y-169371218D01*
X74918711Y-169371177D01*
X74853151Y-169369818D01*
X74788134Y-169366730D01*
X74730748Y-169362356D01*
X74688078Y-169357140D01*
X74684628Y-169356541D01*
X74642204Y-169346491D01*
X74606220Y-169333796D01*
X74585850Y-169322190D01*
X74566893Y-169291572D01*
X74565573Y-169255918D01*
X74581915Y-169224144D01*
X74585571Y-169220551D01*
X74600685Y-169209876D01*
X74619585Y-169205276D01*
X74648838Y-169206059D01*
X74684349Y-169210127D01*
X74724030Y-169213762D01*
X74779655Y-169216828D01*
X74844594Y-169219053D01*
X74912215Y-169220164D01*
X74930000Y-169220237D01*
X74997872Y-169219964D01*
X75047546Y-169218646D01*
X75083390Y-169215827D01*
X75109776Y-169211050D01*
X75131074Y-169203857D01*
X75143874Y-169197867D01*
X75172000Y-169181233D01*
X75189932Y-169166168D01*
X75192553Y-169161897D01*
X75187024Y-169144263D01*
X75160740Y-169127192D01*
X75115522Y-169111458D01*
X75053192Y-169097838D01*
X75034829Y-169094804D01*
X74938910Y-169079738D01*
X74862359Y-169067146D01*
X74802220Y-169056111D01*
X74755540Y-169045720D01*
X74719363Y-169035056D01*
X74690735Y-169023205D01*
X74666702Y-169009251D01*
X74644308Y-168992281D01*
X74620598Y-168971378D01*
X74612620Y-168964049D01*
X74584647Y-168936699D01*
X74569840Y-168915029D01*
X74564048Y-168890232D01*
X74563111Y-168858983D01*
X74573425Y-168797705D01*
X74604248Y-168745640D01*
X74655405Y-168702958D01*
X74726717Y-168669825D01*
X74777600Y-168654964D01*
X74832900Y-168645366D01*
X74899147Y-168639936D01*
X74972294Y-168638367D01*
X75048297Y-168640351D01*
G36*
X74027206Y-168639146D02*
G01*
X74096614Y-168639518D01*
X74149003Y-168640385D01*
X74187153Y-168641946D01*
X74213841Y-168644403D01*
X74231847Y-168647957D01*
X74243951Y-168652810D01*
X74252931Y-168659161D01*
X74256182Y-168662084D01*
X74275957Y-168693142D01*
X74279518Y-168728828D01*
X74266509Y-168760510D01*
X74260494Y-168766913D01*
X74250765Y-168773121D01*
X74235099Y-168777910D01*
X74210592Y-168781514D01*
X74174339Y-168784164D01*
X74123435Y-168786095D01*
X74054974Y-168787539D01*
X73992383Y-168788418D01*
X73744666Y-168791467D01*
X73741281Y-168856378D01*
X73737895Y-168921289D01*
X73906042Y-168921289D01*
X73979041Y-168921919D01*
X74032483Y-168924553D01*
X74069372Y-168930309D01*
X74092712Y-168940304D01*
X74105506Y-168955656D01*
X74110758Y-168977482D01*
X74111555Y-168997738D01*
X74109077Y-169022592D01*
X74099723Y-169040906D01*
X74080617Y-169053637D01*
X74048882Y-169061741D01*
X74001641Y-169066176D01*
X73936017Y-169067899D01*
X73900199Y-169068045D01*
X73739022Y-169068045D01*
X73739022Y-169226089D01*
X73987378Y-169226089D01*
X74068787Y-169226202D01*
X74130658Y-169226712D01*
X74176032Y-169227870D01*
X74207946Y-169229930D01*
X74229441Y-169233146D01*
X74243557Y-169237772D01*
X74253332Y-169244059D01*
X74258311Y-169248667D01*
X74275390Y-169275560D01*
X74280889Y-169299467D01*
X74273037Y-169328667D01*
X74258311Y-169350267D01*
X74250454Y-169357066D01*
X74240312Y-169362346D01*
X74225156Y-169366298D01*
X74202259Y-169369113D01*
X74168891Y-169370982D01*
X74122325Y-169372098D01*
X74059833Y-169372651D01*
X73978686Y-169372833D01*
X73936578Y-169372845D01*
X73846402Y-169372765D01*
X73776076Y-169372398D01*
X73722871Y-169371552D01*
X73684060Y-169370036D01*
X73656913Y-169367659D01*
X73638702Y-169364229D01*
X73626700Y-169359554D01*
X73618178Y-169353444D01*
X73614844Y-169350267D01*
X73608245Y-169342670D01*
X73603073Y-169332870D01*
X73599154Y-169318239D01*
X73596316Y-169296152D01*
X73594385Y-169263982D01*
X73593188Y-169219103D01*
X73592552Y-169158889D01*
X73592303Y-169080713D01*
X73592266Y-169007923D01*
X73592300Y-168914707D01*
X73592535Y-168841431D01*
X73593170Y-168785458D01*
X73594406Y-168744151D01*
X73596444Y-168714872D01*
X73599483Y-168694984D01*
X73603723Y-168681850D01*
X73609365Y-168672832D01*
X73616609Y-168665293D01*
X73618394Y-168663612D01*
X73627055Y-168656172D01*
X73637118Y-168650409D01*
X73651375Y-168646112D01*
X73672617Y-168643064D01*
X73703636Y-168641051D01*
X73747223Y-168639860D01*
X73806169Y-168639275D01*
X73883266Y-168639083D01*
X73937999Y-168639067D01*
X74027206Y-168639146D01*
X74027206Y-168639146D01*
G37*
X74027206Y-168639146D02*
X74096614Y-168639518D01*
X74149003Y-168640385D01*
X74187153Y-168641946D01*
X74213841Y-168644403D01*
X74231847Y-168647957D01*
X74243951Y-168652810D01*
X74252931Y-168659161D01*
X74256182Y-168662084D01*
X74275957Y-168693142D01*
X74279518Y-168728828D01*
X74266509Y-168760510D01*
X74260494Y-168766913D01*
X74250765Y-168773121D01*
X74235099Y-168777910D01*
X74210592Y-168781514D01*
X74174339Y-168784164D01*
X74123435Y-168786095D01*
X74054974Y-168787539D01*
X73992383Y-168788418D01*
X73744666Y-168791467D01*
X73741281Y-168856378D01*
X73737895Y-168921289D01*
X73906042Y-168921289D01*
X73979041Y-168921919D01*
X74032483Y-168924553D01*
X74069372Y-168930309D01*
X74092712Y-168940304D01*
X74105506Y-168955656D01*
X74110758Y-168977482D01*
X74111555Y-168997738D01*
X74109077Y-169022592D01*
X74099723Y-169040906D01*
X74080617Y-169053637D01*
X74048882Y-169061741D01*
X74001641Y-169066176D01*
X73936017Y-169067899D01*
X73900199Y-169068045D01*
X73739022Y-169068045D01*
X73739022Y-169226089D01*
X73987378Y-169226089D01*
X74068787Y-169226202D01*
X74130658Y-169226712D01*
X74176032Y-169227870D01*
X74207946Y-169229930D01*
X74229441Y-169233146D01*
X74243557Y-169237772D01*
X74253332Y-169244059D01*
X74258311Y-169248667D01*
X74275390Y-169275560D01*
X74280889Y-169299467D01*
X74273037Y-169328667D01*
X74258311Y-169350267D01*
X74250454Y-169357066D01*
X74240312Y-169362346D01*
X74225156Y-169366298D01*
X74202259Y-169369113D01*
X74168891Y-169370982D01*
X74122325Y-169372098D01*
X74059833Y-169372651D01*
X73978686Y-169372833D01*
X73936578Y-169372845D01*
X73846402Y-169372765D01*
X73776076Y-169372398D01*
X73722871Y-169371552D01*
X73684060Y-169370036D01*
X73656913Y-169367659D01*
X73638702Y-169364229D01*
X73626700Y-169359554D01*
X73618178Y-169353444D01*
X73614844Y-169350267D01*
X73608245Y-169342670D01*
X73603073Y-169332870D01*
X73599154Y-169318239D01*
X73596316Y-169296152D01*
X73594385Y-169263982D01*
X73593188Y-169219103D01*
X73592552Y-169158889D01*
X73592303Y-169080713D01*
X73592266Y-169007923D01*
X73592300Y-168914707D01*
X73592535Y-168841431D01*
X73593170Y-168785458D01*
X73594406Y-168744151D01*
X73596444Y-168714872D01*
X73599483Y-168694984D01*
X73603723Y-168681850D01*
X73609365Y-168672832D01*
X73616609Y-168665293D01*
X73618394Y-168663612D01*
X73627055Y-168656172D01*
X73637118Y-168650409D01*
X73651375Y-168646112D01*
X73672617Y-168643064D01*
X73703636Y-168641051D01*
X73747223Y-168639860D01*
X73806169Y-168639275D01*
X73883266Y-168639083D01*
X73937999Y-168639067D01*
X74027206Y-168639146D01*
G36*
X72618629Y-168639066D02*
G01*
X72658111Y-168639467D01*
X72773800Y-168642259D01*
X72870689Y-168650550D01*
X72952081Y-168665232D01*
X73021277Y-168687193D01*
X73081580Y-168717322D01*
X73136292Y-168756510D01*
X73155833Y-168773532D01*
X73188250Y-168813363D01*
X73217480Y-168867413D01*
X73240009Y-168927323D01*
X73252321Y-168984739D01*
X73253600Y-169005956D01*
X73245583Y-169064769D01*
X73224101Y-169129013D01*
X73193001Y-169189821D01*
X73156134Y-169238330D01*
X73150146Y-169244182D01*
X73099421Y-169285321D01*
X73043875Y-169317435D01*
X72980304Y-169341365D01*
X72905506Y-169357953D01*
X72816278Y-169368041D01*
X72709418Y-169372469D01*
X72660472Y-169372845D01*
X72598238Y-169372545D01*
X72554472Y-169371292D01*
X72525069Y-169368554D01*
X72505921Y-169363801D01*
X72492923Y-169356501D01*
X72485955Y-169350267D01*
X72479374Y-169342694D01*
X72474212Y-169332924D01*
X72470297Y-169318340D01*
X72467457Y-169296326D01*
X72465520Y-169264264D01*
X72464316Y-169219536D01*
X72463672Y-169159526D01*
X72463417Y-169081617D01*
X72463378Y-169005956D01*
X72463130Y-168905041D01*
X72463183Y-168824427D01*
X72464143Y-168785822D01*
X72610133Y-168785822D01*
X72610133Y-169226089D01*
X72703266Y-169226004D01*
X72759307Y-169224396D01*
X72818001Y-169220256D01*
X72866972Y-169214464D01*
X72868462Y-169214226D01*
X72947608Y-169195090D01*
X73008998Y-169165287D01*
X73055695Y-169122878D01*
X73085365Y-169076961D01*
X73103647Y-169026026D01*
X73102229Y-168978200D01*
X73081012Y-168926933D01*
X73039511Y-168873899D01*
X72982002Y-168834600D01*
X72907250Y-168808331D01*
X72857292Y-168799035D01*
X72800584Y-168792507D01*
X72740481Y-168787782D01*
X72689361Y-168785817D01*
X72686333Y-168785808D01*
X72610133Y-168785822D01*
X72464143Y-168785822D01*
X72464740Y-168761851D01*
X72469002Y-168715055D01*
X72477170Y-168681778D01*
X72490444Y-168659759D01*
X72510026Y-168646739D01*
X72537117Y-168640457D01*
X72572918Y-168638653D01*
X72618629Y-168639066D01*
X72618629Y-168639066D01*
G37*
X72618629Y-168639066D02*
X72658111Y-168639467D01*
X72773800Y-168642259D01*
X72870689Y-168650550D01*
X72952081Y-168665232D01*
X73021277Y-168687193D01*
X73081580Y-168717322D01*
X73136292Y-168756510D01*
X73155833Y-168773532D01*
X73188250Y-168813363D01*
X73217480Y-168867413D01*
X73240009Y-168927323D01*
X73252321Y-168984739D01*
X73253600Y-169005956D01*
X73245583Y-169064769D01*
X73224101Y-169129013D01*
X73193001Y-169189821D01*
X73156134Y-169238330D01*
X73150146Y-169244182D01*
X73099421Y-169285321D01*
X73043875Y-169317435D01*
X72980304Y-169341365D01*
X72905506Y-169357953D01*
X72816278Y-169368041D01*
X72709418Y-169372469D01*
X72660472Y-169372845D01*
X72598238Y-169372545D01*
X72554472Y-169371292D01*
X72525069Y-169368554D01*
X72505921Y-169363801D01*
X72492923Y-169356501D01*
X72485955Y-169350267D01*
X72479374Y-169342694D01*
X72474212Y-169332924D01*
X72470297Y-169318340D01*
X72467457Y-169296326D01*
X72465520Y-169264264D01*
X72464316Y-169219536D01*
X72463672Y-169159526D01*
X72463417Y-169081617D01*
X72463378Y-169005956D01*
X72463130Y-168905041D01*
X72463183Y-168824427D01*
X72464143Y-168785822D01*
X72610133Y-168785822D01*
X72610133Y-169226089D01*
X72703266Y-169226004D01*
X72759307Y-169224396D01*
X72818001Y-169220256D01*
X72866972Y-169214464D01*
X72868462Y-169214226D01*
X72947608Y-169195090D01*
X73008998Y-169165287D01*
X73055695Y-169122878D01*
X73085365Y-169076961D01*
X73103647Y-169026026D01*
X73102229Y-168978200D01*
X73081012Y-168926933D01*
X73039511Y-168873899D01*
X72982002Y-168834600D01*
X72907250Y-168808331D01*
X72857292Y-168799035D01*
X72800584Y-168792507D01*
X72740481Y-168787782D01*
X72689361Y-168785817D01*
X72686333Y-168785808D01*
X72610133Y-168785822D01*
X72464143Y-168785822D01*
X72464740Y-168761851D01*
X72469002Y-168715055D01*
X72477170Y-168681778D01*
X72490444Y-168659759D01*
X72510026Y-168646739D01*
X72537117Y-168640457D01*
X72572918Y-168638653D01*
X72618629Y-168639066D01*
G36*
X76466957Y-163396571D02*
G01*
X76563232Y-163420809D01*
X76649816Y-163463641D01*
X76724627Y-163523419D01*
X76785582Y-163598494D01*
X76830601Y-163687220D01*
X76856864Y-163783530D01*
X76862714Y-163880795D01*
X76847860Y-163974654D01*
X76814160Y-164062511D01*
X76763472Y-164141770D01*
X76697655Y-164209836D01*
X76618566Y-164264112D01*
X76528066Y-164302002D01*
X76476800Y-164314426D01*
X76432302Y-164321947D01*
X76398001Y-164324919D01*
X76365040Y-164323094D01*
X76324566Y-164316225D01*
X76291469Y-164309250D01*
X76198053Y-164277741D01*
X76114381Y-164226617D01*
X76042335Y-164157429D01*
X75983800Y-164071728D01*
X75969852Y-164044489D01*
X75953414Y-164008122D01*
X75943106Y-163977582D01*
X75937540Y-163945450D01*
X75935331Y-163904307D01*
X75935052Y-163858222D01*
X75939139Y-163773865D01*
X75952554Y-163704586D01*
X75977744Y-163643961D01*
X76017154Y-163585567D01*
X76055702Y-163541302D01*
X76127594Y-163475484D01*
X76202687Y-163430053D01*
X76285438Y-163402850D01*
X76363072Y-163392576D01*
X76466957Y-163396571D01*
X76466957Y-163396571D01*
G37*
X76466957Y-163396571D02*
X76563232Y-163420809D01*
X76649816Y-163463641D01*
X76724627Y-163523419D01*
X76785582Y-163598494D01*
X76830601Y-163687220D01*
X76856864Y-163783530D01*
X76862714Y-163880795D01*
X76847860Y-163974654D01*
X76814160Y-164062511D01*
X76763472Y-164141770D01*
X76697655Y-164209836D01*
X76618566Y-164264112D01*
X76528066Y-164302002D01*
X76476800Y-164314426D01*
X76432302Y-164321947D01*
X76398001Y-164324919D01*
X76365040Y-164323094D01*
X76324566Y-164316225D01*
X76291469Y-164309250D01*
X76198053Y-164277741D01*
X76114381Y-164226617D01*
X76042335Y-164157429D01*
X75983800Y-164071728D01*
X75969852Y-164044489D01*
X75953414Y-164008122D01*
X75943106Y-163977582D01*
X75937540Y-163945450D01*
X75935331Y-163904307D01*
X75935052Y-163858222D01*
X75939139Y-163773865D01*
X75952554Y-163704586D01*
X75977744Y-163643961D01*
X76017154Y-163585567D01*
X76055702Y-163541302D01*
X76127594Y-163475484D01*
X76202687Y-163430053D01*
X76285438Y-163402850D01*
X76363072Y-163392576D01*
X76466957Y-163396571D01*
G36*
X84926507Y-165842245D02*
G01*
X84926526Y-166076662D01*
X84926552Y-166289603D01*
X84926625Y-166482168D01*
X84926782Y-166655459D01*
X84927064Y-166810576D01*
X84927509Y-166948620D01*
X84928156Y-167070692D01*
X84929045Y-167177894D01*
X84930213Y-167271326D01*
X84931701Y-167352090D01*
X84933546Y-167421286D01*
X84935789Y-167480015D01*
X84938469Y-167529379D01*
X84941623Y-167570478D01*
X84945292Y-167604413D01*
X84949513Y-167632286D01*
X84954327Y-167655198D01*
X84959773Y-167674249D01*
X84965888Y-167690540D01*
X84972712Y-167705173D01*
X84980285Y-167719249D01*
X84988645Y-167733868D01*
X84993839Y-167742974D01*
X85028104Y-167803689D01*
X84169955Y-167803689D01*
X84169955Y-167707733D01*
X84169224Y-167664370D01*
X84167272Y-167631205D01*
X84164463Y-167613424D01*
X84163221Y-167611778D01*
X84151799Y-167618662D01*
X84129084Y-167636505D01*
X84106385Y-167655879D01*
X84051800Y-167696614D01*
X83982321Y-167737617D01*
X83905270Y-167775123D01*
X83827965Y-167805364D01*
X83797113Y-167815012D01*
X83728616Y-167829578D01*
X83645764Y-167839539D01*
X83556371Y-167844583D01*
X83468248Y-167844396D01*
X83389207Y-167838666D01*
X83351511Y-167832858D01*
X83213414Y-167794797D01*
X83086113Y-167737073D01*
X82970292Y-167660211D01*
X82866637Y-167564739D01*
X82775833Y-167451179D01*
X82709031Y-167340381D01*
X82654164Y-167223625D01*
X82612163Y-167104276D01*
X82582167Y-166978283D01*
X82563311Y-166841594D01*
X82554732Y-166690158D01*
X82554006Y-166612711D01*
X82556100Y-166555934D01*
X83385217Y-166555934D01*
X83385424Y-166649002D01*
X83388337Y-166736692D01*
X83394000Y-166813772D01*
X83402455Y-166875009D01*
X83405038Y-166887350D01*
X83436840Y-166994633D01*
X83478498Y-167081658D01*
X83530363Y-167148642D01*
X83592781Y-167195805D01*
X83666100Y-167223365D01*
X83750669Y-167231541D01*
X83846835Y-167220551D01*
X83910311Y-167204829D01*
X83959454Y-167186639D01*
X84013583Y-167160791D01*
X84054244Y-167137089D01*
X84124800Y-167090721D01*
X84124800Y-165940530D01*
X84057392Y-165896962D01*
X83978867Y-165856040D01*
X83894681Y-165829389D01*
X83809557Y-165817465D01*
X83728216Y-165820722D01*
X83655380Y-165839615D01*
X83623426Y-165855184D01*
X83565501Y-165898181D01*
X83516544Y-165954953D01*
X83475390Y-166027575D01*
X83440874Y-166118121D01*
X83411833Y-166228666D01*
X83410552Y-166234533D01*
X83400381Y-166296788D01*
X83392739Y-166374594D01*
X83387670Y-166462720D01*
X83385217Y-166555934D01*
X82556100Y-166555934D01*
X82561857Y-166399895D01*
X82583802Y-166204059D01*
X82619786Y-166025332D01*
X82669759Y-165863845D01*
X82733668Y-165719726D01*
X82811462Y-165593106D01*
X82903089Y-165484115D01*
X83008497Y-165392883D01*
X83053662Y-165361932D01*
X83154611Y-165305785D01*
X83257901Y-165266174D01*
X83367989Y-165242014D01*
X83489330Y-165232219D01*
X83581836Y-165233265D01*
X83711490Y-165244231D01*
X83824084Y-165266046D01*
X83922875Y-165299714D01*
X84011121Y-165346236D01*
X84059986Y-165380448D01*
X84089353Y-165402362D01*
X84111043Y-165417333D01*
X84119253Y-165421733D01*
X84120868Y-165410904D01*
X84122159Y-165380251D01*
X84123138Y-165332526D01*
X84123817Y-165270479D01*
X84124210Y-165196862D01*
X84124330Y-165114427D01*
X84124188Y-165025925D01*
X84123797Y-164934107D01*
X84123171Y-164841724D01*
X84122320Y-164751528D01*
X84121260Y-164666271D01*
X84120001Y-164588703D01*
X84118556Y-164521576D01*
X84116938Y-164467641D01*
X84115161Y-164429650D01*
X84114669Y-164422667D01*
X84107092Y-164352251D01*
X84095531Y-164297102D01*
X84077792Y-164249981D01*
X84051682Y-164203647D01*
X84045415Y-164194067D01*
X84020983Y-164157378D01*
X84926311Y-164157378D01*
X84926507Y-165842245D01*
X84926507Y-165842245D01*
G37*
X84926507Y-165842245D02*
X84926526Y-166076662D01*
X84926552Y-166289603D01*
X84926625Y-166482168D01*
X84926782Y-166655459D01*
X84927064Y-166810576D01*
X84927509Y-166948620D01*
X84928156Y-167070692D01*
X84929045Y-167177894D01*
X84930213Y-167271326D01*
X84931701Y-167352090D01*
X84933546Y-167421286D01*
X84935789Y-167480015D01*
X84938469Y-167529379D01*
X84941623Y-167570478D01*
X84945292Y-167604413D01*
X84949513Y-167632286D01*
X84954327Y-167655198D01*
X84959773Y-167674249D01*
X84965888Y-167690540D01*
X84972712Y-167705173D01*
X84980285Y-167719249D01*
X84988645Y-167733868D01*
X84993839Y-167742974D01*
X85028104Y-167803689D01*
X84169955Y-167803689D01*
X84169955Y-167707733D01*
X84169224Y-167664370D01*
X84167272Y-167631205D01*
X84164463Y-167613424D01*
X84163221Y-167611778D01*
X84151799Y-167618662D01*
X84129084Y-167636505D01*
X84106385Y-167655879D01*
X84051800Y-167696614D01*
X83982321Y-167737617D01*
X83905270Y-167775123D01*
X83827965Y-167805364D01*
X83797113Y-167815012D01*
X83728616Y-167829578D01*
X83645764Y-167839539D01*
X83556371Y-167844583D01*
X83468248Y-167844396D01*
X83389207Y-167838666D01*
X83351511Y-167832858D01*
X83213414Y-167794797D01*
X83086113Y-167737073D01*
X82970292Y-167660211D01*
X82866637Y-167564739D01*
X82775833Y-167451179D01*
X82709031Y-167340381D01*
X82654164Y-167223625D01*
X82612163Y-167104276D01*
X82582167Y-166978283D01*
X82563311Y-166841594D01*
X82554732Y-166690158D01*
X82554006Y-166612711D01*
X82556100Y-166555934D01*
X83385217Y-166555934D01*
X83385424Y-166649002D01*
X83388337Y-166736692D01*
X83394000Y-166813772D01*
X83402455Y-166875009D01*
X83405038Y-166887350D01*
X83436840Y-166994633D01*
X83478498Y-167081658D01*
X83530363Y-167148642D01*
X83592781Y-167195805D01*
X83666100Y-167223365D01*
X83750669Y-167231541D01*
X83846835Y-167220551D01*
X83910311Y-167204829D01*
X83959454Y-167186639D01*
X84013583Y-167160791D01*
X84054244Y-167137089D01*
X84124800Y-167090721D01*
X84124800Y-165940530D01*
X84057392Y-165896962D01*
X83978867Y-165856040D01*
X83894681Y-165829389D01*
X83809557Y-165817465D01*
X83728216Y-165820722D01*
X83655380Y-165839615D01*
X83623426Y-165855184D01*
X83565501Y-165898181D01*
X83516544Y-165954953D01*
X83475390Y-166027575D01*
X83440874Y-166118121D01*
X83411833Y-166228666D01*
X83410552Y-166234533D01*
X83400381Y-166296788D01*
X83392739Y-166374594D01*
X83387670Y-166462720D01*
X83385217Y-166555934D01*
X82556100Y-166555934D01*
X82561857Y-166399895D01*
X82583802Y-166204059D01*
X82619786Y-166025332D01*
X82669759Y-165863845D01*
X82733668Y-165719726D01*
X82811462Y-165593106D01*
X82903089Y-165484115D01*
X83008497Y-165392883D01*
X83053662Y-165361932D01*
X83154611Y-165305785D01*
X83257901Y-165266174D01*
X83367989Y-165242014D01*
X83489330Y-165232219D01*
X83581836Y-165233265D01*
X83711490Y-165244231D01*
X83824084Y-165266046D01*
X83922875Y-165299714D01*
X84011121Y-165346236D01*
X84059986Y-165380448D01*
X84089353Y-165402362D01*
X84111043Y-165417333D01*
X84119253Y-165421733D01*
X84120868Y-165410904D01*
X84122159Y-165380251D01*
X84123138Y-165332526D01*
X84123817Y-165270479D01*
X84124210Y-165196862D01*
X84124330Y-165114427D01*
X84124188Y-165025925D01*
X84123797Y-164934107D01*
X84123171Y-164841724D01*
X84122320Y-164751528D01*
X84121260Y-164666271D01*
X84120001Y-164588703D01*
X84118556Y-164521576D01*
X84116938Y-164467641D01*
X84115161Y-164429650D01*
X84114669Y-164422667D01*
X84107092Y-164352251D01*
X84095531Y-164297102D01*
X84077792Y-164249981D01*
X84051682Y-164203647D01*
X84045415Y-164194067D01*
X84020983Y-164157378D01*
X84926311Y-164157378D01*
X84926507Y-165842245D01*
G36*
X81413574Y-165236552D02*
G01*
X81565492Y-165256567D01*
X81700756Y-165290202D01*
X81820239Y-165337725D01*
X81924815Y-165399405D01*
X82002424Y-165462965D01*
X82071265Y-165537099D01*
X82125006Y-165616871D01*
X82167910Y-165709091D01*
X82183384Y-165752161D01*
X82196244Y-165791142D01*
X82207446Y-165827289D01*
X82217120Y-165862434D01*
X82225396Y-165898410D01*
X82232403Y-165937050D01*
X82238272Y-165980185D01*
X82243131Y-166029649D01*
X82247110Y-166087273D01*
X82250340Y-166154891D01*
X82252949Y-166234334D01*
X82255067Y-166327436D01*
X82256824Y-166436027D01*
X82258349Y-166561942D01*
X82259772Y-166707012D01*
X82261025Y-166849778D01*
X82262351Y-167005968D01*
X82263556Y-167141239D01*
X82264766Y-167257246D01*
X82266106Y-167355645D01*
X82267700Y-167438093D01*
X82269675Y-167506246D01*
X82272156Y-167561760D01*
X82275269Y-167606292D01*
X82279138Y-167641498D01*
X82283889Y-167669034D01*
X82289648Y-167690556D01*
X82296539Y-167707722D01*
X82304689Y-167722186D01*
X82314223Y-167735606D01*
X82325266Y-167749638D01*
X82329566Y-167755071D01*
X82345386Y-167777910D01*
X82352422Y-167793463D01*
X82352444Y-167793922D01*
X82341567Y-167796121D01*
X82310582Y-167798147D01*
X82261957Y-167799942D01*
X82198163Y-167801451D01*
X82121669Y-167802616D01*
X82034944Y-167803380D01*
X81940457Y-167803686D01*
X81929550Y-167803689D01*
X81506657Y-167803689D01*
X81503395Y-167707622D01*
X81500133Y-167611556D01*
X81438044Y-167662543D01*
X81340714Y-167730057D01*
X81230813Y-167784749D01*
X81144349Y-167814978D01*
X81075278Y-167829666D01*
X80991925Y-167839659D01*
X80902159Y-167844646D01*
X80813845Y-167844313D01*
X80734851Y-167838351D01*
X80698622Y-167832638D01*
X80558603Y-167794776D01*
X80432178Y-167739932D01*
X80320260Y-167668924D01*
X80223762Y-167582568D01*
X80143600Y-167481679D01*
X80080687Y-167367076D01*
X80036312Y-167240984D01*
X80023978Y-167184401D01*
X80016368Y-167122202D01*
X80012739Y-167047363D01*
X80012245Y-167013467D01*
X80012310Y-167010282D01*
X80772248Y-167010282D01*
X80781541Y-167085333D01*
X80809728Y-167149160D01*
X80858197Y-167204798D01*
X80863254Y-167209211D01*
X80911548Y-167244037D01*
X80963257Y-167266620D01*
X81023989Y-167278540D01*
X81099352Y-167281383D01*
X81117459Y-167280978D01*
X81171278Y-167278325D01*
X81211308Y-167272909D01*
X81246324Y-167262745D01*
X81285103Y-167245850D01*
X81295745Y-167240672D01*
X81356396Y-167204844D01*
X81403215Y-167162212D01*
X81415952Y-167146973D01*
X81460622Y-167090462D01*
X81460622Y-166894586D01*
X81460086Y-166815939D01*
X81458396Y-166757988D01*
X81455428Y-166718875D01*
X81451057Y-166696741D01*
X81446972Y-166690274D01*
X81431047Y-166687111D01*
X81397264Y-166684488D01*
X81350340Y-166682655D01*
X81294993Y-166681857D01*
X81286106Y-166681842D01*
X81165330Y-166687096D01*
X81062660Y-166703263D01*
X80976106Y-166730961D01*
X80903681Y-166770808D01*
X80848751Y-166817758D01*
X80804204Y-166875645D01*
X80779480Y-166938693D01*
X80772248Y-167010282D01*
X80012310Y-167010282D01*
X80014178Y-166919712D01*
X80022522Y-166840812D01*
X80038768Y-166769590D01*
X80064405Y-166698864D01*
X80088401Y-166646493D01*
X80147020Y-166551196D01*
X80225117Y-166463170D01*
X80320315Y-166384017D01*
X80430238Y-166315340D01*
X80552510Y-166258741D01*
X80684755Y-166215821D01*
X80749422Y-166200882D01*
X80885604Y-166178777D01*
X81034049Y-166164194D01*
X81185505Y-166157813D01*
X81312064Y-166159445D01*
X81473950Y-166166224D01*
X81466530Y-166107245D01*
X81447238Y-166008092D01*
X81416104Y-165927372D01*
X81372269Y-165864466D01*
X81314871Y-165818756D01*
X81243048Y-165789622D01*
X81155941Y-165776447D01*
X81052686Y-165778611D01*
X81014711Y-165782612D01*
X80873520Y-165807780D01*
X80736707Y-165848814D01*
X80642178Y-165886815D01*
X80597018Y-165906190D01*
X80558585Y-165921760D01*
X80532234Y-165931405D01*
X80524546Y-165933452D01*
X80514802Y-165924374D01*
X80498083Y-165895405D01*
X80474232Y-165846217D01*
X80443093Y-165776484D01*
X80404507Y-165685879D01*
X80397910Y-165670089D01*
X80367853Y-165597772D01*
X80340874Y-165532425D01*
X80318136Y-165476906D01*
X80300806Y-165434072D01*
X80290048Y-165406781D01*
X80286941Y-165397942D01*
X80296940Y-165393187D01*
X80323217Y-165387910D01*
X80351489Y-165384231D01*
X80381646Y-165379474D01*
X80429433Y-165370028D01*
X80490612Y-165356820D01*
X80560946Y-165340776D01*
X80636194Y-165322820D01*
X80664755Y-165315797D01*
X80769816Y-165290209D01*
X80857480Y-165270147D01*
X80932068Y-165254969D01*
X80997903Y-165244035D01*
X81059307Y-165236704D01*
X81120602Y-165232335D01*
X81186110Y-165230287D01*
X81244128Y-165229889D01*
X81413574Y-165236552D01*
X81413574Y-165236552D01*
G37*
X81413574Y-165236552D02*
X81565492Y-165256567D01*
X81700756Y-165290202D01*
X81820239Y-165337725D01*
X81924815Y-165399405D01*
X82002424Y-165462965D01*
X82071265Y-165537099D01*
X82125006Y-165616871D01*
X82167910Y-165709091D01*
X82183384Y-165752161D01*
X82196244Y-165791142D01*
X82207446Y-165827289D01*
X82217120Y-165862434D01*
X82225396Y-165898410D01*
X82232403Y-165937050D01*
X82238272Y-165980185D01*
X82243131Y-166029649D01*
X82247110Y-166087273D01*
X82250340Y-166154891D01*
X82252949Y-166234334D01*
X82255067Y-166327436D01*
X82256824Y-166436027D01*
X82258349Y-166561942D01*
X82259772Y-166707012D01*
X82261025Y-166849778D01*
X82262351Y-167005968D01*
X82263556Y-167141239D01*
X82264766Y-167257246D01*
X82266106Y-167355645D01*
X82267700Y-167438093D01*
X82269675Y-167506246D01*
X82272156Y-167561760D01*
X82275269Y-167606292D01*
X82279138Y-167641498D01*
X82283889Y-167669034D01*
X82289648Y-167690556D01*
X82296539Y-167707722D01*
X82304689Y-167722186D01*
X82314223Y-167735606D01*
X82325266Y-167749638D01*
X82329566Y-167755071D01*
X82345386Y-167777910D01*
X82352422Y-167793463D01*
X82352444Y-167793922D01*
X82341567Y-167796121D01*
X82310582Y-167798147D01*
X82261957Y-167799942D01*
X82198163Y-167801451D01*
X82121669Y-167802616D01*
X82034944Y-167803380D01*
X81940457Y-167803686D01*
X81929550Y-167803689D01*
X81506657Y-167803689D01*
X81503395Y-167707622D01*
X81500133Y-167611556D01*
X81438044Y-167662543D01*
X81340714Y-167730057D01*
X81230813Y-167784749D01*
X81144349Y-167814978D01*
X81075278Y-167829666D01*
X80991925Y-167839659D01*
X80902159Y-167844646D01*
X80813845Y-167844313D01*
X80734851Y-167838351D01*
X80698622Y-167832638D01*
X80558603Y-167794776D01*
X80432178Y-167739932D01*
X80320260Y-167668924D01*
X80223762Y-167582568D01*
X80143600Y-167481679D01*
X80080687Y-167367076D01*
X80036312Y-167240984D01*
X80023978Y-167184401D01*
X80016368Y-167122202D01*
X80012739Y-167047363D01*
X80012245Y-167013467D01*
X80012310Y-167010282D01*
X80772248Y-167010282D01*
X80781541Y-167085333D01*
X80809728Y-167149160D01*
X80858197Y-167204798D01*
X80863254Y-167209211D01*
X80911548Y-167244037D01*
X80963257Y-167266620D01*
X81023989Y-167278540D01*
X81099352Y-167281383D01*
X81117459Y-167280978D01*
X81171278Y-167278325D01*
X81211308Y-167272909D01*
X81246324Y-167262745D01*
X81285103Y-167245850D01*
X81295745Y-167240672D01*
X81356396Y-167204844D01*
X81403215Y-167162212D01*
X81415952Y-167146973D01*
X81460622Y-167090462D01*
X81460622Y-166894586D01*
X81460086Y-166815939D01*
X81458396Y-166757988D01*
X81455428Y-166718875D01*
X81451057Y-166696741D01*
X81446972Y-166690274D01*
X81431047Y-166687111D01*
X81397264Y-166684488D01*
X81350340Y-166682655D01*
X81294993Y-166681857D01*
X81286106Y-166681842D01*
X81165330Y-166687096D01*
X81062660Y-166703263D01*
X80976106Y-166730961D01*
X80903681Y-166770808D01*
X80848751Y-166817758D01*
X80804204Y-166875645D01*
X80779480Y-166938693D01*
X80772248Y-167010282D01*
X80012310Y-167010282D01*
X80014178Y-166919712D01*
X80022522Y-166840812D01*
X80038768Y-166769590D01*
X80064405Y-166698864D01*
X80088401Y-166646493D01*
X80147020Y-166551196D01*
X80225117Y-166463170D01*
X80320315Y-166384017D01*
X80430238Y-166315340D01*
X80552510Y-166258741D01*
X80684755Y-166215821D01*
X80749422Y-166200882D01*
X80885604Y-166178777D01*
X81034049Y-166164194D01*
X81185505Y-166157813D01*
X81312064Y-166159445D01*
X81473950Y-166166224D01*
X81466530Y-166107245D01*
X81447238Y-166008092D01*
X81416104Y-165927372D01*
X81372269Y-165864466D01*
X81314871Y-165818756D01*
X81243048Y-165789622D01*
X81155941Y-165776447D01*
X81052686Y-165778611D01*
X81014711Y-165782612D01*
X80873520Y-165807780D01*
X80736707Y-165848814D01*
X80642178Y-165886815D01*
X80597018Y-165906190D01*
X80558585Y-165921760D01*
X80532234Y-165931405D01*
X80524546Y-165933452D01*
X80514802Y-165924374D01*
X80498083Y-165895405D01*
X80474232Y-165846217D01*
X80443093Y-165776484D01*
X80404507Y-165685879D01*
X80397910Y-165670089D01*
X80367853Y-165597772D01*
X80340874Y-165532425D01*
X80318136Y-165476906D01*
X80300806Y-165434072D01*
X80290048Y-165406781D01*
X80286941Y-165397942D01*
X80296940Y-165393187D01*
X80323217Y-165387910D01*
X80351489Y-165384231D01*
X80381646Y-165379474D01*
X80429433Y-165370028D01*
X80490612Y-165356820D01*
X80560946Y-165340776D01*
X80636194Y-165322820D01*
X80664755Y-165315797D01*
X80769816Y-165290209D01*
X80857480Y-165270147D01*
X80932068Y-165254969D01*
X80997903Y-165244035D01*
X81059307Y-165236704D01*
X81120602Y-165232335D01*
X81186110Y-165230287D01*
X81244128Y-165229889D01*
X81413574Y-165236552D01*
G36*
X79068429Y-164319071D02*
G01*
X79228570Y-164340245D01*
X79392510Y-164380385D01*
X79562313Y-164439889D01*
X79740043Y-164519154D01*
X79751310Y-164524699D01*
X79809005Y-164552725D01*
X79860552Y-164576802D01*
X79902191Y-164595249D01*
X79930162Y-164606386D01*
X79939733Y-164608933D01*
X79958950Y-164613941D01*
X79963561Y-164618147D01*
X79958458Y-164628580D01*
X79942418Y-164654868D01*
X79917288Y-164694257D01*
X79884914Y-164743991D01*
X79847143Y-164801315D01*
X79805822Y-164863476D01*
X79762798Y-164927718D01*
X79719917Y-164991285D01*
X79679026Y-165051425D01*
X79641971Y-165105380D01*
X79610600Y-165150397D01*
X79586759Y-165183721D01*
X79572294Y-165202597D01*
X79570309Y-165204787D01*
X79560191Y-165200138D01*
X79537850Y-165182962D01*
X79507280Y-165156440D01*
X79491536Y-165141964D01*
X79395047Y-165066682D01*
X79288336Y-165011241D01*
X79172832Y-164976141D01*
X79049962Y-164961880D01*
X78980561Y-164963051D01*
X78859423Y-164980212D01*
X78750205Y-165016094D01*
X78652582Y-165070959D01*
X78566228Y-165145070D01*
X78490815Y-165238688D01*
X78426018Y-165352076D01*
X78388601Y-165438667D01*
X78344748Y-165574366D01*
X78312428Y-165721850D01*
X78291557Y-165877314D01*
X78282051Y-166036956D01*
X78283827Y-166196973D01*
X78296803Y-166353561D01*
X78320894Y-166502918D01*
X78356018Y-166641240D01*
X78402092Y-166764724D01*
X78418373Y-166798978D01*
X78486620Y-166913064D01*
X78567079Y-167009557D01*
X78658570Y-167087670D01*
X78759911Y-167146617D01*
X78869920Y-167185612D01*
X78987415Y-167203868D01*
X79028883Y-167205211D01*
X79150441Y-167194290D01*
X79270878Y-167161474D01*
X79388666Y-167107439D01*
X79502277Y-167032865D01*
X79593685Y-166954539D01*
X79640215Y-166910008D01*
X79821483Y-167207271D01*
X79866580Y-167281433D01*
X79907819Y-167349646D01*
X79943735Y-167409459D01*
X79972866Y-167458420D01*
X79993750Y-167494079D01*
X80004924Y-167513984D01*
X80006375Y-167517079D01*
X79998146Y-167526718D01*
X79972567Y-167543999D01*
X79932873Y-167567283D01*
X79882297Y-167594934D01*
X79824074Y-167625315D01*
X79761437Y-167656790D01*
X79697621Y-167687722D01*
X79635860Y-167716473D01*
X79579388Y-167741408D01*
X79531438Y-167760889D01*
X79507986Y-167769318D01*
X79374221Y-167807133D01*
X79236327Y-167832136D01*
X79088622Y-167845140D01*
X78961833Y-167847468D01*
X78893878Y-167846373D01*
X78828277Y-167844275D01*
X78770847Y-167841434D01*
X78727403Y-167838106D01*
X78713298Y-167836422D01*
X78574284Y-167807587D01*
X78432757Y-167762468D01*
X78295275Y-167703750D01*
X78168394Y-167634120D01*
X78090889Y-167581441D01*
X77963481Y-167473239D01*
X77845178Y-167346671D01*
X77738172Y-167204866D01*
X77644652Y-167050951D01*
X77566810Y-166888053D01*
X77522956Y-166770756D01*
X77472708Y-166587128D01*
X77439209Y-166392581D01*
X77422449Y-166191325D01*
X77422416Y-165987568D01*
X77439101Y-165785521D01*
X77472493Y-165589392D01*
X77522580Y-165403391D01*
X77526397Y-165391803D01*
X77589281Y-165229750D01*
X77666028Y-165081832D01*
X77759242Y-164943865D01*
X77871527Y-164811661D01*
X77915392Y-164766399D01*
X78051534Y-164642457D01*
X78191491Y-164539915D01*
X78337411Y-164457656D01*
X78491442Y-164394564D01*
X78655732Y-164349523D01*
X78751289Y-164332033D01*
X78910023Y-164316466D01*
X79068429Y-164319071D01*
X79068429Y-164319071D01*
G37*
X79068429Y-164319071D02*
X79228570Y-164340245D01*
X79392510Y-164380385D01*
X79562313Y-164439889D01*
X79740043Y-164519154D01*
X79751310Y-164524699D01*
X79809005Y-164552725D01*
X79860552Y-164576802D01*
X79902191Y-164595249D01*
X79930162Y-164606386D01*
X79939733Y-164608933D01*
X79958950Y-164613941D01*
X79963561Y-164618147D01*
X79958458Y-164628580D01*
X79942418Y-164654868D01*
X79917288Y-164694257D01*
X79884914Y-164743991D01*
X79847143Y-164801315D01*
X79805822Y-164863476D01*
X79762798Y-164927718D01*
X79719917Y-164991285D01*
X79679026Y-165051425D01*
X79641971Y-165105380D01*
X79610600Y-165150397D01*
X79586759Y-165183721D01*
X79572294Y-165202597D01*
X79570309Y-165204787D01*
X79560191Y-165200138D01*
X79537850Y-165182962D01*
X79507280Y-165156440D01*
X79491536Y-165141964D01*
X79395047Y-165066682D01*
X79288336Y-165011241D01*
X79172832Y-164976141D01*
X79049962Y-164961880D01*
X78980561Y-164963051D01*
X78859423Y-164980212D01*
X78750205Y-165016094D01*
X78652582Y-165070959D01*
X78566228Y-165145070D01*
X78490815Y-165238688D01*
X78426018Y-165352076D01*
X78388601Y-165438667D01*
X78344748Y-165574366D01*
X78312428Y-165721850D01*
X78291557Y-165877314D01*
X78282051Y-166036956D01*
X78283827Y-166196973D01*
X78296803Y-166353561D01*
X78320894Y-166502918D01*
X78356018Y-166641240D01*
X78402092Y-166764724D01*
X78418373Y-166798978D01*
X78486620Y-166913064D01*
X78567079Y-167009557D01*
X78658570Y-167087670D01*
X78759911Y-167146617D01*
X78869920Y-167185612D01*
X78987415Y-167203868D01*
X79028883Y-167205211D01*
X79150441Y-167194290D01*
X79270878Y-167161474D01*
X79388666Y-167107439D01*
X79502277Y-167032865D01*
X79593685Y-166954539D01*
X79640215Y-166910008D01*
X79821483Y-167207271D01*
X79866580Y-167281433D01*
X79907819Y-167349646D01*
X79943735Y-167409459D01*
X79972866Y-167458420D01*
X79993750Y-167494079D01*
X80004924Y-167513984D01*
X80006375Y-167517079D01*
X79998146Y-167526718D01*
X79972567Y-167543999D01*
X79932873Y-167567283D01*
X79882297Y-167594934D01*
X79824074Y-167625315D01*
X79761437Y-167656790D01*
X79697621Y-167687722D01*
X79635860Y-167716473D01*
X79579388Y-167741408D01*
X79531438Y-167760889D01*
X79507986Y-167769318D01*
X79374221Y-167807133D01*
X79236327Y-167832136D01*
X79088622Y-167845140D01*
X78961833Y-167847468D01*
X78893878Y-167846373D01*
X78828277Y-167844275D01*
X78770847Y-167841434D01*
X78727403Y-167838106D01*
X78713298Y-167836422D01*
X78574284Y-167807587D01*
X78432757Y-167762468D01*
X78295275Y-167703750D01*
X78168394Y-167634120D01*
X78090889Y-167581441D01*
X77963481Y-167473239D01*
X77845178Y-167346671D01*
X77738172Y-167204866D01*
X77644652Y-167050951D01*
X77566810Y-166888053D01*
X77522956Y-166770756D01*
X77472708Y-166587128D01*
X77439209Y-166392581D01*
X77422449Y-166191325D01*
X77422416Y-165987568D01*
X77439101Y-165785521D01*
X77472493Y-165589392D01*
X77522580Y-165403391D01*
X77526397Y-165391803D01*
X77589281Y-165229750D01*
X77666028Y-165081832D01*
X77759242Y-164943865D01*
X77871527Y-164811661D01*
X77915392Y-164766399D01*
X78051534Y-164642457D01*
X78191491Y-164539915D01*
X78337411Y-164457656D01*
X78491442Y-164394564D01*
X78655732Y-164349523D01*
X78751289Y-164332033D01*
X78910023Y-164316466D01*
X79068429Y-164319071D01*
G36*
X75793600Y-163859054D02*
G01*
X75804465Y-163972993D01*
X75836082Y-164080616D01*
X75886985Y-164179615D01*
X75955707Y-164267684D01*
X76040781Y-164342516D01*
X76137768Y-164400384D01*
X76244036Y-164440005D01*
X76351050Y-164458573D01*
X76456700Y-164457434D01*
X76558875Y-164437930D01*
X76655466Y-164401406D01*
X76744362Y-164349205D01*
X76823454Y-164282673D01*
X76890631Y-164203152D01*
X76943783Y-164111987D01*
X76980801Y-164010523D01*
X76999573Y-163900102D01*
X77001511Y-163850206D01*
X77001511Y-163762267D01*
X77053440Y-163762267D01*
X77089747Y-163765111D01*
X77116645Y-163776911D01*
X77143751Y-163800649D01*
X77182133Y-163839031D01*
X77182133Y-166030602D01*
X77182124Y-166292739D01*
X77182092Y-166533241D01*
X77182028Y-166753048D01*
X77181924Y-166953101D01*
X77181773Y-167134344D01*
X77181566Y-167297716D01*
X77181294Y-167444160D01*
X77180950Y-167574617D01*
X77180526Y-167690029D01*
X77180013Y-167791338D01*
X77179403Y-167879484D01*
X77178688Y-167955410D01*
X77177860Y-168020057D01*
X77176911Y-168074367D01*
X77175833Y-168119280D01*
X77174617Y-168155740D01*
X77173255Y-168184687D01*
X77171739Y-168207063D01*
X77170062Y-168223809D01*
X77168214Y-168235868D01*
X77166187Y-168244180D01*
X77163975Y-168249687D01*
X77162892Y-168251537D01*
X77158729Y-168258549D01*
X77155195Y-168264996D01*
X77151365Y-168270900D01*
X77146318Y-168276286D01*
X77139129Y-168281178D01*
X77128877Y-168285598D01*
X77114636Y-168289572D01*
X77095486Y-168293121D01*
X77070501Y-168296270D01*
X77038760Y-168299042D01*
X76999338Y-168301461D01*
X76951314Y-168303551D01*
X76893763Y-168305335D01*
X76825763Y-168306837D01*
X76746390Y-168308080D01*
X76654721Y-168309089D01*
X76549834Y-168309885D01*
X76430804Y-168310494D01*
X76296710Y-168310939D01*
X76146627Y-168311243D01*
X75979633Y-168311430D01*
X75794804Y-168311524D01*
X75591217Y-168311548D01*
X75367950Y-168311525D01*
X75124078Y-168311480D01*
X74858679Y-168311437D01*
X74820296Y-168311432D01*
X74553318Y-168311389D01*
X74307998Y-168311318D01*
X74083417Y-168311213D01*
X73878655Y-168311066D01*
X73692794Y-168310869D01*
X73524912Y-168310616D01*
X73374092Y-168310300D01*
X73239413Y-168309913D01*
X73119956Y-168309447D01*
X73014801Y-168308897D01*
X72923029Y-168308253D01*
X72843721Y-168307511D01*
X72775957Y-168306661D01*
X72718818Y-168305697D01*
X72671383Y-168304611D01*
X72632734Y-168303397D01*
X72601951Y-168302047D01*
X72578115Y-168300555D01*
X72560306Y-168298911D01*
X72547605Y-168297111D01*
X72539092Y-168295145D01*
X72534734Y-168293477D01*
X72526272Y-168289906D01*
X72518503Y-168287270D01*
X72511398Y-168284634D01*
X72504927Y-168281062D01*
X72499061Y-168275621D01*
X72493771Y-168267375D01*
X72489026Y-168255390D01*
X72484798Y-168238731D01*
X72481057Y-168216463D01*
X72477773Y-168187652D01*
X72474917Y-168151363D01*
X72472460Y-168106661D01*
X72470371Y-168052611D01*
X72468622Y-167988279D01*
X72467183Y-167912730D01*
X72466024Y-167825030D01*
X72465117Y-167724243D01*
X72464431Y-167609434D01*
X72463937Y-167479670D01*
X72463605Y-167334015D01*
X72463407Y-167171535D01*
X72463313Y-166991295D01*
X72463292Y-166792360D01*
X72463315Y-166573796D01*
X72463354Y-166334668D01*
X72463378Y-166074040D01*
X72463378Y-166031889D01*
X72463364Y-165768992D01*
X72463339Y-165527732D01*
X72463329Y-165307165D01*
X72463358Y-165106352D01*
X72463452Y-164924349D01*
X72463638Y-164760216D01*
X72463941Y-164613011D01*
X72464386Y-164481792D01*
X72464966Y-164371867D01*
X72767803Y-164371867D01*
X72807593Y-164429711D01*
X72818764Y-164445479D01*
X72828834Y-164459441D01*
X72837862Y-164472784D01*
X72845903Y-164486693D01*
X72853014Y-164502356D01*
X72859253Y-164520958D01*
X72864675Y-164543686D01*
X72869338Y-164571727D01*
X72873299Y-164606267D01*
X72876615Y-164648492D01*
X72879341Y-164699589D01*
X72881536Y-164760744D01*
X72883255Y-164833144D01*
X72884556Y-164917975D01*
X72885495Y-165016422D01*
X72886130Y-165129674D01*
X72886516Y-165258916D01*
X72886712Y-165405334D01*
X72886773Y-165570116D01*
X72886757Y-165754447D01*
X72886720Y-165959513D01*
X72886711Y-166082133D01*
X72886735Y-166299082D01*
X72886769Y-166494642D01*
X72886757Y-166669999D01*
X72886642Y-166826341D01*
X72886370Y-166964857D01*
X72885882Y-167086734D01*
X72885124Y-167193160D01*
X72884038Y-167285322D01*
X72882569Y-167364409D01*
X72880660Y-167431608D01*
X72878256Y-167488107D01*
X72875299Y-167535093D01*
X72871734Y-167573755D01*
X72867505Y-167605280D01*
X72862554Y-167630855D01*
X72856827Y-167651670D01*
X72850267Y-167668911D01*
X72842817Y-167683765D01*
X72834421Y-167697422D01*
X72825024Y-167711069D01*
X72814568Y-167725893D01*
X72808477Y-167734783D01*
X72769704Y-167792400D01*
X73301268Y-167792400D01*
X73424517Y-167792365D01*
X73527013Y-167792215D01*
X73610580Y-167791878D01*
X73677044Y-167791286D01*
X73728229Y-167790367D01*
X73765959Y-167789051D01*
X73792060Y-167787269D01*
X73808356Y-167784951D01*
X73816672Y-167782026D01*
X73818832Y-167778424D01*
X73816661Y-167774075D01*
X73815465Y-167772645D01*
X73790315Y-167735573D01*
X73764417Y-167682772D01*
X73740808Y-167620770D01*
X73732539Y-167594357D01*
X73727922Y-167576416D01*
X73724021Y-167555355D01*
X73720752Y-167529089D01*
X73718034Y-167495532D01*
X73715785Y-167452599D01*
X73713923Y-167398204D01*
X73712364Y-167330262D01*
X73711028Y-167246688D01*
X73709831Y-167145395D01*
X73708692Y-167024300D01*
X73708315Y-166979600D01*
X73707298Y-166854449D01*
X73706540Y-166750082D01*
X73706097Y-166664707D01*
X73706030Y-166596533D01*
X73706395Y-166543765D01*
X73707252Y-166504614D01*
X73708659Y-166477285D01*
X73710675Y-166459986D01*
X73713357Y-166450926D01*
X73716764Y-166448312D01*
X73720956Y-166450351D01*
X73725429Y-166454667D01*
X73735784Y-166467602D01*
X73757842Y-166496676D01*
X73790043Y-166539759D01*
X73830826Y-166594718D01*
X73878630Y-166659423D01*
X73931895Y-166731742D01*
X73989060Y-166809544D01*
X74048563Y-166890698D01*
X74108845Y-166973072D01*
X74168345Y-167054536D01*
X74225502Y-167132957D01*
X74278755Y-167206204D01*
X74326543Y-167272147D01*
X74367307Y-167328654D01*
X74399484Y-167373593D01*
X74421515Y-167404834D01*
X74426083Y-167411466D01*
X74449004Y-167448369D01*
X74475812Y-167496359D01*
X74501211Y-167545897D01*
X74504432Y-167552577D01*
X74526110Y-167600772D01*
X74538696Y-167638334D01*
X74544426Y-167674160D01*
X74545544Y-167716200D01*
X74544910Y-167792400D01*
X75699349Y-167792400D01*
X75608185Y-167698669D01*
X75561388Y-167648775D01*
X75511101Y-167592295D01*
X75465056Y-167538026D01*
X75444631Y-167512673D01*
X75414193Y-167473128D01*
X75374138Y-167419916D01*
X75325639Y-167354667D01*
X75269865Y-167279011D01*
X75207989Y-167194577D01*
X75141181Y-167102994D01*
X75070613Y-167005892D01*
X74997455Y-166904901D01*
X74922879Y-166801650D01*
X74848056Y-166697768D01*
X74774157Y-166594885D01*
X74702354Y-166494631D01*
X74633816Y-166398636D01*
X74569716Y-166308527D01*
X74511225Y-166225936D01*
X74459514Y-166152492D01*
X74415753Y-166089824D01*
X74381115Y-166039561D01*
X74356770Y-166003334D01*
X74343889Y-165982771D01*
X74342131Y-165978668D01*
X74350090Y-165967342D01*
X74370885Y-165940162D01*
X74403153Y-165898829D01*
X74445530Y-165845044D01*
X74496653Y-165780506D01*
X74555159Y-165706918D01*
X74619686Y-165625978D01*
X74688869Y-165539388D01*
X74761347Y-165448848D01*
X74835754Y-165356060D01*
X74895483Y-165281702D01*
X75906489Y-165281702D01*
X75912398Y-165294659D01*
X75926728Y-165316908D01*
X75927775Y-165318391D01*
X75946562Y-165348544D01*
X75966209Y-165385375D01*
X75970108Y-165393511D01*
X75973644Y-165401940D01*
X75976770Y-165412059D01*
X75979514Y-165425260D01*
X75981908Y-165442938D01*
X75983981Y-165466484D01*
X75985765Y-165497293D01*
X75987288Y-165536757D01*
X75988581Y-165586269D01*
X75989674Y-165647223D01*
X75990597Y-165721011D01*
X75991381Y-165809028D01*
X75992055Y-165912665D01*
X75992650Y-166033316D01*
X75993195Y-166172374D01*
X75993721Y-166331232D01*
X75994255Y-166510089D01*
X75994794Y-166695207D01*
X75995228Y-166859145D01*
X75995491Y-167003303D01*
X75995516Y-167129079D01*
X75995235Y-167237871D01*
X75994581Y-167331077D01*
X75993486Y-167410097D01*
X75991882Y-167476328D01*
X75989703Y-167531170D01*
X75986881Y-167576021D01*
X75983349Y-167612278D01*
X75979039Y-167641341D01*
X75973883Y-167664609D01*
X75967815Y-167683479D01*
X75960767Y-167699351D01*
X75952671Y-167713622D01*
X75943460Y-167727691D01*
X75934960Y-167740158D01*
X75917824Y-167766452D01*
X75907678Y-167784037D01*
X75906489Y-167787257D01*
X75917396Y-167788334D01*
X75948589Y-167789335D01*
X75997777Y-167790235D01*
X76062667Y-167791010D01*
X76140970Y-167791637D01*
X76230393Y-167792091D01*
X76328644Y-167792349D01*
X76397555Y-167792400D01*
X76502548Y-167792180D01*
X76599390Y-167791548D01*
X76685893Y-167790549D01*
X76759868Y-167789227D01*
X76819126Y-167787626D01*
X76861480Y-167785791D01*
X76884740Y-167783765D01*
X76888622Y-167782493D01*
X76880924Y-167767591D01*
X76872926Y-167759560D01*
X76859754Y-167742434D01*
X76842515Y-167712183D01*
X76830593Y-167687622D01*
X76803955Y-167628711D01*
X76800880Y-166451845D01*
X76797805Y-165274978D01*
X76352147Y-165274978D01*
X76254330Y-165275142D01*
X76163936Y-165275611D01*
X76083370Y-165276347D01*
X76015038Y-165277316D01*
X75961344Y-165278480D01*
X75924695Y-165279803D01*
X75907496Y-165281249D01*
X75906489Y-165281702D01*
X74895483Y-165281702D01*
X74910730Y-165262722D01*
X74984910Y-165170537D01*
X75056931Y-165081204D01*
X75125431Y-164996424D01*
X75189045Y-164917898D01*
X75246412Y-164847326D01*
X75296167Y-164786409D01*
X75336948Y-164736847D01*
X75354112Y-164716178D01*
X75440404Y-164615516D01*
X75517003Y-164532259D01*
X75585817Y-164464438D01*
X75648752Y-164410089D01*
X75658133Y-164402722D01*
X75697644Y-164372117D01*
X74565884Y-164371867D01*
X74571173Y-164419844D01*
X74567870Y-164477188D01*
X74546339Y-164545463D01*
X74506365Y-164625212D01*
X74461057Y-164697495D01*
X74444839Y-164720140D01*
X74416786Y-164757696D01*
X74378570Y-164808021D01*
X74331863Y-164868973D01*
X74278339Y-164938411D01*
X74219669Y-165014194D01*
X74157525Y-165094180D01*
X74093579Y-165176228D01*
X74029505Y-165258196D01*
X73966973Y-165337943D01*
X73907657Y-165413327D01*
X73853229Y-165482207D01*
X73805361Y-165542442D01*
X73765725Y-165591889D01*
X73735994Y-165628408D01*
X73717839Y-165649858D01*
X73714780Y-165653156D01*
X73711921Y-165645149D01*
X73709707Y-165614855D01*
X73708143Y-165562556D01*
X73707233Y-165488531D01*
X73706980Y-165393063D01*
X73707387Y-165276434D01*
X73708296Y-165156445D01*
X73709618Y-165024333D01*
X73711143Y-164912594D01*
X73713119Y-164819025D01*
X73715794Y-164741419D01*
X73719418Y-164677574D01*
X73724239Y-164625283D01*
X73730506Y-164582344D01*
X73738468Y-164546551D01*
X73748373Y-164515700D01*
X73760469Y-164487586D01*
X73775007Y-164460005D01*
X73789689Y-164434966D01*
X73827686Y-164371867D01*
X72767803Y-164371867D01*
X72464966Y-164371867D01*
X72464999Y-164365617D01*
X72465805Y-164263544D01*
X72466830Y-164174633D01*
X72468100Y-164097941D01*
X72469640Y-164032527D01*
X72471476Y-163977449D01*
X72473633Y-163931765D01*
X72476137Y-163894534D01*
X72479013Y-163864813D01*
X72482287Y-163841662D01*
X72485985Y-163824139D01*
X72490131Y-163811301D01*
X72494753Y-163802208D01*
X72499874Y-163795918D01*
X72505522Y-163791488D01*
X72511721Y-163787978D01*
X72518496Y-163784445D01*
X72524492Y-163780876D01*
X72529725Y-163778300D01*
X72537901Y-163775972D01*
X72550114Y-163773878D01*
X72567459Y-163772007D01*
X72591031Y-163770347D01*
X72621923Y-163768884D01*
X72661232Y-163767608D01*
X72710050Y-163766504D01*
X72769473Y-163765561D01*
X72840596Y-163764767D01*
X72924512Y-163764109D01*
X73022317Y-163763575D01*
X73135106Y-163763153D01*
X73263971Y-163762829D01*
X73410009Y-163762592D01*
X73574314Y-163762430D01*
X73757980Y-163762330D01*
X73962103Y-163762280D01*
X74173247Y-163762267D01*
X75793600Y-163762267D01*
X75793600Y-163859054D01*
X75793600Y-163859054D01*
G37*
X75793600Y-163859054D02*
X75804465Y-163972993D01*
X75836082Y-164080616D01*
X75886985Y-164179615D01*
X75955707Y-164267684D01*
X76040781Y-164342516D01*
X76137768Y-164400384D01*
X76244036Y-164440005D01*
X76351050Y-164458573D01*
X76456700Y-164457434D01*
X76558875Y-164437930D01*
X76655466Y-164401406D01*
X76744362Y-164349205D01*
X76823454Y-164282673D01*
X76890631Y-164203152D01*
X76943783Y-164111987D01*
X76980801Y-164010523D01*
X76999573Y-163900102D01*
X77001511Y-163850206D01*
X77001511Y-163762267D01*
X77053440Y-163762267D01*
X77089747Y-163765111D01*
X77116645Y-163776911D01*
X77143751Y-163800649D01*
X77182133Y-163839031D01*
X77182133Y-166030602D01*
X77182124Y-166292739D01*
X77182092Y-166533241D01*
X77182028Y-166753048D01*
X77181924Y-166953101D01*
X77181773Y-167134344D01*
X77181566Y-167297716D01*
X77181294Y-167444160D01*
X77180950Y-167574617D01*
X77180526Y-167690029D01*
X77180013Y-167791338D01*
X77179403Y-167879484D01*
X77178688Y-167955410D01*
X77177860Y-168020057D01*
X77176911Y-168074367D01*
X77175833Y-168119280D01*
X77174617Y-168155740D01*
X77173255Y-168184687D01*
X77171739Y-168207063D01*
X77170062Y-168223809D01*
X77168214Y-168235868D01*
X77166187Y-168244180D01*
X77163975Y-168249687D01*
X77162892Y-168251537D01*
X77158729Y-168258549D01*
X77155195Y-168264996D01*
X77151365Y-168270900D01*
X77146318Y-168276286D01*
X77139129Y-168281178D01*
X77128877Y-168285598D01*
X77114636Y-168289572D01*
X77095486Y-168293121D01*
X77070501Y-168296270D01*
X77038760Y-168299042D01*
X76999338Y-168301461D01*
X76951314Y-168303551D01*
X76893763Y-168305335D01*
X76825763Y-168306837D01*
X76746390Y-168308080D01*
X76654721Y-168309089D01*
X76549834Y-168309885D01*
X76430804Y-168310494D01*
X76296710Y-168310939D01*
X76146627Y-168311243D01*
X75979633Y-168311430D01*
X75794804Y-168311524D01*
X75591217Y-168311548D01*
X75367950Y-168311525D01*
X75124078Y-168311480D01*
X74858679Y-168311437D01*
X74820296Y-168311432D01*
X74553318Y-168311389D01*
X74307998Y-168311318D01*
X74083417Y-168311213D01*
X73878655Y-168311066D01*
X73692794Y-168310869D01*
X73524912Y-168310616D01*
X73374092Y-168310300D01*
X73239413Y-168309913D01*
X73119956Y-168309447D01*
X73014801Y-168308897D01*
X72923029Y-168308253D01*
X72843721Y-168307511D01*
X72775957Y-168306661D01*
X72718818Y-168305697D01*
X72671383Y-168304611D01*
X72632734Y-168303397D01*
X72601951Y-168302047D01*
X72578115Y-168300555D01*
X72560306Y-168298911D01*
X72547605Y-168297111D01*
X72539092Y-168295145D01*
X72534734Y-168293477D01*
X72526272Y-168289906D01*
X72518503Y-168287270D01*
X72511398Y-168284634D01*
X72504927Y-168281062D01*
X72499061Y-168275621D01*
X72493771Y-168267375D01*
X72489026Y-168255390D01*
X72484798Y-168238731D01*
X72481057Y-168216463D01*
X72477773Y-168187652D01*
X72474917Y-168151363D01*
X72472460Y-168106661D01*
X72470371Y-168052611D01*
X72468622Y-167988279D01*
X72467183Y-167912730D01*
X72466024Y-167825030D01*
X72465117Y-167724243D01*
X72464431Y-167609434D01*
X72463937Y-167479670D01*
X72463605Y-167334015D01*
X72463407Y-167171535D01*
X72463313Y-166991295D01*
X72463292Y-166792360D01*
X72463315Y-166573796D01*
X72463354Y-166334668D01*
X72463378Y-166074040D01*
X72463378Y-166031889D01*
X72463364Y-165768992D01*
X72463339Y-165527732D01*
X72463329Y-165307165D01*
X72463358Y-165106352D01*
X72463452Y-164924349D01*
X72463638Y-164760216D01*
X72463941Y-164613011D01*
X72464386Y-164481792D01*
X72464966Y-164371867D01*
X72767803Y-164371867D01*
X72807593Y-164429711D01*
X72818764Y-164445479D01*
X72828834Y-164459441D01*
X72837862Y-164472784D01*
X72845903Y-164486693D01*
X72853014Y-164502356D01*
X72859253Y-164520958D01*
X72864675Y-164543686D01*
X72869338Y-164571727D01*
X72873299Y-164606267D01*
X72876615Y-164648492D01*
X72879341Y-164699589D01*
X72881536Y-164760744D01*
X72883255Y-164833144D01*
X72884556Y-164917975D01*
X72885495Y-165016422D01*
X72886130Y-165129674D01*
X72886516Y-165258916D01*
X72886712Y-165405334D01*
X72886773Y-165570116D01*
X72886757Y-165754447D01*
X72886720Y-165959513D01*
X72886711Y-166082133D01*
X72886735Y-166299082D01*
X72886769Y-166494642D01*
X72886757Y-166669999D01*
X72886642Y-166826341D01*
X72886370Y-166964857D01*
X72885882Y-167086734D01*
X72885124Y-167193160D01*
X72884038Y-167285322D01*
X72882569Y-167364409D01*
X72880660Y-167431608D01*
X72878256Y-167488107D01*
X72875299Y-167535093D01*
X72871734Y-167573755D01*
X72867505Y-167605280D01*
X72862554Y-167630855D01*
X72856827Y-167651670D01*
X72850267Y-167668911D01*
X72842817Y-167683765D01*
X72834421Y-167697422D01*
X72825024Y-167711069D01*
X72814568Y-167725893D01*
X72808477Y-167734783D01*
X72769704Y-167792400D01*
X73301268Y-167792400D01*
X73424517Y-167792365D01*
X73527013Y-167792215D01*
X73610580Y-167791878D01*
X73677044Y-167791286D01*
X73728229Y-167790367D01*
X73765959Y-167789051D01*
X73792060Y-167787269D01*
X73808356Y-167784951D01*
X73816672Y-167782026D01*
X73818832Y-167778424D01*
X73816661Y-167774075D01*
X73815465Y-167772645D01*
X73790315Y-167735573D01*
X73764417Y-167682772D01*
X73740808Y-167620770D01*
X73732539Y-167594357D01*
X73727922Y-167576416D01*
X73724021Y-167555355D01*
X73720752Y-167529089D01*
X73718034Y-167495532D01*
X73715785Y-167452599D01*
X73713923Y-167398204D01*
X73712364Y-167330262D01*
X73711028Y-167246688D01*
X73709831Y-167145395D01*
X73708692Y-167024300D01*
X73708315Y-166979600D01*
X73707298Y-166854449D01*
X73706540Y-166750082D01*
X73706097Y-166664707D01*
X73706030Y-166596533D01*
X73706395Y-166543765D01*
X73707252Y-166504614D01*
X73708659Y-166477285D01*
X73710675Y-166459986D01*
X73713357Y-166450926D01*
X73716764Y-166448312D01*
X73720956Y-166450351D01*
X73725429Y-166454667D01*
X73735784Y-166467602D01*
X73757842Y-166496676D01*
X73790043Y-166539759D01*
X73830826Y-166594718D01*
X73878630Y-166659423D01*
X73931895Y-166731742D01*
X73989060Y-166809544D01*
X74048563Y-166890698D01*
X74108845Y-166973072D01*
X74168345Y-167054536D01*
X74225502Y-167132957D01*
X74278755Y-167206204D01*
X74326543Y-167272147D01*
X74367307Y-167328654D01*
X74399484Y-167373593D01*
X74421515Y-167404834D01*
X74426083Y-167411466D01*
X74449004Y-167448369D01*
X74475812Y-167496359D01*
X74501211Y-167545897D01*
X74504432Y-167552577D01*
X74526110Y-167600772D01*
X74538696Y-167638334D01*
X74544426Y-167674160D01*
X74545544Y-167716200D01*
X74544910Y-167792400D01*
X75699349Y-167792400D01*
X75608185Y-167698669D01*
X75561388Y-167648775D01*
X75511101Y-167592295D01*
X75465056Y-167538026D01*
X75444631Y-167512673D01*
X75414193Y-167473128D01*
X75374138Y-167419916D01*
X75325639Y-167354667D01*
X75269865Y-167279011D01*
X75207989Y-167194577D01*
X75141181Y-167102994D01*
X75070613Y-167005892D01*
X74997455Y-166904901D01*
X74922879Y-166801650D01*
X74848056Y-166697768D01*
X74774157Y-166594885D01*
X74702354Y-166494631D01*
X74633816Y-166398636D01*
X74569716Y-166308527D01*
X74511225Y-166225936D01*
X74459514Y-166152492D01*
X74415753Y-166089824D01*
X74381115Y-166039561D01*
X74356770Y-166003334D01*
X74343889Y-165982771D01*
X74342131Y-165978668D01*
X74350090Y-165967342D01*
X74370885Y-165940162D01*
X74403153Y-165898829D01*
X74445530Y-165845044D01*
X74496653Y-165780506D01*
X74555159Y-165706918D01*
X74619686Y-165625978D01*
X74688869Y-165539388D01*
X74761347Y-165448848D01*
X74835754Y-165356060D01*
X74895483Y-165281702D01*
X75906489Y-165281702D01*
X75912398Y-165294659D01*
X75926728Y-165316908D01*
X75927775Y-165318391D01*
X75946562Y-165348544D01*
X75966209Y-165385375D01*
X75970108Y-165393511D01*
X75973644Y-165401940D01*
X75976770Y-165412059D01*
X75979514Y-165425260D01*
X75981908Y-165442938D01*
X75983981Y-165466484D01*
X75985765Y-165497293D01*
X75987288Y-165536757D01*
X75988581Y-165586269D01*
X75989674Y-165647223D01*
X75990597Y-165721011D01*
X75991381Y-165809028D01*
X75992055Y-165912665D01*
X75992650Y-166033316D01*
X75993195Y-166172374D01*
X75993721Y-166331232D01*
X75994255Y-166510089D01*
X75994794Y-166695207D01*
X75995228Y-166859145D01*
X75995491Y-167003303D01*
X75995516Y-167129079D01*
X75995235Y-167237871D01*
X75994581Y-167331077D01*
X75993486Y-167410097D01*
X75991882Y-167476328D01*
X75989703Y-167531170D01*
X75986881Y-167576021D01*
X75983349Y-167612278D01*
X75979039Y-167641341D01*
X75973883Y-167664609D01*
X75967815Y-167683479D01*
X75960767Y-167699351D01*
X75952671Y-167713622D01*
X75943460Y-167727691D01*
X75934960Y-167740158D01*
X75917824Y-167766452D01*
X75907678Y-167784037D01*
X75906489Y-167787257D01*
X75917396Y-167788334D01*
X75948589Y-167789335D01*
X75997777Y-167790235D01*
X76062667Y-167791010D01*
X76140970Y-167791637D01*
X76230393Y-167792091D01*
X76328644Y-167792349D01*
X76397555Y-167792400D01*
X76502548Y-167792180D01*
X76599390Y-167791548D01*
X76685893Y-167790549D01*
X76759868Y-167789227D01*
X76819126Y-167787626D01*
X76861480Y-167785791D01*
X76884740Y-167783765D01*
X76888622Y-167782493D01*
X76880924Y-167767591D01*
X76872926Y-167759560D01*
X76859754Y-167742434D01*
X76842515Y-167712183D01*
X76830593Y-167687622D01*
X76803955Y-167628711D01*
X76800880Y-166451845D01*
X76797805Y-165274978D01*
X76352147Y-165274978D01*
X76254330Y-165275142D01*
X76163936Y-165275611D01*
X76083370Y-165276347D01*
X76015038Y-165277316D01*
X75961344Y-165278480D01*
X75924695Y-165279803D01*
X75907496Y-165281249D01*
X75906489Y-165281702D01*
X74895483Y-165281702D01*
X74910730Y-165262722D01*
X74984910Y-165170537D01*
X75056931Y-165081204D01*
X75125431Y-164996424D01*
X75189045Y-164917898D01*
X75246412Y-164847326D01*
X75296167Y-164786409D01*
X75336948Y-164736847D01*
X75354112Y-164716178D01*
X75440404Y-164615516D01*
X75517003Y-164532259D01*
X75585817Y-164464438D01*
X75648752Y-164410089D01*
X75658133Y-164402722D01*
X75697644Y-164372117D01*
X74565884Y-164371867D01*
X74571173Y-164419844D01*
X74567870Y-164477188D01*
X74546339Y-164545463D01*
X74506365Y-164625212D01*
X74461057Y-164697495D01*
X74444839Y-164720140D01*
X74416786Y-164757696D01*
X74378570Y-164808021D01*
X74331863Y-164868973D01*
X74278339Y-164938411D01*
X74219669Y-165014194D01*
X74157525Y-165094180D01*
X74093579Y-165176228D01*
X74029505Y-165258196D01*
X73966973Y-165337943D01*
X73907657Y-165413327D01*
X73853229Y-165482207D01*
X73805361Y-165542442D01*
X73765725Y-165591889D01*
X73735994Y-165628408D01*
X73717839Y-165649858D01*
X73714780Y-165653156D01*
X73711921Y-165645149D01*
X73709707Y-165614855D01*
X73708143Y-165562556D01*
X73707233Y-165488531D01*
X73706980Y-165393063D01*
X73707387Y-165276434D01*
X73708296Y-165156445D01*
X73709618Y-165024333D01*
X73711143Y-164912594D01*
X73713119Y-164819025D01*
X73715794Y-164741419D01*
X73719418Y-164677574D01*
X73724239Y-164625283D01*
X73730506Y-164582344D01*
X73738468Y-164546551D01*
X73748373Y-164515700D01*
X73760469Y-164487586D01*
X73775007Y-164460005D01*
X73789689Y-164434966D01*
X73827686Y-164371867D01*
X72767803Y-164371867D01*
X72464966Y-164371867D01*
X72464999Y-164365617D01*
X72465805Y-164263544D01*
X72466830Y-164174633D01*
X72468100Y-164097941D01*
X72469640Y-164032527D01*
X72471476Y-163977449D01*
X72473633Y-163931765D01*
X72476137Y-163894534D01*
X72479013Y-163864813D01*
X72482287Y-163841662D01*
X72485985Y-163824139D01*
X72490131Y-163811301D01*
X72494753Y-163802208D01*
X72499874Y-163795918D01*
X72505522Y-163791488D01*
X72511721Y-163787978D01*
X72518496Y-163784445D01*
X72524492Y-163780876D01*
X72529725Y-163778300D01*
X72537901Y-163775972D01*
X72550114Y-163773878D01*
X72567459Y-163772007D01*
X72591031Y-163770347D01*
X72621923Y-163768884D01*
X72661232Y-163767608D01*
X72710050Y-163766504D01*
X72769473Y-163765561D01*
X72840596Y-163764767D01*
X72924512Y-163764109D01*
X73022317Y-163763575D01*
X73135106Y-163763153D01*
X73263971Y-163762829D01*
X73410009Y-163762592D01*
X73574314Y-163762430D01*
X73757980Y-163762330D01*
X73962103Y-163762280D01*
X74173247Y-163762267D01*
X75793600Y-163762267D01*
X75793600Y-163859054D01*
D12*
X36635000Y-170170000D02*
X26865000Y-170170000D01*
X36635000Y-165100000D02*
X26865000Y-165100000D01*
X36635000Y-170170000D02*
X36635000Y-165100000D01*
X26865000Y-170170000D02*
X26865000Y-165100000D01*
X81085000Y-149850000D02*
X71315000Y-149850000D01*
X81085000Y-144780000D02*
X71315000Y-144780000D01*
X81085000Y-149850000D02*
X81085000Y-144780000D01*
X71315000Y-149850000D02*
X71315000Y-144780000D01*
X59495000Y-149850000D02*
X49725000Y-149850000D01*
X59495000Y-144780000D02*
X49725000Y-144780000D01*
X59495000Y-149850000D02*
X59495000Y-144780000D01*
X49725000Y-149850000D02*
X49725000Y-144780000D01*
X28135000Y-149850000D02*
X28135000Y-144780000D01*
X37905000Y-149850000D02*
X37905000Y-144780000D01*
X37905000Y-144780000D02*
X28135000Y-144780000D01*
X37905000Y-149850000D02*
X28135000Y-149850000D01*
X45180000Y-165160000D02*
X45180000Y-165850000D01*
X45080000Y-165160000D02*
X45180000Y-165160000D01*
X38560000Y-165160000D02*
X38560000Y-165410000D01*
X38660000Y-165160000D02*
X38560000Y-165160000D01*
X38660000Y-164960000D02*
X38660000Y-165160000D01*
X40080000Y-165160000D02*
X40080000Y-164960000D01*
X45180000Y-170870000D02*
G75*
G02X43870000Y-172180000I-1310000J0D01*
G01*
X39870000Y-172180000D02*
G75*
G02X38560000Y-170870000I0J1310000D01*
G01*
X43870000Y-172180000D02*
X42380000Y-172180000D01*
X45180000Y-166890000D02*
X45180000Y-170870000D01*
X38560000Y-170870000D02*
X38560000Y-167330000D01*
X41360000Y-172180000D02*
X39870000Y-172180000D01*
X45080000Y-164960000D02*
X45080000Y-165160000D01*
X43660000Y-164960000D02*
X45080000Y-164960000D01*
X43660000Y-165160000D02*
X43660000Y-164960000D01*
X40080000Y-165160000D02*
X43660000Y-165160000D01*
X38660000Y-164960000D02*
X40080000Y-164960000D01*
X89630000Y-148650000D02*
X89630000Y-149340000D01*
X89530000Y-148650000D02*
X89630000Y-148650000D01*
X83010000Y-148650000D02*
X83010000Y-148900000D01*
X83110000Y-148650000D02*
X83010000Y-148650000D01*
X83110000Y-148450000D02*
X83110000Y-148650000D01*
X84530000Y-148650000D02*
X84530000Y-148450000D01*
X89630000Y-154360000D02*
G75*
G02X88320000Y-155670000I-1310000J0D01*
G01*
X84320000Y-155670000D02*
G75*
G02X83010000Y-154360000I0J1310000D01*
G01*
X88320000Y-155670000D02*
X86830000Y-155670000D01*
X89630000Y-150380000D02*
X89630000Y-154360000D01*
X83010000Y-154360000D02*
X83010000Y-150820000D01*
X85810000Y-155670000D02*
X84320000Y-155670000D01*
X89530000Y-148450000D02*
X89530000Y-148650000D01*
X88110000Y-148450000D02*
X89530000Y-148450000D01*
X88110000Y-148650000D02*
X88110000Y-148450000D01*
X84530000Y-148650000D02*
X88110000Y-148650000D01*
X83110000Y-148450000D02*
X84530000Y-148450000D01*
X68040000Y-144840000D02*
X68040000Y-145530000D01*
X67940000Y-144840000D02*
X68040000Y-144840000D01*
X61420000Y-144840000D02*
X61420000Y-145090000D01*
X61520000Y-144840000D02*
X61420000Y-144840000D01*
X61520000Y-144640000D02*
X61520000Y-144840000D01*
X62940000Y-144840000D02*
X62940000Y-144640000D01*
X68040000Y-150550000D02*
G75*
G02X66730000Y-151860000I-1310000J0D01*
G01*
X62730000Y-151860000D02*
G75*
G02X61420000Y-150550000I0J1310000D01*
G01*
X66730000Y-151860000D02*
X65240000Y-151860000D01*
X68040000Y-146570000D02*
X68040000Y-150550000D01*
X61420000Y-150550000D02*
X61420000Y-147010000D01*
X64220000Y-151860000D02*
X62730000Y-151860000D01*
X67940000Y-144640000D02*
X67940000Y-144840000D01*
X66520000Y-144640000D02*
X67940000Y-144640000D01*
X66520000Y-144840000D02*
X66520000Y-144640000D01*
X62940000Y-144840000D02*
X66520000Y-144840000D01*
X61520000Y-144640000D02*
X62940000Y-144640000D01*
X97500000Y-144780000D02*
G75*
G03X97500000Y-144780000I-2250000J0D01*
G01*
X39930000Y-144640000D02*
X41350000Y-144640000D01*
X41350000Y-144840000D02*
X44930000Y-144840000D01*
X44930000Y-144840000D02*
X44930000Y-144640000D01*
X44930000Y-144640000D02*
X46350000Y-144640000D01*
X46350000Y-144640000D02*
X46350000Y-144840000D01*
X42630000Y-151860000D02*
X41140000Y-151860000D01*
X39830000Y-150550000D02*
X39830000Y-147010000D01*
X46450000Y-146570000D02*
X46450000Y-150550000D01*
X45140000Y-151860000D02*
X43650000Y-151860000D01*
X41140000Y-151860000D02*
G75*
G02X39830000Y-150550000I0J1310000D01*
G01*
X46450000Y-150550000D02*
G75*
G02X45140000Y-151860000I-1310000J0D01*
G01*
X41350000Y-144840000D02*
X41350000Y-144640000D01*
X39930000Y-144640000D02*
X39930000Y-144840000D01*
X39930000Y-144840000D02*
X39830000Y-144840000D01*
X39830000Y-144840000D02*
X39830000Y-145090000D01*
X46350000Y-144840000D02*
X46450000Y-144840000D01*
X46450000Y-144840000D02*
X46450000Y-145530000D01*
X97500000Y-134620000D02*
G75*
G03X97500000Y-134620000I-2250000J0D01*
G01*
D13*
X35750476Y-171085714D02*
X35750476Y-171752380D01*
X35512380Y-170704761D02*
X35274285Y-171419047D01*
X35893333Y-171419047D01*
X79676666Y-150432380D02*
X80295714Y-150432380D01*
X79962380Y-150813333D01*
X80105238Y-150813333D01*
X80200476Y-150860952D01*
X80248095Y-150908571D01*
X80295714Y-151003809D01*
X80295714Y-151241904D01*
X80248095Y-151337142D01*
X80200476Y-151384761D01*
X80105238Y-151432380D01*
X79819523Y-151432380D01*
X79724285Y-151384761D01*
X79676666Y-151337142D01*
X58134285Y-150677619D02*
X58181904Y-150630000D01*
X58277142Y-150582380D01*
X58515238Y-150582380D01*
X58610476Y-150630000D01*
X58658095Y-150677619D01*
X58705714Y-150772857D01*
X58705714Y-150868095D01*
X58658095Y-151010952D01*
X58086666Y-151582380D01*
X58705714Y-151582380D01*
X37115714Y-151432380D02*
X36544285Y-151432380D01*
X36830000Y-151432380D02*
X36830000Y-150432380D01*
X36734761Y-150575238D01*
X36639523Y-150670476D01*
X36544285Y-150718095D01*
X44600476Y-173735714D02*
X44600476Y-174402380D01*
X44362380Y-173354761D02*
X44124285Y-174069047D01*
X44743333Y-174069047D01*
X88526666Y-156892380D02*
X89145714Y-156892380D01*
X88812380Y-157273333D01*
X88955238Y-157273333D01*
X89050476Y-157320952D01*
X89098095Y-157368571D01*
X89145714Y-157463809D01*
X89145714Y-157701904D01*
X89098095Y-157797142D01*
X89050476Y-157844761D01*
X88955238Y-157892380D01*
X88669523Y-157892380D01*
X88574285Y-157844761D01*
X88526666Y-157797142D01*
X66984285Y-153177619D02*
X67031904Y-153130000D01*
X67127142Y-153082380D01*
X67365238Y-153082380D01*
X67460476Y-153130000D01*
X67508095Y-153177619D01*
X67555714Y-153272857D01*
X67555714Y-153368095D01*
X67508095Y-153510952D01*
X66936666Y-154082380D01*
X67555714Y-154082380D01*
X94869047Y-148661428D02*
X95630952Y-148661428D01*
X95250000Y-149042380D02*
X95250000Y-148280476D01*
X46005714Y-154122380D02*
X45434285Y-154122380D01*
X45720000Y-154122380D02*
X45720000Y-153122380D01*
X45624761Y-153265238D01*
X45529523Y-153360476D01*
X45434285Y-153408095D01*
X94869047Y-130881428D02*
X95630952Y-130881428D01*
X77136904Y-121991428D02*
X77898809Y-121991428D01*
X79375000Y-122705714D02*
X79375000Y-121277142D01*
X80851190Y-121991428D02*
X81613095Y-121991428D01*
X81232142Y-122372380D02*
X81232142Y-121610476D01*
X64436904Y-121991428D02*
X65198809Y-121991428D01*
X66675000Y-122705714D02*
X66675000Y-121277142D01*
X68151190Y-121991428D02*
X68913095Y-121991428D01*
X68532142Y-122372380D02*
X68532142Y-121610476D01*
X51736904Y-121991428D02*
X52498809Y-121991428D01*
X53975000Y-122705714D02*
X53975000Y-121277142D01*
X55451190Y-121991428D02*
X56213095Y-121991428D01*
X55832142Y-122372380D02*
X55832142Y-121610476D01*
X37766904Y-121991428D02*
X38528809Y-121991428D01*
X40005000Y-122705714D02*
X40005000Y-121277142D01*
X41481190Y-121991428D02*
X42243095Y-121991428D01*
X41862142Y-122372380D02*
X41862142Y-121610476D01*
M02*
