G04 #@! TF.GenerationSoftware,KiCad,Pcbnew,(5.1.2)-1*
G04 #@! TF.CreationDate,2019-06-07T12:24:14-04:00*
G04 #@! TF.ProjectId,volt mod 2,766f6c74-206d-46f6-9420-322e6b696361,rev?*
G04 #@! TF.SameCoordinates,Original*
G04 #@! TF.FileFunction,Soldermask,Top*
G04 #@! TF.FilePolarity,Negative*
%FSLAX46Y46*%
G04 Gerber Fmt 4.6, Leading zero omitted, Abs format (unit mm)*
G04 Created by KiCad (PCBNEW (5.1.2)-1) date 2019-06-07 12:24:14*
%MOMM*%
%LPD*%
G04 APERTURE LIST*
%ADD10C,0.100000*%
G04 APERTURE END LIST*
D10*
G36*
X37209393Y-177819304D02*
G01*
X37446101Y-177917352D01*
X37446103Y-177917353D01*
X37659135Y-178059696D01*
X37840304Y-178240865D01*
X37957394Y-178416103D01*
X37982648Y-178453899D01*
X38080696Y-178690607D01*
X38130680Y-178941893D01*
X38130680Y-179198107D01*
X38080696Y-179449393D01*
X37982648Y-179686101D01*
X37982647Y-179686103D01*
X37840304Y-179899135D01*
X37659135Y-180080304D01*
X37446103Y-180222647D01*
X37446102Y-180222648D01*
X37446101Y-180222648D01*
X37209393Y-180320696D01*
X36958107Y-180370680D01*
X36701893Y-180370680D01*
X36450607Y-180320696D01*
X36213899Y-180222648D01*
X36213898Y-180222648D01*
X36213897Y-180222647D01*
X36000865Y-180080304D01*
X35819696Y-179899135D01*
X35677353Y-179686103D01*
X35677352Y-179686101D01*
X35579304Y-179449393D01*
X35529320Y-179198107D01*
X35529320Y-178941893D01*
X35579304Y-178690607D01*
X35677352Y-178453899D01*
X35702606Y-178416103D01*
X35819696Y-178240865D01*
X36000865Y-178059696D01*
X36213897Y-177917353D01*
X36213899Y-177917352D01*
X36450607Y-177819304D01*
X36701893Y-177769320D01*
X36958107Y-177769320D01*
X37209393Y-177819304D01*
X37209393Y-177819304D01*
G37*
G36*
X34320680Y-180370680D02*
G01*
X31719320Y-180370680D01*
X31719320Y-177769320D01*
X34320680Y-177769320D01*
X34320680Y-180370680D01*
X34320680Y-180370680D01*
G37*
G36*
X29589393Y-177819304D02*
G01*
X29826101Y-177917352D01*
X29826103Y-177917353D01*
X30039135Y-178059696D01*
X30220304Y-178240865D01*
X30337394Y-178416103D01*
X30362648Y-178453899D01*
X30460696Y-178690607D01*
X30510680Y-178941893D01*
X30510680Y-179198107D01*
X30460696Y-179449393D01*
X30362648Y-179686101D01*
X30362647Y-179686103D01*
X30220304Y-179899135D01*
X30039135Y-180080304D01*
X29826103Y-180222647D01*
X29826102Y-180222648D01*
X29826101Y-180222648D01*
X29589393Y-180320696D01*
X29338107Y-180370680D01*
X29081893Y-180370680D01*
X28830607Y-180320696D01*
X28593899Y-180222648D01*
X28593898Y-180222648D01*
X28593897Y-180222647D01*
X28380865Y-180080304D01*
X28199696Y-179899135D01*
X28057353Y-179686103D01*
X28057352Y-179686101D01*
X27959304Y-179449393D01*
X27909320Y-179198107D01*
X27909320Y-178941893D01*
X27959304Y-178690607D01*
X28057352Y-178453899D01*
X28082606Y-178416103D01*
X28199696Y-178240865D01*
X28380865Y-178059696D01*
X28593897Y-177917353D01*
X28593899Y-177917352D01*
X28830607Y-177819304D01*
X29081893Y-177769320D01*
X29338107Y-177769320D01*
X29589393Y-177819304D01*
X29589393Y-177819304D01*
G37*
G36*
X48639393Y-176549304D02*
G01*
X48876101Y-176647352D01*
X48876103Y-176647353D01*
X49089135Y-176789696D01*
X49270304Y-176970865D01*
X49412647Y-177183897D01*
X49412648Y-177183899D01*
X49510696Y-177420607D01*
X49560680Y-177671893D01*
X49560680Y-177928107D01*
X49510696Y-178179393D01*
X49412648Y-178416101D01*
X49412647Y-178416103D01*
X49270304Y-178629135D01*
X49089135Y-178810304D01*
X48876103Y-178952647D01*
X48876102Y-178952648D01*
X48876101Y-178952648D01*
X48639393Y-179050696D01*
X48388107Y-179100680D01*
X48131893Y-179100680D01*
X47880607Y-179050696D01*
X47643899Y-178952648D01*
X47643898Y-178952648D01*
X47643897Y-178952647D01*
X47430865Y-178810304D01*
X47249696Y-178629135D01*
X47107353Y-178416103D01*
X47107352Y-178416101D01*
X47009304Y-178179393D01*
X46959320Y-177928107D01*
X46959320Y-177671893D01*
X47009304Y-177420607D01*
X47107352Y-177183899D01*
X47107353Y-177183897D01*
X47249696Y-176970865D01*
X47430865Y-176789696D01*
X47643897Y-176647353D01*
X47643899Y-176647352D01*
X47880607Y-176549304D01*
X48131893Y-176499320D01*
X48388107Y-176499320D01*
X48639393Y-176549304D01*
X48639393Y-176549304D01*
G37*
G36*
X62605256Y-173651298D02*
G01*
X62711579Y-173672447D01*
X63012042Y-173796903D01*
X63282451Y-173977585D01*
X63512415Y-174207549D01*
X63693097Y-174477958D01*
X63817553Y-174778421D01*
X63881000Y-175097391D01*
X63881000Y-175422609D01*
X63817553Y-175741579D01*
X63693097Y-176042042D01*
X63512415Y-176312451D01*
X63282451Y-176542415D01*
X63012042Y-176723097D01*
X62711579Y-176847553D01*
X62605256Y-176868702D01*
X62392611Y-176911000D01*
X62067389Y-176911000D01*
X61854744Y-176868702D01*
X61748421Y-176847553D01*
X61447958Y-176723097D01*
X61177549Y-176542415D01*
X60947585Y-176312451D01*
X60766903Y-176042042D01*
X60642447Y-175741579D01*
X60579000Y-175422609D01*
X60579000Y-175097391D01*
X60642447Y-174778421D01*
X60766903Y-174477958D01*
X60947585Y-174207549D01*
X61177549Y-173977585D01*
X61447958Y-173796903D01*
X61748421Y-173672447D01*
X61854744Y-173651298D01*
X62067389Y-173609000D01*
X62392611Y-173609000D01*
X62605256Y-173651298D01*
X62605256Y-173651298D01*
G37*
G36*
X42110935Y-170575742D02*
G01*
X42261258Y-170638008D01*
X42396545Y-170728404D01*
X42511596Y-170843455D01*
X42601992Y-170978742D01*
X42664258Y-171129065D01*
X42696000Y-171288646D01*
X42696000Y-171451354D01*
X42664258Y-171610935D01*
X42601992Y-171761258D01*
X42511596Y-171896545D01*
X42396545Y-172011596D01*
X42261258Y-172101992D01*
X42110935Y-172164258D01*
X41951354Y-172196000D01*
X41788646Y-172196000D01*
X41629065Y-172164258D01*
X41478742Y-172101992D01*
X41343455Y-172011596D01*
X41228404Y-171896545D01*
X41138008Y-171761258D01*
X41075742Y-171610935D01*
X41044000Y-171451354D01*
X41044000Y-171288646D01*
X41075742Y-171129065D01*
X41138008Y-170978742D01*
X41228404Y-170843455D01*
X41343455Y-170728404D01*
X41478742Y-170638008D01*
X41629065Y-170575742D01*
X41788646Y-170544000D01*
X41951354Y-170544000D01*
X42110935Y-170575742D01*
X42110935Y-170575742D01*
G37*
G36*
X34415589Y-166878876D02*
G01*
X34514893Y-166898629D01*
X34655206Y-166956748D01*
X34781484Y-167041125D01*
X34888875Y-167148516D01*
X34973252Y-167274794D01*
X35031371Y-167415107D01*
X35061000Y-167564063D01*
X35061000Y-167715937D01*
X35031371Y-167864893D01*
X34973252Y-168005206D01*
X34888875Y-168131484D01*
X34781484Y-168238875D01*
X34655206Y-168323252D01*
X34514893Y-168381371D01*
X34415589Y-168401124D01*
X34365938Y-168411000D01*
X34214062Y-168411000D01*
X34164411Y-168401124D01*
X34065107Y-168381371D01*
X33924794Y-168323252D01*
X33798516Y-168238875D01*
X33691125Y-168131484D01*
X33606748Y-168005206D01*
X33548629Y-167864893D01*
X33519000Y-167715937D01*
X33519000Y-167564063D01*
X33548629Y-167415107D01*
X33606748Y-167274794D01*
X33691125Y-167148516D01*
X33798516Y-167041125D01*
X33924794Y-166956748D01*
X34065107Y-166898629D01*
X34164411Y-166878876D01*
X34214062Y-166869000D01*
X34365938Y-166869000D01*
X34415589Y-166878876D01*
X34415589Y-166878876D01*
G37*
G36*
X29335589Y-166878876D02*
G01*
X29434893Y-166898629D01*
X29575206Y-166956748D01*
X29701484Y-167041125D01*
X29808875Y-167148516D01*
X29893252Y-167274794D01*
X29951371Y-167415107D01*
X29981000Y-167564063D01*
X29981000Y-167715937D01*
X29951371Y-167864893D01*
X29893252Y-168005206D01*
X29808875Y-168131484D01*
X29701484Y-168238875D01*
X29575206Y-168323252D01*
X29434893Y-168381371D01*
X29335589Y-168401124D01*
X29285938Y-168411000D01*
X29134062Y-168411000D01*
X29084411Y-168401124D01*
X28985107Y-168381371D01*
X28844794Y-168323252D01*
X28718516Y-168238875D01*
X28611125Y-168131484D01*
X28526748Y-168005206D01*
X28468629Y-167864893D01*
X28439000Y-167715937D01*
X28439000Y-167564063D01*
X28468629Y-167415107D01*
X28526748Y-167274794D01*
X28611125Y-167148516D01*
X28718516Y-167041125D01*
X28844794Y-166956748D01*
X28985107Y-166898629D01*
X29084411Y-166878876D01*
X29134062Y-166869000D01*
X29285938Y-166869000D01*
X29335589Y-166878876D01*
X29335589Y-166878876D01*
G37*
G36*
X31875589Y-166878876D02*
G01*
X31974893Y-166898629D01*
X32115206Y-166956748D01*
X32241484Y-167041125D01*
X32348875Y-167148516D01*
X32433252Y-167274794D01*
X32491371Y-167415107D01*
X32521000Y-167564063D01*
X32521000Y-167715937D01*
X32491371Y-167864893D01*
X32433252Y-168005206D01*
X32348875Y-168131484D01*
X32241484Y-168238875D01*
X32115206Y-168323252D01*
X31974893Y-168381371D01*
X31875589Y-168401124D01*
X31825938Y-168411000D01*
X31674062Y-168411000D01*
X31624411Y-168401124D01*
X31525107Y-168381371D01*
X31384794Y-168323252D01*
X31258516Y-168238875D01*
X31151125Y-168131484D01*
X31066748Y-168005206D01*
X31008629Y-167864893D01*
X30979000Y-167715937D01*
X30979000Y-167564063D01*
X31008629Y-167415107D01*
X31066748Y-167274794D01*
X31151125Y-167148516D01*
X31258516Y-167041125D01*
X31384794Y-166956748D01*
X31525107Y-166898629D01*
X31624411Y-166878876D01*
X31674062Y-166869000D01*
X31825938Y-166869000D01*
X31875589Y-166878876D01*
X31875589Y-166878876D01*
G37*
G36*
X44610935Y-165575742D02*
G01*
X44761258Y-165638008D01*
X44896545Y-165728404D01*
X45011596Y-165843455D01*
X45101992Y-165978742D01*
X45164258Y-166129065D01*
X45196000Y-166288646D01*
X45196000Y-166451354D01*
X45164258Y-166610935D01*
X45101992Y-166761258D01*
X45011596Y-166896545D01*
X44896545Y-167011596D01*
X44761258Y-167101992D01*
X44610935Y-167164258D01*
X44451354Y-167196000D01*
X44288646Y-167196000D01*
X44129065Y-167164258D01*
X43978742Y-167101992D01*
X43843455Y-167011596D01*
X43728404Y-166896545D01*
X43638008Y-166761258D01*
X43575742Y-166610935D01*
X43544000Y-166451354D01*
X43544000Y-166288646D01*
X43575742Y-166129065D01*
X43638008Y-165978742D01*
X43728404Y-165843455D01*
X43843455Y-165728404D01*
X43978742Y-165638008D01*
X44129065Y-165575742D01*
X44288646Y-165544000D01*
X44451354Y-165544000D01*
X44610935Y-165575742D01*
X44610935Y-165575742D01*
G37*
G36*
X40196000Y-167196000D02*
G01*
X38544000Y-167196000D01*
X38544000Y-165544000D01*
X40196000Y-165544000D01*
X40196000Y-167196000D01*
X40196000Y-167196000D01*
G37*
G36*
X79119393Y-162579304D02*
G01*
X79356101Y-162677352D01*
X79356103Y-162677353D01*
X79569135Y-162819696D01*
X79750304Y-163000865D01*
X79819670Y-163104679D01*
X79892648Y-163213899D01*
X79990696Y-163450607D01*
X80040680Y-163701893D01*
X80040680Y-163958107D01*
X79990696Y-164209393D01*
X79892648Y-164446101D01*
X79892647Y-164446103D01*
X79750304Y-164659135D01*
X79569135Y-164840304D01*
X79356103Y-164982647D01*
X79356102Y-164982648D01*
X79356101Y-164982648D01*
X79119393Y-165080696D01*
X78868107Y-165130680D01*
X78611893Y-165130680D01*
X78360607Y-165080696D01*
X78123899Y-164982648D01*
X78123898Y-164982648D01*
X78123897Y-164982647D01*
X77910865Y-164840304D01*
X77729696Y-164659135D01*
X77587353Y-164446103D01*
X77587352Y-164446101D01*
X77489304Y-164209393D01*
X77439320Y-163958107D01*
X77439320Y-163701893D01*
X77489304Y-163450607D01*
X77587352Y-163213899D01*
X77660330Y-163104679D01*
X77729696Y-163000865D01*
X77910865Y-162819696D01*
X78123897Y-162677353D01*
X78123899Y-162677352D01*
X78360607Y-162579304D01*
X78611893Y-162529320D01*
X78868107Y-162529320D01*
X79119393Y-162579304D01*
X79119393Y-162579304D01*
G37*
G36*
X61301293Y-162470084D02*
G01*
X61538001Y-162568132D01*
X61538003Y-162568133D01*
X61751035Y-162710476D01*
X61932204Y-162891645D01*
X62074547Y-163104677D01*
X62074548Y-163104679D01*
X62172596Y-163341387D01*
X62222580Y-163592673D01*
X62222580Y-163848887D01*
X62172596Y-164100173D01*
X62127355Y-164209393D01*
X62074547Y-164336883D01*
X61932204Y-164549915D01*
X61751035Y-164731084D01*
X61538003Y-164873427D01*
X61538002Y-164873428D01*
X61538001Y-164873428D01*
X61301293Y-164971476D01*
X61050007Y-165021460D01*
X60793793Y-165021460D01*
X60542507Y-164971476D01*
X60305799Y-164873428D01*
X60305798Y-164873428D01*
X60305797Y-164873427D01*
X60092765Y-164731084D01*
X59911596Y-164549915D01*
X59769253Y-164336883D01*
X59716445Y-164209393D01*
X59671204Y-164100173D01*
X59621220Y-163848887D01*
X59621220Y-163592673D01*
X59671204Y-163341387D01*
X59769252Y-163104679D01*
X59769253Y-163104677D01*
X59911596Y-162891645D01*
X60092765Y-162710476D01*
X60305797Y-162568133D01*
X60305799Y-162568132D01*
X60542507Y-162470084D01*
X60793793Y-162420100D01*
X61050007Y-162420100D01*
X61301293Y-162470084D01*
X61301293Y-162470084D01*
G37*
G36*
X82929393Y-158769304D02*
G01*
X83166101Y-158867352D01*
X83166103Y-158867353D01*
X83379135Y-159009696D01*
X83560304Y-159190865D01*
X83677394Y-159366103D01*
X83702648Y-159403899D01*
X83800696Y-159640607D01*
X83850680Y-159891893D01*
X83850680Y-160148107D01*
X83800696Y-160399393D01*
X83702648Y-160636101D01*
X83702647Y-160636103D01*
X83560304Y-160849135D01*
X83379135Y-161030304D01*
X83166103Y-161172647D01*
X83166102Y-161172648D01*
X83166101Y-161172648D01*
X82929393Y-161270696D01*
X82678107Y-161320680D01*
X82421893Y-161320680D01*
X82170607Y-161270696D01*
X81933899Y-161172648D01*
X81933898Y-161172648D01*
X81933897Y-161172647D01*
X81720865Y-161030304D01*
X81539696Y-160849135D01*
X81397353Y-160636103D01*
X81397352Y-160636101D01*
X81299304Y-160399393D01*
X81249320Y-160148107D01*
X81249320Y-159891893D01*
X81299304Y-159640607D01*
X81397352Y-159403899D01*
X81422606Y-159366103D01*
X81539696Y-159190865D01*
X81720865Y-159009696D01*
X81933897Y-158867353D01*
X81933899Y-158867352D01*
X82170607Y-158769304D01*
X82421893Y-158719320D01*
X82678107Y-158719320D01*
X82929393Y-158769304D01*
X82929393Y-158769304D01*
G37*
G36*
X75309393Y-158769304D02*
G01*
X75546101Y-158867352D01*
X75546103Y-158867353D01*
X75759135Y-159009696D01*
X75940304Y-159190865D01*
X76057394Y-159366103D01*
X76082648Y-159403899D01*
X76180696Y-159640607D01*
X76230680Y-159891893D01*
X76230680Y-160148107D01*
X76180696Y-160399393D01*
X76082648Y-160636101D01*
X76082647Y-160636103D01*
X75940304Y-160849135D01*
X75759135Y-161030304D01*
X75546103Y-161172647D01*
X75546102Y-161172648D01*
X75546101Y-161172648D01*
X75309393Y-161270696D01*
X75058107Y-161320680D01*
X74801893Y-161320680D01*
X74550607Y-161270696D01*
X74313899Y-161172648D01*
X74313898Y-161172648D01*
X74313897Y-161172647D01*
X74100865Y-161030304D01*
X73919696Y-160849135D01*
X73777353Y-160636103D01*
X73777352Y-160636101D01*
X73679304Y-160399393D01*
X73629320Y-160148107D01*
X73629320Y-159891893D01*
X73679304Y-159640607D01*
X73777352Y-159403899D01*
X73802606Y-159366103D01*
X73919696Y-159190865D01*
X74100865Y-159009696D01*
X74313897Y-158867353D01*
X74313899Y-158867352D01*
X74550607Y-158769304D01*
X74801893Y-158719320D01*
X75058107Y-158719320D01*
X75309393Y-158769304D01*
X75309393Y-158769304D01*
G37*
G36*
X80040680Y-161320680D02*
G01*
X77439320Y-161320680D01*
X77439320Y-158719320D01*
X80040680Y-158719320D01*
X80040680Y-161320680D01*
X80040680Y-161320680D01*
G37*
G36*
X39749393Y-157499304D02*
G01*
X39986101Y-157597352D01*
X39986103Y-157597353D01*
X40199135Y-157739696D01*
X40380304Y-157920865D01*
X40522647Y-158133897D01*
X40522648Y-158133899D01*
X40620696Y-158370607D01*
X40670680Y-158621893D01*
X40670680Y-158878107D01*
X40620696Y-159129393D01*
X40522648Y-159366101D01*
X40522647Y-159366103D01*
X40380304Y-159579135D01*
X40199135Y-159760304D01*
X39986103Y-159902647D01*
X39986102Y-159902648D01*
X39986101Y-159902648D01*
X39749393Y-160000696D01*
X39498107Y-160050680D01*
X39241893Y-160050680D01*
X38990607Y-160000696D01*
X38753899Y-159902648D01*
X38753898Y-159902648D01*
X38753897Y-159902647D01*
X38540865Y-159760304D01*
X38359696Y-159579135D01*
X38217353Y-159366103D01*
X38217352Y-159366101D01*
X38119304Y-159129393D01*
X38069320Y-158878107D01*
X38069320Y-158621893D01*
X38119304Y-158370607D01*
X38217352Y-158133899D01*
X38217353Y-158133897D01*
X38359696Y-157920865D01*
X38540865Y-157739696D01*
X38753897Y-157597353D01*
X38753899Y-157597352D01*
X38990607Y-157499304D01*
X39241893Y-157449320D01*
X39498107Y-157449320D01*
X39749393Y-157499304D01*
X39749393Y-157499304D01*
G37*
G36*
X36860680Y-160050680D02*
G01*
X34259320Y-160050680D01*
X34259320Y-157449320D01*
X36860680Y-157449320D01*
X36860680Y-160050680D01*
X36860680Y-160050680D01*
G37*
G36*
X32129393Y-157499304D02*
G01*
X32366101Y-157597352D01*
X32366103Y-157597353D01*
X32579135Y-157739696D01*
X32760304Y-157920865D01*
X32902647Y-158133897D01*
X32902648Y-158133899D01*
X33000696Y-158370607D01*
X33050680Y-158621893D01*
X33050680Y-158878107D01*
X33000696Y-159129393D01*
X32902648Y-159366101D01*
X32902647Y-159366103D01*
X32760304Y-159579135D01*
X32579135Y-159760304D01*
X32366103Y-159902647D01*
X32366102Y-159902648D01*
X32366101Y-159902648D01*
X32129393Y-160000696D01*
X31878107Y-160050680D01*
X31621893Y-160050680D01*
X31370607Y-160000696D01*
X31133899Y-159902648D01*
X31133898Y-159902648D01*
X31133897Y-159902647D01*
X30920865Y-159760304D01*
X30739696Y-159579135D01*
X30597353Y-159366103D01*
X30597352Y-159366101D01*
X30499304Y-159129393D01*
X30449320Y-158878107D01*
X30449320Y-158621893D01*
X30499304Y-158370607D01*
X30597352Y-158133899D01*
X30597353Y-158133897D01*
X30739696Y-157920865D01*
X30920865Y-157739696D01*
X31133897Y-157597353D01*
X31133899Y-157597352D01*
X31370607Y-157499304D01*
X31621893Y-157449320D01*
X31878107Y-157449320D01*
X32129393Y-157499304D01*
X32129393Y-157499304D01*
G37*
G36*
X53719393Y-157499304D02*
G01*
X53956101Y-157597352D01*
X53956103Y-157597353D01*
X54169135Y-157739696D01*
X54350304Y-157920865D01*
X54492647Y-158133897D01*
X54492648Y-158133899D01*
X54590696Y-158370607D01*
X54640680Y-158621893D01*
X54640680Y-158878107D01*
X54590696Y-159129393D01*
X54492648Y-159366101D01*
X54492647Y-159366103D01*
X54350304Y-159579135D01*
X54169135Y-159760304D01*
X53956103Y-159902647D01*
X53956102Y-159902648D01*
X53956101Y-159902648D01*
X53719393Y-160000696D01*
X53468107Y-160050680D01*
X53211893Y-160050680D01*
X52960607Y-160000696D01*
X52723899Y-159902648D01*
X52723898Y-159902648D01*
X52723897Y-159902647D01*
X52510865Y-159760304D01*
X52329696Y-159579135D01*
X52187353Y-159366103D01*
X52187352Y-159366101D01*
X52089304Y-159129393D01*
X52039320Y-158878107D01*
X52039320Y-158621893D01*
X52089304Y-158370607D01*
X52187352Y-158133899D01*
X52187353Y-158133897D01*
X52329696Y-157920865D01*
X52510865Y-157739696D01*
X52723897Y-157597353D01*
X52723899Y-157597352D01*
X52960607Y-157499304D01*
X53211893Y-157449320D01*
X53468107Y-157449320D01*
X53719393Y-157499304D01*
X53719393Y-157499304D01*
G37*
G36*
X27049393Y-157499304D02*
G01*
X27286101Y-157597352D01*
X27286103Y-157597353D01*
X27499135Y-157739696D01*
X27680304Y-157920865D01*
X27822647Y-158133897D01*
X27822648Y-158133899D01*
X27920696Y-158370607D01*
X27970680Y-158621893D01*
X27970680Y-158878107D01*
X27920696Y-159129393D01*
X27822648Y-159366101D01*
X27822647Y-159366103D01*
X27680304Y-159579135D01*
X27499135Y-159760304D01*
X27286103Y-159902647D01*
X27286102Y-159902648D01*
X27286101Y-159902648D01*
X27049393Y-160000696D01*
X26798107Y-160050680D01*
X26541893Y-160050680D01*
X26290607Y-160000696D01*
X26053899Y-159902648D01*
X26053898Y-159902648D01*
X26053897Y-159902647D01*
X25840865Y-159760304D01*
X25659696Y-159579135D01*
X25517353Y-159366103D01*
X25517352Y-159366101D01*
X25419304Y-159129393D01*
X25369320Y-158878107D01*
X25369320Y-158621893D01*
X25419304Y-158370607D01*
X25517352Y-158133899D01*
X25517353Y-158133897D01*
X25659696Y-157920865D01*
X25840865Y-157739696D01*
X26053897Y-157597353D01*
X26053899Y-157597352D01*
X26290607Y-157499304D01*
X26541893Y-157449320D01*
X26798107Y-157449320D01*
X27049393Y-157499304D01*
X27049393Y-157499304D01*
G37*
G36*
X61339393Y-157499304D02*
G01*
X61576101Y-157597352D01*
X61576103Y-157597353D01*
X61789135Y-157739696D01*
X61970304Y-157920865D01*
X62112647Y-158133897D01*
X62112648Y-158133899D01*
X62210696Y-158370607D01*
X62260680Y-158621893D01*
X62260680Y-158878107D01*
X62210696Y-159129393D01*
X62112648Y-159366101D01*
X62112647Y-159366103D01*
X61970304Y-159579135D01*
X61789135Y-159760304D01*
X61576103Y-159902647D01*
X61576102Y-159902648D01*
X61576101Y-159902648D01*
X61339393Y-160000696D01*
X61088107Y-160050680D01*
X60831893Y-160050680D01*
X60580607Y-160000696D01*
X60343899Y-159902648D01*
X60343898Y-159902648D01*
X60343897Y-159902647D01*
X60130865Y-159760304D01*
X59949696Y-159579135D01*
X59807353Y-159366103D01*
X59807352Y-159366101D01*
X59709304Y-159129393D01*
X59659320Y-158878107D01*
X59659320Y-158621893D01*
X59709304Y-158370607D01*
X59807352Y-158133899D01*
X59807353Y-158133897D01*
X59949696Y-157920865D01*
X60130865Y-157739696D01*
X60343897Y-157597353D01*
X60343899Y-157597352D01*
X60580607Y-157499304D01*
X60831893Y-157449320D01*
X61088107Y-157449320D01*
X61339393Y-157499304D01*
X61339393Y-157499304D01*
G37*
G36*
X58450680Y-160050680D02*
G01*
X55849320Y-160050680D01*
X55849320Y-157449320D01*
X58450680Y-157449320D01*
X58450680Y-160050680D01*
X58450680Y-160050680D01*
G37*
G36*
X86560935Y-154065742D02*
G01*
X86711258Y-154128008D01*
X86846545Y-154218404D01*
X86961596Y-154333455D01*
X87051992Y-154468742D01*
X87114258Y-154619065D01*
X87146000Y-154778646D01*
X87146000Y-154941354D01*
X87114258Y-155100935D01*
X87051992Y-155251258D01*
X86961596Y-155386545D01*
X86846545Y-155501596D01*
X86711258Y-155591992D01*
X86560935Y-155654258D01*
X86401354Y-155686000D01*
X86238646Y-155686000D01*
X86079065Y-155654258D01*
X85928742Y-155591992D01*
X85793455Y-155501596D01*
X85678404Y-155386545D01*
X85588008Y-155251258D01*
X85525742Y-155100935D01*
X85494000Y-154941354D01*
X85494000Y-154778646D01*
X85525742Y-154619065D01*
X85588008Y-154468742D01*
X85678404Y-154333455D01*
X85793455Y-154218404D01*
X85928742Y-154128008D01*
X86079065Y-154065742D01*
X86238646Y-154034000D01*
X86401354Y-154034000D01*
X86560935Y-154065742D01*
X86560935Y-154065742D01*
G37*
G36*
X64970935Y-150255742D02*
G01*
X65121258Y-150318008D01*
X65256545Y-150408404D01*
X65371596Y-150523455D01*
X65461992Y-150658742D01*
X65524258Y-150809065D01*
X65556000Y-150968646D01*
X65556000Y-151131354D01*
X65524258Y-151290935D01*
X65461992Y-151441258D01*
X65371596Y-151576545D01*
X65256545Y-151691596D01*
X65121258Y-151781992D01*
X64970935Y-151844258D01*
X64811354Y-151876000D01*
X64648646Y-151876000D01*
X64489065Y-151844258D01*
X64338742Y-151781992D01*
X64203455Y-151691596D01*
X64088404Y-151576545D01*
X63998008Y-151441258D01*
X63935742Y-151290935D01*
X63904000Y-151131354D01*
X63904000Y-150968646D01*
X63935742Y-150809065D01*
X63998008Y-150658742D01*
X64088404Y-150523455D01*
X64203455Y-150408404D01*
X64338742Y-150318008D01*
X64489065Y-150255742D01*
X64648646Y-150224000D01*
X64811354Y-150224000D01*
X64970935Y-150255742D01*
X64970935Y-150255742D01*
G37*
G36*
X43380935Y-150255742D02*
G01*
X43531258Y-150318008D01*
X43666545Y-150408404D01*
X43781596Y-150523455D01*
X43871992Y-150658742D01*
X43934258Y-150809065D01*
X43966000Y-150968646D01*
X43966000Y-151131354D01*
X43934258Y-151290935D01*
X43871992Y-151441258D01*
X43781596Y-151576545D01*
X43666545Y-151691596D01*
X43531258Y-151781992D01*
X43380935Y-151844258D01*
X43221354Y-151876000D01*
X43058646Y-151876000D01*
X42899065Y-151844258D01*
X42748742Y-151781992D01*
X42613455Y-151691596D01*
X42498404Y-151576545D01*
X42408008Y-151441258D01*
X42345742Y-151290935D01*
X42314000Y-151131354D01*
X42314000Y-150968646D01*
X42345742Y-150809065D01*
X42408008Y-150658742D01*
X42498404Y-150523455D01*
X42613455Y-150408404D01*
X42748742Y-150318008D01*
X42899065Y-150255742D01*
X43058646Y-150224000D01*
X43221354Y-150224000D01*
X43380935Y-150255742D01*
X43380935Y-150255742D01*
G37*
G36*
X89060935Y-149065742D02*
G01*
X89211258Y-149128008D01*
X89346545Y-149218404D01*
X89461596Y-149333455D01*
X89551992Y-149468742D01*
X89614258Y-149619065D01*
X89646000Y-149778646D01*
X89646000Y-149941354D01*
X89614258Y-150100935D01*
X89551992Y-150251258D01*
X89461596Y-150386545D01*
X89346545Y-150501596D01*
X89211258Y-150591992D01*
X89060935Y-150654258D01*
X88901354Y-150686000D01*
X88738646Y-150686000D01*
X88579065Y-150654258D01*
X88428742Y-150591992D01*
X88293455Y-150501596D01*
X88178404Y-150386545D01*
X88088008Y-150251258D01*
X88025742Y-150100935D01*
X87994000Y-149941354D01*
X87994000Y-149778646D01*
X88025742Y-149619065D01*
X88088008Y-149468742D01*
X88178404Y-149333455D01*
X88293455Y-149218404D01*
X88428742Y-149128008D01*
X88579065Y-149065742D01*
X88738646Y-149034000D01*
X88901354Y-149034000D01*
X89060935Y-149065742D01*
X89060935Y-149065742D01*
G37*
G36*
X84646000Y-150686000D02*
G01*
X82994000Y-150686000D01*
X82994000Y-149034000D01*
X84646000Y-149034000D01*
X84646000Y-150686000D01*
X84646000Y-150686000D01*
G37*
G36*
X76325589Y-146558876D02*
G01*
X76424893Y-146578629D01*
X76565206Y-146636748D01*
X76691484Y-146721125D01*
X76798875Y-146828516D01*
X76883252Y-146954794D01*
X76941371Y-147095107D01*
X76971000Y-147244063D01*
X76971000Y-147395937D01*
X76941371Y-147544893D01*
X76883252Y-147685206D01*
X76798875Y-147811484D01*
X76691484Y-147918875D01*
X76565206Y-148003252D01*
X76424893Y-148061371D01*
X76325589Y-148081124D01*
X76275938Y-148091000D01*
X76124062Y-148091000D01*
X76074411Y-148081124D01*
X75975107Y-148061371D01*
X75834794Y-148003252D01*
X75708516Y-147918875D01*
X75601125Y-147811484D01*
X75516748Y-147685206D01*
X75458629Y-147544893D01*
X75429000Y-147395937D01*
X75429000Y-147244063D01*
X75458629Y-147095107D01*
X75516748Y-146954794D01*
X75601125Y-146828516D01*
X75708516Y-146721125D01*
X75834794Y-146636748D01*
X75975107Y-146578629D01*
X76074411Y-146558876D01*
X76124062Y-146549000D01*
X76275938Y-146549000D01*
X76325589Y-146558876D01*
X76325589Y-146558876D01*
G37*
G36*
X57275589Y-146558876D02*
G01*
X57374893Y-146578629D01*
X57515206Y-146636748D01*
X57641484Y-146721125D01*
X57748875Y-146828516D01*
X57833252Y-146954794D01*
X57891371Y-147095107D01*
X57921000Y-147244063D01*
X57921000Y-147395937D01*
X57891371Y-147544893D01*
X57833252Y-147685206D01*
X57748875Y-147811484D01*
X57641484Y-147918875D01*
X57515206Y-148003252D01*
X57374893Y-148061371D01*
X57275589Y-148081124D01*
X57225938Y-148091000D01*
X57074062Y-148091000D01*
X57024411Y-148081124D01*
X56925107Y-148061371D01*
X56784794Y-148003252D01*
X56658516Y-147918875D01*
X56551125Y-147811484D01*
X56466748Y-147685206D01*
X56408629Y-147544893D01*
X56379000Y-147395937D01*
X56379000Y-147244063D01*
X56408629Y-147095107D01*
X56466748Y-146954794D01*
X56551125Y-146828516D01*
X56658516Y-146721125D01*
X56784794Y-146636748D01*
X56925107Y-146578629D01*
X57024411Y-146558876D01*
X57074062Y-146549000D01*
X57225938Y-146549000D01*
X57275589Y-146558876D01*
X57275589Y-146558876D01*
G37*
G36*
X54735589Y-146558876D02*
G01*
X54834893Y-146578629D01*
X54975206Y-146636748D01*
X55101484Y-146721125D01*
X55208875Y-146828516D01*
X55293252Y-146954794D01*
X55351371Y-147095107D01*
X55381000Y-147244063D01*
X55381000Y-147395937D01*
X55351371Y-147544893D01*
X55293252Y-147685206D01*
X55208875Y-147811484D01*
X55101484Y-147918875D01*
X54975206Y-148003252D01*
X54834893Y-148061371D01*
X54735589Y-148081124D01*
X54685938Y-148091000D01*
X54534062Y-148091000D01*
X54484411Y-148081124D01*
X54385107Y-148061371D01*
X54244794Y-148003252D01*
X54118516Y-147918875D01*
X54011125Y-147811484D01*
X53926748Y-147685206D01*
X53868629Y-147544893D01*
X53839000Y-147395937D01*
X53839000Y-147244063D01*
X53868629Y-147095107D01*
X53926748Y-146954794D01*
X54011125Y-146828516D01*
X54118516Y-146721125D01*
X54244794Y-146636748D01*
X54385107Y-146578629D01*
X54484411Y-146558876D01*
X54534062Y-146549000D01*
X54685938Y-146549000D01*
X54735589Y-146558876D01*
X54735589Y-146558876D01*
G37*
G36*
X52195589Y-146558876D02*
G01*
X52294893Y-146578629D01*
X52435206Y-146636748D01*
X52561484Y-146721125D01*
X52668875Y-146828516D01*
X52753252Y-146954794D01*
X52811371Y-147095107D01*
X52841000Y-147244063D01*
X52841000Y-147395937D01*
X52811371Y-147544893D01*
X52753252Y-147685206D01*
X52668875Y-147811484D01*
X52561484Y-147918875D01*
X52435206Y-148003252D01*
X52294893Y-148061371D01*
X52195589Y-148081124D01*
X52145938Y-148091000D01*
X51994062Y-148091000D01*
X51944411Y-148081124D01*
X51845107Y-148061371D01*
X51704794Y-148003252D01*
X51578516Y-147918875D01*
X51471125Y-147811484D01*
X51386748Y-147685206D01*
X51328629Y-147544893D01*
X51299000Y-147395937D01*
X51299000Y-147244063D01*
X51328629Y-147095107D01*
X51386748Y-146954794D01*
X51471125Y-146828516D01*
X51578516Y-146721125D01*
X51704794Y-146636748D01*
X51845107Y-146578629D01*
X51944411Y-146558876D01*
X51994062Y-146549000D01*
X52145938Y-146549000D01*
X52195589Y-146558876D01*
X52195589Y-146558876D01*
G37*
G36*
X35685589Y-146558876D02*
G01*
X35784893Y-146578629D01*
X35925206Y-146636748D01*
X36051484Y-146721125D01*
X36158875Y-146828516D01*
X36243252Y-146954794D01*
X36301371Y-147095107D01*
X36331000Y-147244063D01*
X36331000Y-147395937D01*
X36301371Y-147544893D01*
X36243252Y-147685206D01*
X36158875Y-147811484D01*
X36051484Y-147918875D01*
X35925206Y-148003252D01*
X35784893Y-148061371D01*
X35685589Y-148081124D01*
X35635938Y-148091000D01*
X35484062Y-148091000D01*
X35434411Y-148081124D01*
X35335107Y-148061371D01*
X35194794Y-148003252D01*
X35068516Y-147918875D01*
X34961125Y-147811484D01*
X34876748Y-147685206D01*
X34818629Y-147544893D01*
X34789000Y-147395937D01*
X34789000Y-147244063D01*
X34818629Y-147095107D01*
X34876748Y-146954794D01*
X34961125Y-146828516D01*
X35068516Y-146721125D01*
X35194794Y-146636748D01*
X35335107Y-146578629D01*
X35434411Y-146558876D01*
X35484062Y-146549000D01*
X35635938Y-146549000D01*
X35685589Y-146558876D01*
X35685589Y-146558876D01*
G37*
G36*
X33145589Y-146558876D02*
G01*
X33244893Y-146578629D01*
X33385206Y-146636748D01*
X33511484Y-146721125D01*
X33618875Y-146828516D01*
X33703252Y-146954794D01*
X33761371Y-147095107D01*
X33791000Y-147244063D01*
X33791000Y-147395937D01*
X33761371Y-147544893D01*
X33703252Y-147685206D01*
X33618875Y-147811484D01*
X33511484Y-147918875D01*
X33385206Y-148003252D01*
X33244893Y-148061371D01*
X33145589Y-148081124D01*
X33095938Y-148091000D01*
X32944062Y-148091000D01*
X32894411Y-148081124D01*
X32795107Y-148061371D01*
X32654794Y-148003252D01*
X32528516Y-147918875D01*
X32421125Y-147811484D01*
X32336748Y-147685206D01*
X32278629Y-147544893D01*
X32249000Y-147395937D01*
X32249000Y-147244063D01*
X32278629Y-147095107D01*
X32336748Y-146954794D01*
X32421125Y-146828516D01*
X32528516Y-146721125D01*
X32654794Y-146636748D01*
X32795107Y-146578629D01*
X32894411Y-146558876D01*
X32944062Y-146549000D01*
X33095938Y-146549000D01*
X33145589Y-146558876D01*
X33145589Y-146558876D01*
G37*
G36*
X30605589Y-146558876D02*
G01*
X30704893Y-146578629D01*
X30845206Y-146636748D01*
X30971484Y-146721125D01*
X31078875Y-146828516D01*
X31163252Y-146954794D01*
X31221371Y-147095107D01*
X31251000Y-147244063D01*
X31251000Y-147395937D01*
X31221371Y-147544893D01*
X31163252Y-147685206D01*
X31078875Y-147811484D01*
X30971484Y-147918875D01*
X30845206Y-148003252D01*
X30704893Y-148061371D01*
X30605589Y-148081124D01*
X30555938Y-148091000D01*
X30404062Y-148091000D01*
X30354411Y-148081124D01*
X30255107Y-148061371D01*
X30114794Y-148003252D01*
X29988516Y-147918875D01*
X29881125Y-147811484D01*
X29796748Y-147685206D01*
X29738629Y-147544893D01*
X29709000Y-147395937D01*
X29709000Y-147244063D01*
X29738629Y-147095107D01*
X29796748Y-146954794D01*
X29881125Y-146828516D01*
X29988516Y-146721125D01*
X30114794Y-146636748D01*
X30255107Y-146578629D01*
X30354411Y-146558876D01*
X30404062Y-146549000D01*
X30555938Y-146549000D01*
X30605589Y-146558876D01*
X30605589Y-146558876D01*
G37*
G36*
X73785589Y-146558876D02*
G01*
X73884893Y-146578629D01*
X74025206Y-146636748D01*
X74151484Y-146721125D01*
X74258875Y-146828516D01*
X74343252Y-146954794D01*
X74401371Y-147095107D01*
X74431000Y-147244063D01*
X74431000Y-147395937D01*
X74401371Y-147544893D01*
X74343252Y-147685206D01*
X74258875Y-147811484D01*
X74151484Y-147918875D01*
X74025206Y-148003252D01*
X73884893Y-148061371D01*
X73785589Y-148081124D01*
X73735938Y-148091000D01*
X73584062Y-148091000D01*
X73534411Y-148081124D01*
X73435107Y-148061371D01*
X73294794Y-148003252D01*
X73168516Y-147918875D01*
X73061125Y-147811484D01*
X72976748Y-147685206D01*
X72918629Y-147544893D01*
X72889000Y-147395937D01*
X72889000Y-147244063D01*
X72918629Y-147095107D01*
X72976748Y-146954794D01*
X73061125Y-146828516D01*
X73168516Y-146721125D01*
X73294794Y-146636748D01*
X73435107Y-146578629D01*
X73534411Y-146558876D01*
X73584062Y-146549000D01*
X73735938Y-146549000D01*
X73785589Y-146558876D01*
X73785589Y-146558876D01*
G37*
G36*
X78865589Y-146558876D02*
G01*
X78964893Y-146578629D01*
X79105206Y-146636748D01*
X79231484Y-146721125D01*
X79338875Y-146828516D01*
X79423252Y-146954794D01*
X79481371Y-147095107D01*
X79511000Y-147244063D01*
X79511000Y-147395937D01*
X79481371Y-147544893D01*
X79423252Y-147685206D01*
X79338875Y-147811484D01*
X79231484Y-147918875D01*
X79105206Y-148003252D01*
X78964893Y-148061371D01*
X78865589Y-148081124D01*
X78815938Y-148091000D01*
X78664062Y-148091000D01*
X78614411Y-148081124D01*
X78515107Y-148061371D01*
X78374794Y-148003252D01*
X78248516Y-147918875D01*
X78141125Y-147811484D01*
X78056748Y-147685206D01*
X77998629Y-147544893D01*
X77969000Y-147395937D01*
X77969000Y-147244063D01*
X77998629Y-147095107D01*
X78056748Y-146954794D01*
X78141125Y-146828516D01*
X78248516Y-146721125D01*
X78374794Y-146636748D01*
X78515107Y-146578629D01*
X78614411Y-146558876D01*
X78664062Y-146549000D01*
X78815938Y-146549000D01*
X78865589Y-146558876D01*
X78865589Y-146558876D01*
G37*
G36*
X41466000Y-146876000D02*
G01*
X39814000Y-146876000D01*
X39814000Y-145224000D01*
X41466000Y-145224000D01*
X41466000Y-146876000D01*
X41466000Y-146876000D01*
G37*
G36*
X45880935Y-145255742D02*
G01*
X46031258Y-145318008D01*
X46166545Y-145408404D01*
X46281596Y-145523455D01*
X46371992Y-145658742D01*
X46434258Y-145809065D01*
X46466000Y-145968646D01*
X46466000Y-146131354D01*
X46434258Y-146290935D01*
X46371992Y-146441258D01*
X46281596Y-146576545D01*
X46166545Y-146691596D01*
X46031258Y-146781992D01*
X45880935Y-146844258D01*
X45721354Y-146876000D01*
X45558646Y-146876000D01*
X45399065Y-146844258D01*
X45248742Y-146781992D01*
X45113455Y-146691596D01*
X44998404Y-146576545D01*
X44908008Y-146441258D01*
X44845742Y-146290935D01*
X44814000Y-146131354D01*
X44814000Y-145968646D01*
X44845742Y-145809065D01*
X44908008Y-145658742D01*
X44998404Y-145523455D01*
X45113455Y-145408404D01*
X45248742Y-145318008D01*
X45399065Y-145255742D01*
X45558646Y-145224000D01*
X45721354Y-145224000D01*
X45880935Y-145255742D01*
X45880935Y-145255742D01*
G37*
G36*
X63056000Y-146876000D02*
G01*
X61404000Y-146876000D01*
X61404000Y-145224000D01*
X63056000Y-145224000D01*
X63056000Y-146876000D01*
X63056000Y-146876000D01*
G37*
G36*
X67470935Y-145255742D02*
G01*
X67621258Y-145318008D01*
X67756545Y-145408404D01*
X67871596Y-145523455D01*
X67961992Y-145658742D01*
X68024258Y-145809065D01*
X68056000Y-145968646D01*
X68056000Y-146131354D01*
X68024258Y-146290935D01*
X67961992Y-146441258D01*
X67871596Y-146576545D01*
X67756545Y-146691596D01*
X67621258Y-146781992D01*
X67470935Y-146844258D01*
X67311354Y-146876000D01*
X67148646Y-146876000D01*
X66989065Y-146844258D01*
X66838742Y-146781992D01*
X66703455Y-146691596D01*
X66588404Y-146576545D01*
X66498008Y-146441258D01*
X66435742Y-146290935D01*
X66404000Y-146131354D01*
X66404000Y-145968646D01*
X66435742Y-145809065D01*
X66498008Y-145658742D01*
X66588404Y-145523455D01*
X66703455Y-145408404D01*
X66838742Y-145318008D01*
X66989065Y-145255742D01*
X67148646Y-145224000D01*
X67311354Y-145224000D01*
X67470935Y-145255742D01*
X67470935Y-145255742D01*
G37*
G36*
X95848254Y-142807818D02*
G01*
X96221511Y-142962426D01*
X96221513Y-142962427D01*
X96557436Y-143186884D01*
X96843116Y-143472564D01*
X97067574Y-143808489D01*
X97222182Y-144181746D01*
X97301000Y-144577993D01*
X97301000Y-144982007D01*
X97222182Y-145378254D01*
X97162037Y-145523457D01*
X97067573Y-145751513D01*
X96843116Y-146087436D01*
X96557436Y-146373116D01*
X96221513Y-146597573D01*
X96221512Y-146597574D01*
X96221511Y-146597574D01*
X95848254Y-146752182D01*
X95452007Y-146831000D01*
X95047993Y-146831000D01*
X94651746Y-146752182D01*
X94278489Y-146597574D01*
X94278488Y-146597574D01*
X94278487Y-146597573D01*
X93942564Y-146373116D01*
X93656884Y-146087436D01*
X93432427Y-145751513D01*
X93337963Y-145523457D01*
X93277818Y-145378254D01*
X93199000Y-144982007D01*
X93199000Y-144577993D01*
X93277818Y-144181746D01*
X93432426Y-143808489D01*
X93656884Y-143472564D01*
X93942564Y-143186884D01*
X94278487Y-142962427D01*
X94278489Y-142962426D01*
X94651746Y-142807818D01*
X95047993Y-142729000D01*
X95452007Y-142729000D01*
X95848254Y-142807818D01*
X95848254Y-142807818D01*
G37*
G36*
X95848254Y-132647818D02*
G01*
X96221511Y-132802426D01*
X96221513Y-132802427D01*
X96557436Y-133026884D01*
X96843116Y-133312564D01*
X97067574Y-133648489D01*
X97222182Y-134021746D01*
X97301000Y-134417993D01*
X97301000Y-134822007D01*
X97222182Y-135218254D01*
X97067574Y-135591511D01*
X97067573Y-135591513D01*
X96843116Y-135927436D01*
X96557436Y-136213116D01*
X96221513Y-136437573D01*
X96221512Y-136437574D01*
X96221511Y-136437574D01*
X95848254Y-136592182D01*
X95452007Y-136671000D01*
X95047993Y-136671000D01*
X94651746Y-136592182D01*
X94278489Y-136437574D01*
X94278488Y-136437574D01*
X94278487Y-136437573D01*
X93942564Y-136213116D01*
X93656884Y-135927436D01*
X93432427Y-135591513D01*
X93432426Y-135591511D01*
X93277818Y-135218254D01*
X93199000Y-134822007D01*
X93199000Y-134417993D01*
X93277818Y-134021746D01*
X93432426Y-133648489D01*
X93656884Y-133312564D01*
X93942564Y-133026884D01*
X94278487Y-132802427D01*
X94278489Y-132802426D01*
X94651746Y-132647818D01*
X95047993Y-132569000D01*
X95452007Y-132569000D01*
X95848254Y-132647818D01*
X95848254Y-132647818D01*
G37*
G36*
X95625256Y-124121298D02*
G01*
X95731579Y-124142447D01*
X96032042Y-124266903D01*
X96302451Y-124447585D01*
X96532415Y-124677549D01*
X96713097Y-124947958D01*
X96837553Y-125248421D01*
X96901000Y-125567391D01*
X96901000Y-125892609D01*
X96837553Y-126211579D01*
X96713097Y-126512042D01*
X96532415Y-126782451D01*
X96302451Y-127012415D01*
X96032042Y-127193097D01*
X95731579Y-127317553D01*
X95625256Y-127338702D01*
X95412611Y-127381000D01*
X95087389Y-127381000D01*
X94874744Y-127338702D01*
X94768421Y-127317553D01*
X94467958Y-127193097D01*
X94197549Y-127012415D01*
X93967585Y-126782451D01*
X93786903Y-126512042D01*
X93662447Y-126211579D01*
X93599000Y-125892609D01*
X93599000Y-125567391D01*
X93662447Y-125248421D01*
X93786903Y-124947958D01*
X93967585Y-124677549D01*
X94197549Y-124447585D01*
X94467958Y-124266903D01*
X94768421Y-124142447D01*
X94874744Y-124121298D01*
X95087389Y-124079000D01*
X95412611Y-124079000D01*
X95625256Y-124121298D01*
X95625256Y-124121298D01*
G37*
G36*
X29585256Y-124121298D02*
G01*
X29691579Y-124142447D01*
X29992042Y-124266903D01*
X30262451Y-124447585D01*
X30492415Y-124677549D01*
X30673097Y-124947958D01*
X30797553Y-125248421D01*
X30861000Y-125567391D01*
X30861000Y-125892609D01*
X30797553Y-126211579D01*
X30673097Y-126512042D01*
X30492415Y-126782451D01*
X30262451Y-127012415D01*
X29992042Y-127193097D01*
X29691579Y-127317553D01*
X29585256Y-127338702D01*
X29372611Y-127381000D01*
X29047389Y-127381000D01*
X28834744Y-127338702D01*
X28728421Y-127317553D01*
X28427958Y-127193097D01*
X28157549Y-127012415D01*
X27927585Y-126782451D01*
X27746903Y-126512042D01*
X27622447Y-126211579D01*
X27559000Y-125892609D01*
X27559000Y-125567391D01*
X27622447Y-125248421D01*
X27746903Y-124947958D01*
X27927585Y-124677549D01*
X28157549Y-124447585D01*
X28427958Y-124266903D01*
X28728421Y-124142447D01*
X28834744Y-124121298D01*
X29047389Y-124079000D01*
X29372611Y-124079000D01*
X29585256Y-124121298D01*
X29585256Y-124121298D01*
G37*
G36*
X81659393Y-124479304D02*
G01*
X81896101Y-124577352D01*
X81896103Y-124577353D01*
X82109135Y-124719696D01*
X82290304Y-124900865D01*
X82432647Y-125113897D01*
X82432648Y-125113899D01*
X82530696Y-125350607D01*
X82580680Y-125601893D01*
X82580680Y-125858107D01*
X82530696Y-126109393D01*
X82488369Y-126211578D01*
X82432647Y-126346103D01*
X82290304Y-126559135D01*
X82109135Y-126740304D01*
X81896103Y-126882647D01*
X81896102Y-126882648D01*
X81896101Y-126882648D01*
X81659393Y-126980696D01*
X81408107Y-127030680D01*
X81151893Y-127030680D01*
X80900607Y-126980696D01*
X80663899Y-126882648D01*
X80663898Y-126882648D01*
X80663897Y-126882647D01*
X80450865Y-126740304D01*
X80269696Y-126559135D01*
X80127353Y-126346103D01*
X80071631Y-126211578D01*
X80029304Y-126109393D01*
X79979320Y-125858107D01*
X79979320Y-125601893D01*
X80029304Y-125350607D01*
X80127352Y-125113899D01*
X80127353Y-125113897D01*
X80269696Y-124900865D01*
X80450865Y-124719696D01*
X80663897Y-124577353D01*
X80663899Y-124577352D01*
X80900607Y-124479304D01*
X81151893Y-124429320D01*
X81408107Y-124429320D01*
X81659393Y-124479304D01*
X81659393Y-124479304D01*
G37*
G36*
X66070680Y-127030680D02*
G01*
X63469320Y-127030680D01*
X63469320Y-124429320D01*
X66070680Y-124429320D01*
X66070680Y-127030680D01*
X66070680Y-127030680D01*
G37*
G36*
X68959393Y-124479304D02*
G01*
X69196101Y-124577352D01*
X69196103Y-124577353D01*
X69409135Y-124719696D01*
X69590304Y-124900865D01*
X69732647Y-125113897D01*
X69732648Y-125113899D01*
X69830696Y-125350607D01*
X69880680Y-125601893D01*
X69880680Y-125858107D01*
X69830696Y-126109393D01*
X69788369Y-126211578D01*
X69732647Y-126346103D01*
X69590304Y-126559135D01*
X69409135Y-126740304D01*
X69196103Y-126882647D01*
X69196102Y-126882648D01*
X69196101Y-126882648D01*
X68959393Y-126980696D01*
X68708107Y-127030680D01*
X68451893Y-127030680D01*
X68200607Y-126980696D01*
X67963899Y-126882648D01*
X67963898Y-126882648D01*
X67963897Y-126882647D01*
X67750865Y-126740304D01*
X67569696Y-126559135D01*
X67427353Y-126346103D01*
X67371631Y-126211578D01*
X67329304Y-126109393D01*
X67279320Y-125858107D01*
X67279320Y-125601893D01*
X67329304Y-125350607D01*
X67427352Y-125113899D01*
X67427353Y-125113897D01*
X67569696Y-124900865D01*
X67750865Y-124719696D01*
X67963897Y-124577353D01*
X67963899Y-124577352D01*
X68200607Y-124479304D01*
X68451893Y-124429320D01*
X68708107Y-124429320D01*
X68959393Y-124479304D01*
X68959393Y-124479304D01*
G37*
G36*
X53370680Y-127030680D02*
G01*
X50769320Y-127030680D01*
X50769320Y-124429320D01*
X53370680Y-124429320D01*
X53370680Y-127030680D01*
X53370680Y-127030680D01*
G37*
G36*
X56259393Y-124479304D02*
G01*
X56496101Y-124577352D01*
X56496103Y-124577353D01*
X56709135Y-124719696D01*
X56890304Y-124900865D01*
X57032647Y-125113897D01*
X57032648Y-125113899D01*
X57130696Y-125350607D01*
X57180680Y-125601893D01*
X57180680Y-125858107D01*
X57130696Y-126109393D01*
X57088369Y-126211578D01*
X57032647Y-126346103D01*
X56890304Y-126559135D01*
X56709135Y-126740304D01*
X56496103Y-126882647D01*
X56496102Y-126882648D01*
X56496101Y-126882648D01*
X56259393Y-126980696D01*
X56008107Y-127030680D01*
X55751893Y-127030680D01*
X55500607Y-126980696D01*
X55263899Y-126882648D01*
X55263898Y-126882648D01*
X55263897Y-126882647D01*
X55050865Y-126740304D01*
X54869696Y-126559135D01*
X54727353Y-126346103D01*
X54671631Y-126211578D01*
X54629304Y-126109393D01*
X54579320Y-125858107D01*
X54579320Y-125601893D01*
X54629304Y-125350607D01*
X54727352Y-125113899D01*
X54727353Y-125113897D01*
X54869696Y-124900865D01*
X55050865Y-124719696D01*
X55263897Y-124577353D01*
X55263899Y-124577352D01*
X55500607Y-124479304D01*
X55751893Y-124429320D01*
X56008107Y-124429320D01*
X56259393Y-124479304D01*
X56259393Y-124479304D01*
G37*
G36*
X42289393Y-124479304D02*
G01*
X42526101Y-124577352D01*
X42526103Y-124577353D01*
X42739135Y-124719696D01*
X42920304Y-124900865D01*
X43062647Y-125113897D01*
X43062648Y-125113899D01*
X43160696Y-125350607D01*
X43210680Y-125601893D01*
X43210680Y-125858107D01*
X43160696Y-126109393D01*
X43118369Y-126211578D01*
X43062647Y-126346103D01*
X42920304Y-126559135D01*
X42739135Y-126740304D01*
X42526103Y-126882647D01*
X42526102Y-126882648D01*
X42526101Y-126882648D01*
X42289393Y-126980696D01*
X42038107Y-127030680D01*
X41781893Y-127030680D01*
X41530607Y-126980696D01*
X41293899Y-126882648D01*
X41293898Y-126882648D01*
X41293897Y-126882647D01*
X41080865Y-126740304D01*
X40899696Y-126559135D01*
X40757353Y-126346103D01*
X40701631Y-126211578D01*
X40659304Y-126109393D01*
X40609320Y-125858107D01*
X40609320Y-125601893D01*
X40659304Y-125350607D01*
X40757352Y-125113899D01*
X40757353Y-125113897D01*
X40899696Y-124900865D01*
X41080865Y-124719696D01*
X41293897Y-124577353D01*
X41293899Y-124577352D01*
X41530607Y-124479304D01*
X41781893Y-124429320D01*
X42038107Y-124429320D01*
X42289393Y-124479304D01*
X42289393Y-124479304D01*
G37*
G36*
X39400680Y-127030680D02*
G01*
X36799320Y-127030680D01*
X36799320Y-124429320D01*
X39400680Y-124429320D01*
X39400680Y-127030680D01*
X39400680Y-127030680D01*
G37*
G36*
X78770680Y-127030680D02*
G01*
X76169320Y-127030680D01*
X76169320Y-124429320D01*
X78770680Y-124429320D01*
X78770680Y-127030680D01*
X78770680Y-127030680D01*
G37*
M02*
