G04 #@! TF.GenerationSoftware,KiCad,Pcbnew,(5.1.2)-1*
G04 #@! TF.CreationDate,2019-06-06T02:08:38-04:00*
G04 #@! TF.ProjectId,volt mod 2,766f6c74-206d-46f6-9420-322e6b696361,rev?*
G04 #@! TF.SameCoordinates,Original*
G04 #@! TF.FileFunction,Copper,L2,Bot*
G04 #@! TF.FilePolarity,Positive*
%FSLAX46Y46*%
G04 Gerber Fmt 4.6, Leading zero omitted, Abs format (unit mm)*
G04 Created by KiCad (PCBNEW (5.1.2)-1) date 2019-06-06 02:08:38*
%MOMM*%
%LPD*%
G04 APERTURE LIST*
%ADD10C,2.499360*%
%ADD11R,2.499360X2.499360*%
%ADD12C,1.440000*%
%ADD13C,1.550000*%
%ADD14R,1.550000X1.550000*%
%ADD15C,4.000000*%
%ADD16C,3.000000*%
%ADD17C,2.000000*%
G04 APERTURE END LIST*
D10*
X29210000Y-179070000D03*
X31750000Y-158750000D03*
X53340000Y-158750000D03*
X74930000Y-160020000D03*
X82550000Y-160020000D03*
D11*
X78740000Y-160020000D03*
D10*
X60960000Y-158750000D03*
D11*
X57150000Y-158750000D03*
D10*
X39370000Y-158750000D03*
D11*
X35560000Y-158750000D03*
D10*
X36830000Y-179070000D03*
D11*
X33020000Y-179070000D03*
D12*
X29210000Y-167640000D03*
X31750000Y-167640000D03*
X34290000Y-167640000D03*
X73660000Y-147320000D03*
X76200000Y-147320000D03*
X78740000Y-147320000D03*
X52070000Y-147320000D03*
X54610000Y-147320000D03*
X57150000Y-147320000D03*
X35560000Y-147320000D03*
X33020000Y-147320000D03*
X30480000Y-147320000D03*
D13*
X44370000Y-166370000D03*
D14*
X39370000Y-166370000D03*
D13*
X41870000Y-171370000D03*
X88820000Y-149860000D03*
D14*
X83820000Y-149860000D03*
D13*
X86320000Y-154860000D03*
X67230000Y-146050000D03*
D14*
X62230000Y-146050000D03*
D13*
X64730000Y-151050000D03*
D15*
X95250000Y-144780000D03*
D13*
X43140000Y-151050000D03*
D14*
X40640000Y-146050000D03*
D13*
X45640000Y-146050000D03*
D11*
X77470000Y-125730000D03*
D10*
X81280000Y-125730000D03*
D11*
X64770000Y-125730000D03*
D10*
X68580000Y-125730000D03*
D11*
X52070000Y-125730000D03*
D10*
X55880000Y-125730000D03*
X41910000Y-125730000D03*
D11*
X38100000Y-125730000D03*
D16*
X95250000Y-144780000D02*
X88900000Y-144780000D01*
X81280000Y-125730000D02*
X81280000Y-137160000D01*
X41910000Y-137160000D02*
X41910000Y-125730000D01*
X55880000Y-125730000D02*
X55880000Y-137160000D01*
X55880000Y-137160000D02*
X41910000Y-137160000D01*
X68580000Y-125730000D02*
X68580000Y-137160000D01*
X81280000Y-137160000D02*
X68580000Y-137160000D01*
X68580000Y-137160000D02*
X55880000Y-137160000D01*
X88900000Y-144780000D02*
X81280000Y-137160000D01*
D17*
X39370000Y-166370000D02*
X39370000Y-163595000D01*
X39370000Y-163595000D02*
X29445000Y-163595000D01*
X29210000Y-163830000D02*
X29210000Y-167640000D01*
X29445000Y-163595000D02*
X29210000Y-163830000D01*
X40640000Y-146050000D02*
X40640000Y-143510000D01*
X40640000Y-143510000D02*
X30480000Y-143510000D01*
X30480000Y-143510000D02*
X30480000Y-147320000D01*
X62230000Y-146050000D02*
X62230000Y-143510000D01*
X62230000Y-143510000D02*
X52070000Y-143510000D01*
X52070000Y-143510000D02*
X52070000Y-147320000D01*
X83820000Y-147085000D02*
X82785000Y-146050000D01*
X83820000Y-149860000D02*
X83820000Y-147085000D01*
X82785000Y-146050000D02*
X82550000Y-146050000D01*
X82550000Y-146050000D02*
X80010000Y-143510000D01*
X80010000Y-143510000D02*
X73660000Y-143510000D01*
X73660000Y-143510000D02*
X73660000Y-147320000D01*
X30480000Y-157480000D02*
X31750000Y-158750000D01*
X30480000Y-147320000D02*
X30480000Y-157480000D01*
X52070000Y-157480000D02*
X53340000Y-158750000D01*
X52070000Y-147320000D02*
X52070000Y-157480000D01*
X73660000Y-158750000D02*
X74930000Y-160020000D01*
X73660000Y-147320000D02*
X73660000Y-158750000D01*
X29210000Y-167640000D02*
X29210000Y-179070000D01*
X35560000Y-158750000D02*
X35560000Y-153670000D01*
X35560000Y-153670000D02*
X33020000Y-153670000D01*
X33020000Y-153670000D02*
X33020000Y-147320000D01*
X33020000Y-179070000D02*
X33020000Y-171450000D01*
X33020000Y-171450000D02*
X31750000Y-171450000D01*
X31750000Y-171450000D02*
X31750000Y-167640000D01*
X54610000Y-153670000D02*
X54610000Y-147320000D01*
X57150000Y-158750000D02*
X57150000Y-153670000D01*
X57150000Y-153670000D02*
X54610000Y-153670000D01*
X76200000Y-154940000D02*
X76200000Y-147320000D01*
X78740000Y-160020000D02*
X78740000Y-154940000D01*
X78740000Y-154940000D02*
X76200000Y-154940000D01*
X39370000Y-158750000D02*
X45720000Y-158750000D01*
X45640000Y-158670000D02*
X45640000Y-146050000D01*
X45720000Y-158750000D02*
X45640000Y-158670000D01*
X36830000Y-179070000D02*
X44450000Y-179070000D01*
X44370000Y-178990000D02*
X44370000Y-166370000D01*
X44450000Y-179070000D02*
X44370000Y-178990000D01*
X60960000Y-158750000D02*
X67310000Y-158750000D01*
X67230000Y-158670000D02*
X67230000Y-146050000D01*
X67310000Y-158750000D02*
X67230000Y-158670000D01*
X82550000Y-160020000D02*
X88900000Y-160020000D01*
X88820000Y-159940000D02*
X88820000Y-149860000D01*
X88900000Y-160020000D02*
X88820000Y-159940000D01*
M02*
